<svg width="141" height="64" viewBox="0 0 141 64" fill="none" xmlns="http://www.w3.org/2000/svg">
<path d="M131.618 7.73611V7.23909C131.518 7.23647 131.42 7.204 131.337 7.1458C131.255 7.08761 131.192 7.00629 131.156 6.91213C131.119 6.81797 131.112 6.71519 131.134 6.61679C131.156 6.51839 131.207 6.42879 131.28 6.35931C131.353 6.28983 131.446 6.24359 131.545 6.22645C131.644 6.2093 131.747 6.22202 131.839 6.26299C131.931 6.30395 132.009 6.37133 132.063 6.4566C132.117 6.54187 132.144 6.6412 132.142 6.74205C132.14 6.80904 132.125 6.87506 132.098 6.9363C132.071 6.99754 132.032 7.05282 131.983 7.09898C131.934 7.14514 131.877 7.18126 131.815 7.2053C131.752 7.22934 131.685 7.24083 131.618 7.23909V8.22007C131.913 8.21748 132.201 8.12749 132.445 7.96149C132.688 7.7955 132.877 7.56095 132.988 7.28751C133.098 7.01406 133.125 6.71401 133.065 6.42529C133.005 6.13656 132.861 5.87215 132.65 5.66546C132.44 5.45877 132.173 5.31908 131.883 5.26408C131.594 5.20908 131.294 5.24125 131.023 5.35649C130.751 5.47172 130.52 5.66485 130.358 5.91148C130.197 6.15811 130.112 6.44715 130.114 6.74205C130.116 6.93786 130.156 7.13142 130.233 7.31167C130.309 7.49193 130.421 7.65536 130.56 7.79261C130.7 7.92986 130.865 8.03824 131.047 8.11158C131.228 8.18493 131.423 8.2218 131.618 8.22007V7.73611ZM80.097 15.9372C86.2183 17.2452 91.071 19.2856 94.3671 21.967C95.899 23.0859 97.1508 24.5445 98.0245 26.2283C98.8982 27.9122 99.37 29.7755 99.4028 31.6722C99.4296 33.5955 99.0279 35.5006 98.2271 37.2493C97.4262 38.9981 96.2462 40.5468 94.7726 41.7829C91.6465 44.5166 86.9247 46.5832 80.3847 47.7473C80.3221 47.7585 80.2622 47.7819 80.2085 47.8162C80.1549 47.8505 80.1085 47.8951 80.072 47.9473C80.0356 47.9995 80.0098 48.0584 79.9962 48.1206C79.9825 48.1828 79.9812 48.2471 79.9923 48.3098C80.0035 48.3725 80.0269 48.4323 80.0612 48.486C80.0955 48.5396 80.1401 48.586 80.1923 48.6224C80.2445 48.6589 80.3034 48.6847 80.3656 48.6983C80.4278 48.712 80.4921 48.7133 80.5548 48.7022C87.1863 47.525 92.1435 45.4191 95.4527 42.5154C97.0323 41.1888 98.2976 39.5279 99.1572 37.6527C100.017 35.7775 100.449 33.7348 100.423 31.6722C100.387 29.6302 99.8813 27.624 98.9444 25.8093C98.0075 23.9945 96.665 22.4201 95.0211 21.2083C91.5549 18.3962 86.5584 16.3034 80.3455 14.9823C80.2175 14.9585 80.0853 14.9845 79.9758 15.0551C79.8664 15.1256 79.7881 15.2353 79.7569 15.3617C79.7348 15.4824 79.7571 15.6072 79.8195 15.7129C79.882 15.8186 79.9805 15.8982 80.097 15.9372ZM116.263 1.87635C124.882 9.99892 129.983 20.4366 129.983 31.7376C129.983 43.0386 124.935 53.3717 116.393 61.4812C116.303 61.574 116.253 61.6983 116.253 61.8278C116.253 61.9572 116.303 62.0816 116.393 62.1744C116.439 62.2207 116.493 62.2574 116.552 62.2825C116.612 62.3077 116.676 62.3206 116.74 62.3206C116.805 62.3206 116.869 62.3077 116.928 62.2825C116.988 62.2574 117.042 62.2207 117.087 62.1744C125.772 53.921 130.978 43.3264 130.978 31.7245C130.978 20.1227 125.746 9.42341 116.956 1.15695C116.91 1.11229 116.855 1.07722 116.795 1.05371C116.735 1.0302 116.671 1.0187 116.607 1.01992C116.542 1.02113 116.479 1.03502 116.42 1.06077C116.361 1.08653 116.307 1.12367 116.263 1.17004C116.218 1.21642 116.183 1.27113 116.16 1.33107C116.136 1.391 116.125 1.455 116.126 1.51937C116.127 1.58375 116.141 1.64723 116.167 1.70624C116.192 1.76525 116.229 1.81861 116.276 1.86327L116.263 1.87635ZM73.3478 38.853C78.2266 47.4203 83.4847 53.3586 90.4301 57.1648C97.3754 60.971 106.008 62.5145 117.571 62.5145C117.635 62.5145 117.699 62.5016 117.759 62.4764C117.819 62.4513 117.873 62.4145 117.918 62.3681C117.963 62.3218 117.998 62.2669 118.022 62.2066C118.045 62.1464 118.056 62.0821 118.055 62.0174C118.056 61.9534 118.045 61.8896 118.022 61.8301C117.998 61.7706 117.962 61.7165 117.917 61.6712C117.872 61.6259 117.818 61.5903 117.758 61.5666C117.698 61.543 117.635 61.5317 117.571 61.5335C106.087 61.5335 97.6501 59.9508 90.9009 56.3015C84.1517 52.6523 79.0244 46.8841 74.198 38.4083C74.1338 38.2956 74.0274 38.213 73.9023 38.1786C73.7772 38.1443 73.6437 38.161 73.5309 38.2252C73.4182 38.2894 73.3355 38.3957 73.3012 38.5208C73.2669 38.6459 73.2836 38.7795 73.3478 38.8923V38.853ZM117.571 62.4752H131.658C133.592 62.4989 135.48 61.8878 137.034 60.7356C137.688 60.2936 138.235 59.7091 138.631 59.0259C139.028 58.3426 139.265 57.5784 139.324 56.7905C139.383 56.0027 139.263 55.2116 138.973 54.4768C138.683 53.742 138.23 53.0824 137.648 52.5476C136.591 51.5955 135.679 50.4939 134.941 49.2777C134.439 48.1806 134.219 46.9758 134.3 45.7723V31.7507C134.281 31.6343 134.221 31.5286 134.131 31.4522C134.041 31.3759 133.927 31.334 133.809 31.334C133.691 31.334 133.577 31.3759 133.488 31.4522C133.398 31.5286 133.338 31.6343 133.319 31.7507V45.7592C133.241 47.1099 133.502 48.4586 134.077 49.6831C134.848 50.9985 135.819 52.1857 136.955 53.2016C137.808 54.0289 138.309 55.1533 138.355 56.3408C138.335 57.0465 138.151 57.738 137.817 58.3601C137.483 58.9823 137.009 59.518 136.432 59.9247C135.051 60.943 133.374 61.4806 131.658 61.455H117.532C117.467 61.4532 117.402 61.4645 117.342 61.488C117.282 61.5115 117.227 61.5469 117.181 61.592C117.134 61.6371 117.098 61.6911 117.072 61.7507C117.047 61.8103 117.034 61.8743 117.034 61.9389C117.029 62.0074 117.038 62.0763 117.06 62.1412C117.083 62.2061 117.119 62.2657 117.165 62.3161C117.212 62.3664 117.269 62.4066 117.332 62.434C117.395 62.4614 117.463 62.4754 117.532 62.4752H117.571ZM117.571 1C104.569 1 95.335 3.00121 87.9187 7.84075C80.5025 12.6803 75.1397 20.3451 69.7508 31.5022C69.7111 31.5616 69.6846 31.629 69.6733 31.6996C69.6619 31.7702 69.666 31.8425 69.6851 31.9114C69.7043 31.9803 69.738 32.0443 69.7842 32.0989C69.8303 32.1536 69.8877 32.1977 69.9524 32.2281C70.0171 32.2586 70.0877 32.2747 70.1592 32.2754C70.2307 32.2761 70.3015 32.2614 70.3668 32.2322C70.4321 32.203 70.4904 32.1601 70.5375 32.1063C70.5847 32.0526 70.6198 31.9893 70.6403 31.9207C75.9899 20.829 81.3134 13.3604 88.4681 8.66478C95.6227 3.96912 104.661 1.98099 117.571 1.98099C117.635 1.98101 117.699 1.96808 117.759 1.94295C117.819 1.91781 117.873 1.88099 117.918 1.83465C117.963 1.78832 117.998 1.73341 118.022 1.67317C118.045 1.61294 118.056 1.54859 118.055 1.48395C118.051 1.41968 118.035 1.35675 118.007 1.29903C117.978 1.24131 117.938 1.19002 117.889 1.14835C117.84 1.10668 117.783 1.07551 117.722 1.05674C117.66 1.03797 117.595 1.03201 117.532 1.03924L117.571 1ZM134.3 31.7114V17.7291C134.219 16.5256 134.439 15.3208 134.941 14.2237C135.681 13.0049 136.597 11.9029 137.661 10.9538C138.242 10.418 138.694 9.75771 138.983 9.02232C139.273 8.28692 139.391 7.49557 139.331 6.70768C139.271 5.91978 139.032 5.1558 138.635 4.47309C138.237 3.79038 137.689 3.20667 137.034 2.76579C135.482 1.61207 133.591 1.00493 131.658 1.03924H117.532C117.467 1.03749 117.402 1.04871 117.342 1.07225C117.282 1.09579 117.227 1.13116 117.181 1.17627C117.134 1.22139 117.098 1.27533 117.072 1.33492C117.047 1.3945 117.034 1.45852 117.034 1.52319C117.034 1.65501 117.087 1.78144 117.18 1.87465C117.273 1.96786 117.4 2.02023 117.532 2.02023H131.618C133.335 1.98878 135.014 2.52692 136.393 3.55056C136.969 3.95518 137.443 4.48866 137.776 5.10854C138.11 5.72843 138.295 6.41764 138.315 7.12137C138.273 8.3095 137.771 9.43482 136.916 10.2605C135.782 11.2793 134.812 12.4659 134.038 13.779C133.465 15.0041 133.204 16.3523 133.28 17.703V31.7245C133.268 31.7957 133.272 31.8684 133.291 31.9379C133.31 32.0073 133.345 32.0718 133.391 32.1267C133.438 32.1816 133.496 32.2257 133.561 32.256C133.627 32.2863 133.698 32.3019 133.77 32.3019C133.842 32.3019 133.913 32.2863 133.979 32.256C134.044 32.2257 134.102 32.1816 134.149 32.1267C134.196 32.0718 134.23 32.0073 134.249 31.9379C134.268 31.8684 134.272 31.7957 134.261 31.7245L134.3 31.7114ZM8.73342 5.69566V6.1927C8.83303 6.19781 8.92894 6.23202 9.00932 6.29109C9.08969 6.35016 9.151 6.4315 9.18563 6.52504C9.22026 6.61858 9.22669 6.72024 9.20415 6.81741C9.18161 6.91458 9.13109 7.00299 9.05881 7.07174C8.98654 7.14048 8.89569 7.18654 8.79752 7.2042C8.69935 7.22185 8.59815 7.21033 8.50645 7.17107C8.41475 7.13181 8.33658 7.06653 8.2816 6.9833C8.22662 6.90007 8.19727 6.80256 8.19714 6.70281C8.19883 6.6341 8.21405 6.56639 8.24192 6.50357C8.2698 6.44074 8.30976 6.38401 8.35956 6.33663C8.40936 6.28926 8.46801 6.25216 8.53216 6.22746C8.5963 6.20276 8.6647 6.19096 8.73342 6.1927V5.21171C8.43907 5.21429 8.15206 5.30392 7.90858 5.46933C7.6651 5.63474 7.47601 5.86852 7.36516 6.1412C7.2543 6.41388 7.22664 6.71326 7.28564 7.00164C7.34465 7.29002 7.4877 7.55449 7.69674 7.76171C7.90579 7.96894 8.17146 8.10966 8.46035 8.16615C8.74923 8.22263 9.04837 8.19234 9.32007 8.07911C9.59177 7.96588 9.82388 7.77476 9.98715 7.52984C10.1504 7.28492 10.2376 6.99716 10.2376 6.70281C10.2376 6.50589 10.1986 6.31091 10.1228 6.12915C10.0471 5.94738 9.93608 5.78242 9.79623 5.64378C9.65638 5.50515 9.49047 5.3956 9.30805 5.32144C9.12563 5.24728 8.93033 5.20998 8.73342 5.21171V5.69566ZM60.2418 47.5511C54.1335 46.2431 49.2809 44.1896 45.9848 41.5213C44.4507 40.4045 43.1972 38.9464 42.3233 37.2621C41.4493 35.5778 40.9789 33.7134 40.9491 31.8161C40.9167 29.892 41.3159 27.9851 42.1171 26.2354C42.9184 24.4858 44.1014 22.9379 45.5793 21.7054C48.6923 18.9586 53.4272 16.9051 59.9671 15.741C60.0949 15.7156 60.2076 15.6411 60.281 15.5335C60.3544 15.4258 60.3826 15.2937 60.3595 15.1655C60.3485 15.1027 60.3251 15.0427 60.2909 14.989C60.2566 14.9353 60.212 14.8889 60.1598 14.8525C60.1075 14.816 60.0486 14.7902 59.9863 14.7766C59.9241 14.763 59.8598 14.7618 59.7971 14.7731C53.1525 15.9502 48.2083 18.0561 44.8861 20.9598C43.3057 22.2879 42.0409 23.9512 41.1834 25.829C40.3259 27.7068 39.8974 29.752 39.9288 31.8161C39.9597 33.859 40.4635 35.867 41.4007 37.6825C42.338 39.498 43.6832 41.0717 45.3308 42.28C48.7969 45.0921 53.7803 47.1849 60.0063 48.506C60.1327 48.5294 60.2632 48.503 60.3705 48.4323C60.4778 48.3615 60.5536 48.252 60.5819 48.1266C60.5971 48.0638 60.5993 47.9985 60.5882 47.9348C60.5771 47.8711 60.5531 47.8103 60.5175 47.7563C60.4819 47.7023 60.4355 47.6562 60.3814 47.6209C60.3272 47.5856 60.2663 47.5619 60.2026 47.5511H60.2418ZM24.0368 61.625C15.4303 53.5025 10.3161 43.0648 10.3161 31.7638C10.3161 20.4628 15.378 10.1297 23.906 2.02023C23.9963 1.92743 24.0468 1.80308 24.0468 1.67361C24.0468 1.54414 23.9963 1.41979 23.906 1.327C23.8609 1.28072 23.807 1.24395 23.7475 1.21884C23.688 1.19373 23.624 1.18078 23.5594 1.18078C23.4948 1.18078 23.4308 1.19373 23.3713 1.21884C23.3118 1.24395 23.2579 1.28072 23.2128 1.327C14.5147 9.58037 9.30893 20.175 9.30893 31.7768C9.30893 43.3787 14.5408 54.0126 23.3436 62.3444C23.3887 62.3907 23.4426 62.4275 23.5021 62.4526C23.5616 62.4777 23.6256 62.4906 23.6902 62.4906C23.7548 62.4906 23.8188 62.4777 23.8783 62.4526C23.9378 62.4275 23.9917 62.3907 24.0368 62.3444C24.0855 62.298 24.1242 62.2422 24.1507 62.1804C24.1772 62.1185 24.1908 62.052 24.1908 61.9847C24.1908 61.9175 24.1772 61.8509 24.1507 61.7891C24.1242 61.7273 24.0855 61.6715 24.0368 61.625ZM67.0041 24.6614C62.1253 16.081 56.8672 10.1428 49.9087 6.34965C42.9502 2.5565 34.3437 1.01307 22.7811 1.01307C22.7165 1.01132 22.6522 1.02257 22.5919 1.0461C22.5317 1.06964 22.4768 1.10501 22.4304 1.15013C22.3841 1.19524 22.3473 1.24917 22.3221 1.30875C22.297 1.36834 22.2841 1.43237 22.2841 1.49704C22.2841 1.62886 22.3365 1.75527 22.4297 1.84848C22.5229 1.9417 22.6493 1.99406 22.7811 1.99406C34.2522 1.99406 42.6887 3.56364 49.4379 7.22599C56.187 10.8883 61.3143 16.6435 66.1539 25.1323C66.1857 25.1881 66.2281 25.2371 66.2789 25.2765C66.3296 25.316 66.3876 25.345 66.4495 25.362C66.5114 25.379 66.5761 25.3837 66.6399 25.3757C66.7036 25.3677 66.7651 25.3472 66.821 25.3154C66.8768 25.2836 66.9258 25.2412 66.9652 25.1904C67.0046 25.1397 67.0337 25.0817 67.0507 25.0198C67.0677 24.9579 67.0723 24.8932 67.0643 24.8294C67.0563 24.7657 67.0358 24.7042 67.0041 24.6483V24.6614ZM22.7811 1.03924H8.69418C6.75667 1.00499 4.86216 1.61198 3.30529 2.76579C2.65039 3.20774 2.10407 3.79227 1.70736 4.47553C1.31064 5.15878 1.07384 5.92301 1.01468 6.71087C0.955532 7.49873 1.07559 8.28974 1.36583 9.02457C1.65607 9.7594 2.10897 10.419 2.69054 10.9538C3.75541 11.8984 4.66857 13.0013 5.39803 14.2237C5.90554 15.3189 6.12612 16.5252 6.03897 17.7291V31.7507C6.03897 31.8825 6.09134 32.0089 6.18455 32.1021C6.27776 32.1954 6.40419 32.2477 6.53601 32.2477C6.60068 32.2477 6.66467 32.2348 6.72426 32.2097C6.78384 32.1845 6.83781 32.1477 6.88293 32.1014C6.92804 32.0551 6.96341 32.0001 6.98695 31.9399C7.01049 31.8797 7.02171 31.8153 7.01996 31.7507V17.7291C7.09971 16.3796 6.84354 15.0314 6.2744 13.8052C5.49532 12.4922 4.52058 11.3057 3.38377 10.2867C2.90633 9.84809 2.53485 9.30669 2.2974 8.70342C2.05995 8.10015 1.96276 7.45079 2.01316 6.80444C2.06355 6.15808 2.26023 5.53164 2.58831 4.97247C2.9164 4.4133 3.3673 3.93602 3.90695 3.57673C5.29179 2.55563 6.97382 2.01793 8.69418 2.04639H22.7811C22.9107 2.04298 23.0338 1.98911 23.1242 1.89626C23.2146 1.80342 23.2651 1.67894 23.2651 1.54935C23.2686 1.48363 23.2588 1.41788 23.2361 1.35611C23.2133 1.29435 23.1782 1.23785 23.1329 1.1901C23.0876 1.14235 23.0331 1.10436 22.9726 1.07842C22.9121 1.05248 22.847 1.03914 22.7811 1.03924ZM22.7811 62.5145C35.7694 62.5145 45.0169 60.5133 52.4201 55.6606C59.8232 50.808 65.2121 43.1694 70.601 31.9992C70.6408 31.9397 70.6672 31.8724 70.6786 31.8018C70.6899 31.7312 70.6859 31.6589 70.6667 31.59C70.6476 31.5211 70.6138 31.4571 70.5677 31.4025C70.5216 31.3478 70.4642 31.3037 70.3994 31.2733C70.3347 31.2428 70.2642 31.2267 70.1927 31.226C70.1211 31.2253 70.0503 31.24 69.985 31.2692C69.9197 31.2984 69.8615 31.3413 69.8143 31.3951C69.7671 31.4488 69.7321 31.5121 69.7116 31.5807C64.3619 42.6724 59.0384 50.1409 51.8838 54.8366C44.7291 59.5323 35.6909 61.455 22.7811 61.455C22.7165 61.4532 22.6522 61.4645 22.5919 61.488C22.5317 61.5115 22.4768 61.5469 22.4304 61.592C22.3841 61.6371 22.3473 61.6911 22.3221 61.7507C22.297 61.8103 22.2841 61.8743 22.2841 61.9389C22.2787 62.0074 22.2875 62.0763 22.31 62.1412C22.3326 62.2061 22.3684 62.2657 22.4151 62.3161C22.4618 62.3664 22.5184 62.4066 22.5814 62.434C22.6445 62.4614 22.7124 62.4754 22.7811 62.4752V62.5145ZM6.03897 31.7899V45.7592C6.12612 46.9631 5.90554 48.1694 5.39803 49.2646C4.66857 50.487 3.75541 51.5899 2.69054 52.5345C2.10897 53.0693 1.65607 53.7289 1.36583 54.4637C1.07559 55.1986 0.955532 55.9896 1.01468 56.7774C1.07384 57.5653 1.31064 58.3295 1.70736 59.0128C2.10407 59.696 2.65039 60.2806 3.30529 60.7225C4.86365 61.8749 6.75618 62.4858 8.69418 62.4621H22.7811C22.9107 62.4587 23.0338 62.4049 23.1242 62.312C23.2146 62.2192 23.2651 62.0947 23.2651 61.9651C23.2651 61.8368 23.2141 61.7137 23.1233 61.6229C23.0326 61.5321 22.9095 61.4812 22.7811 61.4812H8.69418C6.97382 61.5096 5.29179 60.9719 3.90695 59.9508C3.36708 59.5901 2.91612 59.1116 2.58803 58.5513C2.25995 57.9911 2.06329 57.3636 2.01292 56.7163C1.96254 56.069 2.05975 55.4187 2.2972 54.8144C2.53466 54.2101 2.90619 53.6676 3.38377 53.2278C4.52359 52.2116 5.49874 51.0247 6.2744 49.7093C6.84459 48.4834 7.10081 47.1349 7.01996 45.7854V31.7507C7.02177 31.6866 7.01047 31.6229 6.98679 31.5634C6.96311 31.5038 6.92751 31.4498 6.88221 31.4045C6.8369 31.3592 6.78283 31.3236 6.7233 31.2999C6.66377 31.2762 6.60006 31.2649 6.53601 31.2667C6.47137 31.265 6.407 31.2762 6.34677 31.2997C6.28653 31.3233 6.23164 31.3587 6.18531 31.4038C6.13897 31.4489 6.10215 31.5028 6.07701 31.5624C6.05188 31.622 6.03895 31.686 6.03897 31.7507V31.7899Z" fill="#4570B6"/>
<path d="M131.618 7.23909V7.73611V8.22007M131.618 7.23909C131.518 7.23647 131.42 7.204 131.337 7.1458C131.255 7.08761 131.192 7.00629 131.156 6.91213C131.119 6.81797 131.112 6.71519 131.134 6.61679C131.156 6.51839 131.207 6.42879 131.28 6.35931C131.353 6.28983 131.446 6.24359 131.545 6.22645C131.644 6.2093 131.747 6.22202 131.839 6.26299C131.931 6.30395 132.009 6.37133 132.063 6.4566C132.117 6.54188 132.144 6.6412 132.142 6.74205C132.14 6.80904 132.125 6.87506 132.098 6.9363C132.071 6.99754 132.032 7.05282 131.983 7.09898C131.934 7.14514 131.877 7.18126 131.815 7.2053C131.752 7.22934 131.685 7.24083 131.618 7.23909ZM131.618 7.23909V8.22007M131.618 8.22007C131.913 8.21748 132.201 8.12749 132.445 7.96149C132.688 7.7955 132.877 7.56095 132.988 7.28751C133.098 7.01406 133.125 6.71401 133.065 6.42529C133.005 6.13656 132.861 5.87215 132.65 5.66546C132.44 5.45877 132.173 5.31908 131.883 5.26408C131.594 5.20908 131.294 5.24125 131.023 5.35649C130.751 5.47172 130.52 5.66485 130.358 5.91148C130.197 6.15811 130.112 6.44715 130.114 6.74205C130.116 6.93786 130.156 7.13142 130.233 7.31167C130.309 7.49193 130.421 7.65536 130.56 7.79261C130.7 7.92986 130.865 8.03824 131.047 8.11158C131.228 8.18493 131.423 8.2218 131.618 8.22007ZM117.532 1.03924C117.595 1.03201 117.66 1.03797 117.722 1.05674C117.783 1.07551 117.84 1.10668 117.889 1.14835C117.938 1.19002 117.978 1.24131 118.007 1.29903C118.035 1.35675 118.051 1.41968 118.055 1.48395C118.056 1.54859 118.045 1.61294 118.022 1.67317C117.998 1.73341 117.963 1.78832 117.918 1.83465C117.873 1.88099 117.819 1.91781 117.759 1.94295C117.699 1.96808 117.635 1.98101 117.571 1.98099C104.661 1.98099 95.6227 3.96912 88.4681 8.66478C81.3134 13.3604 75.9899 20.829 70.6403 31.9207C70.6198 31.9893 70.5847 32.0526 70.5375 32.1063C70.4904 32.1601 70.4321 32.203 70.3668 32.2322C70.3015 32.2614 70.2307 32.2761 70.1592 32.2754C70.0877 32.2747 70.0171 32.2586 69.9524 32.2281C69.8877 32.1977 69.8303 32.1536 69.7842 32.0989C69.738 32.0443 69.7043 31.9803 69.6851 31.9114C69.666 31.8425 69.6619 31.7702 69.6733 31.6996C69.6846 31.629 69.7111 31.5616 69.7508 31.5022C75.1397 20.3451 80.5025 12.6803 87.9187 7.84075C95.335 3.00121 104.569 1 117.571 1L117.532 1.03924ZM117.532 1.03924H131.658C133.591 1.00493 135.482 1.61207 137.034 2.76579C137.689 3.20667 138.237 3.79038 138.635 4.47309C139.032 5.1558 139.271 5.91978 139.331 6.70768C139.391 7.49557 139.273 8.28692 138.983 9.02232C138.694 9.75771 138.242 10.418 137.661 10.9538C136.597 11.9029 135.681 13.0049 134.941 14.2237C134.439 15.3208 134.219 16.5256 134.3 17.7291V31.7114L134.261 31.7245C134.272 31.7957 134.268 31.8684 134.249 31.9379C134.23 32.0073 134.196 32.0718 134.149 32.1267C134.102 32.1816 134.044 32.2257 133.979 32.256C133.913 32.2863 133.842 32.3019 133.77 32.3019C133.698 32.3019 133.627 32.2863 133.561 32.256C133.496 32.2257 133.438 32.1816 133.391 32.1267C133.345 32.0718 133.31 32.0073 133.291 31.9379C133.272 31.8684 133.268 31.7957 133.28 31.7245V17.703C133.204 16.3523 133.465 15.0041 134.038 13.779C134.812 12.4659 135.782 11.2793 136.916 10.2605C137.771 9.43482 138.273 8.3095 138.315 7.12137C138.295 6.41764 138.11 5.72843 137.776 5.10854C137.443 4.48866 136.969 3.95518 136.393 3.55056C135.014 2.52692 133.335 1.98878 131.618 2.02023H117.532C117.4 2.02023 117.273 1.96786 117.18 1.87465C117.087 1.78144 117.034 1.65501 117.034 1.52319C117.034 1.45852 117.047 1.3945 117.072 1.33492C117.098 1.27533 117.134 1.22139 117.181 1.17627C117.227 1.13116 117.282 1.09579 117.342 1.07225C117.402 1.04871 117.467 1.03749 117.532 1.03924ZM8.73341 6.1927V5.69566V5.21171M8.73341 6.1927C8.83303 6.19781 8.92894 6.23202 9.00932 6.29109C9.08969 6.35016 9.151 6.4315 9.18563 6.52504C9.22026 6.61858 9.22669 6.72024 9.20415 6.81741C9.18161 6.91458 9.13109 7.00299 9.05881 7.07174C8.98654 7.14048 8.89569 7.18654 8.79752 7.2042C8.69935 7.22185 8.59815 7.21033 8.50645 7.17107C8.41475 7.13181 8.33658 7.06653 8.2816 6.9833C8.22662 6.90007 8.19727 6.80256 8.19714 6.70281C8.19883 6.6341 8.21405 6.56639 8.24192 6.50357C8.2698 6.44074 8.30976 6.38401 8.35956 6.33663C8.40936 6.28926 8.46801 6.25216 8.53216 6.22746C8.5963 6.20276 8.6647 6.19096 8.73341 6.1927ZM8.73341 6.1927V5.21171M8.73341 5.21171C8.43907 5.21429 8.15206 5.30392 7.90858 5.46933C7.6651 5.63474 7.47601 5.86852 7.36516 6.1412C7.2543 6.41388 7.22664 6.71326 7.28564 7.00164C7.34465 7.29002 7.4877 7.55449 7.69674 7.76171C7.90579 7.96894 8.17146 8.10966 8.46035 8.16615C8.74923 8.22263 9.04837 8.19234 9.32007 8.07911C9.59177 7.96588 9.82388 7.77476 9.98715 7.52984C10.1504 7.28492 10.2376 6.99716 10.2376 6.70281C10.2376 6.50589 10.1986 6.31092 10.1228 6.12915C10.0471 5.94738 9.93608 5.78242 9.79623 5.64378C9.65638 5.50515 9.49047 5.3956 9.30805 5.32144C9.12563 5.24728 8.93033 5.20998 8.73341 5.21171ZM6.03897 31.7507V17.7291C6.12612 16.5252 5.90554 15.3189 5.39803 14.2237C4.66857 13.0013 3.75541 11.8984 2.69054 10.9538C2.10897 10.419 1.65607 9.7594 1.36583 9.02457C1.07559 8.28974 0.955532 7.49873 1.01468 6.71087C1.07384 5.92301 1.31064 5.15878 1.70736 4.47553C2.10407 3.79227 2.65039 3.20774 3.30529 2.76579C4.86216 1.61198 6.75667 1.00499 8.69418 1.03924H22.7811C22.847 1.03914 22.9121 1.05248 22.9726 1.07842C23.0331 1.10436 23.0876 1.14235 23.1329 1.1901C23.1782 1.23785 23.2133 1.29435 23.2361 1.35611C23.2588 1.41788 23.2686 1.48363 23.2651 1.54935C23.2651 1.67894 23.2146 1.80342 23.1242 1.89626C23.0338 1.98911 22.9107 2.04298 22.7811 2.04639H8.69418C6.97383 2.01793 5.29179 2.55563 3.90695 3.57673C3.3673 3.93602 2.9164 4.4133 2.58831 4.97247C2.26023 5.53164 2.06355 6.15808 2.01316 6.80444C1.96276 7.45079 2.05995 8.10015 2.2974 8.70342C2.53485 9.30669 2.90633 9.84809 3.38377 10.2867C4.52058 11.3057 5.49532 12.4922 6.2744 13.8052C6.84354 15.0314 7.09971 16.3796 7.01996 17.7291V31.7507M6.03897 31.7507C6.03897 31.8825 6.09134 32.0089 6.18455 32.1021C6.27776 32.1954 6.40419 32.2477 6.53601 32.2477C6.60068 32.2477 6.66467 32.2348 6.72426 32.2097C6.78384 32.1845 6.83781 32.1477 6.88293 32.1014C6.92804 32.0551 6.96341 32.0001 6.98695 31.9399C7.01049 31.8797 7.02171 31.8153 7.01996 31.7507M6.03897 31.7507C6.03895 31.686 6.05188 31.622 6.07701 31.5624C6.10215 31.5028 6.13897 31.4489 6.18531 31.4038C6.23164 31.3587 6.28653 31.3233 6.34677 31.2997C6.407 31.2762 6.47137 31.265 6.53601 31.2667C6.60006 31.2649 6.66377 31.2762 6.7233 31.2999C6.78283 31.3236 6.8369 31.3592 6.88221 31.4045C6.92751 31.4498 6.96311 31.5038 6.98679 31.5634C7.01047 31.6229 7.02177 31.6866 7.01996 31.7507M6.03897 31.7507V31.7899V45.7592C6.12612 46.9631 5.90554 48.1694 5.39803 49.2646C4.66857 50.487 3.75541 51.5899 2.69054 52.5345C2.10897 53.0693 1.65607 53.7289 1.36583 54.4637C1.07559 55.1986 0.955532 55.9896 1.01468 56.7774C1.07384 57.5653 1.31064 58.3295 1.70736 59.0128C2.10407 59.696 2.65039 60.2806 3.30529 60.7225C4.86365 61.8749 6.75618 62.4858 8.69418 62.4621H22.7811C22.9107 62.4587 23.0338 62.4049 23.1242 62.312C23.2146 62.2192 23.2651 62.0947 23.2651 61.9651C23.2651 61.8368 23.2141 61.7137 23.1233 61.6229C23.0326 61.5321 22.9095 61.4812 22.7811 61.4812H8.69418C6.97383 61.5096 5.29179 60.9719 3.90695 59.9508C3.36708 59.5901 2.91612 59.1116 2.58803 58.5513C2.25995 57.9911 2.06329 57.3636 2.01292 56.7163C1.96254 56.069 2.05975 55.4187 2.2972 54.8144C2.53466 54.2101 2.90619 53.6676 3.38377 53.2278C4.52359 52.2116 5.49874 51.0247 6.2744 49.7093C6.84459 48.4834 7.10081 47.1349 7.01996 45.7854V31.7507M80.097 15.9372C86.2183 17.2452 91.071 19.2856 94.3671 21.967C95.899 23.0859 97.1508 24.5445 98.0245 26.2283C98.8982 27.9122 99.37 29.7755 99.4028 31.6722C99.4296 33.5955 99.0279 35.5006 98.2271 37.2493C97.4262 38.9981 96.2462 40.5468 94.7726 41.7829C91.6465 44.5166 86.9247 46.5832 80.3847 47.7473C80.322 47.7585 80.2622 47.7819 80.2085 47.8162C80.1549 47.8505 80.1085 47.895 80.072 47.9473C80.0356 47.9995 80.0098 48.0584 79.9962 48.1206C79.9825 48.1828 79.9812 48.2471 79.9923 48.3098C80.0035 48.3725 80.0269 48.4323 80.0612 48.486C80.0955 48.5396 80.1401 48.586 80.1923 48.6224C80.2445 48.6589 80.3034 48.6847 80.3656 48.6983C80.4278 48.712 80.4921 48.7133 80.5548 48.7022C87.1863 47.525 92.1435 45.4191 95.4527 42.5154C97.0323 41.1888 98.2976 39.5279 99.1572 37.6527C100.017 35.7775 100.449 33.7348 100.423 31.6722C100.387 29.6302 99.8813 27.624 98.9444 25.8093C98.0075 23.9945 96.665 22.4201 95.0211 21.2083C91.5549 18.3962 86.5584 16.3034 80.3455 14.9823C80.2175 14.9585 80.0853 14.9845 79.9758 15.0551C79.8664 15.1256 79.7881 15.2353 79.7569 15.3617C79.7348 15.4824 79.7571 15.6072 79.8195 15.7129C79.882 15.8186 79.9805 15.8982 80.097 15.9372ZM116.263 1.87635C124.882 9.99892 129.983 20.4366 129.983 31.7376C129.983 43.0386 124.935 53.3717 116.393 61.4812C116.303 61.574 116.253 61.6983 116.253 61.8278C116.253 61.9572 116.303 62.0816 116.393 62.1744C116.439 62.2207 116.493 62.2574 116.552 62.2825C116.612 62.3077 116.676 62.3206 116.74 62.3206C116.805 62.3206 116.869 62.3077 116.928 62.2825C116.988 62.2574 117.042 62.2207 117.087 62.1744C125.772 53.921 130.978 43.3263 130.978 31.7245C130.978 20.1227 125.746 9.42341 116.956 1.15695C116.91 1.11229 116.855 1.07722 116.795 1.05371C116.735 1.0302 116.671 1.0187 116.607 1.01992C116.542 1.02113 116.479 1.03502 116.42 1.06077C116.361 1.08653 116.307 1.12367 116.263 1.17004C116.218 1.21642 116.183 1.27113 116.159 1.33107C116.136 1.391 116.125 1.455 116.126 1.51937C116.127 1.58375 116.141 1.64723 116.167 1.70624C116.192 1.76525 116.229 1.81861 116.276 1.86327L116.263 1.87635ZM73.3478 38.853C78.2266 47.4203 83.4847 53.3586 90.4301 57.1648C97.3754 60.971 106.008 62.5145 117.571 62.5145C117.635 62.5145 117.699 62.5016 117.759 62.4764C117.819 62.4513 117.873 62.4145 117.918 62.3681C117.963 62.3218 117.998 62.2669 118.022 62.2066C118.045 62.1464 118.056 62.0821 118.055 62.0174C118.056 61.9534 118.045 61.8896 118.022 61.8301C117.998 61.7706 117.962 61.7165 117.917 61.6712C117.872 61.6259 117.818 61.5903 117.758 61.5666C117.698 61.543 117.635 61.5317 117.571 61.5335C106.087 61.5335 97.6501 59.9508 90.9009 56.3015C84.1518 52.6523 79.0244 46.8841 74.198 38.4083C74.1338 38.2956 74.0274 38.213 73.9023 38.1786C73.7772 38.1443 73.6437 38.161 73.5309 38.2252C73.4182 38.2894 73.3355 38.3957 73.3012 38.5208C73.2669 38.6459 73.2836 38.7795 73.3478 38.8923V38.853ZM117.571 62.4752H131.658C133.592 62.4989 135.48 61.8878 137.034 60.7356C137.688 60.2936 138.235 59.7091 138.631 59.0259C139.028 58.3426 139.265 57.5784 139.324 56.7905C139.383 56.0027 139.263 55.2116 138.973 54.4768C138.683 53.742 138.23 53.0824 137.648 52.5476C136.591 51.5955 135.679 50.4939 134.941 49.2777C134.439 48.1806 134.219 46.9758 134.3 45.7723V31.7507C134.281 31.6343 134.221 31.5286 134.131 31.4522C134.041 31.3759 133.927 31.334 133.809 31.334C133.691 31.334 133.577 31.3759 133.488 31.4522C133.398 31.5286 133.338 31.6343 133.319 31.7507V45.7592C133.241 47.1099 133.502 48.4586 134.077 49.6831C134.848 50.9985 135.819 52.1857 136.955 53.2016C137.808 54.0289 138.309 55.1533 138.355 56.3408C138.335 57.0465 138.151 57.738 137.817 58.3601C137.483 58.9823 137.009 59.518 136.432 59.9247C135.051 60.943 133.374 61.4806 131.658 61.455H117.532C117.467 61.4532 117.402 61.4645 117.342 61.488C117.282 61.5115 117.227 61.5469 117.181 61.592C117.134 61.6371 117.098 61.6911 117.072 61.7507C117.047 61.8103 117.034 61.8743 117.034 61.9389C117.029 62.0074 117.038 62.0763 117.06 62.1412C117.083 62.2061 117.119 62.2657 117.165 62.3161C117.212 62.3664 117.269 62.4066 117.332 62.434C117.395 62.4614 117.463 62.4754 117.532 62.4752H117.571ZM60.2418 47.5511C54.1335 46.2431 49.2809 44.1896 45.9848 41.5213C44.4507 40.4045 43.1972 38.9464 42.3233 37.2621C41.4493 35.5778 40.9789 33.7134 40.9491 31.8161C40.9167 29.892 41.3159 27.9851 42.1171 26.2354C42.9184 24.4858 44.1014 22.9379 45.5793 21.7054C48.6923 18.9586 53.4272 16.9051 59.9671 15.741C60.0949 15.7156 60.2076 15.6411 60.281 15.5335C60.3544 15.4258 60.3826 15.2937 60.3595 15.1655C60.3485 15.1027 60.3251 15.0427 60.2909 14.989C60.2566 14.9353 60.212 14.8889 60.1598 14.8525C60.1075 14.816 60.0486 14.7902 59.9863 14.7766C59.9241 14.763 59.8598 14.7618 59.7971 14.7731C53.1525 15.9502 48.2083 18.0561 44.8861 20.9598C43.3057 22.2879 42.0409 23.9512 41.1834 25.829C40.3259 27.7068 39.8974 29.752 39.9288 31.8161C39.9597 33.859 40.4635 35.867 41.4007 37.6825C42.338 39.498 43.6832 41.0717 45.3308 42.28C48.7969 45.0921 53.7803 47.1849 60.0063 48.506C60.1327 48.5294 60.2632 48.503 60.3705 48.4323C60.4778 48.3615 60.5536 48.252 60.5819 48.1266C60.5971 48.0638 60.5993 47.9985 60.5882 47.9348C60.5771 47.8711 60.5531 47.8103 60.5175 47.7563C60.4819 47.7023 60.4355 47.6562 60.3814 47.6209C60.3272 47.5856 60.2663 47.5619 60.2026 47.5511H60.2418ZM24.0368 61.625C15.4303 53.5025 10.3161 43.0648 10.3161 31.7638C10.3161 20.4628 15.378 10.1297 23.906 2.02023C23.9963 1.92743 24.0468 1.80308 24.0468 1.67361C24.0468 1.54414 23.9963 1.41979 23.906 1.327C23.8609 1.28072 23.807 1.24395 23.7475 1.21884C23.688 1.19373 23.624 1.18078 23.5594 1.18078C23.4948 1.18078 23.4308 1.19373 23.3713 1.21884C23.3118 1.24395 23.2579 1.28072 23.2128 1.327C14.5147 9.58037 9.30893 20.175 9.30893 31.7768C9.30893 43.3787 14.5408 54.0126 23.3436 62.3444C23.3887 62.3907 23.4426 62.4275 23.5021 62.4526C23.5616 62.4777 23.6256 62.4906 23.6902 62.4906C23.7548 62.4906 23.8188 62.4777 23.8783 62.4526C23.9378 62.4275 23.9917 62.3907 24.0368 62.3444C24.0855 62.298 24.1242 62.2422 24.1507 62.1804C24.1772 62.1185 24.1908 62.052 24.1908 61.9847C24.1908 61.9175 24.1772 61.8509 24.1507 61.7891C24.1242 61.7273 24.0855 61.6715 24.0368 61.625ZM67.0041 24.6614C62.1253 16.081 56.8672 10.1428 49.9087 6.34965C42.9502 2.5565 34.3437 1.01307 22.7811 1.01307C22.7165 1.01132 22.6522 1.02257 22.5919 1.0461C22.5317 1.06964 22.4768 1.10501 22.4304 1.15013C22.3841 1.19524 22.3473 1.24917 22.3221 1.30875C22.297 1.36834 22.2841 1.43237 22.2841 1.49704C22.2841 1.62886 22.3365 1.75527 22.4297 1.84848C22.5229 1.9417 22.6493 1.99406 22.7811 1.99406C34.2522 1.99406 42.6887 3.56364 49.4379 7.22599C56.187 10.8883 61.3143 16.6435 66.1539 25.1323C66.1857 25.1881 66.2281 25.2371 66.2789 25.2765C66.3296 25.316 66.3876 25.345 66.4495 25.362C66.5114 25.379 66.5761 25.3837 66.6399 25.3757C66.7036 25.3677 66.7651 25.3472 66.821 25.3154C66.8768 25.2836 66.9258 25.2412 66.9652 25.1904C67.0046 25.1397 67.0337 25.0817 67.0507 25.0198C67.0677 24.9579 67.0723 24.8932 67.0643 24.8294C67.0563 24.7657 67.0358 24.7042 67.0041 24.6483V24.6614ZM22.7811 62.5145C35.7694 62.5145 45.0169 60.5133 52.4201 55.6606C59.8232 50.808 65.2121 43.1694 70.601 31.9992C70.6408 31.9397 70.6672 31.8724 70.6786 31.8018C70.6899 31.7312 70.6859 31.6589 70.6667 31.59C70.6476 31.5211 70.6138 31.4571 70.5677 31.4025C70.5216 31.3478 70.4642 31.3037 70.3994 31.2733C70.3347 31.2428 70.2642 31.2267 70.1927 31.226C70.1211 31.2253 70.0503 31.24 69.985 31.2692C69.9197 31.2984 69.8615 31.3413 69.8143 31.3951C69.7671 31.4488 69.7321 31.5121 69.7116 31.5807C64.3619 42.6724 59.0384 50.1409 51.8838 54.8366C44.7291 59.5323 35.6909 61.455 22.7811 61.455C22.7165 61.4532 22.6522 61.4645 22.5919 61.488C22.5317 61.5115 22.4768 61.5469 22.4304 61.592C22.3841 61.6371 22.3473 61.6911 22.3221 61.7507C22.297 61.8103 22.2841 61.8743 22.2841 61.9389C22.2787 62.0074 22.2875 62.0763 22.31 62.1412C22.3326 62.2061 22.3684 62.2657 22.4151 62.3161C22.4618 62.3664 22.5184 62.4066 22.5814 62.434C22.6445 62.4614 22.7124 62.4754 22.7811 62.4752V62.5145Z" stroke="#4570B6" stroke-width="2" stroke-linecap="round" stroke-linejoin="round"/>
<mask id="mask0_4485_1609" style="mask-type:alpha" maskUnits="userSpaceOnUse" x="0" y="0" width="141" height="64">
<path d="M131.618 7.73611V7.23909C131.518 7.23647 131.42 7.204 131.337 7.1458C131.255 7.08761 131.192 7.00629 131.156 6.91213C131.119 6.81797 131.112 6.71519 131.134 6.61679C131.156 6.51839 131.207 6.42879 131.28 6.35931C131.353 6.28983 131.446 6.24359 131.545 6.22645C131.644 6.2093 131.747 6.22202 131.839 6.26299C131.931 6.30395 132.009 6.37133 132.063 6.4566C132.117 6.54187 132.144 6.6412 132.142 6.74205C132.14 6.80904 132.125 6.87506 132.098 6.9363C132.071 6.99754 132.032 7.05282 131.983 7.09898C131.934 7.14514 131.877 7.18126 131.815 7.2053C131.752 7.22934 131.685 7.24083 131.618 7.23909V8.22007C131.913 8.21748 132.201 8.12749 132.445 7.96149C132.688 7.7955 132.877 7.56095 132.988 7.28751C133.098 7.01406 133.125 6.71401 133.065 6.42529C133.005 6.13656 132.861 5.87215 132.65 5.66546C132.44 5.45877 132.173 5.31908 131.883 5.26408C131.594 5.20908 131.294 5.24125 131.023 5.35649C130.751 5.47172 130.52 5.66485 130.358 5.91148C130.197 6.15811 130.112 6.44715 130.114 6.74205C130.116 6.93786 130.156 7.13142 130.233 7.31167C130.309 7.49193 130.421 7.65536 130.56 7.79261C130.7 7.92986 130.865 8.03824 131.047 8.11158C131.228 8.18493 131.423 8.2218 131.618 8.22007V7.73611ZM80.097 15.9372C86.2183 17.2452 91.071 19.2856 94.3671 21.967C95.899 23.0859 97.1508 24.5445 98.0245 26.2283C98.8982 27.9122 99.37 29.7755 99.4028 31.6722C99.4296 33.5955 99.0279 35.5006 98.2271 37.2493C97.4262 38.9981 96.2462 40.5468 94.7726 41.7829C91.6465 44.5166 86.9247 46.5832 80.3847 47.7473C80.3221 47.7585 80.2622 47.7819 80.2085 47.8162C80.1549 47.8505 80.1085 47.8951 80.072 47.9473C80.0356 47.9995 80.0098 48.0584 79.9962 48.1206C79.9825 48.1828 79.9812 48.2471 79.9923 48.3098C80.0035 48.3725 80.0269 48.4323 80.0612 48.486C80.0955 48.5396 80.1401 48.586 80.1923 48.6224C80.2445 48.6589 80.3034 48.6847 80.3656 48.6983C80.4278 48.712 80.4921 48.7133 80.5548 48.7022C87.1863 47.525 92.1435 45.4191 95.4527 42.5154C97.0323 41.1888 98.2976 39.5279 99.1572 37.6527C100.017 35.7775 100.449 33.7348 100.423 31.6722C100.387 29.6302 99.8813 27.624 98.9444 25.8093C98.0075 23.9945 96.665 22.4201 95.0211 21.2083C91.5549 18.3962 86.5584 16.3034 80.3455 14.9823C80.2175 14.9585 80.0853 14.9845 79.9758 15.0551C79.8664 15.1256 79.7881 15.2353 79.7569 15.3617C79.7348 15.4824 79.7571 15.6072 79.8195 15.7129C79.882 15.8186 79.9805 15.8982 80.097 15.9372ZM116.263 1.87635C124.882 9.99892 129.983 20.4366 129.983 31.7376C129.983 43.0386 124.935 53.3717 116.393 61.4812C116.303 61.574 116.253 61.6983 116.253 61.8278C116.253 61.9572 116.303 62.0816 116.393 62.1744C116.439 62.2207 116.493 62.2574 116.552 62.2825C116.612 62.3077 116.676 62.3206 116.74 62.3206C116.805 62.3206 116.869 62.3077 116.928 62.2825C116.988 62.2574 117.042 62.2207 117.087 62.1744C125.772 53.921 130.978 43.3264 130.978 31.7245C130.978 20.1227 125.746 9.42341 116.956 1.15695C116.91 1.11229 116.855 1.07722 116.795 1.05371C116.735 1.0302 116.671 1.0187 116.607 1.01992C116.542 1.02113 116.479 1.03502 116.42 1.06077C116.361 1.08653 116.307 1.12367 116.263 1.17004C116.218 1.21642 116.183 1.27113 116.16 1.33107C116.136 1.391 116.125 1.455 116.126 1.51937C116.127 1.58375 116.141 1.64723 116.167 1.70624C116.192 1.76525 116.229 1.81861 116.276 1.86327L116.263 1.87635ZM73.3478 38.853C78.2266 47.4203 83.4847 53.3586 90.4301 57.1648C97.3754 60.971 106.008 62.5145 117.571 62.5145C117.635 62.5145 117.699 62.5016 117.759 62.4764C117.819 62.4513 117.873 62.4145 117.918 62.3681C117.963 62.3218 117.998 62.2669 118.022 62.2066C118.045 62.1464 118.056 62.0821 118.055 62.0174C118.056 61.9534 118.045 61.8896 118.022 61.8301C117.998 61.7706 117.962 61.7165 117.917 61.6712C117.872 61.6259 117.818 61.5903 117.758 61.5666C117.698 61.543 117.635 61.5317 117.571 61.5335C106.087 61.5335 97.6501 59.9508 90.9009 56.3015C84.1517 52.6523 79.0244 46.8841 74.198 38.4083C74.1338 38.2956 74.0274 38.213 73.9023 38.1786C73.7772 38.1443 73.6437 38.161 73.5309 38.2252C73.4182 38.2894 73.3355 38.3957 73.3012 38.5208C73.2669 38.6459 73.2836 38.7795 73.3478 38.8923V38.853ZM117.571 62.4752H131.658C133.592 62.4989 135.48 61.8878 137.034 60.7356C137.688 60.2936 138.235 59.7091 138.631 59.0259C139.028 58.3426 139.265 57.5784 139.324 56.7905C139.383 56.0027 139.263 55.2116 138.973 54.4768C138.683 53.742 138.23 53.0824 137.648 52.5476C136.591 51.5955 135.679 50.4939 134.941 49.2777C134.439 48.1806 134.219 46.9758 134.3 45.7723V31.7507C134.281 31.6343 134.221 31.5286 134.131 31.4522C134.041 31.3759 133.927 31.334 133.809 31.334C133.691 31.334 133.577 31.3759 133.488 31.4522C133.398 31.5286 133.338 31.6343 133.319 31.7507V45.7592C133.241 47.1099 133.502 48.4586 134.077 49.6831C134.848 50.9985 135.819 52.1857 136.955 53.2016C137.808 54.0289 138.309 55.1533 138.355 56.3408C138.335 57.0465 138.151 57.738 137.817 58.3601C137.483 58.9823 137.009 59.518 136.432 59.9247C135.051 60.943 133.374 61.4806 131.658 61.455H117.532C117.467 61.4532 117.402 61.4645 117.342 61.488C117.282 61.5115 117.227 61.5469 117.181 61.592C117.134 61.6371 117.098 61.6911 117.072 61.7507C117.047 61.8103 117.034 61.8743 117.034 61.9389C117.029 62.0074 117.038 62.0763 117.06 62.1412C117.083 62.2061 117.119 62.2657 117.165 62.3161C117.212 62.3664 117.269 62.4066 117.332 62.434C117.395 62.4614 117.463 62.4754 117.532 62.4752H117.571ZM117.571 1C104.569 1 95.335 3.00121 87.9187 7.84075C80.5025 12.6803 75.1397 20.3451 69.7508 31.5022C69.7111 31.5616 69.6846 31.629 69.6733 31.6996C69.6619 31.7702 69.666 31.8425 69.6851 31.9114C69.7043 31.9803 69.738 32.0443 69.7842 32.0989C69.8303 32.1536 69.8877 32.1977 69.9524 32.2281C70.0171 32.2586 70.0877 32.2747 70.1592 32.2754C70.2307 32.2761 70.3015 32.2614 70.3668 32.2322C70.4321 32.203 70.4904 32.1601 70.5375 32.1063C70.5847 32.0526 70.6198 31.9893 70.6403 31.9207C75.9899 20.829 81.3134 13.3604 88.4681 8.66478C95.6227 3.96912 104.661 1.98099 117.571 1.98099C117.635 1.98101 117.699 1.96808 117.759 1.94295C117.819 1.91781 117.873 1.88099 117.918 1.83465C117.963 1.78832 117.998 1.73341 118.022 1.67317C118.045 1.61294 118.056 1.54859 118.055 1.48395C118.051 1.41968 118.035 1.35675 118.007 1.29903C117.978 1.24131 117.938 1.19002 117.889 1.14835C117.84 1.10668 117.783 1.07551 117.722 1.05674C117.66 1.03797 117.595 1.03201 117.532 1.03924L117.571 1ZM134.3 31.7114V17.7291C134.219 16.5256 134.439 15.3208 134.941 14.2237C135.681 13.0049 136.597 11.9029 137.661 10.9538C138.242 10.418 138.694 9.75771 138.983 9.02232C139.273 8.28692 139.391 7.49557 139.331 6.70768C139.271 5.91978 139.032 5.1558 138.635 4.47309C138.237 3.79038 137.689 3.20667 137.034 2.76579C135.482 1.61207 133.591 1.00493 131.658 1.03924H117.532C117.467 1.03749 117.402 1.04871 117.342 1.07225C117.282 1.09579 117.227 1.13116 117.181 1.17627C117.134 1.22139 117.098 1.27533 117.072 1.33492C117.047 1.3945 117.034 1.45852 117.034 1.52319C117.034 1.65501 117.087 1.78144 117.18 1.87465C117.273 1.96786 117.4 2.02023 117.532 2.02023H131.618C133.335 1.98878 135.014 2.52692 136.393 3.55056C136.969 3.95518 137.443 4.48866 137.776 5.10854C138.11 5.72843 138.295 6.41764 138.315 7.12137C138.273 8.3095 137.771 9.43482 136.916 10.2605C135.782 11.2793 134.812 12.4659 134.038 13.779C133.465 15.0041 133.204 16.3523 133.28 17.703V31.7245C133.268 31.7957 133.272 31.8684 133.291 31.9379C133.31 32.0073 133.345 32.0718 133.391 32.1267C133.438 32.1816 133.496 32.2257 133.561 32.256C133.627 32.2863 133.698 32.3019 133.77 32.3019C133.842 32.3019 133.913 32.2863 133.979 32.256C134.044 32.2257 134.102 32.1816 134.149 32.1267C134.196 32.0718 134.23 32.0073 134.249 31.9379C134.268 31.8684 134.272 31.7957 134.261 31.7245L134.3 31.7114ZM8.73342 5.69566V6.1927C8.83303 6.19781 8.92894 6.23202 9.00932 6.29109C9.08969 6.35016 9.151 6.4315 9.18563 6.52504C9.22026 6.61858 9.22669 6.72024 9.20415 6.81741C9.18161 6.91458 9.13109 7.00299 9.05881 7.07174C8.98654 7.14048 8.89569 7.18654 8.79752 7.2042C8.69935 7.22185 8.59815 7.21033 8.50645 7.17107C8.41475 7.13181 8.33658 7.06653 8.2816 6.9833C8.22662 6.90007 8.19727 6.80256 8.19714 6.70281C8.19883 6.6341 8.21405 6.56639 8.24192 6.50357C8.2698 6.44074 8.30976 6.38401 8.35956 6.33663C8.40936 6.28926 8.46801 6.25216 8.53216 6.22746C8.5963 6.20276 8.6647 6.19096 8.73342 6.1927V5.21171C8.43907 5.21429 8.15206 5.30392 7.90858 5.46933C7.6651 5.63474 7.47601 5.86852 7.36516 6.1412C7.2543 6.41388 7.22664 6.71326 7.28564 7.00164C7.34465 7.29002 7.4877 7.55449 7.69674 7.76171C7.90579 7.96894 8.17146 8.10966 8.46035 8.16615C8.74923 8.22263 9.04837 8.19234 9.32007 8.07911C9.59177 7.96588 9.82388 7.77476 9.98715 7.52984C10.1504 7.28492 10.2376 6.99716 10.2376 6.70281C10.2376 6.50589 10.1986 6.31091 10.1228 6.12915C10.0471 5.94738 9.93608 5.78242 9.79623 5.64378C9.65638 5.50515 9.49047 5.3956 9.30805 5.32144C9.12563 5.24728 8.93033 5.20998 8.73342 5.21171V5.69566ZM60.2418 47.5511C54.1335 46.2431 49.2809 44.1896 45.9848 41.5213C44.4507 40.4045 43.1972 38.9464 42.3233 37.2621C41.4493 35.5778 40.9789 33.7134 40.9491 31.8161C40.9167 29.892 41.3159 27.9851 42.1171 26.2354C42.9184 24.4858 44.1014 22.9379 45.5793 21.7054C48.6923 18.9586 53.4272 16.9051 59.9671 15.741C60.0949 15.7156 60.2076 15.6411 60.281 15.5335C60.3544 15.4258 60.3826 15.2937 60.3595 15.1655C60.3485 15.1027 60.3251 15.0427 60.2909 14.989C60.2566 14.9353 60.212 14.8889 60.1598 14.8525C60.1075 14.816 60.0486 14.7902 59.9863 14.7766C59.9241 14.763 59.8598 14.7618 59.7971 14.7731C53.1525 15.9502 48.2083 18.0561 44.8861 20.9598C43.3057 22.2879 42.0409 23.9512 41.1834 25.829C40.3259 27.7068 39.8974 29.752 39.9288 31.8161C39.9597 33.859 40.4635 35.867 41.4007 37.6825C42.338 39.498 43.6832 41.0717 45.3308 42.28C48.7969 45.0921 53.7803 47.1849 60.0063 48.506C60.1327 48.5294 60.2632 48.503 60.3705 48.4323C60.4778 48.3615 60.5536 48.252 60.5819 48.1266C60.5971 48.0638 60.5993 47.9985 60.5882 47.9348C60.5771 47.8711 60.5531 47.8103 60.5175 47.7563C60.4819 47.7023 60.4355 47.6562 60.3814 47.6209C60.3272 47.5856 60.2663 47.5619 60.2026 47.5511H60.2418ZM24.0368 61.625C15.4303 53.5025 10.3161 43.0648 10.3161 31.7638C10.3161 20.4628 15.378 10.1297 23.906 2.02023C23.9963 1.92743 24.0468 1.80308 24.0468 1.67361C24.0468 1.54414 23.9963 1.41979 23.906 1.327C23.8609 1.28072 23.807 1.24395 23.7475 1.21884C23.688 1.19373 23.624 1.18078 23.5594 1.18078C23.4948 1.18078 23.4308 1.19373 23.3713 1.21884C23.3118 1.24395 23.2579 1.28072 23.2128 1.327C14.5147 9.58037 9.30893 20.175 9.30893 31.7768C9.30893 43.3787 14.5408 54.0126 23.3436 62.3444C23.3887 62.3907 23.4426 62.4275 23.5021 62.4526C23.5616 62.4777 23.6256 62.4906 23.6902 62.4906C23.7548 62.4906 23.8188 62.4777 23.8783 62.4526C23.9378 62.4275 23.9917 62.3907 24.0368 62.3444C24.0855 62.298 24.1242 62.2422 24.1507 62.1804C24.1772 62.1185 24.1908 62.052 24.1908 61.9847C24.1908 61.9175 24.1772 61.8509 24.1507 61.7891C24.1242 61.7273 24.0855 61.6715 24.0368 61.625ZM67.0041 24.6614C62.1253 16.081 56.8672 10.1428 49.9087 6.34965C42.9502 2.5565 34.3437 1.01307 22.7811 1.01307C22.7165 1.01132 22.6522 1.02257 22.5919 1.0461C22.5317 1.06964 22.4768 1.10501 22.4304 1.15013C22.3841 1.19524 22.3473 1.24917 22.3221 1.30875C22.297 1.36834 22.2841 1.43237 22.2841 1.49704C22.2841 1.62886 22.3365 1.75527 22.4297 1.84848C22.5229 1.9417 22.6493 1.99406 22.7811 1.99406C34.2522 1.99406 42.6887 3.56364 49.4379 7.22599C56.187 10.8883 61.3143 16.6435 66.1539 25.1323C66.1857 25.1881 66.2281 25.2371 66.2789 25.2765C66.3296 25.316 66.3876 25.345 66.4495 25.362C66.5114 25.379 66.5761 25.3837 66.6399 25.3757C66.7036 25.3677 66.7651 25.3472 66.821 25.3154C66.8768 25.2836 66.9258 25.2412 66.9652 25.1904C67.0046 25.1397 67.0337 25.0817 67.0507 25.0198C67.0677 24.9579 67.0723 24.8932 67.0643 24.8294C67.0563 24.7657 67.0358 24.7042 67.0041 24.6483V24.6614ZM22.7811 1.03924H8.69418C6.75667 1.00499 4.86216 1.61198 3.30529 2.76579C2.65039 3.20774 2.10407 3.79227 1.70736 4.47553C1.31064 5.15878 1.07384 5.92301 1.01468 6.71087C0.955532 7.49873 1.07559 8.28974 1.36583 9.02457C1.65607 9.7594 2.10897 10.419 2.69054 10.9538C3.75541 11.8984 4.66857 13.0013 5.39803 14.2237C5.90554 15.3189 6.12612 16.5252 6.03897 17.7291V31.7507C6.03897 31.8825 6.09134 32.0089 6.18455 32.1021C6.27776 32.1954 6.40419 32.2477 6.53601 32.2477C6.60068 32.2477 6.66467 32.2348 6.72426 32.2097C6.78384 32.1845 6.83781 32.1477 6.88293 32.1014C6.92804 32.0551 6.96341 32.0001 6.98695 31.9399C7.01049 31.8797 7.02171 31.8153 7.01996 31.7507V17.7291C7.09971 16.3796 6.84354 15.0314 6.2744 13.8052C5.49532 12.4922 4.52058 11.3057 3.38377 10.2867C2.90633 9.84809 2.53485 9.30669 2.2974 8.70342C2.05995 8.10015 1.96276 7.45079 2.01316 6.80444C2.06355 6.15808 2.26023 5.53164 2.58831 4.97247C2.9164 4.4133 3.3673 3.93602 3.90695 3.57673C5.29179 2.55563 6.97382 2.01793 8.69418 2.04639H22.7811C22.9107 2.04298 23.0338 1.98911 23.1242 1.89626C23.2146 1.80342 23.2651 1.67894 23.2651 1.54935C23.2686 1.48363 23.2588 1.41788 23.2361 1.35611C23.2133 1.29435 23.1782 1.23785 23.1329 1.1901C23.0876 1.14235 23.0331 1.10436 22.9726 1.07842C22.9121 1.05248 22.847 1.03914 22.7811 1.03924ZM22.7811 62.5145C35.7694 62.5145 45.0169 60.5133 52.4201 55.6606C59.8232 50.808 65.2121 43.1694 70.601 31.9992C70.6408 31.9397 70.6672 31.8724 70.6786 31.8018C70.6899 31.7312 70.6859 31.6589 70.6667 31.59C70.6476 31.5211 70.6138 31.4571 70.5677 31.4025C70.5216 31.3478 70.4642 31.3037 70.3994 31.2733C70.3347 31.2428 70.2642 31.2267 70.1927 31.226C70.1211 31.2253 70.0503 31.24 69.985 31.2692C69.9197 31.2984 69.8615 31.3413 69.8143 31.3951C69.7671 31.4488 69.7321 31.5121 69.7116 31.5807C64.3619 42.6724 59.0384 50.1409 51.8838 54.8366C44.7291 59.5323 35.6909 61.455 22.7811 61.455C22.7165 61.4532 22.6522 61.4645 22.5919 61.488C22.5317 61.5115 22.4768 61.5469 22.4304 61.592C22.3841 61.6371 22.3473 61.6911 22.3221 61.7507C22.297 61.8103 22.2841 61.8743 22.2841 61.9389C22.2787 62.0074 22.2875 62.0763 22.31 62.1412C22.3326 62.2061 22.3684 62.2657 22.4151 62.3161C22.4618 62.3664 22.5184 62.4066 22.5814 62.434C22.6445 62.4614 22.7124 62.4754 22.7811 62.4752V62.5145ZM6.03897 31.7899V45.7592C6.12612 46.9631 5.90554 48.1694 5.39803 49.2646C4.66857 50.487 3.75541 51.5899 2.69054 52.5345C2.10897 53.0693 1.65607 53.7289 1.36583 54.4637C1.07559 55.1986 0.955532 55.9896 1.01468 56.7774C1.07384 57.5653 1.31064 58.3295 1.70736 59.0128C2.10407 59.696 2.65039 60.2806 3.30529 60.7225C4.86365 61.8749 6.75618 62.4858 8.69418 62.4621H22.7811C22.9107 62.4587 23.0338 62.4049 23.1242 62.312C23.2146 62.2192 23.2651 62.0947 23.2651 61.9651C23.2651 61.8368 23.2141 61.7137 23.1233 61.6229C23.0326 61.5321 22.9095 61.4812 22.7811 61.4812H8.69418C6.97382 61.5096 5.29179 60.9719 3.90695 59.9508C3.36708 59.5901 2.91612 59.1116 2.58803 58.5513C2.25995 57.9911 2.06329 57.3636 2.01292 56.7163C1.96254 56.069 2.05975 55.4187 2.2972 54.8144C2.53466 54.2101 2.90619 53.6676 3.38377 53.2278C4.52359 52.2116 5.49874 51.0247 6.2744 49.7093C6.84459 48.4834 7.10081 47.1349 7.01996 45.7854V31.7507C7.02177 31.6866 7.01047 31.6229 6.98679 31.5634C6.96311 31.5038 6.92751 31.4498 6.88221 31.4045C6.8369 31.3592 6.78283 31.3236 6.7233 31.2999C6.66377 31.2762 6.60006 31.2649 6.53601 31.2667C6.47137 31.265 6.407 31.2762 6.34677 31.2997C6.28653 31.3233 6.23164 31.3587 6.18531 31.4038C6.13897 31.4489 6.10215 31.5028 6.07701 31.5624C6.05188 31.622 6.03895 31.686 6.03897 31.7507V31.7899Z" fill="#4570B6"/>
<path d="M131.618 7.23909V7.73611V8.22007M131.618 7.23909C131.518 7.23647 131.42 7.204 131.337 7.1458C131.255 7.08761 131.192 7.00629 131.156 6.91213C131.119 6.81797 131.112 6.71519 131.134 6.61679C131.156 6.51839 131.207 6.42879 131.28 6.35931C131.353 6.28983 131.446 6.24359 131.545 6.22645C131.644 6.2093 131.747 6.22202 131.839 6.26299C131.931 6.30395 132.009 6.37133 132.063 6.4566C132.117 6.54188 132.144 6.6412 132.142 6.74205C132.14 6.80904 132.125 6.87506 132.098 6.9363C132.071 6.99754 132.032 7.05282 131.983 7.09898C131.934 7.14514 131.877 7.18126 131.815 7.2053C131.752 7.22934 131.685 7.24083 131.618 7.23909ZM131.618 7.23909V8.22007M131.618 8.22007C131.913 8.21748 132.201 8.12749 132.445 7.96149C132.688 7.7955 132.877 7.56095 132.988 7.28751C133.098 7.01406 133.125 6.71401 133.065 6.42529C133.005 6.13656 132.861 5.87215 132.65 5.66546C132.44 5.45877 132.173 5.31908 131.883 5.26408C131.594 5.20908 131.294 5.24125 131.023 5.35649C130.751 5.47172 130.52 5.66485 130.358 5.91148C130.197 6.15811 130.112 6.44715 130.114 6.74205C130.116 6.93786 130.156 7.13142 130.233 7.31167C130.309 7.49193 130.421 7.65536 130.56 7.79261C130.7 7.92986 130.865 8.03824 131.047 8.11158C131.228 8.18493 131.423 8.2218 131.618 8.22007ZM117.532 1.03924C117.595 1.03201 117.66 1.03797 117.722 1.05674C117.783 1.07551 117.84 1.10668 117.889 1.14835C117.938 1.19002 117.978 1.24131 118.007 1.29903C118.035 1.35675 118.051 1.41968 118.055 1.48395C118.056 1.54859 118.045 1.61294 118.022 1.67317C117.998 1.73341 117.963 1.78832 117.918 1.83465C117.873 1.88099 117.819 1.91781 117.759 1.94295C117.699 1.96808 117.635 1.98101 117.571 1.98099C104.661 1.98099 95.6227 3.96912 88.4681 8.66478C81.3134 13.3604 75.9899 20.829 70.6403 31.9207C70.6198 31.9893 70.5847 32.0526 70.5375 32.1063C70.4904 32.1601 70.4321 32.203 70.3668 32.2322C70.3015 32.2614 70.2307 32.2761 70.1592 32.2754C70.0877 32.2747 70.0171 32.2586 69.9524 32.2281C69.8877 32.1977 69.8303 32.1536 69.7842 32.0989C69.738 32.0443 69.7043 31.9803 69.6851 31.9114C69.666 31.8425 69.6619 31.7702 69.6733 31.6996C69.6846 31.629 69.7111 31.5616 69.7508 31.5022C75.1397 20.3451 80.5025 12.6803 87.9187 7.84075C95.335 3.00121 104.569 1 117.571 1L117.532 1.03924ZM117.532 1.03924H131.658C133.591 1.00493 135.482 1.61207 137.034 2.76579C137.689 3.20667 138.237 3.79038 138.635 4.47309C139.032 5.1558 139.271 5.91978 139.331 6.70768C139.391 7.49557 139.273 8.28692 138.983 9.02232C138.694 9.75771 138.242 10.418 137.661 10.9538C136.597 11.9029 135.681 13.0049 134.941 14.2237C134.439 15.3208 134.219 16.5256 134.3 17.7291V31.7114L134.261 31.7245C134.272 31.7957 134.268 31.8684 134.249 31.9379C134.23 32.0073 134.196 32.0718 134.149 32.1267C134.102 32.1816 134.044 32.2257 133.979 32.256C133.913 32.2863 133.842 32.3019 133.77 32.3019C133.698 32.3019 133.627 32.2863 133.561 32.256C133.496 32.2257 133.438 32.1816 133.391 32.1267C133.345 32.0718 133.31 32.0073 133.291 31.9379C133.272 31.8684 133.268 31.7957 133.28 31.7245V17.703C133.204 16.3523 133.465 15.0041 134.038 13.779C134.812 12.4659 135.782 11.2793 136.916 10.2605C137.771 9.43482 138.273 8.3095 138.315 7.12137C138.295 6.41764 138.11 5.72843 137.776 5.10854C137.443 4.48866 136.969 3.95518 136.393 3.55056C135.014 2.52692 133.335 1.98878 131.618 2.02023H117.532C117.4 2.02023 117.273 1.96786 117.18 1.87465C117.087 1.78144 117.034 1.65501 117.034 1.52319C117.034 1.45852 117.047 1.3945 117.072 1.33492C117.098 1.27533 117.134 1.22139 117.181 1.17627C117.227 1.13116 117.282 1.09579 117.342 1.07225C117.402 1.04871 117.467 1.03749 117.532 1.03924ZM8.73341 6.1927V5.69566V5.21171M8.73341 6.1927C8.83303 6.19781 8.92894 6.23202 9.00932 6.29109C9.08969 6.35016 9.151 6.4315 9.18563 6.52504C9.22026 6.61858 9.22669 6.72024 9.20415 6.81741C9.18161 6.91458 9.13109 7.00299 9.05881 7.07174C8.98654 7.14048 8.89569 7.18654 8.79752 7.2042C8.69935 7.22185 8.59815 7.21033 8.50645 7.17107C8.41475 7.13181 8.33658 7.06653 8.2816 6.9833C8.22662 6.90007 8.19727 6.80256 8.19714 6.70281C8.19883 6.6341 8.21405 6.56639 8.24192 6.50357C8.2698 6.44074 8.30976 6.38401 8.35956 6.33663C8.40936 6.28926 8.46801 6.25216 8.53216 6.22746C8.5963 6.20276 8.6647 6.19096 8.73341 6.1927ZM8.73341 6.1927V5.21171M8.73341 5.21171C8.43907 5.21429 8.15206 5.30392 7.90858 5.46933C7.6651 5.63474 7.47601 5.86852 7.36516 6.1412C7.2543 6.41388 7.22664 6.71326 7.28564 7.00164C7.34465 7.29002 7.4877 7.55449 7.69674 7.76171C7.90579 7.96894 8.17146 8.10966 8.46035 8.16615C8.74923 8.22263 9.04837 8.19234 9.32007 8.07911C9.59177 7.96588 9.82388 7.77476 9.98715 7.52984C10.1504 7.28492 10.2376 6.99716 10.2376 6.70281C10.2376 6.50589 10.1986 6.31092 10.1228 6.12915C10.0471 5.94738 9.93608 5.78242 9.79623 5.64378C9.65638 5.50515 9.49047 5.3956 9.30805 5.32144C9.12563 5.24728 8.93033 5.20998 8.73341 5.21171ZM6.03897 31.7507V17.7291C6.12612 16.5252 5.90554 15.3189 5.39803 14.2237C4.66857 13.0013 3.75541 11.8984 2.69054 10.9538C2.10897 10.419 1.65607 9.7594 1.36583 9.02457C1.07559 8.28974 0.955532 7.49873 1.01468 6.71087C1.07384 5.92301 1.31064 5.15878 1.70736 4.47553C2.10407 3.79227 2.65039 3.20774 3.30529 2.76579C4.86216 1.61198 6.75667 1.00499 8.69418 1.03924H22.7811C22.847 1.03914 22.9121 1.05248 22.9726 1.07842C23.0331 1.10436 23.0876 1.14235 23.1329 1.1901C23.1782 1.23785 23.2133 1.29435 23.2361 1.35611C23.2588 1.41788 23.2686 1.48363 23.2651 1.54935C23.2651 1.67894 23.2146 1.80342 23.1242 1.89626C23.0338 1.98911 22.9107 2.04298 22.7811 2.04639H8.69418C6.97383 2.01793 5.29179 2.55563 3.90695 3.57673C3.3673 3.93602 2.9164 4.4133 2.58831 4.97247C2.26023 5.53164 2.06355 6.15808 2.01316 6.80444C1.96276 7.45079 2.05995 8.10015 2.2974 8.70342C2.53485 9.30669 2.90633 9.84809 3.38377 10.2867C4.52058 11.3057 5.49532 12.4922 6.2744 13.8052C6.84354 15.0314 7.09971 16.3796 7.01996 17.7291V31.7507M6.03897 31.7507C6.03897 31.8825 6.09134 32.0089 6.18455 32.1021C6.27776 32.1954 6.40419 32.2477 6.53601 32.2477C6.60068 32.2477 6.66467 32.2348 6.72426 32.2097C6.78384 32.1845 6.83781 32.1477 6.88293 32.1014C6.92804 32.0551 6.96341 32.0001 6.98695 31.9399C7.01049 31.8797 7.02171 31.8153 7.01996 31.7507M6.03897 31.7507C6.03895 31.686 6.05188 31.622 6.07701 31.5624C6.10215 31.5028 6.13897 31.4489 6.18531 31.4038C6.23164 31.3587 6.28653 31.3233 6.34677 31.2997C6.407 31.2762 6.47137 31.265 6.53601 31.2667C6.60006 31.2649 6.66377 31.2762 6.7233 31.2999C6.78283 31.3236 6.8369 31.3592 6.88221 31.4045C6.92751 31.4498 6.96311 31.5038 6.98679 31.5634C7.01047 31.6229 7.02177 31.6866 7.01996 31.7507M6.03897 31.7507V31.7899V45.7592C6.12612 46.9631 5.90554 48.1694 5.39803 49.2646C4.66857 50.487 3.75541 51.5899 2.69054 52.5345C2.10897 53.0693 1.65607 53.7289 1.36583 54.4637C1.07559 55.1986 0.955532 55.9896 1.01468 56.7774C1.07384 57.5653 1.31064 58.3295 1.70736 59.0128C2.10407 59.696 2.65039 60.2806 3.30529 60.7225C4.86365 61.8749 6.75618 62.4858 8.69418 62.4621H22.7811C22.9107 62.4587 23.0338 62.4049 23.1242 62.312C23.2146 62.2192 23.2651 62.0947 23.2651 61.9651C23.2651 61.8368 23.2141 61.7137 23.1233 61.6229C23.0326 61.5321 22.9095 61.4812 22.7811 61.4812H8.69418C6.97383 61.5096 5.29179 60.9719 3.90695 59.9508C3.36708 59.5901 2.91612 59.1116 2.58803 58.5513C2.25995 57.9911 2.06329 57.3636 2.01292 56.7163C1.96254 56.069 2.05975 55.4187 2.2972 54.8144C2.53466 54.2101 2.90619 53.6676 3.38377 53.2278C4.52359 52.2116 5.49874 51.0247 6.2744 49.7093C6.84459 48.4834 7.10081 47.1349 7.01996 45.7854V31.7507M80.097 15.9372C86.2183 17.2452 91.071 19.2856 94.3671 21.967C95.899 23.0859 97.1508 24.5445 98.0245 26.2283C98.8982 27.9122 99.37 29.7755 99.4028 31.6722C99.4296 33.5955 99.0279 35.5006 98.2271 37.2493C97.4262 38.9981 96.2462 40.5468 94.7726 41.7829C91.6465 44.5166 86.9247 46.5832 80.3847 47.7473C80.322 47.7585 80.2622 47.7819 80.2085 47.8162C80.1549 47.8505 80.1085 47.895 80.072 47.9473C80.0356 47.9995 80.0098 48.0584 79.9962 48.1206C79.9825 48.1828 79.9812 48.2471 79.9923 48.3098C80.0035 48.3725 80.0269 48.4323 80.0612 48.486C80.0955 48.5396 80.1401 48.586 80.1923 48.6224C80.2445 48.6589 80.3034 48.6847 80.3656 48.6983C80.4278 48.712 80.4921 48.7133 80.5548 48.7022C87.1863 47.525 92.1435 45.4191 95.4527 42.5154C97.0323 41.1888 98.2976 39.5279 99.1572 37.6527C100.017 35.7775 100.449 33.7348 100.423 31.6722C100.387 29.6302 99.8813 27.624 98.9444 25.8093C98.0075 23.9945 96.665 22.4201 95.0211 21.2083C91.5549 18.3962 86.5584 16.3034 80.3455 14.9823C80.2175 14.9585 80.0853 14.9845 79.9758 15.0551C79.8664 15.1256 79.7881 15.2353 79.7569 15.3617C79.7348 15.4824 79.7571 15.6072 79.8195 15.7129C79.882 15.8186 79.9805 15.8982 80.097 15.9372ZM116.263 1.87635C124.882 9.99892 129.983 20.4366 129.983 31.7376C129.983 43.0386 124.935 53.3717 116.393 61.4812C116.303 61.574 116.253 61.6983 116.253 61.8278C116.253 61.9572 116.303 62.0816 116.393 62.1744C116.439 62.2207 116.493 62.2574 116.552 62.2825C116.612 62.3077 116.676 62.3206 116.74 62.3206C116.805 62.3206 116.869 62.3077 116.928 62.2825C116.988 62.2574 117.042 62.2207 117.087 62.1744C125.772 53.921 130.978 43.3263 130.978 31.7245C130.978 20.1227 125.746 9.42341 116.956 1.15695C116.91 1.11229 116.855 1.07722 116.795 1.05371C116.735 1.0302 116.671 1.0187 116.607 1.01992C116.542 1.02113 116.479 1.03502 116.42 1.06077C116.361 1.08653 116.307 1.12367 116.263 1.17004C116.218 1.21642 116.183 1.27113 116.159 1.33107C116.136 1.391 116.125 1.455 116.126 1.51937C116.127 1.58375 116.141 1.64723 116.167 1.70624C116.192 1.76525 116.229 1.81861 116.276 1.86327L116.263 1.87635ZM73.3478 38.853C78.2266 47.4203 83.4847 53.3586 90.4301 57.1648C97.3754 60.971 106.008 62.5145 117.571 62.5145C117.635 62.5145 117.699 62.5016 117.759 62.4764C117.819 62.4513 117.873 62.4145 117.918 62.3681C117.963 62.3218 117.998 62.2669 118.022 62.2066C118.045 62.1464 118.056 62.0821 118.055 62.0174C118.056 61.9534 118.045 61.8896 118.022 61.8301C117.998 61.7706 117.962 61.7165 117.917 61.6712C117.872 61.6259 117.818 61.5903 117.758 61.5666C117.698 61.543 117.635 61.5317 117.571 61.5335C106.087 61.5335 97.6501 59.9508 90.9009 56.3015C84.1518 52.6523 79.0244 46.8841 74.198 38.4083C74.1338 38.2956 74.0274 38.213 73.9023 38.1786C73.7772 38.1443 73.6437 38.161 73.5309 38.2252C73.4182 38.2894 73.3355 38.3957 73.3012 38.5208C73.2669 38.6459 73.2836 38.7795 73.3478 38.8923V38.853ZM117.571 62.4752H131.658C133.592 62.4989 135.48 61.8878 137.034 60.7356C137.688 60.2936 138.235 59.7091 138.631 59.0259C139.028 58.3426 139.265 57.5784 139.324 56.7905C139.383 56.0027 139.263 55.2116 138.973 54.4768C138.683 53.742 138.23 53.0824 137.648 52.5476C136.591 51.5955 135.679 50.4939 134.941 49.2777C134.439 48.1806 134.219 46.9758 134.3 45.7723V31.7507C134.281 31.6343 134.221 31.5286 134.131 31.4522C134.041 31.3759 133.927 31.334 133.809 31.334C133.691 31.334 133.577 31.3759 133.488 31.4522C133.398 31.5286 133.338 31.6343 133.319 31.7507V45.7592C133.241 47.1099 133.502 48.4586 134.077 49.6831C134.848 50.9985 135.819 52.1857 136.955 53.2016C137.808 54.0289 138.309 55.1533 138.355 56.3408C138.335 57.0465 138.151 57.738 137.817 58.3601C137.483 58.9823 137.009 59.518 136.432 59.9247C135.051 60.943 133.374 61.4806 131.658 61.455H117.532C117.467 61.4532 117.402 61.4645 117.342 61.488C117.282 61.5115 117.227 61.5469 117.181 61.592C117.134 61.6371 117.098 61.6911 117.072 61.7507C117.047 61.8103 117.034 61.8743 117.034 61.9389C117.029 62.0074 117.038 62.0763 117.06 62.1412C117.083 62.2061 117.119 62.2657 117.165 62.3161C117.212 62.3664 117.269 62.4066 117.332 62.434C117.395 62.4614 117.463 62.4754 117.532 62.4752H117.571ZM60.2418 47.5511C54.1335 46.2431 49.2809 44.1896 45.9848 41.5213C44.4507 40.4045 43.1972 38.9464 42.3233 37.2621C41.4493 35.5778 40.9789 33.7134 40.9491 31.8161C40.9167 29.892 41.3159 27.9851 42.1171 26.2354C42.9184 24.4858 44.1014 22.9379 45.5793 21.7054C48.6923 18.9586 53.4272 16.9051 59.9671 15.741C60.0949 15.7156 60.2076 15.6411 60.281 15.5335C60.3544 15.4258 60.3826 15.2937 60.3595 15.1655C60.3485 15.1027 60.3251 15.0427 60.2909 14.989C60.2566 14.9353 60.212 14.8889 60.1598 14.8525C60.1075 14.816 60.0486 14.7902 59.9863 14.7766C59.9241 14.763 59.8598 14.7618 59.7971 14.7731C53.1525 15.9502 48.2083 18.0561 44.8861 20.9598C43.3057 22.2879 42.0409 23.9512 41.1834 25.829C40.3259 27.7068 39.8974 29.752 39.9288 31.8161C39.9597 33.859 40.4635 35.867 41.4007 37.6825C42.338 39.498 43.6832 41.0717 45.3308 42.28C48.7969 45.0921 53.7803 47.1849 60.0063 48.506C60.1327 48.5294 60.2632 48.503 60.3705 48.4323C60.4778 48.3615 60.5536 48.252 60.5819 48.1266C60.5971 48.0638 60.5993 47.9985 60.5882 47.9348C60.5771 47.8711 60.5531 47.8103 60.5175 47.7563C60.4819 47.7023 60.4355 47.6562 60.3814 47.6209C60.3272 47.5856 60.2663 47.5619 60.2026 47.5511H60.2418ZM24.0368 61.625C15.4303 53.5025 10.3161 43.0648 10.3161 31.7638C10.3161 20.4628 15.378 10.1297 23.906 2.02023C23.9963 1.92743 24.0468 1.80308 24.0468 1.67361C24.0468 1.54414 23.9963 1.41979 23.906 1.327C23.8609 1.28072 23.807 1.24395 23.7475 1.21884C23.688 1.19373 23.624 1.18078 23.5594 1.18078C23.4948 1.18078 23.4308 1.19373 23.3713 1.21884C23.3118 1.24395 23.2579 1.28072 23.2128 1.327C14.5147 9.58037 9.30893 20.175 9.30893 31.7768C9.30893 43.3787 14.5408 54.0126 23.3436 62.3444C23.3887 62.3907 23.4426 62.4275 23.5021 62.4526C23.5616 62.4777 23.6256 62.4906 23.6902 62.4906C23.7548 62.4906 23.8188 62.4777 23.8783 62.4526C23.9378 62.4275 23.9917 62.3907 24.0368 62.3444C24.0855 62.298 24.1242 62.2422 24.1507 62.1804C24.1772 62.1185 24.1908 62.052 24.1908 61.9847C24.1908 61.9175 24.1772 61.8509 24.1507 61.7891C24.1242 61.7273 24.0855 61.6715 24.0368 61.625ZM67.0041 24.6614C62.1253 16.081 56.8672 10.1428 49.9087 6.34965C42.9502 2.5565 34.3437 1.01307 22.7811 1.01307C22.7165 1.01132 22.6522 1.02257 22.5919 1.0461C22.5317 1.06964 22.4768 1.10501 22.4304 1.15013C22.3841 1.19524 22.3473 1.24917 22.3221 1.30875C22.297 1.36834 22.2841 1.43237 22.2841 1.49704C22.2841 1.62886 22.3365 1.75527 22.4297 1.84848C22.5229 1.9417 22.6493 1.99406 22.7811 1.99406C34.2522 1.99406 42.6887 3.56364 49.4379 7.22599C56.187 10.8883 61.3143 16.6435 66.1539 25.1323C66.1857 25.1881 66.2281 25.2371 66.2789 25.2765C66.3296 25.316 66.3876 25.345 66.4495 25.362C66.5114 25.379 66.5761 25.3837 66.6399 25.3757C66.7036 25.3677 66.7651 25.3472 66.821 25.3154C66.8768 25.2836 66.9258 25.2412 66.9652 25.1904C67.0046 25.1397 67.0337 25.0817 67.0507 25.0198C67.0677 24.9579 67.0723 24.8932 67.0643 24.8294C67.0563 24.7657 67.0358 24.7042 67.0041 24.6483V24.6614ZM22.7811 62.5145C35.7694 62.5145 45.0169 60.5133 52.4201 55.6606C59.8232 50.808 65.2121 43.1694 70.601 31.9992C70.6408 31.9397 70.6672 31.8724 70.6786 31.8018C70.6899 31.7312 70.6859 31.6589 70.6667 31.59C70.6476 31.5211 70.6138 31.4571 70.5677 31.4025C70.5216 31.3478 70.4642 31.3037 70.3994 31.2733C70.3347 31.2428 70.2642 31.2267 70.1927 31.226C70.1211 31.2253 70.0503 31.24 69.985 31.2692C69.9197 31.2984 69.8615 31.3413 69.8143 31.3951C69.7671 31.4488 69.7321 31.5121 69.7116 31.5807C64.3619 42.6724 59.0384 50.1409 51.8838 54.8366C44.7291 59.5323 35.6909 61.455 22.7811 61.455C22.7165 61.4532 22.6522 61.4645 22.5919 61.488C22.5317 61.5115 22.4768 61.5469 22.4304 61.592C22.3841 61.6371 22.3473 61.6911 22.3221 61.7507C22.297 61.8103 22.2841 61.8743 22.2841 61.9389C22.2787 62.0074 22.2875 62.0763 22.31 62.1412C22.3326 62.2061 22.3684 62.2657 22.4151 62.3161C22.4618 62.3664 22.5184 62.4066 22.5814 62.434C22.6445 62.4614 22.7124 62.4754 22.7811 62.4752V62.5145Z" stroke="#4570B6" stroke-width="2" stroke-linecap="round" stroke-linejoin="round"/>
</mask>
<g mask="url(#mask0_4485_1609)">
<rect x="69.4238" y="-24.8711" width="94.1748" height="142.57" fill="#A5E1D7"/>
</g>
</svg>
