<svg width="151" height="64" viewBox="0 0 151 64" fill="none" xmlns="http://www.w3.org/2000/svg">
<path d="M138.441 59.488V4.3957C138.452 4.33182 138.449 4.2663 138.432 4.20371C138.415 4.14112 138.384 4.08298 138.343 4.03338C138.301 3.98377 138.249 3.94389 138.19 3.91653C138.131 3.88917 138.067 3.875 138.002 3.875C137.938 3.875 137.873 3.88917 137.815 3.91653C137.756 3.94389 137.704 3.98377 137.662 4.03338C137.62 4.08298 137.59 4.14112 137.573 4.20371C137.556 4.2663 137.553 4.33182 137.564 4.3957V59.488C137.582 59.5912 137.636 59.6848 137.716 59.7522C137.796 59.8197 137.898 59.8567 138.002 59.8567C138.107 59.8567 138.209 59.8197 138.289 59.7522C138.369 59.6848 138.423 59.5912 138.441 59.488Z" fill="#00ABC8" stroke="#4570B6" stroke-width="2" stroke-linecap="round" stroke-linejoin="round"/>
<path d="M123.359 49.1265V14.7004C123.371 14.6365 123.368 14.571 123.351 14.5084C123.334 14.4458 123.303 14.3877 123.262 14.3381C123.22 14.2885 123.168 14.2486 123.109 14.2212C123.05 14.1939 122.986 14.1797 122.921 14.1797C122.856 14.1797 122.792 14.1939 122.734 14.2212C122.675 14.2486 122.623 14.2885 122.581 14.3381C122.539 14.3877 122.509 14.4458 122.492 14.5084C122.475 14.571 122.472 14.6365 122.483 14.7004V49.1265C122.501 49.2297 122.555 49.3233 122.635 49.3908C122.715 49.4582 122.817 49.4952 122.921 49.4952C123.026 49.4952 123.127 49.4582 123.208 49.3908C123.288 49.3233 123.342 49.2297 123.359 49.1265Z" fill="#00ABC8" stroke="#4570B6" stroke-width="2" stroke-linecap="round" stroke-linejoin="round"/>
<path d="M97.5792 52.9056V10.9586C97.5613 10.8553 97.5075 10.7618 97.4273 10.6943C97.3472 10.6268 97.2458 10.5898 97.141 10.5898C97.0362 10.5898 96.9348 10.6268 96.8547 10.6943C96.7745 10.7618 96.7207 10.8553 96.7028 10.9586V52.9056C96.6918 52.9695 96.6948 53.035 96.7117 53.0976C96.7286 53.1602 96.759 53.2183 96.8007 53.2679C96.8425 53.3175 96.8946 53.3574 96.9533 53.3848C97.0121 53.4121 97.0762 53.4263 97.141 53.4263C97.2058 53.4263 97.2699 53.4121 97.3287 53.3848C97.3874 53.3574 97.4395 53.3175 97.4813 53.2679C97.523 53.2183 97.5534 53.1602 97.5703 53.0976C97.5872 53.035 97.5903 52.9695 97.5792 52.9056Z" fill="#00ABC8" stroke="#4570B6" stroke-width="2" stroke-linecap="round" stroke-linejoin="round"/>
<path d="M75.5267 61.0427V2.83748C75.5088 2.73425 75.4551 2.64065 75.3749 2.5732C75.2947 2.50574 75.1933 2.46875 75.0886 2.46875C74.9838 2.46875 74.8824 2.50574 74.8022 2.5732C74.7221 2.64065 74.6683 2.73425 74.6504 2.83748V61.0427C74.6683 61.146 74.7221 61.2396 74.8022 61.307C74.8824 61.3745 74.9838 61.4115 75.0886 61.4115C75.1933 61.4115 75.2947 61.3745 75.3749 61.307C75.4551 61.2396 75.5088 61.146 75.5267 61.0427Z" fill="#00ABC8" stroke="#4570B6" stroke-width="2" stroke-linecap="round" stroke-linejoin="round"/>
<path d="M11.7487 4.4582V59.5505C11.7666 59.6537 11.8204 59.7473 11.9006 59.8147C11.9807 59.8822 12.0821 59.9192 12.1869 59.9192C12.2917 59.9192 12.3931 59.8822 12.4732 59.8147C12.5534 59.7473 12.6072 59.6537 12.6251 59.5505V4.4582C12.6362 4.39432 12.6331 4.3288 12.6162 4.26621C12.5993 4.20362 12.5689 4.14548 12.5272 4.09588C12.4854 4.04627 12.4333 4.00639 12.3746 3.97903C12.3158 3.95167 12.2517 3.9375 12.1869 3.9375C12.1221 3.9375 12.058 3.95167 11.9992 3.97903C11.9405 4.00639 11.8884 4.04627 11.8466 4.09588C11.8049 4.14548 11.7745 4.20362 11.7576 4.26621C11.7407 4.3288 11.7377 4.39432 11.7487 4.4582Z" fill="#00ABC8" stroke="#4570B6" stroke-width="2" stroke-linecap="round" stroke-linejoin="round"/>
<path d="M26.8171 14.8176V49.1914C26.835 49.2946 26.8888 49.3882 26.9689 49.4557C27.0491 49.5231 27.1505 49.5601 27.2553 49.5601C27.36 49.5601 27.4614 49.5231 27.5416 49.4557C27.6218 49.3882 27.6755 49.2946 27.6934 49.1914V14.8176C27.7045 14.7537 27.7015 14.6882 27.6846 14.6256C27.6677 14.563 27.6373 14.5049 27.5955 14.4552C27.5538 14.4056 27.5017 14.3658 27.4429 14.3384C27.3841 14.311 27.3201 14.2969 27.2553 14.2969C27.1904 14.2969 27.1264 14.311 27.0676 14.3384C27.0088 14.3658 26.9567 14.4056 26.915 14.4552C26.8732 14.5049 26.8429 14.563 26.8259 14.6256C26.809 14.6882 26.806 14.7537 26.8171 14.8176Z" fill="#00ABC8" stroke="#4570B6" stroke-width="2" stroke-linecap="round" stroke-linejoin="round"/>
<path d="M52.611 11.0363V52.9703C52.6 53.0342 52.603 53.0997 52.6199 53.1623C52.6368 53.2249 52.6672 53.283 52.7089 53.3326C52.7507 53.3822 52.8028 53.4221 52.8615 53.4494C52.9203 53.4768 52.9844 53.491 53.0492 53.491C53.114 53.491 53.1781 53.4768 53.2369 53.4494C53.2956 53.4221 53.3477 53.3822 53.3895 53.3326C53.4312 53.283 53.4616 53.2249 53.4785 53.1623C53.4954 53.0997 53.4985 53.0342 53.4874 52.9703V11.0363C53.4985 10.9724 53.4954 10.9069 53.4785 10.8443C53.4616 10.7817 53.4312 10.7236 53.3895 10.674C53.3477 10.6244 53.2956 10.5845 53.2369 10.5572C53.1781 10.5298 53.114 10.5156 53.0492 10.5156C52.9844 10.5156 52.9203 10.5298 52.8615 10.5572C52.8028 10.5845 52.7507 10.6244 52.7089 10.674C52.6672 10.7236 52.6368 10.7817 52.6199 10.8443C52.603 10.9069 52.6 10.9724 52.611 11.0363Z" fill="#00ABC8" stroke="#4570B6" stroke-width="2" stroke-linecap="round" stroke-linejoin="round"/>
<path d="M74.6237 2.92695V61.093C74.6126 61.1569 74.6157 61.2224 74.6326 61.285C74.6495 61.3476 74.6799 61.4057 74.7216 61.4553C74.7634 61.5049 74.8155 61.5448 74.8742 61.5721C74.933 61.5995 74.9971 61.6137 75.0619 61.6137C75.1267 61.6137 75.1908 61.5995 75.2496 61.5721C75.3083 61.5448 75.3604 61.5049 75.4022 61.4553C75.4439 61.4057 75.4743 61.3476 75.4912 61.285C75.5081 61.2224 75.5112 61.1569 75.5001 61.093V2.92695C75.5112 2.86307 75.5081 2.79754 75.4912 2.73495C75.4743 2.67236 75.4439 2.61423 75.4022 2.56462C75.3604 2.51502 75.3083 2.47514 75.2496 2.44778C75.1908 2.42042 75.1267 2.40625 75.0619 2.40625C74.9971 2.40625 74.933 2.42042 74.8742 2.44778C74.8155 2.47514 74.7634 2.51502 74.7216 2.56462C74.6799 2.61423 74.6495 2.67236 74.6326 2.73495C74.6157 2.79754 74.6126 2.86307 74.6237 2.92695Z" fill="#00ABC8" stroke="#4570B6" stroke-width="2" stroke-linecap="round" stroke-linejoin="round"/>
<path d="M113.681 37.4451C118.442 47.9089 124.144 54.2265 130.2 57.9935C135.759 61.3535 142.162 63.0553 148.656 62.8984C148.72 62.9095 148.785 62.9065 148.848 62.8896C148.911 62.8727 148.969 62.8423 149.018 62.8005C149.068 62.7588 149.108 62.7067 149.135 62.6479C149.163 62.5891 149.177 62.5251 149.177 62.4603C149.177 62.3954 149.163 62.3314 149.135 62.2726C149.108 62.2138 149.068 62.1617 149.018 62.12C148.969 62.0783 148.911 62.0479 148.848 62.031C148.785 62.014 148.72 62.011 148.656 62.0221C142.324 62.181 136.079 60.5244 130.658 57.248C124.785 53.5856 119.187 47.3727 114.478 37.0788C114.448 37.0289 114.407 36.9855 114.36 36.9511C114.312 36.9168 114.258 36.8923 114.201 36.8789C114.144 36.8655 114.085 36.8636 114.027 36.8732C113.969 36.8828 113.913 36.9038 113.864 36.935C113.812 36.9589 113.766 36.9928 113.727 37.0347C113.689 37.0766 113.659 37.1257 113.639 37.1792C113.62 37.2327 113.611 37.2895 113.614 37.3463C113.616 37.4032 113.63 37.459 113.654 37.5105" fill="#A5E1D7"/>
<path d="M113.681 37.4451C118.442 47.909 124.144 54.2265 130.2 57.9935C135.759 61.3535 142.162 63.0553 148.656 62.8984C148.72 62.9095 148.785 62.9065 148.848 62.8896C148.911 62.8727 148.969 62.8423 149.018 62.8005C149.068 62.7588 149.108 62.7067 149.135 62.6479C149.163 62.5891 149.177 62.5251 149.177 62.4603C149.177 62.3954 149.163 62.3314 149.135 62.2726C149.108 62.2138 149.068 62.1617 149.018 62.12C148.969 62.0783 148.911 62.0479 148.848 62.031C148.785 62.014 148.72 62.011 148.656 62.0221C142.324 62.181 136.079 60.5244 130.658 57.248C124.785 53.5856 119.187 47.3727 114.478 37.0788C114.448 37.0289 114.407 36.9855 114.36 36.9511C114.312 36.9168 114.258 36.8923 114.201 36.8789C114.144 36.8655 114.085 36.8636 114.027 36.8732C113.969 36.8828 113.913 36.9038 113.864 36.935C113.812 36.9589 113.766 36.9928 113.727 37.0347C113.689 37.0766 113.659 37.1257 113.639 37.1792C113.62 37.2327 113.611 37.2895 113.614 37.3463C113.616 37.4032 113.63 37.459 113.654 37.5105" stroke="#A5E1D7" stroke-width="2" stroke-linecap="round" stroke-linejoin="round"/>
<path d="M148.656 1.04578C141.595 0.8826 134.66 2.93646 128.827 6.91862C122.287 11.4573 116.244 19.1614 111.47 31.7703C111.428 31.8779 111.431 31.9975 111.478 32.103C111.524 32.2085 111.611 32.2911 111.718 32.3328C111.826 32.3744 111.945 32.3716 112.051 32.325C112.156 32.2784 112.239 32.1918 112.281 32.0842C117.029 19.5537 122.993 12.0198 129.284 7.59878C134.97 3.71484 141.733 1.7154 148.616 1.88289C148.68 1.89397 148.746 1.89094 148.808 1.87403C148.871 1.85712 148.929 1.82672 148.979 1.78498C149.028 1.74324 149.068 1.69115 149.096 1.63237C149.123 1.5736 149.137 1.50955 149.137 1.44472C149.137 1.37988 149.123 1.31583 149.096 1.25705C149.068 1.19828 149.028 1.14619 148.979 1.10445C148.929 1.06271 148.871 1.03231 148.808 1.0154C148.746 0.998488 148.68 0.995461 148.616 1.00654L148.656 1.04578Z" fill="#A5E1D7" stroke="#A5E1D7" stroke-width="2" stroke-linecap="round" stroke-linejoin="round"/>
<path d="M110.07 26.4737C105.309 16.0098 99.6065 9.70531 93.5506 5.93832C87.9917 2.57828 81.5885 0.876506 75.0949 1.03338C75.031 1.02231 74.9655 1.02533 74.9029 1.04224C74.8403 1.05916 74.7822 1.08955 74.7326 1.13129C74.683 1.17304 74.6431 1.22512 74.6158 1.2839C74.5884 1.34268 74.5742 1.40672 74.5742 1.47156C74.5742 1.53639 74.5884 1.60044 74.6158 1.65922C74.6431 1.718 74.683 1.77008 74.7326 1.81182C74.7822 1.85357 74.8403 1.88396 74.9029 1.90087C74.9655 1.91779 75.031 1.92081 75.0949 1.90973C81.4269 1.75082 87.6721 3.40742 93.0928 6.68387C98.9656 10.3331 104.564 16.5591 109.273 26.8399C109.297 26.8932 109.331 26.9412 109.373 26.9812C109.416 27.0212 109.466 27.0524 109.521 27.0731C109.575 27.0937 109.634 27.1034 109.692 27.1015C109.75 27.0997 109.808 27.0863 109.861 27.0623C109.966 27.0113 110.047 26.921 110.086 26.8109C110.126 26.7007 110.12 26.5796 110.07 26.4737Z" fill="#A5E1D7" stroke="#A5E1D7" stroke-width="2" stroke-linecap="round" stroke-linejoin="round"/>
<path d="M75.0947 62.8997C82.1579 63.0643 89.0943 61.0054 94.9238 57.0138C101.464 52.475 107.507 44.771 112.281 32.1621C112.301 32.1088 112.311 32.052 112.31 31.995C112.309 31.9379 112.296 31.8816 112.273 31.8294C112.25 31.7772 112.217 31.73 112.175 31.6906C112.134 31.6511 112.085 31.6202 112.032 31.5996C111.979 31.579 111.922 31.5691 111.865 31.5704C111.808 31.5718 111.752 31.5843 111.7 31.6074C111.647 31.6305 111.6 31.6636 111.561 31.7049C111.521 31.7462 111.49 31.7949 111.47 31.8482C106.722 44.3917 100.757 51.9257 94.466 56.3336C88.7813 60.2214 82.019 62.2253 75.134 62.0626C75.0701 62.0515 75.0046 62.0545 74.942 62.0714C74.8794 62.0883 74.8213 62.1187 74.7717 62.1605C74.7221 62.2022 74.6822 62.2543 74.6548 62.3131C74.6275 62.3719 74.6133 62.4359 74.6133 62.5007C74.6133 62.5656 74.6275 62.6296 74.6548 62.6884C74.6822 62.7472 74.7221 62.7993 74.7717 62.841C74.8213 62.8828 74.8794 62.9132 74.942 62.9301C75.0046 62.947 75.0701 62.95 75.134 62.9389L75.0947 62.8997Z" fill="#A5E1D7" stroke="#A5E1D7" stroke-width="2" stroke-linecap="round" stroke-linejoin="round"/>
<path d="M36.4962 26.4717C31.7351 16.0078 26.0323 9.69023 19.9763 5.92323C14.4192 2.55912 8.01479 0.85703 1.5207 1.0183C1.45682 1.00722 1.39129 1.01024 1.3287 1.02715C1.26611 1.04407 1.20798 1.07446 1.15837 1.1162C1.10877 1.15795 1.06889 1.21003 1.04153 1.26881C1.01417 1.32759 1 1.39164 1 1.45647C1 1.5213 1.01417 1.58535 1.04153 1.64413C1.06889 1.70291 1.10877 1.75499 1.15837 1.79674C1.20798 1.83848 1.26611 1.86887 1.3287 1.88579C1.39129 1.9027 1.45682 1.90572 1.5207 1.89464C7.85284 1.73426 14.0984 3.39098 19.5186 6.66878C25.3914 10.3311 30.9896 16.5441 35.6983 26.8379C35.7492 26.9431 35.8395 27.0241 35.9497 27.0633C36.0598 27.1024 36.181 27.0967 36.2869 27.0472C36.3386 27.0233 36.385 26.9894 36.4235 26.9475C36.462 26.9056 36.4918 26.8564 36.5113 26.8029C36.5307 26.7495 36.5394 26.6926 36.5368 26.6358C36.5342 26.5789 36.5204 26.5232 36.4962 26.4717Z" fill="#A5E1D7" stroke="#A5E1D7" stroke-width="2" stroke-linecap="round" stroke-linejoin="round"/>
<path d="M1.5215 62.8992C8.58854 63.0622 15.5286 61.0035 21.3636 57.0133C27.9035 52.4746 33.9333 44.7705 38.7206 32.1616C38.7555 32.0521 38.748 31.9335 38.6995 31.8293C38.6511 31.7251 38.5652 31.643 38.459 31.5991C38.3496 31.5609 38.2296 31.5668 38.1246 31.6157C38.0196 31.6646 37.9377 31.7525 37.8965 31.8608C33.1616 44.3912 27.1841 51.9252 20.8927 56.3331C15.2107 60.2265 8.44662 62.2311 1.56074 62.0621C1.49686 62.051 1.43133 62.054 1.36874 62.0709C1.30615 62.0879 1.24802 62.1182 1.19842 62.16C1.14881 62.2017 1.10893 62.2538 1.08157 62.3126C1.05421 62.3714 1.04004 62.4354 1.04004 62.5003C1.04004 62.5651 1.05421 62.6291 1.08157 62.6879C1.10893 62.7467 1.14881 62.7988 1.19842 62.8405C1.24802 62.8823 1.30615 62.9127 1.36874 62.9296C1.43133 62.9465 1.49686 62.9495 1.56074 62.9384L1.5215 62.8992Z" fill="#A5E1D7" stroke="#A5E1D7" stroke-width="2" stroke-linecap="round" stroke-linejoin="round"/>
<path d="M40.106 37.4447C44.8671 47.9086 50.5699 54.2262 56.6259 57.9931C62.1888 61.3549 68.5967 63.0567 75.0946 62.8981C75.1978 62.8802 75.2914 62.8264 75.3589 62.7462C75.4263 62.6661 75.4633 62.5647 75.4633 62.4599C75.4633 62.3551 75.4263 62.2537 75.3589 62.1736C75.2914 62.0934 75.1978 62.0396 75.0946 62.0217C68.7622 62.1843 62.516 60.5274 57.0967 57.2476C51.2108 53.5852 45.6126 47.3723 40.9039 37.0785C40.88 37.0268 40.8461 36.9804 40.8042 36.9419C40.7623 36.9034 40.7132 36.8736 40.6597 36.8541C40.6062 36.8347 40.5494 36.826 40.4925 36.8286C40.4357 36.8312 40.3799 36.845 40.3284 36.8692C40.2241 36.9177 40.1426 37.0048 40.1012 37.1121C40.0597 37.2195 40.0614 37.3387 40.106 37.4447Z" fill="#A5E1D7" stroke="#A5E1D7" stroke-width="2" stroke-linecap="round" stroke-linejoin="round"/>
<path d="M75.0955 1.04706C68.028 0.88054 61.0869 2.93953 55.2534 6.93298C48.7135 11.4586 42.6837 19.1757 37.8965 31.7847C37.8754 31.8379 37.8652 31.8947 37.8663 31.9519C37.8674 32.0091 37.8799 32.0655 37.903 32.1179C37.9262 32.1702 37.9595 32.2174 38.001 32.2568C38.0425 32.2961 38.0915 32.3268 38.145 32.3471C38.1999 32.368 38.2585 32.3779 38.3172 32.376C38.376 32.3742 38.4338 32.3607 38.4873 32.3364C38.5408 32.312 38.589 32.2773 38.629 32.2343C38.6691 32.1912 38.7002 32.1407 38.7205 32.0855C43.4554 19.555 49.4198 12.021 55.7243 7.61313C61.4103 3.71788 68.1792 1.71331 75.0694 1.88416C75.1726 1.86626 75.2662 1.81249 75.3336 1.73233C75.4011 1.65216 75.4381 1.55076 75.4381 1.44599C75.4381 1.34122 75.4011 1.23981 75.3336 1.15965C75.2662 1.07949 75.1726 1.02571 75.0694 1.00781L75.0955 1.04706Z" fill="#A5E1D7" stroke="#A5E1D7" stroke-width="2" stroke-linecap="round" stroke-linejoin="round"/>
</svg>
