<svg width="128" height="89" viewBox="0 0 128 89" fill="none" xmlns="http://www.w3.org/2000/svg">
<path d="M112.607 38.5678C117.274 42.6472 121.484 47.2215 125.164 52.2101C125.371 52.4452 125.487 52.7469 125.491 53.0603C125.491 53.3212 125.414 53.5762 125.268 53.7928L125.674 54.0674L125.281 53.7797C109.873 74.5897 87.4284 86.4793 63.7408 86.4793C40.0533 86.4793 17.6344 74.5635 2.26562 53.7797C2.10258 53.5655 2.01517 53.3033 2.0171 53.0341C2.01507 52.769 2.10265 52.5109 2.26562 52.3017C17.6867 31.4786 40.1317 19.6021 63.7408 19.6021C67.749 19.7185 71.7483 20.0459 75.722 20.5831C75.79 20.599 75.8607 20.6004 75.9293 20.5871C75.9979 20.5739 76.063 20.5463 76.1202 20.5062C76.1775 20.4662 76.2256 20.4145 76.2615 20.3545C76.2974 20.2946 76.3203 20.2277 76.3286 20.1583C76.337 20.0889 76.3306 20.0186 76.3099 19.9518C76.2892 19.8851 76.2546 19.8234 76.2085 19.7709C76.1623 19.7184 76.1056 19.6763 76.0421 19.6472C75.9785 19.6181 75.9096 19.6027 75.8397 19.6021C71.8269 19.062 67.7883 18.7346 63.7408 18.6211C39.7393 18.6211 17.0066 30.6545 1.42851 51.7131C1.15012 52.0924 1 52.5506 1 53.0211C1 53.4915 1.15012 53.9498 1.42851 54.329C17.0066 75.3483 39.7263 87.4341 63.7408 87.4341C87.7554 87.4341 110.501 75.3483 126.066 54.3029C126.326 53.9166 126.463 53.4605 126.459 52.9949C126.457 52.4401 126.252 51.9052 125.883 51.4907L125.517 51.8177L125.909 51.53C122.189 46.4789 117.931 41.8475 113.209 37.7177C113.162 37.6636 113.104 37.6202 113.039 37.5905C112.974 37.5608 112.904 37.5455 112.832 37.5455C112.761 37.5456 112.69 37.5611 112.625 37.591C112.56 37.6208 112.502 37.6644 112.456 37.7186C112.409 37.7728 112.375 37.8364 112.355 37.9051C112.335 37.9738 112.331 38.0459 112.341 38.1166C112.352 38.1873 112.378 38.2548 112.417 38.3146C112.456 38.3744 112.507 38.4251 112.568 38.4632" fill="#00ABC8"/>
<path d="M112.607 38.5678C117.274 42.6472 121.484 47.2215 125.164 52.2101C125.371 52.4452 125.487 52.7469 125.491 53.0603C125.491 53.3212 125.414 53.5762 125.268 53.7928L125.674 54.0674L125.281 53.7797C109.873 74.5897 87.4284 86.4793 63.7408 86.4793C40.0533 86.4793 17.6344 74.5635 2.26562 53.7797C2.10258 53.5655 2.01517 53.3033 2.0171 53.0341C2.01507 52.769 2.10265 52.5109 2.26562 52.3017C17.6867 31.4786 40.1317 19.6021 63.7408 19.6021C67.749 19.7185 71.7482 20.0459 75.722 20.5831C75.79 20.599 75.8607 20.6004 75.9293 20.5871C75.9979 20.5739 76.063 20.5463 76.1202 20.5062C76.1775 20.4662 76.2256 20.4145 76.2615 20.3545C76.2974 20.2946 76.3203 20.2277 76.3286 20.1583C76.337 20.0889 76.3306 20.0186 76.3099 19.9518C76.2892 19.8851 76.2546 19.8234 76.2085 19.7709C76.1623 19.7184 76.1056 19.6763 76.0421 19.6472C75.9785 19.6181 75.9096 19.6027 75.8397 19.6021C71.8269 19.062 67.7883 18.7346 63.7408 18.6211C39.7393 18.6211 17.0066 30.6545 1.42851 51.7131C1.15012 52.0924 1 52.5506 1 53.0211C1 53.4915 1.15012 53.9498 1.42851 54.329C17.0066 75.3483 39.7263 87.4341 63.7408 87.4341C87.7554 87.4341 110.501 75.3483 126.066 54.3029C126.326 53.9166 126.463 53.4605 126.459 52.9949C126.457 52.4401 126.252 51.9052 125.883 51.4907L125.517 51.8177L125.909 51.53C122.189 46.4789 117.931 41.8475 113.209 37.7177C113.162 37.6636 113.104 37.6202 113.039 37.5905C112.974 37.5608 112.904 37.5455 112.832 37.5455C112.761 37.5456 112.69 37.5611 112.625 37.591C112.56 37.6208 112.502 37.6644 112.456 37.7186C112.409 37.7728 112.375 37.8364 112.355 37.9051C112.335 37.9738 112.331 38.0459 112.341 38.1166C112.352 38.1873 112.378 38.2548 112.417 38.3146C112.456 38.3744 112.507 38.4251 112.568 38.4632" stroke="#4570B6" stroke-width="2" stroke-linecap="round" stroke-linejoin="round"/>
<path d="M78.8614 22.1553C71.7751 18.7047 63.7179 17.7953 56.0408 19.5794C48.3636 21.3636 41.5331 25.7328 36.6946 31.9546C31.8561 38.1764 29.3037 45.8725 29.4652 53.7527C29.6268 61.6328 32.4926 69.2178 37.5821 75.236C42.6716 81.2543 49.6754 85.3399 57.4193 86.8078C65.1631 88.2757 73.1762 87.0368 80.1152 83.2986C87.0541 79.5605 92.497 73.5505 95.5312 66.2762C98.5655 59.0019 99.0067 50.9055 96.7808 43.3446L95.8391 43.6193C98.0052 50.9704 97.5779 58.8427 94.6289 65.9162C91.6799 72.9896 86.3885 78.8341 79.6421 82.4694C72.8956 86.1048 65.1044 87.31 57.5749 85.883C50.0453 84.456 43.2354 80.4835 38.287 74.6317C33.3386 68.7798 30.5527 61.4046 30.3964 53.7426C30.2401 46.0806 32.723 38.5978 37.4287 32.5491C42.1343 26.5004 48.7766 22.2535 56.2417 20.5207C63.7068 18.7878 71.5407 19.6744 78.4298 23.0316L78.8614 22.1553ZM63.7542 68.1832V68.6802C66.8353 68.6802 69.8471 67.7666 72.4089 66.0549C74.9707 64.3431 76.9674 61.9101 78.1465 59.0636C79.3256 56.2171 79.6341 53.0849 79.033 50.063C78.4319 47.0412 76.9482 44.2654 74.7696 42.0868C72.591 39.9082 69.8152 38.4245 66.7934 37.8234C63.7715 37.2223 60.6393 37.5308 57.7928 38.7099C54.9462 39.889 52.5133 41.8856 50.8015 44.4474C49.0898 47.0092 48.1761 50.0211 48.1761 53.1022C48.1761 57.2337 49.8174 61.1961 52.7389 64.1175C55.6603 67.039 59.6227 68.6802 63.7542 68.6802V67.6993C60.3771 67.7001 57.1041 66.5298 54.493 64.388C51.882 62.2461 50.0944 59.2652 49.4348 55.953C48.7752 52.6409 49.2845 49.2026 50.8759 46.2238C52.4672 43.2451 55.0422 40.9103 58.162 39.6173C61.2819 38.3243 64.7535 38.1531 67.9854 39.1328C71.2174 40.1125 74.0096 42.1826 75.8863 44.9902C77.7631 47.7979 78.6083 51.1694 78.2779 54.5304C77.9474 57.8913 76.4618 61.0337 74.0742 63.4221C72.7204 64.7795 71.1118 65.856 69.3408 66.59C67.5698 67.324 65.6713 67.701 63.7542 67.6993V68.1832Z" fill="#00ABC8"/>
<path d="M63.7542 68.6802V68.1832V67.6993M63.7542 68.6802C66.8353 68.6802 69.8471 67.7666 72.4089 66.0549C74.9707 64.3431 76.9674 61.9101 78.1465 59.0636C79.3256 56.2171 79.6341 53.0849 79.033 50.063C78.4319 47.0412 76.9482 44.2654 74.7696 42.0868C72.591 39.9082 69.8152 38.4245 66.7934 37.8234C63.7715 37.2223 60.6393 37.5308 57.7928 38.7099C54.9462 39.889 52.5133 41.8856 50.8015 44.4474C49.0898 47.0092 48.1761 50.0211 48.1761 53.1022C48.1761 57.2337 49.8174 61.1961 52.7389 64.1175C55.6603 67.039 59.6227 68.6802 63.7542 68.6802ZM63.7542 68.6802V67.6993M63.7542 67.6993C60.3771 67.7001 57.1041 66.5298 54.493 64.388C51.882 62.2461 50.0944 59.2652 49.4348 55.953C48.7752 52.6409 49.2845 49.2026 50.8759 46.2238C52.4672 43.2451 55.0422 40.9103 58.162 39.6173C61.2819 38.3243 64.7535 38.1531 67.9854 39.1328C71.2174 40.1125 74.0096 42.1826 75.8863 44.9902C77.7631 47.7979 78.6083 51.1694 78.2779 54.5304C77.9474 57.8913 76.4618 61.0337 74.0742 63.4221C72.7204 64.7795 71.1118 65.856 69.3408 66.59C67.5698 67.324 65.6713 67.701 63.7542 67.6993ZM78.8614 22.1553C71.7751 18.7047 63.7179 17.7953 56.0408 19.5794C48.3636 21.3636 41.5331 25.7328 36.6946 31.9546C31.8561 38.1764 29.3037 45.8725 29.4652 53.7527C29.6268 61.6328 32.4926 69.2178 37.5821 75.236C42.6716 81.2543 49.6754 85.3398 57.4193 86.8078C65.1631 88.2757 73.1762 87.0368 80.1152 83.2986C87.0541 79.5605 92.497 73.5505 95.5312 66.2762C98.5655 59.0019 99.0067 50.9055 96.7808 43.3446L95.8391 43.6193C98.0052 50.9704 97.5779 58.8427 94.6289 65.9162C91.6799 72.9896 86.3885 78.8341 79.6421 82.4694C72.8957 86.1048 65.1044 87.31 57.5749 85.883C50.0453 84.456 43.2354 80.4835 38.287 74.6317C33.3386 68.7798 30.5527 61.4046 30.3964 53.7426C30.2401 46.0806 32.723 38.5978 37.4287 32.5491C42.1343 26.5004 48.7766 22.2535 56.2417 20.5207C63.7068 18.7878 71.5407 19.6744 78.4298 23.0316L78.8614 22.1553Z" stroke="#4570B6" stroke-width="2" stroke-linecap="round" stroke-linejoin="round"/>
<path d="M50.0334 58.554H77.6318C77.6939 58.565 77.7576 58.5622 77.8185 58.5458C77.8793 58.5295 77.9359 58.5001 77.9841 58.4595C78.0324 58.419 78.0712 58.3685 78.0979 58.3113C78.1245 58.2542 78.1383 58.192 78.1383 58.1289C78.1383 58.0659 78.1245 58.0037 78.0979 57.9465C78.0712 57.8894 78.0324 57.8388 77.9841 57.7983C77.9359 57.7578 77.8793 57.7284 77.8185 57.712C77.7576 57.6957 77.6939 57.6929 77.6318 57.7038H50.0334C49.9713 57.6929 49.9076 57.6957 49.8467 57.712C49.7858 57.7284 49.7293 57.7578 49.681 57.7983C49.6328 57.8388 49.5939 57.8894 49.5673 57.9465C49.5407 58.0037 49.5269 58.0659 49.5269 58.1289C49.5269 58.192 49.5407 58.2542 49.5673 58.3113C49.5939 58.3685 49.6328 58.419 49.681 58.4595C49.7293 58.5001 49.7858 58.5295 49.8467 58.5458C49.9076 58.5622 49.9713 58.565 50.0334 58.554ZM49.1178 53.6883H78.5343C78.6453 53.6883 78.7518 53.6442 78.8303 53.5657C78.9088 53.4873 78.9529 53.3808 78.9529 53.2698C78.9529 53.1588 78.9088 53.0523 78.8303 52.9738C78.7518 52.8953 78.6453 52.8512 78.5343 52.8512H49.1178C49.0068 52.8512 48.9003 52.8953 48.8218 52.9738C48.7433 53.0523 48.6992 53.1588 48.6992 53.2698C48.6992 53.3808 48.7433 53.4873 48.8218 53.5657C48.9003 53.6442 49.0068 53.6883 49.1178 53.6883ZM50.4258 48.8357H77.2787C77.3388 48.8393 77.399 48.8309 77.4559 48.8111C77.5128 48.7913 77.5653 48.7605 77.6102 48.7204C77.6552 48.6803 77.6918 48.6317 77.7179 48.5774C77.7441 48.5231 77.7593 48.4642 77.7626 48.4041C77.7593 48.3445 77.7441 48.2861 77.7178 48.2325C77.6915 48.1789 77.6546 48.1311 77.6095 48.0921C77.5643 48.053 77.5117 48.0234 77.4549 48.0051C77.3981 47.9868 77.3381 47.9802 77.2787 47.9855H50.3996C50.3401 47.9802 50.2802 47.9868 50.2233 48.0051C50.1665 48.0234 50.1139 48.053 50.0688 48.0921C50.0236 48.1311 49.9868 48.1789 49.9605 48.2325C49.9342 48.2861 49.9189 48.3445 49.9156 48.4041C49.9118 48.4686 49.9217 48.5332 49.9447 48.5937C49.9677 48.6541 50.0032 48.709 50.0489 48.7548C50.0947 48.8005 50.1495 48.836 50.21 48.859C50.2704 48.8819 50.335 48.8918 50.3996 48.888L50.4258 48.8357ZM54.075 43.97H73.6948C73.7568 43.981 73.8206 43.9781 73.8814 43.9618C73.9423 43.9455 73.9989 43.9161 74.0471 43.8755C74.0954 43.835 74.1342 43.7844 74.1608 43.7273C74.1875 43.6702 74.2013 43.6079 74.2013 43.5449C74.2013 43.4819 74.1875 43.4197 74.1608 43.3625C74.1342 43.3054 74.0954 43.2548 74.0471 43.2143C73.9989 43.1738 73.9423 43.1443 73.8814 43.128C73.8206 43.1117 73.7568 43.1089 73.6948 43.1198H54.075C54.013 43.1089 53.9493 43.1117 53.8884 43.128C53.8275 43.1443 53.771 43.1738 53.7227 43.2143C53.6744 43.2548 53.6356 43.3054 53.609 43.3625C53.5823 43.4197 53.5685 43.4819 53.5685 43.5449C53.5685 43.6079 53.5823 43.6702 53.609 43.7273C53.6356 43.7844 53.6744 43.835 53.7227 43.8755C53.771 43.9161 53.8275 43.9455 53.8884 43.9618C53.9493 43.9781 54.013 43.981 54.075 43.97ZM54.075 63.4197H73.6948C73.8154 63.4235 73.9328 63.3808 74.0229 63.3005C74.113 63.2202 74.1687 63.1083 74.1787 62.9881C74.1687 62.8689 74.1125 62.7585 74.022 62.6802C73.9316 62.602 73.8141 62.5623 73.6948 62.5695H54.075C53.9557 62.5623 53.8382 62.602 53.7478 62.6802C53.6573 62.7585 53.6011 62.8689 53.5911 62.9881C53.6007 63.1038 53.6528 63.2119 53.7373 63.2916C53.8218 63.3713 53.9328 63.4169 54.0489 63.4197H54.075Z" fill="#00ABC8" stroke="#4570B6" stroke-width="2" stroke-linecap="round" stroke-linejoin="round"/>
<path d="M107.362 25.3441H107.859C107.859 23.3055 107.254 21.3128 106.122 19.6178C104.989 17.9229 103.38 16.6018 101.496 15.8217C99.6128 15.0416 97.5404 14.8375 95.5411 15.2352C93.5418 15.6329 91.7052 16.6145 90.2638 18.056C88.8223 19.4974 87.8407 21.3339 87.443 23.3333C87.0453 25.3326 87.2494 27.405 88.0295 29.2883C88.8096 31.1717 90.1307 32.7814 91.8257 33.9139C93.5206 35.0465 95.5134 35.651 97.5519 35.651C98.9059 35.6527 100.247 35.3873 101.498 34.8699C102.749 34.3525 103.886 33.5934 104.844 32.636C105.801 31.6785 106.56 30.5416 107.078 29.2904C107.595 28.0391 107.861 26.6981 107.859 25.3441H106.852C106.866 27.5074 106.129 29.6086 104.766 31.2889C103.404 32.9692 101.5 34.1242 99.3801 34.5568C97.2604 34.9894 95.0563 34.6726 93.1442 33.6606C91.2321 32.6486 89.7307 31.0041 88.8963 29.0081C88.062 27.0121 87.9465 24.7883 88.5696 22.7165C89.1927 20.6448 90.5157 18.8537 92.3127 17.6491C94.1097 16.4445 96.2691 15.9011 98.4222 16.1117C100.575 16.3224 102.589 17.2741 104.118 18.8041C105.858 20.5369 106.841 22.8884 106.852 25.3441H107.336M97.5911 7.59471V8.07867C98.5541 8.02546 99.473 7.65787 100.207 7.03228C101.908 5.55625 103.326 3.78348 104.393 1.80035L103.961 1.56492H103.477C103.477 1.56492 103.477 1.70879 103.477 1.94423C103.474 3.34005 103.606 4.73289 103.869 6.10361C104.029 6.96423 104.301 7.79994 104.68 8.58879C105.007 9.35457 105.565 9.99926 106.276 10.433C106.878 10.7583 107.554 10.9207 108.238 10.9039C109.871 10.7875 111.464 10.3426 112.921 9.59594C113.734 9.21268 114.52 8.77572 115.275 8.28796L115.013 7.86939L114.595 7.62087C114.107 8.38496 113.67 9.18018 113.287 10.0014C112.536 11.4706 112.091 13.077 111.979 14.7232C111.961 15.4031 112.123 16.0756 112.45 16.6721C112.907 17.3855 113.568 17.9457 114.346 18.281C116.477 19.1031 118.747 19.5029 121.03 19.4581H121.305V18.9611L121.069 18.5294C119.986 19.1405 118.95 19.8313 117.969 20.5961C117.165 21.2152 116.44 21.9313 115.811 22.7281C115.143 23.4349 114.77 24.371 114.77 25.3441C114.77 26.3171 115.143 27.2532 115.811 27.96C117.299 29.6485 119.069 31.0649 121.043 32.1456L121.279 31.7139V31.23H120.912C119.517 31.2274 118.124 31.3588 116.753 31.6224C115.889 31.7835 115.049 32.0561 114.255 32.4333C113.549 32.713 112.947 33.2061 112.535 33.8438C112.122 34.4816 111.918 35.2322 111.953 35.991C112.075 37.6312 112.52 39.2313 113.261 40.6998C113.889 42.0732 114.503 43.0672 114.503 43.0803L114.922 42.8187L115.183 42.4001C114.414 41.941 113.619 41.5261 112.803 41.1576C111.338 40.4082 109.736 39.9633 108.094 39.8496C107.416 39.8311 106.744 39.9888 106.145 40.3074C105.444 40.8174 104.915 41.5292 104.628 42.3478C103.798 44.4808 103.398 46.7567 103.451 49.0447V49.3063H103.935L104.366 49.0839C103.768 47.9959 103.082 46.959 102.313 45.984C101.691 45.1785 100.975 44.4497 100.181 43.8128C99.4454 43.1897 98.5273 42.8225 97.565 42.7664C96.6038 42.828 95.6874 43.1945 94.949 43.8128C93.2515 45.2918 91.8338 47.064 90.7634 49.0447L91.1951 49.2802H91.679C91.679 49.2802 91.679 49.1363 91.679 48.9008C91.6816 47.505 91.5502 46.1122 91.2866 44.7415C91.124 43.8834 90.856 43.0487 90.4888 42.2563C90.1524 41.4923 89.5912 40.849 88.88 40.412C88.2782 40.0867 87.6018 39.9244 86.918 39.9412C85.2767 40.0577 83.6755 40.5025 82.2092 41.2491C81.3946 41.6373 80.604 42.0741 79.8418 42.5571L80.1034 42.9626L80.5219 43.2242C81.0002 42.4367 81.4368 41.6246 81.8299 40.7913C82.5851 39.2958 83.03 37.663 83.1379 35.991C83.1581 35.3183 83.005 34.6517 82.6932 34.0552C82.257 33.3514 81.6189 32.7953 80.862 32.4595C78.7458 31.6165 76.4818 31.2073 74.2044 31.2561H73.8251V31.7401L74.0605 32.1717C75.1486 31.5737 76.1854 30.8869 77.1604 30.1182C77.9648 29.499 78.6897 28.783 79.3186 27.9862C79.9425 27.2511 80.3099 26.3328 80.365 25.3702C80.3147 24.4066 79.9467 23.4867 79.3186 22.7542C77.8365 21.067 76.0647 19.6583 74.0867 18.5949L73.8512 19.0396V19.5235H74.1521C75.5429 19.5257 76.931 19.3987 78.2984 19.1442C79.1617 18.9791 80.0009 18.7067 80.7966 18.3333C81.5524 17.9903 82.1929 17.4361 82.6409 16.7375C82.9577 16.1331 83.1153 15.4578 83.0987 14.7755C82.9759 13.1478 82.5314 11.5607 81.7907 10.1061C81.4044 9.29467 80.9675 8.50833 80.4827 7.75168L80.0641 8.01327L79.8156 8.43184C80.5794 8.91982 81.3747 9.35677 82.1962 9.73982C83.6628 10.4855 85.2638 10.9302 86.9049 11.0478C87.5836 11.0706 88.2562 10.9126 88.8538 10.59C89.5671 10.1323 90.1274 9.47187 90.4626 8.69343C91.2858 6.55866 91.6856 4.28407 91.6398 1.99654V1.73495H91.1428L90.7111 1.9573C91.3114 3.0369 91.9935 4.06887 92.7516 5.04414C93.3694 5.8493 94.0807 6.57817 94.8705 7.2154C95.6073 7.8346 96.5255 8.19728 97.4865 8.2487V7.03228C96.7365 6.9858 96.0234 6.69132 95.4591 6.19517C94.4454 5.29889 93.5684 4.25889 92.8562 3.10833C92.5031 2.59822 92.2153 2.12734 92.0191 1.80035L91.7837 1.40795V1.26407C91.7282 1.16858 91.6439 1.09312 91.5428 1.04848C91.4418 1.00384 91.3292 0.992303 91.2212 1.01555C91.1131 1.04498 91.0181 1.1101 90.9516 1.20032C90.8851 1.29055 90.8511 1.40059 90.855 1.51259V1.80035C90.8516 3.11671 90.729 4.43005 90.4888 5.7243C90.3517 6.52846 90.1098 7.31119 89.7694 8.05251C89.5204 8.65549 89.0968 9.17023 88.553 9.53054C88.106 9.76496 87.6053 9.87773 87.1011 9.85753C85.6042 9.75531 84.1421 9.35978 82.7978 8.69343C82.1308 8.39259 81.5683 8.09175 81.1628 7.86939L80.692 7.59471L80.5219 7.50316C80.4281 7.43924 80.3148 7.41034 80.2018 7.42151C80.0889 7.43268 79.9834 7.4832 79.9039 7.56425C79.8245 7.6453 79.776 7.7517 79.767 7.86486C79.758 7.97803 79.7891 8.09076 79.8549 8.18332L79.9464 8.34027C80.445 9.17954 80.8821 10.0538 81.2544 10.9562C81.8035 12.1372 82.1274 13.4103 82.2092 14.7101C82.2288 15.2242 82.1115 15.7343 81.8692 16.1882C81.5273 16.7198 81.0358 17.1385 80.4565 17.3915C78.4776 18.1601 76.366 18.5291 74.2436 18.4771H73.8905C73.7807 18.4762 73.6736 18.5116 73.5861 18.5778C73.4985 18.6441 73.4354 18.7374 73.4065 18.8434C73.3763 18.9514 73.3846 19.0665 73.43 19.1691C73.4753 19.2717 73.5548 19.3554 73.655 19.4058L73.9035 19.5366C75.0464 20.187 76.1278 20.94 77.1343 21.7863C77.7464 22.3041 78.2952 22.8924 78.7692 23.539C79.1546 24.0464 79.3821 24.656 79.4232 25.2917C79.3655 26.0414 79.0673 26.7525 78.573 27.3191C77.6975 28.3926 76.6605 29.3237 75.4993 30.0789C74.9892 30.4452 74.5183 30.7329 74.1913 30.9422L73.7989 31.1646L73.655 31.243C73.5565 31.2953 73.4784 31.3792 73.4333 31.4812C73.3883 31.5832 73.3788 31.6975 73.4065 31.8055C73.4379 31.9125 73.5036 32.0062 73.5933 32.0723C73.6831 32.1385 73.792 32.1734 73.9035 32.1717H74.1521C75.4689 32.1784 76.7823 32.3054 78.076 32.551C78.8551 32.6877 79.6119 32.9298 80.3257 33.2704C80.9062 33.5271 81.4009 33.9447 81.7514 34.4738C81.9753 34.9241 82.0832 35.4231 82.0654 35.9256C81.9587 37.4557 81.5497 38.9495 80.862 40.3205C80.5481 40.9875 80.2473 41.6284 80.0118 41.9947L79.7371 42.4786L79.6325 42.6487C79.5757 42.7422 79.5512 42.8518 79.5631 42.9606C79.5749 43.0694 79.6223 43.1712 79.6979 43.2504C79.7791 43.327 79.8832 43.375 79.9942 43.3868C80.1053 43.3986 80.2172 43.3736 80.3127 43.3158L80.4696 43.2242C81.3088 42.7255 82.1831 42.2883 83.0856 41.9162C84.2808 41.3681 85.5665 41.0445 86.8787 40.9614C87.3931 40.9386 87.904 41.0561 88.3568 41.3014C88.8953 41.6412 89.3156 42.1392 89.5601 42.7271C90.3256 44.7073 90.6988 46.8175 90.6588 48.9401C90.6588 49.1624 90.6588 49.2932 90.6588 49.2932C90.6578 49.403 90.6932 49.51 90.7595 49.5976C90.8257 49.6851 90.9191 49.7483 91.025 49.7772C91.1331 49.8049 91.2473 49.7954 91.3493 49.7503C91.4513 49.7053 91.5352 49.6272 91.5875 49.5287C91.6311 49.4476 91.6791 49.369 91.7314 49.2932C92.3867 48.139 93.1486 47.0486 94.0072 46.0364C94.5182 45.4215 95.1074 44.8763 95.7599 44.4145C96.267 44.0177 96.883 43.785 97.5257 43.7474C98.2748 43.8079 98.985 44.1057 99.5531 44.5976C100.617 45.4829 101.547 46.5183 102.313 47.6713C102.666 48.1945 102.954 48.6654 103.163 48.9793L103.385 49.3717L103.464 49.5156C103.516 49.6141 103.6 49.6922 103.702 49.7373C103.804 49.7823 103.918 49.7918 104.026 49.7641C104.133 49.7327 104.227 49.6671 104.293 49.5773C104.359 49.4875 104.394 49.3786 104.393 49.2671V49.0316C104.391 47.7156 104.509 46.4022 104.746 45.1077C104.899 44.3074 105.14 43.5266 105.465 42.7795C105.719 42.1793 106.141 41.6658 106.682 41.3014C107.134 41.0682 107.638 40.9556 108.147 40.9744C109.644 41.0814 111.106 41.4814 112.45 42.1516C113.104 42.4525 113.679 42.7533 114.085 42.9757L114.556 43.2373L114.713 43.3419C114.807 43.3975 114.918 43.4201 115.027 43.4061C115.136 43.3921 115.238 43.3423 115.315 43.2646C115.393 43.1868 115.443 43.0854 115.457 42.9764C115.471 42.8673 115.448 42.7566 115.393 42.6618L115.301 42.5048C114.808 41.6624 114.371 40.7886 113.993 39.8888C113.444 38.6896 113.12 37.3993 113.038 36.0826C113.009 35.5327 113.131 34.9852 113.392 34.4999C113.734 33.9642 114.231 33.5447 114.817 33.2966C116.797 32.5301 118.907 32.1569 121.03 32.1979H121.37C121.48 32.1989 121.587 32.1635 121.675 32.0972C121.762 32.0309 121.825 31.9376 121.854 31.8317C121.885 31.7251 121.879 31.6111 121.836 31.5087C121.793 31.4063 121.717 31.3217 121.619 31.2692L121.37 31.1253C120.219 30.4723 119.132 29.7102 118.126 28.8494C117.511 28.3304 116.962 27.7373 116.491 27.0837C116.104 26.5727 115.876 25.9582 115.837 25.3179C115.9 24.5693 116.197 23.8596 116.688 23.2905C117.567 22.2203 118.603 21.2898 119.761 20.5307C120.285 20.1775 120.755 19.8767 121.069 19.6805L121.475 19.4451L121.606 19.3797C121.704 19.3274 121.782 19.2435 121.827 19.1415C121.872 19.0395 121.882 18.9252 121.854 18.8172C121.825 18.7113 121.762 18.6179 121.675 18.5517C121.587 18.4854 121.48 18.45 121.37 18.451H121.122C119.806 18.4461 118.493 18.3279 117.198 18.0978C116.395 17.9466 115.614 17.7007 114.87 17.3653C114.272 17.1269 113.758 16.7175 113.392 16.1882C113.157 15.7413 113.044 15.2406 113.065 14.7363C113.17 13.2341 113.57 11.7674 114.242 10.42C114.543 9.76596 114.843 9.19045 115.066 8.78498C115.17 8.58878 115.262 8.41874 115.327 8.3141L115.432 8.14408C115.496 8.05026 115.525 7.93696 115.514 7.82399C115.502 7.71102 115.452 7.60556 115.371 7.52607C115.29 7.44658 115.183 7.39813 115.07 7.38916C114.957 7.38019 114.844 7.41127 114.752 7.47699L114.595 7.56856C113.751 8.05895 112.877 8.49581 111.979 8.87654C110.793 9.42579 109.516 9.74957 108.212 9.83137C107.698 9.85222 107.187 9.73479 106.734 9.4913C106.195 9.15156 105.775 8.65356 105.531 8.06558C104.765 6.0854 104.392 3.97527 104.432 1.85266C104.432 1.6303 104.432 1.51259 104.432 1.51259C104.434 1.4011 104.399 1.29214 104.332 1.20238C104.266 1.11262 104.173 1.04699 104.066 1.01555C103.958 0.987867 103.843 0.997339 103.741 1.04241C103.639 1.08749 103.555 1.16555 103.503 1.26407L103.372 1.51259C102.709 2.66071 101.943 3.7464 101.083 4.75638C100.569 5.37161 99.9802 5.92078 99.3307 6.39136C98.8198 6.77916 98.2053 7.00675 97.565 7.04536L97.5911 7.59471Z" fill="#A5E1D7"/>
<path d="M107.362 25.3441H107.859M107.859 25.3441C107.859 23.3055 107.254 21.3128 106.122 19.6178C104.989 17.9229 103.38 16.6018 101.496 15.8217C99.6128 15.0416 97.5404 14.8375 95.5411 15.2352C93.5418 15.6329 91.7052 16.6145 90.2638 18.056C88.8223 19.4974 87.8407 21.3339 87.443 23.3333C87.0453 25.3326 87.2494 27.405 88.0295 29.2883C88.8096 31.1717 90.1307 32.7814 91.8257 33.9139C93.5206 35.0465 95.5134 35.651 97.5519 35.651C98.9059 35.6527 100.247 35.3873 101.498 34.8699C102.749 34.3525 103.886 33.5934 104.844 32.636C105.801 31.6785 106.56 30.5416 107.078 29.2904C107.595 28.0391 107.861 26.6981 107.859 25.3441ZM107.859 25.3441H106.852M106.852 25.3441C106.866 27.5074 106.129 29.6086 104.766 31.2889C103.404 32.9692 101.5 34.1242 99.3801 34.5568C97.2604 34.9894 95.0563 34.6726 93.1442 33.6606C91.2321 32.6486 89.7307 31.0041 88.8963 29.0081C88.062 27.0121 87.9465 24.7883 88.5696 22.7165C89.1927 20.6448 90.5157 18.8537 92.3127 17.6491C94.1097 16.4445 96.2691 15.9011 98.4222 16.1117C100.575 16.3224 102.589 17.2741 104.118 18.8041C105.858 20.5369 106.841 22.8884 106.852 25.3441ZM106.852 25.3441H107.336M97.5911 7.59471V8.07867C98.5541 8.02546 99.473 7.65787 100.207 7.03228C101.908 5.55625 103.326 3.78348 104.393 1.80035L103.961 1.56492H103.477C103.477 1.56492 103.477 1.70879 103.477 1.94423C103.474 3.34005 103.606 4.73289 103.869 6.10361C104.029 6.96423 104.301 7.79994 104.68 8.58879C105.007 9.35457 105.565 9.99926 106.276 10.433C106.878 10.7583 107.554 10.9207 108.238 10.9039C109.871 10.7875 111.464 10.3426 112.921 9.59594C113.734 9.21268 114.52 8.77572 115.275 8.28796L115.013 7.86939L114.595 7.62087C114.107 8.38496 113.67 9.18018 113.287 10.0014C112.536 11.4706 112.091 13.077 111.979 14.7232C111.961 15.4031 112.123 16.0756 112.45 16.6721C112.907 17.3855 113.568 17.9457 114.346 18.2809C116.477 19.1031 118.747 19.5029 121.03 19.4581H121.305V18.9611L121.069 18.5294C119.986 19.1405 118.95 19.8313 117.969 20.5961C117.165 21.2152 116.44 21.9313 115.811 22.7281C115.143 23.4349 114.77 24.371 114.77 25.3441C114.77 26.3171 115.143 27.2532 115.811 27.96C117.299 29.6485 119.069 31.0649 121.043 32.1456L121.279 31.7139V31.23H120.912C119.517 31.2274 118.124 31.3588 116.753 31.6224C115.889 31.7835 115.049 32.0561 114.255 32.4333C113.549 32.713 112.947 33.2061 112.535 33.8438C112.122 34.4816 111.918 35.2322 111.953 35.991C112.075 37.6312 112.52 39.2313 113.261 40.6998C113.889 42.0732 114.503 43.0672 114.503 43.0803L114.922 42.8187L115.183 42.4001C114.414 41.941 113.619 41.5261 112.803 41.1576C111.338 40.4082 109.736 39.9633 108.094 39.8496C107.416 39.8311 106.744 39.9889 106.145 40.3074C105.444 40.8174 104.915 41.5292 104.628 42.3478C103.798 44.4808 103.398 46.7567 103.451 49.0447V49.3063H103.935L104.366 49.0839C103.768 47.9959 103.082 46.959 102.313 45.984C101.691 45.1785 100.975 44.4497 100.181 43.8128C99.4454 43.1897 98.5273 42.8225 97.565 42.7664C96.6038 42.828 95.6874 43.1945 94.949 43.8128C93.2515 45.2918 91.8338 47.064 90.7634 49.0447L91.1951 49.2802H91.679C91.679 49.2802 91.679 49.1363 91.679 48.9008C91.6816 47.505 91.5502 46.1122 91.2866 44.7415C91.124 43.8834 90.856 43.0487 90.4888 42.2563C90.1524 41.4923 89.5912 40.849 88.88 40.412C88.2782 40.0867 87.6018 39.9244 86.918 39.9412C85.2767 40.0577 83.6755 40.5025 82.2092 41.2491C81.3946 41.6373 80.604 42.0741 79.8418 42.5571L80.1034 42.9626L80.5219 43.2242C81.0002 42.4367 81.4368 41.6246 81.8299 40.7913C82.5851 39.2958 83.03 37.663 83.1379 35.991C83.1581 35.3183 83.005 34.6517 82.6932 34.0552C82.257 33.3514 81.6189 32.7953 80.862 32.4595C78.7458 31.6165 76.4818 31.2073 74.2044 31.2561H73.8251V31.7401L74.0605 32.1717C75.1486 31.5737 76.1854 30.8869 77.1604 30.1182C77.9648 29.499 78.6897 28.783 79.3186 27.9862C79.9425 27.2511 80.3099 26.3328 80.365 25.3702C80.3147 24.4066 79.9467 23.4867 79.3186 22.7542C77.8365 21.067 76.0647 19.6583 74.0867 18.5949L73.8512 19.0396V19.5235H74.1521C75.5429 19.5257 76.931 19.3987 78.2984 19.1442C79.1617 18.9791 80.0009 18.7067 80.7966 18.3333C81.5524 17.9903 82.1929 17.4361 82.6409 16.7375C82.9577 16.1331 83.1153 15.4578 83.0987 14.7755C82.9759 13.1478 82.5314 11.5607 81.7907 10.1061C81.4044 9.29467 80.9675 8.50833 80.4827 7.75168L80.0641 8.01327L79.8156 8.43184C80.5794 8.91982 81.3747 9.35677 82.1962 9.73982C83.6628 10.4855 85.2638 10.9302 86.9049 11.0478C87.5836 11.0706 88.2562 10.9126 88.8538 10.59C89.5671 10.1323 90.1274 9.47187 90.4626 8.69343C91.2858 6.55866 91.6856 4.28407 91.6398 1.99654V1.73495H91.1428L90.7111 1.9573C91.3114 3.0369 91.9935 4.06887 92.7516 5.04414C93.3694 5.8493 94.0807 6.57817 94.8705 7.2154C95.6073 7.8346 96.5255 8.19728 97.4865 8.2487V7.03228C96.7365 6.9858 96.0234 6.69132 95.4591 6.19517C94.4454 5.29889 93.5684 4.25889 92.8562 3.10833C92.5031 2.59822 92.2153 2.12734 92.0191 1.80035L91.7837 1.40795V1.26407C91.7282 1.16858 91.6439 1.09312 91.5428 1.04848C91.4418 1.00384 91.3292 0.992303 91.2212 1.01555C91.1131 1.04498 91.0181 1.1101 90.9516 1.20032C90.8851 1.29055 90.8511 1.40059 90.855 1.51259V1.80035C90.8516 3.11671 90.729 4.43005 90.4888 5.7243C90.3517 6.52846 90.1098 7.31119 89.7694 8.05251C89.5204 8.65549 89.0968 9.17023 88.553 9.53054C88.106 9.76496 87.6053 9.87773 87.1011 9.85753C85.6042 9.75531 84.1421 9.35978 82.7978 8.69343C82.1308 8.39259 81.5683 8.09175 81.1628 7.86939L80.692 7.59471L80.5219 7.50316C80.4281 7.43924 80.3148 7.41034 80.2018 7.42151C80.0889 7.43268 79.9834 7.4832 79.9039 7.56425C79.8245 7.6453 79.776 7.7517 79.767 7.86486C79.758 7.97803 79.7891 8.09076 79.8549 8.18332L79.9464 8.34027C80.445 9.17954 80.8821 10.0538 81.2544 10.9562C81.8035 12.1372 82.1274 13.4103 82.2092 14.7101C82.2288 15.2242 82.1115 15.7343 81.8692 16.1882C81.5273 16.7198 81.0358 17.1385 80.4565 17.3915C78.4776 18.1601 76.366 18.5291 74.2436 18.4771H73.8905C73.7807 18.4762 73.6736 18.5116 73.5861 18.5778C73.4985 18.6441 73.4354 18.7374 73.4065 18.8434C73.3763 18.9514 73.3846 19.0665 73.43 19.1691C73.4753 19.2717 73.5548 19.3554 73.655 19.4058L73.9035 19.5366C75.0464 20.187 76.1278 20.94 77.1343 21.7863C77.7464 22.3041 78.2952 22.8924 78.7692 23.539C79.1546 24.0464 79.3821 24.656 79.4232 25.2917C79.3655 26.0414 79.0673 26.7525 78.573 27.3191C77.6975 28.3926 76.6605 29.3237 75.4993 30.0789C74.9892 30.4452 74.5183 30.7329 74.1913 30.9422L73.7989 31.1646L73.655 31.243C73.5565 31.2953 73.4784 31.3792 73.4333 31.4812C73.3883 31.5832 73.3788 31.6975 73.4065 31.8055C73.4379 31.9125 73.5036 32.0062 73.5933 32.0723C73.6831 32.1385 73.792 32.1734 73.9035 32.1717H74.1521C75.4689 32.1784 76.7823 32.3054 78.076 32.551C78.8551 32.6877 79.6119 32.9298 80.3257 33.2704C80.9062 33.5271 81.4009 33.9447 81.7514 34.4738C81.9753 34.9241 82.0832 35.4231 82.0654 35.9256C81.9587 37.4557 81.5497 38.9495 80.862 40.3205C80.5481 40.9875 80.2473 41.6284 80.0118 41.9947L79.7371 42.4786L79.6325 42.6487C79.5757 42.7422 79.5513 42.8518 79.5631 42.9606C79.5749 43.0694 79.6223 43.1712 79.6979 43.2504C79.7791 43.327 79.8832 43.375 79.9942 43.3868C80.1053 43.3986 80.2172 43.3737 80.3127 43.3158L80.4696 43.2242C81.3088 42.7255 82.1831 42.2883 83.0856 41.9162C84.2808 41.3681 85.5665 41.0445 86.8787 40.9614C87.3931 40.9386 87.904 41.0561 88.3568 41.3014C88.8953 41.6412 89.3156 42.1392 89.5601 42.7271C90.3256 44.7073 90.6988 46.8175 90.6588 48.9401C90.6588 49.1624 90.6588 49.2932 90.6588 49.2932C90.6578 49.403 90.6932 49.51 90.7595 49.5976C90.8257 49.6851 90.9191 49.7483 91.025 49.7772C91.1331 49.8049 91.2473 49.7954 91.3493 49.7503C91.4513 49.7053 91.5352 49.6272 91.5875 49.5287C91.6311 49.4476 91.6791 49.369 91.7314 49.2932C92.3867 48.139 93.1486 47.0486 94.0072 46.0364C94.5182 45.4215 95.1074 44.8763 95.7599 44.4145C96.267 44.0177 96.883 43.785 97.5257 43.7474C98.2748 43.8079 98.985 44.1057 99.5531 44.5976C100.617 45.4829 101.547 46.5183 102.313 47.6713C102.666 48.1945 102.954 48.6654 103.163 48.9793L103.385 49.3717L103.464 49.5156C103.516 49.6141 103.6 49.6922 103.702 49.7373C103.804 49.7823 103.918 49.7918 104.026 49.7641C104.133 49.7327 104.227 49.6671 104.293 49.5773C104.359 49.4875 104.394 49.3786 104.393 49.2671V49.0316C104.391 47.7156 104.509 46.4022 104.746 45.1077C104.899 44.3074 105.14 43.5266 105.465 42.7795C105.719 42.1793 106.141 41.6658 106.682 41.3014C107.134 41.0682 107.638 40.9556 108.147 40.9745C109.644 41.0814 111.106 41.4814 112.45 42.1516C113.104 42.4525 113.679 42.7533 114.085 42.9757L114.556 43.2373L114.713 43.3419C114.807 43.3975 114.918 43.4201 115.027 43.4061C115.136 43.3921 115.238 43.3423 115.315 43.2646C115.393 43.1868 115.443 43.0854 115.457 42.9764C115.471 42.8673 115.448 42.7566 115.393 42.6618L115.301 42.5048C114.808 41.6624 114.371 40.7886 113.993 39.8888C113.444 38.6896 113.12 37.3993 113.038 36.0826C113.009 35.5327 113.131 34.9852 113.392 34.4999C113.734 33.9642 114.231 33.5447 114.817 33.2966C116.797 32.5301 118.907 32.1569 121.03 32.1979H121.37C121.48 32.1989 121.587 32.1635 121.675 32.0972C121.762 32.0309 121.825 31.9376 121.854 31.8317C121.885 31.7251 121.879 31.6111 121.836 31.5087C121.793 31.4063 121.717 31.3217 121.619 31.2692L121.37 31.1253C120.219 30.4723 119.132 29.7102 118.126 28.8494C117.511 28.3304 116.962 27.7373 116.491 27.0837C116.104 26.5727 115.876 25.9582 115.837 25.3179C115.9 24.5693 116.197 23.8596 116.688 23.2905C117.567 22.2203 118.603 21.2898 119.761 20.5307C120.285 20.1775 120.755 19.8767 121.069 19.6805L121.475 19.4451L121.606 19.3797C121.704 19.3274 121.782 19.2435 121.827 19.1415C121.872 19.0395 121.882 18.9252 121.854 18.8172C121.825 18.7113 121.762 18.6179 121.675 18.5517C121.587 18.4854 121.48 18.45 121.37 18.451H121.122C119.806 18.4461 118.493 18.3279 117.198 18.0978C116.395 17.9466 115.614 17.7007 114.87 17.3653C114.272 17.1269 113.758 16.7175 113.392 16.1882C113.157 15.7413 113.044 15.2406 113.065 14.7363C113.17 13.2341 113.57 11.7674 114.242 10.42C114.543 9.76596 114.843 9.19045 115.066 8.78498C115.17 8.58878 115.262 8.41874 115.327 8.3141L115.432 8.14408C115.496 8.05026 115.525 7.93696 115.514 7.82399C115.502 7.71102 115.452 7.60556 115.371 7.52607C115.29 7.44658 115.183 7.39813 115.07 7.38916C114.957 7.38019 114.844 7.41127 114.752 7.47699L114.595 7.56856C113.751 8.05895 112.877 8.49581 111.979 8.87654C110.793 9.42579 109.516 9.74957 108.212 9.83137C107.698 9.85222 107.187 9.73479 106.734 9.4913C106.195 9.15156 105.775 8.65356 105.531 8.06558C104.765 6.0854 104.392 3.97527 104.432 1.85266C104.432 1.6303 104.432 1.51259 104.432 1.51259C104.434 1.4011 104.399 1.29214 104.332 1.20238C104.266 1.11262 104.173 1.04699 104.066 1.01555C103.958 0.987867 103.843 0.997339 103.741 1.04241C103.639 1.08749 103.555 1.16555 103.503 1.26407L103.372 1.51259C102.709 2.66071 101.943 3.7464 101.083 4.75638C100.569 5.37161 99.9802 5.92078 99.3307 6.39136C98.8198 6.77916 98.2053 7.00675 97.565 7.04536L97.5911 7.59471Z" stroke="#A5E1D7" stroke-width="2" stroke-linecap="round" stroke-linejoin="round"/>
</svg>
