<svg width="126" height="86" viewBox="0 0 126 86" fill="none" xmlns="http://www.w3.org/2000/svg">
<path d="M95.8419 50.8569H95.3449C95.3323 58.446 92.6889 65.7961 87.8648 71.6547C83.0407 77.5133 76.3346 81.5181 68.8889 82.9867C61.4432 84.4553 53.7186 83.2969 47.0313 79.7089C40.3439 76.1208 35.1075 70.3251 32.2141 63.3091C29.3208 56.2932 28.9495 48.491 31.1636 41.2321C33.3777 33.9731 38.0402 27.7063 44.3567 23.4995C50.6732 19.2927 58.2529 17.4061 65.8044 18.1611C73.3559 18.9161 80.4119 22.2661 85.7705 27.6402C88.8247 30.6849 91.2466 34.3037 92.8965 38.2882C94.5464 42.2727 95.3919 46.5443 95.3842 50.8569H96.3652C96.3652 44.1722 94.3829 37.6377 90.6691 32.0796C86.9553 26.5215 81.6767 22.1895 75.5009 19.6313C69.3251 17.0732 62.5294 16.4039 55.9731 17.708C49.4169 19.0121 43.3946 22.2311 38.6678 26.9579C33.9411 31.6847 30.7221 37.707 29.418 44.2632C28.1139 50.8194 28.7832 57.6151 31.3413 63.7909C33.8994 69.9668 38.2314 75.2453 43.7895 78.9591C49.3476 82.673 55.8822 84.6552 62.5668 84.6552C67.0058 84.6569 71.4016 83.7839 75.5029 82.0859C79.6043 80.388 83.3309 77.8985 86.4697 74.7597C89.6085 71.6209 92.098 67.8944 93.7959 63.793C95.4938 59.6916 96.3669 55.2958 96.3652 50.8569H95.8419Z" fill="#4570B6"/>
<path d="M96.3652 50.8569H95.3842C95.3919 46.5443 94.5464 42.2727 92.8965 38.2882C91.2466 34.3037 88.8247 30.6849 85.7705 27.6402C80.4119 22.2661 73.3558 18.9161 65.8044 18.1611C58.2529 17.4061 50.6732 19.2927 44.3567 23.4995C38.0402 27.7063 33.3777 33.9731 31.1636 41.2321C28.9495 48.491 29.3208 56.2932 32.2141 63.3091C35.1075 70.3251 40.3439 76.1208 47.0313 79.7089C53.7186 83.2969 61.4432 84.4553 68.8889 82.9867C76.3346 81.5181 83.0407 77.5133 87.8648 71.6547C92.6889 65.7961 95.3323 58.446 95.3449 50.8569H95.842H96.3652ZM96.3652 50.8569C96.3652 44.1722 94.3829 37.6377 90.6691 32.0796C86.9553 26.5215 81.6767 22.1895 75.5009 19.6313C69.3251 17.0732 62.5294 16.4039 55.9731 17.708C49.4169 19.0121 43.3946 22.2311 38.6678 26.9579C33.9411 31.6847 30.7221 37.707 29.418 44.2632C28.1139 50.8194 28.7832 57.6151 31.3413 63.7909C33.8994 69.9668 38.2314 75.2453 43.7895 78.9591C49.3476 82.673 55.8822 84.6552 62.5668 84.6552C67.0058 84.6569 71.4016 83.7839 75.5029 82.0859C79.6043 80.388 83.3309 77.8985 86.4697 74.7597C89.6085 71.6209 92.098 67.8944 93.7959 63.793C95.4938 59.6916 96.3669 55.2958 96.3652 50.8569Z" stroke="#4570B6" stroke-width="2" stroke-linecap="round" stroke-linejoin="round"/>
<path d="M62.5668 84.1429V83.6589C39.3239 83.6589 17.3498 71.9655 2.25569 51.561C2.1027 51.3523 2.0202 51.1003 2.02023 50.8416C2.01909 50.5806 2.10673 50.3269 2.26875 50.1222C17.3629 29.6915 39.3763 18.0374 62.5799 18.0374C85.7835 18.0374 107.679 29.6654 122.747 49.9914C122.95 50.2386 123.061 50.5482 123.061 50.8678C123.068 51.1033 122.994 51.334 122.852 51.5218C107.771 71.9525 85.7835 83.6328 62.5275 83.6458V84.6268C86.0713 84.6268 108.399 72.7634 123.65 52.1104C123.925 51.7314 124.063 51.2702 124.042 50.8024C124.041 50.252 123.847 49.7194 123.493 49.2982L123.113 49.6121L123.519 49.3113C108.268 28.7759 86.0451 16.9648 62.5406 16.9648C39.0362 16.9648 16.7612 28.7367 1.44471 49.4421C1.16375 49.821 1.00827 50.2784 1 50.7501C1.00091 51.2209 1.15215 51.6791 1.43166 52.058C16.6827 72.6849 38.9577 84.5483 62.5275 84.5483V84.1429" fill="#4570B6"/>
<path d="M62.5668 84.1429V83.6589C39.3239 83.6589 17.3498 71.9655 2.25569 51.561C2.1027 51.3523 2.0202 51.1003 2.02023 50.8416C2.01909 50.5806 2.10673 50.3269 2.26875 50.1222C17.3629 29.6915 39.3763 18.0374 62.5799 18.0374C85.7835 18.0374 107.679 29.6654 122.747 49.9914C122.95 50.2386 123.061 50.5482 123.061 50.8678C123.068 51.1033 122.994 51.334 122.852 51.5218C107.771 71.9525 85.7835 83.6328 62.5276 83.6458V84.6268C86.0713 84.6268 108.399 72.7634 123.65 52.1104C123.925 51.7314 124.063 51.2702 124.042 50.8024C124.041 50.252 123.847 49.7194 123.493 49.2982L123.113 49.6121L123.519 49.3113C108.268 28.7759 86.0451 16.9648 62.5406 16.9648C39.0362 16.9648 16.7612 28.7367 1.44471 49.4421M1.44471 49.4421L1.83713 49.7429M1.44471 49.4421C1.16375 49.821 1.00827 50.2784 1 50.7501C1.00091 51.2209 1.15215 51.6791 1.43166 52.058C16.6827 72.6849 38.9577 84.5483 62.5276 84.5483V84.1429" stroke="#4570B6" stroke-width="2" stroke-linecap="round" stroke-linejoin="round"/>
<path d="M62.5662 59.6851C64.3124 59.6851 66.0193 59.1673 67.4713 58.1972C68.9232 57.2271 70.0548 55.8482 70.723 54.2349C71.3912 52.6216 71.5661 50.8464 71.2254 49.1338C70.8848 47.4212 70.0439 45.848 68.8092 44.6133C67.5744 43.3785 66.0013 42.5377 64.2886 42.197C62.576 41.8563 60.8008 42.0312 59.1875 42.6994C57.5743 43.3676 56.1954 44.4993 55.2252 45.9512C54.2551 47.4031 53.7373 49.1101 53.7373 50.8562C53.7408 53.1967 54.6721 55.4404 56.327 57.0954C57.982 58.7504 60.2257 59.6817 62.5662 59.6851V58.7041C60.7505 58.7057 58.9903 58.0777 57.5858 56.927C56.1812 55.7763 55.2191 54.1741 54.8634 52.3936C54.5077 50.613 54.7805 48.7642 55.6352 47.1622C56.4899 45.5602 57.8736 44.3041 59.5506 43.608C61.2276 42.9119 63.0941 42.8188 64.832 43.3446C66.5699 43.8705 68.0718 44.9827 69.0816 46.4917C70.0914 48.0007 70.5467 49.8132 70.3699 51.6204C70.1931 53.4275 69.3952 55.1174 68.112 56.4021C66.6417 57.8743 64.6469 58.7023 62.5662 58.7041V59.6851Z" fill="#4570B6"/>
<path d="M62.5662 59.6851C64.3124 59.6851 66.0193 59.1673 67.4713 58.1972C68.9232 57.2271 70.0548 55.8482 70.723 54.2349C71.3912 52.6216 71.5661 50.8464 71.2254 49.1338C70.8848 47.4212 70.0439 45.848 68.8092 44.6133C67.5744 43.3785 66.0013 42.5377 64.2886 42.197C62.576 41.8563 60.8008 42.0312 59.1875 42.6994C57.5743 43.3676 56.1954 44.4993 55.2252 45.9512C54.2551 47.4031 53.7373 49.1101 53.7373 50.8562C53.7408 53.1967 54.6721 55.4404 56.327 57.0954C57.982 58.7504 60.2257 59.6817 62.5662 59.6851ZM62.5662 59.6851V58.7041M62.5662 58.7041C60.7505 58.7057 58.9903 58.0777 57.5858 56.927C56.1812 55.7763 55.2191 54.1741 54.8634 52.3936C54.5077 50.613 54.7805 48.7642 55.6352 47.1622C56.4899 45.5602 57.8736 44.3041 59.5506 43.608C61.2276 42.9119 63.0941 42.8188 64.832 43.3446C66.5699 43.8705 68.0718 44.9827 69.0816 46.4917C70.0914 48.0007 70.5467 49.8132 70.3699 51.6204C70.1931 53.4275 69.3952 55.1174 68.112 56.4021C66.6417 57.8743 64.6469 58.7023 62.5662 58.7041Z" stroke="#4570B6" stroke-width="2" stroke-linecap="round" stroke-linejoin="round"/>
<path d="M62.5662 59.6851C64.3124 59.6851 66.0193 59.1673 67.4713 58.1972C68.9232 57.2271 70.0548 55.8482 70.723 54.2349C71.3912 52.6216 71.5661 50.8464 71.2254 49.1338C70.8848 47.4212 70.0439 45.848 68.8092 44.6133C67.5744 43.3785 66.0013 42.5377 64.2886 42.197C62.576 41.8563 60.8008 42.0312 59.1875 42.6994C57.5743 43.3676 56.1954 44.4993 55.2252 45.9512C54.2551 47.4031 53.7373 49.1101 53.7373 50.8562C53.7408 53.1967 54.6721 55.4404 56.327 57.0954C57.982 58.7504 60.2257 59.6817 62.5662 59.6851C64.3124 59.6851 66.0193 59.1673 67.4713 58.1972C68.9232 57.2271 70.0548 55.8482 70.723 54.2349C71.3912 52.6216 71.5661 50.8464 71.2254 49.1338C70.8848 47.4212 70.0439 45.848 68.8092 44.6133C67.5744 43.3785 66.0013 42.5377 64.2886 42.197C62.576 41.8563 60.8008 42.0312 59.1875 42.6994C57.5743 43.3676 56.1954 44.4993 55.2252 45.9512C54.2551 47.4031 53.7373 49.1101 53.7373 50.8562C53.7408 53.1967 54.6721 55.4404 56.327 57.0954C57.982 58.7504 60.2257 59.6817 62.5662 59.6851V58.7041C60.7505 58.7057 58.9903 58.0777 57.5858 56.927C56.1812 55.7763 55.2191 54.1741 54.8634 52.3936C54.5077 50.613 54.7805 48.7642 55.6352 47.1622C56.4899 45.5602 57.8736 44.3041 59.5506 43.608C61.2276 42.9119 63.0941 42.8188 64.832 43.3446C66.5699 43.8705 68.0718 44.9827 69.0816 46.4917C70.0914 48.0007 70.5467 49.8132 70.3699 51.6204C70.1931 53.4275 69.3952 55.1174 68.112 56.4021C66.6417 57.8743 64.6469 58.7023 62.5662 58.7041C60.7505 58.7057 58.9903 58.0777 57.5858 56.927C56.1812 55.7763 55.2191 54.1741 54.8634 52.3936C54.5077 50.613 54.7805 48.7642 55.6352 47.1622C56.4899 45.5602 57.8736 44.3041 59.5506 43.608C61.2276 42.9119 63.0941 42.8188 64.832 43.3446C66.5699 43.8705 68.0718 44.9827 69.0816 46.4917C70.0914 48.0007 70.5467 49.8132 70.3699 51.6204C70.1931 53.4275 69.3952 55.1174 68.112 56.4021C66.6417 57.8743 64.6469 58.7023 62.5662 58.7041V59.6851Z" fill="#4570B6"/>
<path d="M62.5662 59.6851C64.3124 59.6851 66.0193 59.1673 67.4713 58.1972C68.9232 57.2271 70.0548 55.8482 70.723 54.2349C71.3912 52.6216 71.5661 50.8464 71.2254 49.1338C70.8848 47.4212 70.0439 45.848 68.8092 44.6133C67.5744 43.3785 66.0013 42.5377 64.2886 42.197C62.576 41.8563 60.8008 42.0312 59.1875 42.6994C57.5743 43.3676 56.1954 44.4993 55.2252 45.9512C54.2551 47.4031 53.7373 49.1101 53.7373 50.8562C53.7408 53.1967 54.6721 55.4404 56.327 57.0954C57.982 58.7504 60.2257 59.6817 62.5662 59.6851ZM62.5662 59.6851V58.7041M62.5662 58.7041C60.7505 58.7057 58.9903 58.0777 57.5858 56.927C56.1812 55.7763 55.2191 54.1741 54.8634 52.3936C54.5077 50.613 54.7805 48.7642 55.6352 47.1622C56.4899 45.5602 57.8736 44.3041 59.5506 43.608C61.2276 42.9119 63.0941 42.8188 64.832 43.3446C66.5699 43.8705 68.0718 44.9827 69.0816 46.4917C70.0914 48.0007 70.5467 49.8132 70.3699 51.6204C70.1931 53.4275 69.3952 55.1174 68.112 56.4021C66.6417 57.8743 64.6469 58.7023 62.5662 58.7041Z" stroke="#4570B6" stroke-width="2" stroke-linecap="round" stroke-linejoin="round"/>
<path d="M74.2225 59.8034C75.955 57.1411 76.8773 54.0331 76.8773 50.8568C76.8773 47.6804 75.955 44.5724 74.2225 41.9102L73.3984 42.4464C75.0285 44.9486 75.8963 47.8705 75.8963 50.8568C75.8963 53.843 75.0285 56.7649 73.3984 59.2671L74.2225 59.8034Z" fill="#4570B6" stroke="#4570B6" stroke-width="2" stroke-linecap="round" stroke-linejoin="round"/>
<path d="M71.5133 39.1353C68.8511 37.4028 65.7431 36.4805 62.5667 36.4805C59.3904 36.4805 56.2823 37.4028 53.6201 39.1353L54.1564 39.9593C56.6586 38.3293 59.5805 37.4615 62.5667 37.4615C65.553 37.4615 68.4749 38.3293 70.977 39.9593L71.5133 39.1353Z" fill="#4570B6" stroke="#4570B6" stroke-width="2" stroke-linecap="round" stroke-linejoin="round"/>
<path d="M50.8453 41.9102C49.1127 44.5724 48.1904 47.6804 48.1904 50.8568C48.1904 54.0331 49.1127 57.1411 50.8453 59.8034L51.6693 59.2671C50.0393 56.7649 49.1715 53.843 49.1715 50.8568C49.1715 47.8705 50.0393 44.9486 51.6693 42.4464L50.8453 41.9102Z" fill="#4570B6" stroke="#4570B6" stroke-width="2" stroke-linecap="round" stroke-linejoin="round"/>
<path d="M53.6201 62.5272C56.2823 64.2597 59.3904 65.182 62.5667 65.182C65.7431 65.182 68.8511 64.2597 71.5133 62.5272L70.977 61.7031C68.4749 63.3331 65.553 64.2009 62.5667 64.2009C59.5805 64.2009 56.6586 63.3331 54.1564 61.7031L53.6201 62.5272Z" fill="#4570B6" stroke="#4570B6" stroke-width="2" stroke-linecap="round" stroke-linejoin="round"/>
<path d="M62.5668 71.367V71.864C66.7214 71.864 70.7827 70.632 74.2372 68.3238C77.6916 66.0156 80.3841 62.7349 81.974 58.8965C83.5639 55.0581 83.9799 50.8345 83.1693 46.7597C82.3588 42.6849 80.3582 38.9419 77.4204 36.0042C74.4826 33.0664 70.7397 31.0657 66.6649 30.2552C62.5901 29.4447 58.3664 29.8607 54.528 31.4506C50.6896 33.0405 47.4089 35.7329 45.1007 39.1874C42.7926 42.6418 41.5606 46.7032 41.5606 50.8578C41.5588 53.6169 42.101 56.3492 43.1561 58.8986C44.2111 61.4479 45.7583 63.7643 47.7093 65.7153C49.6602 67.6662 51.9766 69.2135 54.526 70.2685C57.0754 71.3236 59.8077 71.8657 62.5668 71.864V70.883C57.9336 70.8865 53.4426 69.2834 49.859 66.3468C46.2754 63.4102 43.821 59.3218 42.9139 54.7783C42.0068 50.2349 42.7032 45.5174 44.8845 41.4299C47.0658 37.3424 50.597 34.1377 54.8763 32.3619C59.1556 30.5861 63.9183 30.3491 68.3527 31.6912C72.7872 33.0334 76.6191 35.8717 79.1954 39.7225C81.7717 43.5733 82.933 48.1983 82.4815 52.8094C82.03 57.4204 79.9935 61.7323 76.7192 65.0102C74.8655 66.876 72.6603 68.3557 70.231 69.3637C67.8018 70.3718 65.1968 70.8882 62.5668 70.883V71.367Z" fill="#4570B6"/>
<path d="M62.5668 71.864V71.367V70.883M62.5668 71.864C66.7214 71.864 70.7827 70.632 74.2372 68.3238C77.6916 66.0156 80.3841 62.7349 81.974 58.8965C83.5639 55.0581 83.9799 50.8345 83.1693 46.7597C82.3588 42.6849 80.3582 38.9419 77.4204 36.0042C74.4826 33.0664 70.7397 31.0657 66.6649 30.2552C62.5901 29.4447 58.3664 29.8607 54.528 31.4506C50.6896 33.0405 47.4089 35.7329 45.1007 39.1874C42.7926 42.6418 41.5606 46.7032 41.5606 50.8578C41.5588 53.6169 42.101 56.3492 43.1561 58.8985C44.2111 61.4479 45.7583 63.7643 47.7093 65.7153C49.6602 67.6662 51.9766 69.2135 54.526 70.2685C57.0754 71.3236 59.8077 71.8657 62.5668 71.864ZM62.5668 71.864V70.883M62.5668 70.883C57.9336 70.8865 53.4426 69.2834 49.859 66.3468C46.2754 63.4102 43.821 59.3218 42.9139 54.7783C42.0068 50.2349 42.7032 45.5174 44.8845 41.4299C47.0658 37.3424 50.597 34.1377 54.8763 32.3619C59.1556 30.5861 63.9183 30.3491 68.3527 31.6912C72.7872 33.0334 76.6191 35.8717 79.1954 39.7225C81.7717 43.5733 82.933 48.1983 82.4815 52.8094C82.03 57.4204 79.9935 61.7323 76.7192 65.0102C74.8655 66.876 72.6603 68.3557 70.231 69.3637C67.8018 70.3718 65.1968 70.8882 62.5668 70.883Z" stroke="#4570B6" stroke-width="2" stroke-linecap="round" stroke-linejoin="round"/>
<path d="M111.041 31.6305C107.559 31.6199 104.152 30.6217 101.214 28.7519C98.277 26.8821 95.9304 24.2173 94.4471 21.0672C92.9638 17.917 92.4046 14.4107 92.8345 10.9554C93.2643 7.50006 94.6655 4.2376 96.8755 1.54688C93.5379 2.26921 90.4398 3.83087 87.8739 6.0842C85.3081 8.33753 83.3594 11.2081 82.2121 14.4244C81.0648 17.6407 80.7567 21.0965 81.3171 24.465C81.8775 27.8335 83.2878 31.0034 85.4147 33.675C87.5415 36.3466 90.3147 38.4316 93.4719 39.7329C96.629 41.0341 100.066 41.5086 103.458 41.1114C106.849 40.7142 110.084 39.4586 112.855 37.4631C115.626 35.4677 117.842 32.7985 119.294 29.7078C116.736 31.0033 113.909 31.6798 111.041 31.6828" fill="white"/>
<path d="M111.041 31.6305C107.559 31.6199 104.152 30.6217 101.214 28.7519C98.277 26.8821 95.9304 24.2173 94.4471 21.0672C92.9638 17.917 92.4046 14.4107 92.8345 10.9554C93.2643 7.50006 94.6655 4.2376 96.8755 1.54688C93.5379 2.26921 90.4398 3.83087 87.8739 6.0842C85.3081 8.33753 83.3594 11.2081 82.2121 14.4244C81.0648 17.6407 80.7567 21.0965 81.3171 24.465C81.8775 27.8335 83.2878 31.0034 85.4147 33.675C87.5415 36.3466 90.3147 38.4316 93.4719 39.7329C96.629 41.0341 100.066 41.5086 103.458 41.1114C106.849 40.7142 110.084 39.4586 112.855 37.4631C115.626 35.4677 117.842 32.7985 119.294 29.7078C116.736 31.0033 113.909 31.6798 111.041 31.6828" stroke="#4570B6" stroke-width="2" stroke-linecap="round" stroke-linejoin="round"/>
<path d="M111.04 31.629V31.145C107.642 31.1405 104.316 30.1699 101.448 28.3465C98.5811 26.5231 96.2914 23.922 94.8463 20.8466C93.4011 17.7713 92.8601 14.3484 93.2865 10.9773C93.7128 7.60613 95.089 4.42571 97.2543 1.80697C97.3122 1.72218 97.3431 1.62189 97.3431 1.51921C97.3431 1.41653 97.3122 1.31624 97.2543 1.23146C97.199 1.14666 97.1197 1.08024 97.0265 1.04064C96.9333 1.00104 96.8305 0.990064 96.731 1.0091C93.3138 1.75497 90.1432 3.35967 87.5186 5.67163C84.8941 7.98359 82.9022 10.9265 81.7313 14.2223C80.5603 17.5181 80.2488 21.058 80.8264 24.5076C81.4039 27.9573 82.8513 31.2027 85.0319 33.9375C87.2124 36.6722 90.0542 38.8058 93.2886 40.1369C96.5231 41.468 100.044 41.9525 103.517 41.5447C106.991 41.1369 110.304 39.8503 113.142 37.8063C115.98 35.7624 118.251 33.0286 119.739 29.8632C119.783 29.7705 119.797 29.666 119.778 29.5649C119.759 29.4637 119.709 29.3712 119.634 29.3008C119.561 29.2283 119.467 29.1814 119.366 29.1672C119.264 29.1531 119.161 29.1724 119.071 29.2223C116.582 30.4829 113.831 31.1415 111.04 31.145V32.126C113.985 32.1221 116.888 31.4277 119.516 30.0987L119.294 29.6539L118.849 29.4447C117.439 32.4756 115.277 35.096 112.57 37.057C109.862 39.0181 106.699 40.2548 103.379 40.6499C100.06 41.0449 96.6942 40.5852 93.6021 39.3143C90.5101 38.0435 87.7941 36.0036 85.7118 33.3883C83.6295 30.773 82.25 27.6689 81.7042 24.3708C81.1584 21.0726 81.4644 17.6897 82.5932 14.543C83.722 11.3963 85.6361 8.59019 88.1539 6.39099C90.6717 4.19178 93.7097 2.6724 96.9796 1.97701L96.8749 1.50613L96.4956 1.19222C94.2107 3.95453 92.7585 7.30969 92.3085 10.8662C91.8585 14.4226 92.4293 18.0337 93.9541 21.2781C95.479 24.5225 97.895 27.2663 100.92 29.1894C103.946 31.1125 107.456 32.1355 111.04 32.1391V31.6421" fill="#A5E1D7"/>
<path d="M111.04 31.629V31.145M111.04 31.145C107.642 31.1405 104.316 30.1699 101.448 28.3465C98.5811 26.5231 96.2914 23.922 94.8463 20.8466C93.4011 17.7713 92.8601 14.3484 93.2865 10.9773C93.7128 7.60613 95.089 4.42571 97.2543 1.80697C97.3122 1.72218 97.3431 1.62189 97.3431 1.51921C97.3431 1.41653 97.3122 1.31624 97.2543 1.23146C97.199 1.14666 97.1197 1.08024 97.0265 1.04064C96.9333 1.00104 96.8305 0.990064 96.731 1.0091C93.3138 1.75497 90.1432 3.35967 87.5186 5.67163C84.8941 7.98359 82.9022 10.9265 81.7313 14.2223C80.5603 17.5181 80.2488 21.058 80.8264 24.5076C81.4039 27.9573 82.8513 31.2027 85.0319 33.9375C87.2124 36.6722 90.0542 38.8058 93.2886 40.1369C96.5231 41.468 100.044 41.9525 103.517 41.5447C106.991 41.1369 110.304 39.8503 113.142 37.8063C115.98 35.7624 118.251 33.0286 119.739 29.8632C119.783 29.7705 119.797 29.666 119.778 29.5649C119.759 29.4637 119.709 29.3712 119.634 29.3008C119.561 29.2283 119.467 29.1814 119.366 29.1672C119.264 29.1531 119.161 29.1724 119.071 29.2223C116.582 30.4829 113.831 31.1415 111.04 31.145ZM111.04 31.145V32.126C113.985 32.1221 116.888 31.4278 119.516 30.0987L119.294 29.6539L118.849 29.4447C117.439 32.4756 115.277 35.096 112.57 37.057C109.862 39.0181 106.699 40.2548 103.379 40.6499C100.06 41.0449 96.6942 40.5852 93.6021 39.3143C90.5101 38.0435 87.7941 36.0036 85.7118 33.3883C83.6295 30.773 82.25 27.6689 81.7042 24.3708C81.1584 21.0726 81.4644 17.6897 82.5932 14.543C83.722 11.3963 85.6361 8.59019 88.1539 6.39099C90.6717 4.19178 93.7097 2.6724 96.9796 1.97701L96.8749 1.50613L96.4956 1.19222C94.2107 3.95453 92.7585 7.30969 92.3085 10.8662C91.8585 14.4226 92.4293 18.0337 93.9541 21.2781C95.479 24.5225 97.895 27.2663 100.92 29.1894C103.946 31.1125 107.456 32.1355 111.04 32.1391V31.6421" stroke="#A5E1D7" stroke-width="2" stroke-linecap="round" stroke-linejoin="round"/>
</svg>
