<svg width="124" height="84" viewBox="0 0 124 84" fill="none" xmlns="http://www.w3.org/2000/svg">
<path d="M96.0052 48.8856H95.5605C95.5605 56.5057 92.9181 63.89 88.0838 69.7802C83.2494 75.6704 76.5221 79.7021 69.0484 81.1881C61.5746 82.6742 53.8168 81.5227 47.0968 77.9299C40.3769 74.3371 35.1107 68.5252 32.1957 61.4848C29.2806 54.4443 28.897 46.6109 31.1103 39.3193C33.3236 32.0277 37.9968 25.7292 44.3336 21.4971C50.6704 17.2649 58.2786 15.3611 65.8618 16.1098C73.445 16.8586 80.534 20.2138 85.9207 25.6035C88.9805 28.659 91.407 32.2884 93.0612 36.2837C94.7155 40.2789 95.5648 44.5614 95.5605 48.8856H96.4499C96.4499 42.1983 94.4669 35.6613 90.7517 30.101C87.0364 24.5408 81.7558 20.2071 75.5776 17.648C69.3994 15.0889 62.6011 14.4193 56.0423 15.7239C49.4835 17.0285 43.4589 20.2488 38.7303 24.9774C34.0017 29.706 30.7815 35.7306 29.4768 42.2893C28.1722 48.8481 28.8418 55.6464 31.4009 61.8246C33.96 68.0029 38.2937 73.2835 43.854 76.9987C49.4142 80.714 55.9513 82.697 62.6385 82.697C71.6059 82.697 80.2059 79.1347 86.5468 72.7939C92.8877 66.453 96.4499 57.8529 96.4499 48.8856H96.0052Z" fill="#00ABC8"/>
<path d="M95.5605 48.8856H96.0052H96.4499M95.5605 48.8856C95.5605 56.5057 92.9181 63.89 88.0838 69.7802C83.2494 75.6704 76.5221 79.7021 69.0484 81.1881C61.5746 82.6742 53.8168 81.5227 47.0968 77.9299C40.3769 74.3371 35.1107 68.5252 32.1957 61.4848C29.2806 54.4443 28.897 46.6109 31.1103 39.3193C33.3236 32.0277 37.9968 25.7292 44.3336 21.4971C50.6704 17.2649 58.2786 15.3611 65.8618 16.1098C73.445 16.8586 80.534 20.2138 85.9207 25.6035C88.9805 28.659 91.407 32.2884 93.0612 36.2837C94.7155 40.2789 95.5648 44.5614 95.5605 48.8856ZM95.5605 48.8856H96.4499M96.4499 48.8856C96.4499 42.1983 94.4669 35.6613 90.7517 30.101C87.0364 24.5408 81.7558 20.2071 75.5776 17.648C69.3994 15.0889 62.6011 14.4193 56.0423 15.7239C49.4835 17.0285 43.4589 20.2488 38.7303 24.9774C34.0017 29.706 30.7815 35.7306 29.4768 42.2893C28.1722 48.8481 28.8418 55.6464 31.4009 61.8247C33.96 68.0029 38.2937 73.2835 43.854 76.9987C49.4142 80.714 55.9513 82.697 62.6385 82.697C71.6059 82.697 80.2059 79.1347 86.5468 72.7939C92.8877 66.453 96.4499 57.8529 96.4499 48.8856Z" stroke="#4570B6" stroke-width="2" stroke-linecap="round" stroke-linejoin="round"/>
<path d="M61.8278 82.2653V81.8206C38.8334 81.8206 17.0817 70.1142 2.14449 49.6573C1.98144 49.4431 1.89403 49.1809 1.89597 48.9117C1.89877 48.6332 1.99043 48.3629 2.15758 48.14C17.1471 27.6701 38.8727 15.9767 61.8409 15.9767C84.8091 15.9767 106.469 27.6439 121.406 48.0092C121.617 48.2678 121.733 48.5911 121.733 48.9248C121.738 49.1681 121.665 49.4065 121.524 49.605C106.587 70.0749 84.8352 81.7944 61.8147 81.7944V82.6839C85.1361 82.6839 107.162 70.8074 122.23 50.1282C122.484 49.778 122.621 49.3571 122.623 48.9248C122.619 48.3853 122.429 47.8635 122.087 47.4468L121.746 47.7215L122.1 47.4599C107.032 26.8984 85.0576 15.0742 61.8278 15.0742C38.598 15.0742 16.5585 26.9115 1.4382 47.5907C1.15385 47.9675 1 48.4266 1 48.8987C1 49.3707 1.15385 49.8299 1.4382 50.2067C16.5193 70.8597 38.5326 82.7362 61.8409 82.7362V82.2653" fill="#00ABC8"/>
<path d="M61.8278 82.2653V81.8206C38.8334 81.8206 17.0817 70.1142 2.14449 49.6573C1.98144 49.4431 1.89403 49.1809 1.89597 48.9117C1.89877 48.6332 1.99043 48.3629 2.15758 48.14C17.1471 27.6701 38.8727 15.9767 61.8409 15.9767C84.8091 15.9767 106.469 27.6439 121.406 48.0092C121.617 48.2678 121.733 48.5911 121.733 48.9248C121.738 49.1681 121.665 49.4065 121.524 49.605C106.587 70.0749 84.8352 81.7945 61.8147 81.7945V82.6839C85.1361 82.6839 107.162 70.8074 122.23 50.1282C122.484 49.778 122.621 49.3571 122.623 48.9248C122.619 48.3852 122.429 47.8635 122.087 47.4468L121.747 47.7215L122.1 47.4599C107.032 26.8984 85.0576 15.0742 61.8278 15.0742C38.598 15.0742 16.5585 26.9115 1.4382 47.5907M1.4382 47.5907L1.79134 47.8523M1.4382 47.5907C1.15385 47.9675 1 48.4266 1 48.8987C1 49.3707 1.15385 49.8299 1.4382 50.2067C16.5193 70.8597 38.5326 82.7362 61.8409 82.7362V82.2653" stroke="#4570B6" stroke-width="2" stroke-linecap="round" stroke-linejoin="round"/>
<path d="M110.72 18.4484C110.102 15.8226 108.79 13.4108 106.922 11.4646C105.054 9.5183 102.698 8.10873 100.1 7.38281" fill="white"/>
<path d="M111.152 18.3418C110.512 15.6395 109.161 13.1578 107.238 11.1544C105.315 9.151 102.891 7.69899 100.217 6.94922L99.9814 7.79942C102.504 8.50508 104.792 9.87499 106.605 11.7662C108.418 13.6574 109.69 16.0005 110.288 18.551L111.152 18.3418Z" fill="#00ABC8"/>
<path d="M111.335 16.8667L110.603 18.0308L109.439 17.2983C109.389 17.2672 109.333 17.2462 109.276 17.2366C109.218 17.2269 109.158 17.2289 109.101 17.2422C109.044 17.2556 108.99 17.2802 108.943 17.3145C108.895 17.3488 108.855 17.3922 108.824 17.4422C108.793 17.4909 108.772 17.5453 108.763 17.6022C108.753 17.6591 108.755 17.7173 108.769 17.7734C108.782 17.8295 108.807 17.8823 108.841 17.9288C108.875 17.9752 108.918 18.0144 108.968 18.0439L110.877 19.2603L112.081 17.3376C112.112 17.2896 112.134 17.2359 112.144 17.1795C112.155 17.1232 112.154 17.0653 112.141 17.0093C112.129 16.9533 112.106 16.9003 112.073 16.8533C112.04 16.8064 111.998 16.7665 111.95 16.7359C111.85 16.6751 111.731 16.6548 111.617 16.6791C111.502 16.7034 111.402 16.7705 111.335 16.8667ZM111.152 18.2793C110.512 15.5844 109.163 13.1096 107.245 11.1112C105.327 9.11275 102.91 7.66331 100.243 6.91293C100.131 6.88389 100.011 6.89883 99.9093 6.95471C99.8073 7.01058 99.7303 7.1032 99.6941 7.21376C99.6617 7.3265 99.6751 7.44751 99.7314 7.5504C99.7877 7.65329 99.8825 7.72974 99.9949 7.76311C102.514 8.46784 104.799 9.83424 106.611 11.7203C108.424 13.6064 109.698 15.9435 110.302 18.4886C110.314 18.5447 110.338 18.5978 110.371 18.6448C110.404 18.6918 110.446 18.7316 110.495 18.7621C110.543 18.7926 110.598 18.813 110.654 18.8222C110.711 18.8313 110.769 18.8291 110.825 18.8156C110.931 18.7878 111.024 18.7216 111.084 18.6298C111.144 18.538 111.169 18.4272 111.152 18.3186V18.2793Z" fill="#00ABC8"/>
<path d="M95.8351 1.44532C91.7751 1.44273 87.8055 2.64445 84.4287 4.89847C81.0518 7.15249 78.4194 10.3575 76.8645 14.108C75.3096 17.8585 74.9021 21.9859 75.6935 25.9681C76.485 29.9502 78.4398 33.6081 81.3106 36.479C84.1815 39.3499 87.8394 41.3047 91.8216 42.0961C95.8037 42.8876 99.9312 42.4801 103.682 40.9252C107.432 39.3703 110.637 36.7378 112.891 33.361C115.145 29.9841 116.347 26.0145 116.344 21.9545C116.346 19.2607 115.817 16.593 114.787 14.1039C113.757 11.6149 112.246 9.35327 110.341 7.44848C108.436 5.54368 106.175 4.03305 103.686 3.00298C101.197 1.9729 98.5289 1.4436 95.8351 1.44532Z" fill="white"/>
<path d="M95.8351 1.00001C90.9944 1.00381 86.3047 2.68562 82.5647 5.75897C78.8248 8.83232 76.2659 13.1072 75.3239 17.8554C74.3819 22.6036 75.1151 27.5315 77.3986 31.7998C79.6821 36.0681 83.3746 39.4128 87.8473 41.2643C92.32 43.1157 97.2962 43.3594 101.928 41.9538C106.561 40.5482 110.562 37.5802 113.252 33.5554C115.941 29.5306 117.153 24.6979 116.679 19.8804C116.205 15.0629 114.076 10.5585 110.655 7.13445C108.709 5.18772 106.399 3.64383 103.856 2.5912C101.313 1.53856 98.5873 0.997843 95.8351 1.00001V1.88945C99.8066 1.88945 103.689 3.0673 106.991 5.27402C110.293 7.48075 112.866 10.6172 114.386 14.2867C115.905 17.9561 116.302 21.9937 115.526 25.8887C114.75 29.7838 112.837 33.3612 110.027 36.1686C107.218 38.976 103.64 40.8871 99.744 41.6603C95.8485 42.4336 91.8112 42.0341 88.1427 40.5125C84.4743 38.9908 81.3395 36.4154 79.1349 33.112C76.9303 29.8085 75.755 25.9254 75.7576 21.9539C75.7541 19.3169 76.2712 16.7052 77.2791 14.2685C78.2871 11.8317 79.766 9.61789 81.6313 7.75388C83.4965 5.88986 85.7113 4.41232 88.1487 3.40597C90.5861 2.39963 93.1982 1.88428 95.8351 1.88945V1.00001Z" fill="#00ABC8"/>
<path d="M95.8351 1.44474V1.00001C90.9944 1.00381 86.3047 2.68562 82.5647 5.75897C78.8248 8.83232 76.2659 13.1072 75.3239 17.8554C74.3819 22.6036 75.1151 27.5315 77.3986 31.7998C79.6821 36.0681 83.3746 39.4128 87.8473 41.2643C92.32 43.1157 97.2962 43.3594 101.928 41.9538C106.561 40.5482 110.562 37.5802 113.252 33.5554C115.941 29.5306 117.153 24.6979 116.679 19.8804C116.205 15.0629 114.076 10.5585 110.655 7.13445C108.709 5.18772 106.399 3.64383 103.856 2.5912C101.313 1.53856 98.5873 0.997843 95.8351 1.00001V1.88945C99.8066 1.88945 103.689 3.0673 106.991 5.27402C110.293 7.48075 112.866 10.6172 114.386 14.2867C115.905 17.9561 116.302 21.9937 115.526 25.8887C114.75 29.7838 112.837 33.3612 110.027 36.1686C107.218 38.976 103.64 40.8871 99.744 41.6603C95.8485 42.4336 91.8112 42.0341 88.1427 40.5125C84.4743 38.9908 81.3395 36.4154 79.1349 33.112C76.9303 29.8085 75.755 25.9254 75.7576 21.9539C75.7541 19.3169 76.2712 16.7052 77.2791 14.2685C78.2871 11.8317 79.766 9.61789 81.6313 7.75388C83.4965 5.88986 85.7113 4.41232 88.1487 3.40597C90.5861 2.39963 93.1982 1.88428 95.8351 1.88945V1.44474Z" fill="#A5E1D7"/>
<path d="M95.8351 1.00001V1.44474V1.88945M95.8351 1.00001C90.9944 1.00381 86.3047 2.68562 82.5647 5.75897C78.8248 8.83232 76.2659 13.1072 75.3239 17.8554C74.3819 22.6036 75.1151 27.5315 77.3986 31.7998C79.6821 36.0681 83.3746 39.4128 87.8473 41.2643C92.32 43.1157 97.2962 43.3594 101.928 41.9538C106.561 40.5482 110.562 37.5802 113.252 33.5554C115.941 29.5306 117.153 24.6979 116.679 19.8804C116.205 15.0629 114.076 10.5585 110.655 7.13445C108.709 5.18772 106.399 3.64383 103.856 2.5912C101.313 1.53856 98.5873 0.997843 95.8351 1.00001ZM95.8351 1.00001V1.88945M95.8351 1.88945C99.8066 1.88945 103.689 3.0673 106.991 5.27402C110.293 7.48075 112.866 10.6172 114.386 14.2867C115.905 17.9561 116.302 21.9937 115.526 25.8887C114.75 29.7838 112.837 33.3612 110.027 36.1686C107.218 38.976 103.64 40.8871 99.744 41.6603C95.8485 42.4336 91.8112 42.0341 88.1427 40.5125C84.4743 38.9908 81.3395 36.4154 79.1349 33.112C76.9303 29.8085 75.755 25.9254 75.7576 21.9539C75.7541 19.3169 76.2712 16.7052 77.2791 14.2685C78.2871 11.8317 79.766 9.61789 81.6313 7.75388C83.4965 5.88986 85.7113 4.41232 88.1487 3.40597C90.5861 2.39963 93.1982 1.88428 95.8351 1.88945Z" stroke="#A5E1D7" stroke-width="2" stroke-linecap="round" stroke-linejoin="round"/>
<path d="M95.8614 9.01953V20.7914C95.8597 20.9436 95.8882 21.0947 95.9452 21.2359C96.0023 21.377 96.0868 21.5055 96.1939 21.6137C96.3009 21.722 96.4284 21.808 96.5689 21.8666C96.7094 21.9253 96.8601 21.9555 97.0124 21.9555H108.784" fill="white"/>
<path d="M95.417 9.01953V20.7914C95.417 21.2146 95.5851 21.6205 95.8844 21.9197C96.1836 22.219 96.5895 22.3871 97.0127 22.3871H108.785V21.5108H97.0127C96.9183 21.5108 96.8248 21.4922 96.7375 21.456C96.6502 21.4199 96.5709 21.3669 96.5041 21.3001C96.4373 21.2333 96.3843 21.154 96.3481 21.0667C96.312 20.9794 96.2934 20.8859 96.2934 20.7914V9.01953H95.417Z" fill="#00ABC8"/>
<path d="M95.417 9.01953V21.053C95.4153 21.2643 95.4553 21.4738 95.5345 21.6696C95.6138 21.8655 95.7308 22.0438 95.879 22.1944C96.0272 22.345 96.2036 22.465 96.3981 22.5474C96.5927 22.6299 96.8015 22.6732 97.0128 22.6749H108.785V21.7854H97.0128C96.8208 21.782 96.6378 21.7033 96.5033 21.5663C96.3687 21.4293 96.2934 21.245 96.2934 21.053V9.01953H95.417Z" fill="#A5E1D7" stroke="#A5E1D7" stroke-width="2" stroke-linecap="round" stroke-linejoin="round"/>
<path d="M96.2664 1.41797H95.377V3.51073H96.2664V1.41797Z" fill="#00ABC8"/>
<path d="M95.377 1.44473V3.49825C95.377 3.6162 95.4238 3.72932 95.5072 3.81272C95.5906 3.89612 95.7038 3.94296 95.8217 3.94296C95.9396 3.94296 96.0527 3.89612 96.1361 3.81272C96.2195 3.72932 96.2664 3.6162 96.2664 3.49825V1.44473C96.2664 1.32678 96.2195 1.21367 96.1361 1.13027C96.0527 1.04687 95.9396 1 95.8217 1C95.7038 1 95.5906 1.04687 95.5072 1.13027C95.4238 1.21367 95.377 1.32678 95.377 1.44473Z" fill="#A5E1D7" stroke="#A5E1D7" stroke-width="2" stroke-linecap="round" stroke-linejoin="round"/>
<path d="M116.122 21.5352H114.017V22.4246H116.122V21.5352Z" fill="#00ABC8"/>
<path d="M94.894 10.6509L95.8096 9.6176L96.843 10.5332C96.9314 10.6112 97.0472 10.651 97.165 10.6436C97.2827 10.6362 97.3927 10.5824 97.4708 10.4939C97.5488 10.4055 97.5885 10.2896 97.5812 10.1719C97.5738 10.0542 97.52 9.94415 97.4315 9.8661L95.7312 8.375L94.24 10.0623C94.157 10.1457 94.1104 10.2585 94.1104 10.3762C94.1104 10.4939 94.157 10.6068 94.24 10.6901C94.2802 10.7309 94.3281 10.7632 94.3808 10.7853C94.4336 10.8074 94.4902 10.8187 94.5474 10.8187C94.6046 10.8187 94.6612 10.8074 94.714 10.7853C94.7668 10.7632 94.8146 10.7309 94.8548 10.6901M107.124 21.0232L108.157 21.9388L107.241 22.9721C107.201 23.0123 107.168 23.0601 107.146 23.1129C107.124 23.1657 107.113 23.2223 107.113 23.2795C107.113 23.3367 107.124 23.3933 107.146 23.4461C107.168 23.4988 107.201 23.5467 107.241 23.5869C107.325 23.6699 107.438 23.7166 107.555 23.7166C107.673 23.7166 107.786 23.6699 107.869 23.5869L109.36 21.8865L107.673 20.3954C107.632 20.3461 107.581 20.3063 107.524 20.2785C107.466 20.2506 107.404 20.2356 107.34 20.2342C107.276 20.2329 107.212 20.2453 107.154 20.2707C107.095 20.2961 107.043 20.3338 107 20.3813C106.957 20.4288 106.925 20.485 106.906 20.546C106.887 20.607 106.881 20.6713 106.889 20.7347C106.897 20.7981 106.919 20.8591 106.953 20.9133C106.986 20.9676 107.031 21.014 107.084 21.0494L107.124 21.0232ZM116.057 21.5333H113.951C113.833 21.5333 113.72 21.5802 113.637 21.6636C113.553 21.747 113.507 21.8601 113.507 21.978C113.507 22.096 113.553 22.2091 113.637 22.2925C113.72 22.3759 113.833 22.4227 113.951 22.4227H116.044C116.162 22.4227 116.275 22.3759 116.359 22.2925C116.442 22.2091 116.489 22.096 116.489 21.978C116.489 21.8601 116.442 21.747 116.359 21.6636C116.275 21.5802 116.162 21.5333 116.044 21.5333H116.057Z" fill="#A5E1D7"/>
<path d="M94.894 10.6509L95.8096 9.6176L96.843 10.5332C96.9314 10.6112 97.0472 10.651 97.165 10.6436C97.2827 10.6362 97.3927 10.5824 97.4708 10.4939C97.5488 10.4055 97.5885 10.2896 97.5812 10.1719C97.5738 10.0542 97.52 9.94415 97.4315 9.8661L95.7312 8.375L94.24 10.0623C94.157 10.1457 94.1104 10.2585 94.1104 10.3762C94.1104 10.4939 94.157 10.6068 94.24 10.6901C94.2802 10.7309 94.3281 10.7632 94.3808 10.7853C94.4336 10.8074 94.4902 10.8187 94.5474 10.8187C94.6046 10.8187 94.6612 10.8074 94.714 10.7853C94.7668 10.7632 94.8146 10.7309 94.8548 10.6901M107.124 21.0232L108.157 21.9388L107.241 22.9721C107.201 23.0123 107.168 23.0601 107.146 23.1129C107.124 23.1657 107.113 23.2223 107.113 23.2795C107.113 23.3367 107.124 23.3933 107.146 23.4461C107.168 23.4988 107.201 23.5467 107.241 23.5869C107.325 23.6699 107.438 23.7166 107.555 23.7166C107.673 23.7166 107.786 23.6699 107.869 23.5869L109.36 21.8865L107.673 20.3954C107.632 20.3461 107.581 20.3063 107.524 20.2785C107.466 20.2506 107.404 20.2356 107.34 20.2342C107.276 20.2329 107.212 20.2453 107.154 20.2707C107.095 20.2961 107.043 20.3338 107 20.3813C106.957 20.4288 106.925 20.485 106.906 20.546C106.887 20.607 106.881 20.6713 106.889 20.7347C106.897 20.7981 106.919 20.8591 106.953 20.9133C106.986 20.9676 107.031 21.014 107.084 21.0494L107.124 21.0232ZM116.057 21.5333H113.951C113.833 21.5333 113.72 21.5802 113.637 21.6636C113.553 21.747 113.507 21.8601 113.507 21.978C113.507 22.096 113.553 22.2091 113.637 22.2925C113.72 22.3759 113.833 22.4227 113.951 22.4227H116.044C116.162 22.4227 116.275 22.3759 116.359 22.2925C116.442 22.2091 116.489 22.096 116.489 21.978C116.489 21.8601 116.442 21.747 116.359 21.6636C116.275 21.5802 116.162 21.5333 116.044 21.5333H116.057Z" stroke="#A5E1D7" stroke-width="2" stroke-linecap="round" stroke-linejoin="round"/>
<path d="M62.6645 35.0711C63.1123 35.0711 63.4754 34.7081 63.4754 34.2602C63.4754 33.8123 63.1123 33.4492 62.6645 33.4492C62.2166 33.4492 61.8535 33.8123 61.8535 34.2602C61.8535 34.7081 62.2166 35.0711 62.6645 35.0711Z" fill="#4570B6"/>
<path d="M58.8715 35.5555C59.3194 35.5555 59.6825 35.1924 59.6825 34.7445C59.6825 34.2967 59.3194 33.9336 58.8715 33.9336C58.4237 33.9336 58.0605 34.2967 58.0605 34.7445C58.0605 35.1924 58.4237 35.5555 58.8715 35.5555Z" fill="#4570B6"/>
<path d="M55.3402 37.0203C55.7881 37.0203 56.1512 36.6573 56.1512 36.2094C56.1512 35.7615 55.7881 35.3984 55.3402 35.3984C54.8924 35.3984 54.5293 35.7615 54.5293 36.2094C54.5293 36.6573 54.8924 37.0203 55.3402 37.0203Z" fill="#4570B6"/>
<path d="M52.3188 39.3367C52.7666 39.3367 53.1297 38.9737 53.1297 38.5258C53.1297 38.0779 52.7666 37.7148 52.3188 37.7148C51.8709 37.7148 51.5078 38.0779 51.5078 38.5258C51.5078 38.9737 51.8709 39.3367 52.3188 39.3367Z" fill="#4570B6"/>
<path d="M49.9906 42.3602C50.4385 42.3602 50.8016 41.9971 50.8016 41.5492C50.8016 41.1013 50.4385 40.7383 49.9906 40.7383C49.5428 40.7383 49.1797 41.1013 49.1797 41.5492C49.1797 41.9971 49.5428 42.3602 49.9906 42.3602Z" fill="#4570B6"/>
<path d="M48.5131 45.8758C48.961 45.8758 49.324 45.5127 49.324 45.0648C49.324 44.617 48.961 44.2539 48.5131 44.2539C48.0652 44.2539 47.7021 44.617 47.7021 45.0648C47.7021 45.5127 48.0652 45.8758 48.5131 45.8758Z" fill="#4570B6"/>
<path d="M48.016 49.6688C48.4639 49.6688 48.827 49.3057 48.827 48.8578C48.827 48.41 48.4639 48.0469 48.016 48.0469C47.5681 48.0469 47.2051 48.41 47.2051 48.8578C47.2051 49.3057 47.5681 49.6688 48.016 49.6688Z" fill="#4570B6"/>
<path d="M48.4994 53.45C48.9473 53.45 49.3104 53.087 49.3104 52.6391C49.3104 52.1912 48.9473 51.8281 48.4994 51.8281C48.0515 51.8281 47.6885 52.1912 47.6885 52.6391C47.6885 53.087 48.0515 53.45 48.4994 53.45Z" fill="#4570B6"/>
<path d="M49.9643 56.9813C50.4121 56.9813 50.7752 56.6182 50.7752 56.1703C50.7752 55.7225 50.4121 55.3594 49.9643 55.3594C49.5164 55.3594 49.1533 55.7225 49.1533 56.1703C49.1533 56.6182 49.5164 56.9813 49.9643 56.9813Z" fill="#4570B6"/>
<path d="M52.2797 60.0164C52.7276 60.0164 53.0906 59.6533 53.0906 59.2055C53.0906 58.7576 52.7276 58.3945 52.2797 58.3945C51.8318 58.3945 51.4688 58.7576 51.4688 59.2055C51.4688 59.6533 51.8318 60.0164 52.2797 60.0164Z" fill="#4570B6"/>
<path d="M55.3012 62.3446C55.7491 62.3446 56.1121 61.9815 56.1121 61.5336C56.1121 61.0857 55.7491 60.7227 55.3012 60.7227C54.8533 60.7227 54.4902 61.0857 54.4902 61.5336C54.4902 61.9815 54.8533 62.3446 55.3012 62.3446Z" fill="#4570B6"/>
<path d="M58.8197 63.8094C59.2676 63.8094 59.6307 63.4463 59.6307 62.9985C59.6307 62.5506 59.2676 62.1875 58.8197 62.1875C58.3719 62.1875 58.0088 62.5506 58.0088 62.9985C58.0088 63.4463 58.3719 63.8094 58.8197 63.8094Z" fill="#4570B6"/>
<path d="M62.6127 64.3172C63.0606 64.3172 63.4236 63.9542 63.4236 63.5063C63.4236 63.0584 63.0606 62.6953 62.6127 62.6953C62.1648 62.6953 61.8018 63.0584 61.8018 63.5063C61.8018 63.9542 62.1648 64.3172 62.6127 64.3172Z" fill="#4570B6"/>
<path d="M66.393 63.8211C66.8409 63.8211 67.204 63.458 67.204 63.0102C67.204 62.5623 66.8409 62.1992 66.393 62.1992C65.9451 62.1992 65.582 62.5623 65.582 63.0102C65.582 63.458 65.9451 63.8211 66.393 63.8211Z" fill="#4570B6"/>
<path d="M69.9242 62.368C70.3721 62.368 70.7352 62.0049 70.7352 61.557C70.7352 61.1092 70.3721 60.7461 69.9242 60.7461C69.4763 60.7461 69.1133 61.1092 69.1133 61.557C69.1133 62.0049 69.4763 62.368 69.9242 62.368Z" fill="#4570B6"/>
<path d="M72.9584 60.0555C73.4063 60.0555 73.7693 59.6924 73.7693 59.2445C73.7693 58.7967 73.4063 58.4336 72.9584 58.4336C72.5105 58.4336 72.1475 58.7967 72.1475 59.2445C72.1475 59.6924 72.5105 60.0555 72.9584 60.0555Z" fill="#4570B6"/>
<path d="M75.2865 57.0203C75.7344 57.0203 76.0975 56.6573 76.0975 56.2094C76.0975 55.7615 75.7344 55.3984 75.2865 55.3984C74.8387 55.3984 74.4756 55.7615 74.4756 56.2094C74.4756 56.6573 74.8387 57.0203 75.2865 57.0203Z" fill="#4570B6"/>
<path d="M76.7514 53.5008C77.1992 53.5008 77.5623 53.1377 77.5623 52.6898C77.5623 52.242 77.1992 51.8789 76.7514 51.8789C76.3035 51.8789 75.9404 52.242 75.9404 52.6898C75.9404 53.1377 76.3035 53.5008 76.7514 53.5008Z" fill="#4570B6"/>
<path d="M77.2484 49.7234C77.6963 49.7234 78.0594 49.3604 78.0594 48.9125C78.0594 48.4646 77.6963 48.1016 77.2484 48.1016C76.8006 48.1016 76.4375 48.4646 76.4375 48.9125C76.4375 49.3604 76.8006 49.7234 77.2484 49.7234Z" fill="#4570B6"/>
<path d="M76.765 45.9305C77.2129 45.9305 77.576 45.5674 77.576 45.1196C77.576 44.6717 77.2129 44.3086 76.765 44.3086C76.3172 44.3086 75.9541 44.6717 75.9541 45.1196C75.9541 45.5674 76.3172 45.9305 76.765 45.9305Z" fill="#4570B6"/>
<path d="M75.3129 42.411C75.7608 42.411 76.1238 42.0479 76.1238 41.6C76.1238 41.1522 75.7608 40.7891 75.3129 40.7891C74.865 40.7891 74.502 41.1522 74.502 41.6C74.502 42.0479 74.865 42.411 75.3129 42.411Z" fill="#4570B6"/>
<path d="M72.9848 39.3758C73.4326 39.3758 73.7957 39.0127 73.7957 38.5648C73.7957 38.117 73.4326 37.7539 72.9848 37.7539C72.5369 37.7539 72.1738 38.117 72.1738 38.5648C72.1738 39.0127 72.5369 39.3758 72.9848 39.3758Z" fill="#4570B6"/>
<path d="M69.9633 37.0477C70.4112 37.0477 70.7742 36.6846 70.7742 36.2367C70.7742 35.7888 70.4112 35.4258 69.9633 35.4258C69.5154 35.4258 69.1523 35.7888 69.1523 36.2367C69.1523 36.6846 69.5154 37.0477 69.9633 37.0477Z" fill="#4570B6"/>
<path d="M66.4447 35.5828C66.8926 35.5828 67.2557 35.2198 67.2557 34.7719C67.2557 34.324 66.8926 33.9609 66.4447 33.9609C65.9969 33.9609 65.6338 34.324 65.6338 34.7719C65.6338 35.2198 65.9969 35.5828 66.4447 35.5828Z" fill="#4570B6"/>
</svg>
