<svg width="144" height="70" viewBox="0 0 144 70" fill="none" xmlns="http://www.w3.org/2000/svg">
<path d="M96.6917 34.8008H96.1947C96.1955 42.3933 93.5637 49.7512 88.7476 55.6208C83.9316 61.4904 77.2293 65.5084 69.7828 66.9904C62.3364 68.4723 54.6064 67.3264 47.9101 63.748C41.2138 60.1695 35.9654 54.3799 33.0593 47.3656C30.1531 40.3513 29.769 32.5463 31.9724 25.2806C34.1757 18.0148 38.8303 11.7378 45.1429 7.51916C51.4555 3.30048 59.0355 1.40113 66.5915 2.14474C74.1475 2.88835 81.2119 6.22891 86.581 11.5972C89.6337 14.6404 92.0546 18.257 93.7045 22.2392C95.3544 26.2214 96.2007 30.4904 96.1947 34.8008H97.1757C97.1731 28.1167 95.1887 21.5835 91.4733 16.0271C87.7579 10.4707 82.4784 6.14074 76.3024 3.58463C70.1263 1.02852 63.331 0.36107 56.7757 1.66666C50.2203 2.97225 44.1993 6.19225 39.4738 10.9195C34.7483 15.6468 31.5306 21.6691 30.2276 28.225C28.9245 34.7809 29.5946 41.5759 32.1531 47.751C34.7116 53.9261 39.0436 59.2039 44.6014 62.9171C50.1593 66.6303 56.6933 68.6122 63.3774 68.6122C67.8169 68.6122 72.213 67.7376 76.3145 66.0382C80.4159 64.3389 84.1424 61.8482 87.281 58.7083C90.4197 55.5685 92.909 51.841 94.6067 47.7389C96.3045 43.6368 97.1774 39.2404 97.1757 34.8008H96.6917Z" fill="#00ABC8"/>
<path d="M96.1947 34.8008H96.6917H97.1757M96.1947 34.8008C96.1955 42.3933 93.5637 49.7512 88.7476 55.6208C83.9316 61.4904 77.2293 65.5084 69.7828 66.9904C62.3364 68.4723 54.6064 67.3264 47.9101 63.748C41.2138 60.1695 35.9654 54.3799 33.0593 47.3656C30.1531 40.3513 29.769 32.5463 31.9724 25.2806C34.1757 18.0148 38.8303 11.7378 45.1429 7.51916C51.4555 3.30048 59.0355 1.40113 66.5915 2.14474C74.1475 2.88835 81.2119 6.22891 86.581 11.5972C89.6337 14.6404 92.0546 18.257 93.7045 22.2392C95.3544 26.2214 96.2007 30.4904 96.1947 34.8008ZM96.1947 34.8008H97.1757M97.1757 34.8008C97.1731 28.1167 95.1887 21.5835 91.4733 16.0271C87.7579 10.4707 82.4784 6.14074 76.3024 3.58463C70.1263 1.02852 63.331 0.36107 56.7757 1.66666C50.2203 2.97225 44.1993 6.19225 39.4738 10.9195C34.7483 15.6468 31.5306 21.6691 30.2276 28.225C28.9245 34.7809 29.5946 41.5759 32.1531 47.751C34.7116 53.9261 39.0436 59.2039 44.6014 62.9171C50.1593 66.6303 56.6933 68.6122 63.3774 68.6122C67.8169 68.6122 72.213 67.7376 76.3145 66.0382C80.4159 64.3389 84.1424 61.8482 87.281 58.7083C90.4197 55.5685 92.909 51.841 94.6067 47.7389C96.3045 43.6368 97.1774 39.2404 97.1757 34.8008Z" stroke="#4570B6" stroke-width="2" stroke-linecap="round" stroke-linejoin="round"/>
<path d="M62.5537 68.178V67.6941C39.3108 67.6941 17.3367 56.0138 2.24258 35.5962C2.08791 35.3884 2.00524 35.1358 2.00713 34.8768C2.006 34.6157 2.09363 34.3621 2.25565 34.1574C17.4021 13.7267 39.3631 2.07256 62.5668 2.07256C85.7704 2.07256 107.666 13.7136 122.734 34.0266C122.94 34.2726 123.056 34.582 123.061 34.9029C123.066 35.1421 122.992 35.3764 122.852 35.57C107.771 55.9876 85.7835 67.681 62.5275 67.681V68.662C86.0712 68.662 108.399 56.7986 123.637 36.1455C123.915 35.7678 124.058 35.3068 124.042 34.8375C124.037 34.2879 123.843 33.7568 123.493 33.3334L123.113 33.6473L123.506 33.3595C108.268 12.8111 86.0451 1 62.5406 1C39.0361 1 16.7612 12.8372 1.44471 33.4903L1.83711 33.7781L1.44471 33.4772C1.15802 33.8532 1.00188 34.3124 1 34.7852C1.00091 35.2561 1.15211 35.7143 1.43162 36.0932C16.6827 56.7201 38.9577 68.5835 62.5275 68.5835V68.178" fill="#00ABC8"/>
<path d="M62.5537 68.178V67.6941C39.3108 67.6941 17.3367 56.0138 2.24258 35.5962C2.08791 35.3884 2.00524 35.1358 2.00713 34.8768C2.006 34.6157 2.09363 34.3621 2.25565 34.1574C17.4021 13.7267 39.3631 2.07256 62.5668 2.07256C85.7704 2.07256 107.666 13.7136 122.734 34.0266C122.94 34.2726 123.056 34.582 123.061 34.9029C123.066 35.1421 122.992 35.3764 122.852 35.57C107.771 55.9876 85.7835 67.681 62.5275 67.681V68.662C86.0712 68.662 108.399 56.7986 123.637 36.1455C123.915 35.7678 124.058 35.3068 124.042 34.8375C124.037 34.2879 123.843 33.7568 123.493 33.3334L123.113 33.6473L123.506 33.3595C108.268 12.8111 86.0451 1 62.5406 1C39.0361 1 16.7612 12.8372 1.44471 33.4903L1.83711 33.7781L1.44471 33.4772C1.15802 33.8532 1.00188 34.3124 1 34.7852C1.00091 35.2561 1.15211 35.7143 1.43162 36.0932C16.6827 56.7201 38.9577 68.5835 62.5275 68.5835V68.178" stroke="#4570B6" stroke-width="2" stroke-linecap="round" stroke-linejoin="round"/>
<path d="M113.199 50.5983C114.519 50.6021 115.836 50.4573 117.123 50.1667C122.543 48.9863 128.051 48.26 133.591 47.9955C134.467 47.9955 136.207 47.9954 136.874 47.917H139.411C140.245 47.9095 141.058 47.6522 141.744 47.1785C142.431 46.7047 142.959 46.0361 143.262 45.259C143.565 44.4819 143.627 43.6319 143.442 42.8187C143.257 42.0056 142.833 41.2665 142.224 40.6969C141.72 40.3304 141.319 39.8411 141.058 39.2756C140.797 38.7101 140.685 38.0872 140.733 37.4662V26.9369C140.685 26.3159 140.797 25.693 141.058 25.1275C141.319 24.562 141.72 24.0727 142.224 23.7062C142.833 23.1366 143.257 22.3976 143.442 21.5844C143.627 20.7712 143.565 19.9212 143.262 19.1441C142.959 18.367 142.431 17.6984 141.744 17.2246C141.058 16.7509 140.245 16.4936 139.411 16.4861H136.874C136.155 16.4861 134.467 16.4861 133.591 16.4077C128.051 16.1431 122.543 15.4168 117.123 14.2364C115.836 13.9458 114.519 13.801 113.199 13.8048C111.879 13.801 110.563 13.9458 109.276 14.2364C103.856 15.4168 98.348 16.1431 92.808 16.4077C91.9317 16.4077 90.192 16.4731 89.525 16.4861H86.9221C86.0881 16.4936 85.2756 16.7509 84.5892 17.2246C83.9029 17.6984 83.3743 18.367 83.0716 19.1441C82.7689 19.9212 82.7061 20.7712 82.8911 21.5844C83.0762 22.3976 83.5007 23.1366 84.1099 23.7062C84.6135 24.0727 85.0149 24.562 85.2759 25.1275C85.5369 25.693 85.6488 26.3159 85.601 26.9369V37.4662C85.6488 38.0872 85.5369 38.7101 85.2759 39.2756C85.0149 39.8411 84.6135 40.3304 84.1099 40.6969C83.5007 41.2665 83.0762 42.0056 82.8911 42.8187C82.7061 43.6319 82.7689 44.4819 83.0716 45.259C83.3743 46.0361 83.9029 46.7047 84.5892 47.1785C85.2756 47.6522 86.0881 47.9095 86.9221 47.917H89.4596C90.179 47.917 91.8663 47.917 92.7426 47.9955C98.2826 48.26 103.791 48.9863 109.21 50.1667C110.498 50.4573 111.814 50.6021 113.134 50.5983" fill="white"/>
<path d="M125.036 32.1563H125.533C125.535 29.7137 124.813 27.3252 123.458 25.2929C122.103 23.2607 120.175 21.6761 117.919 20.7395C115.663 19.803 113.18 19.5566 110.784 20.0315C108.388 20.5065 106.187 21.6814 104.459 23.4077C102.731 25.134 101.554 27.3341 101.076 29.7296C100.599 32.1251 100.842 34.6084 101.777 36.8653C102.711 39.1223 104.293 41.0515 106.324 42.4088C108.355 43.7661 110.743 44.4906 113.185 44.4906C116.458 44.4906 119.596 43.1915 121.911 40.8788C124.227 38.566 125.529 35.4288 125.533 32.1563H124.552C124.554 34.7862 123.645 37.3356 121.979 39.3703C120.313 41.4049 117.993 42.7988 115.414 43.3145C112.835 43.8302 110.157 43.4357 107.837 42.1982C105.516 40.9608 103.697 38.957 102.688 36.5283C101.679 34.0996 101.544 31.3963 102.305 28.879C103.066 26.3618 104.677 24.1863 106.862 22.7234C109.048 21.2605 111.673 20.6006 114.29 20.8562C116.907 21.1118 119.355 22.2672 121.216 24.1253C122.276 25.1765 123.117 26.4277 123.689 27.8063C124.262 29.1849 124.555 30.6635 124.552 32.1563H125.036ZM138.403 27.2514V37.0613C138.392 37.1324 138.395 37.2052 138.415 37.2746C138.434 37.3441 138.468 37.4085 138.515 37.4634C138.562 37.5183 138.62 37.5625 138.685 37.5927C138.75 37.623 138.822 37.6387 138.894 37.6387C138.966 37.6387 139.037 37.623 139.102 37.5927C139.168 37.5625 139.226 37.5183 139.272 37.4634C139.319 37.4085 139.353 37.3441 139.373 37.2746C139.392 37.2052 139.396 37.1324 139.384 37.0613V27.2514C139.365 27.1351 139.305 27.0293 139.215 26.9529C139.126 26.8766 139.012 26.8347 138.894 26.8347C138.776 26.8347 138.662 26.8766 138.572 26.9529C138.482 27.0293 138.422 27.1351 138.403 27.2514ZM137.54 46.3087H135.29C134.623 46.3087 133.053 46.3087 132.216 46.3872C132.152 46.3888 132.088 46.4035 132.029 46.4302C131.97 46.4569 131.917 46.4951 131.873 46.5427C131.829 46.5903 131.795 46.6462 131.773 46.7071C131.751 46.768 131.742 46.8327 131.746 46.8973C131.749 46.9626 131.765 47.0266 131.793 47.0856C131.821 47.1447 131.861 47.1976 131.909 47.2413C131.958 47.2851 132.015 47.3188 132.076 47.3405C132.138 47.3623 132.203 47.3717 132.269 47.3682C133.067 47.3682 134.636 47.3028 135.303 47.2897H137.54C137.611 47.3013 137.684 47.2974 137.753 47.2781C137.823 47.2588 137.887 47.2247 137.942 47.178C137.997 47.1313 138.041 47.0733 138.071 47.0079C138.102 46.9425 138.117 46.8713 138.117 46.7992C138.117 46.7271 138.102 46.6559 138.071 46.5905C138.041 46.5251 137.997 46.467 137.942 46.4204C137.887 46.3737 137.823 46.3396 137.753 46.3203C137.684 46.301 137.611 46.297 137.54 46.3087ZM138.403 37.0613C138.363 37.786 138.516 38.5084 138.848 39.154C139.141 39.6425 139.507 40.0835 139.933 40.462C140.026 40.5523 140.151 40.6028 140.28 40.6028C140.41 40.6028 140.534 40.5523 140.627 40.462C140.673 40.4169 140.71 40.363 140.735 40.3035C140.76 40.244 140.773 40.18 140.773 40.1154C140.773 40.0508 140.76 39.9868 140.735 39.9273C140.71 39.8678 140.673 39.8139 140.627 39.7688C140.272 39.4631 139.959 39.1112 139.698 38.7224C139.456 38.2224 139.348 37.668 139.384 37.1136C139.365 36.9972 139.305 36.8915 139.215 36.8151C139.126 36.7388 139.012 36.6969 138.894 36.6969C138.776 36.6969 138.662 36.7388 138.572 36.8151C138.482 36.8915 138.422 36.9972 138.403 37.1136V37.0613ZM137.54 47.2505H137.671C138.264 47.2441 138.849 47.1166 139.391 46.876C139.933 46.6353 140.42 46.2865 140.823 45.8509C141.576 45.0298 141.996 43.957 142 42.8426C141.999 42.248 141.875 41.6601 141.636 41.1156C141.398 40.571 141.05 40.0814 140.614 39.6772C140.569 39.631 140.515 39.5942 140.455 39.5691C140.396 39.544 140.332 39.531 140.267 39.531C140.202 39.531 140.138 39.544 140.079 39.5691C140.019 39.5942 139.966 39.631 139.92 39.6772C139.83 39.77 139.78 39.8944 139.78 40.0239C139.78 40.1533 139.83 40.2777 139.92 40.3705C140.258 40.6852 140.527 41.0659 140.712 41.4888C140.896 41.9118 140.992 42.368 140.993 42.8295C140.986 43.6998 140.66 44.5375 140.077 45.1838C139.761 45.5194 139.38 45.7875 138.958 45.9718C138.535 46.1561 138.079 46.2529 137.618 46.2564H137.501C137.384 46.2755 137.279 46.3352 137.202 46.4251C137.126 46.5149 137.084 46.629 137.084 46.7469C137.084 46.8648 137.126 46.9788 137.202 47.0687C137.279 47.1585 137.384 47.2183 137.501 47.2374L137.54 47.2505ZM94.1671 46.3479C93.33 46.3479 91.7604 46.2825 91.0934 46.2695H88.8436C88.7725 46.2578 88.6997 46.2618 88.6303 46.2811C88.5608 46.3003 88.4964 46.3345 88.4415 46.3811C88.3866 46.4278 88.3424 46.4859 88.3122 46.5513C88.2819 46.6167 88.2662 46.6879 88.2662 46.76C88.2662 46.832 88.2819 46.9032 88.3122 46.9686C88.3424 47.034 88.3866 47.0921 88.4415 47.1388C88.4964 47.1854 88.5608 47.2196 88.6303 47.2389C88.6997 47.2581 88.7725 47.2621 88.8436 47.2505H91.0803C91.7604 47.2505 93.33 47.2505 94.1279 47.3289C94.1932 47.3325 94.2585 47.3231 94.3202 47.3013C94.3819 47.2795 94.4386 47.2458 94.4872 47.2021C94.5358 47.1583 94.5753 47.1054 94.6034 47.0464C94.6315 46.9873 94.6477 46.9234 94.6511 46.8581C94.6477 46.732 94.5952 46.6122 94.5048 46.5243C94.4144 46.4363 94.2933 46.3871 94.1671 46.3872V46.3479ZM86.45 40.3835C86.8761 40.0051 87.2421 39.564 87.5357 39.0756C87.8674 38.4299 88.0209 37.7075 87.9804 36.9828C87.9613 36.8664 87.9015 36.7607 87.8117 36.6843C87.7218 36.608 87.6078 36.5661 87.4899 36.5661C87.372 36.5661 87.2579 36.608 87.1681 36.6843C87.0782 36.7607 87.0185 36.8664 86.9994 36.9828C87.036 37.5372 86.9278 38.0916 86.6855 38.5916C86.4242 38.9804 86.1118 39.3323 85.7568 39.638C85.7105 39.6831 85.6738 39.737 85.6486 39.7965C85.6235 39.856 85.6106 39.92 85.6106 39.9846C85.6106 40.0492 85.6235 40.1132 85.6486 40.1727C85.6738 40.2322 85.7105 40.2861 85.7568 40.3312C85.8351 40.4205 85.9427 40.4789 86.0603 40.4957C86.1779 40.5125 86.2976 40.4866 86.3977 40.4228L86.45 40.3835ZM85.7568 39.6772C85.3362 40.0891 85.0035 40.5819 84.7786 41.1259C84.5538 41.67 84.4416 42.2539 84.4488 42.8426C84.4477 43.9579 84.8682 45.0325 85.626 45.8509C86.0285 46.2865 86.5157 46.6353 87.0577 46.876C87.5997 47.1166 88.1852 47.2441 88.7783 47.2505H88.909C89.0254 47.2314 89.1312 47.1716 89.2075 47.0817C89.2838 46.9919 89.3257 46.8778 89.3257 46.76C89.3257 46.6421 89.2838 46.528 89.2075 46.4382C89.1312 46.3483 89.0254 46.2885 88.909 46.2695H88.7913C88.3301 46.2668 87.8743 46.1703 87.4516 45.9859C87.0289 45.8015 86.648 45.5331 86.3323 45.1969C85.744 44.5539 85.4175 43.7141 85.4167 42.8426C85.4179 42.3811 85.5137 41.9248 85.6981 41.5019C85.8826 41.0789 86.1519 40.6983 86.4893 40.3835C86.5829 40.2933 86.6369 40.1696 86.6394 40.0396C86.6418 39.9096 86.5926 39.784 86.5024 39.6903C86.4122 39.5966 86.2885 39.5427 86.1585 39.5402C86.0285 39.5378 85.9028 39.587 85.8091 39.6772H85.7568ZM113.224 49.7356C114.505 49.7468 115.782 49.6107 117.031 49.3301C117.159 49.3019 117.271 49.2242 117.342 49.114C117.413 49.0037 117.437 48.8699 117.41 48.7416C117.379 48.6159 117.3 48.5073 117.19 48.4389C117.08 48.3705 116.948 48.3477 116.821 48.3753C115.641 48.6422 114.434 48.7695 113.224 48.7546C113.153 48.743 113.081 48.7469 113.011 48.7662C112.942 48.7855 112.877 48.8197 112.822 48.8663C112.767 48.913 112.723 48.971 112.693 49.0364C112.663 49.1018 112.647 49.173 112.647 49.2451C112.647 49.3172 112.663 49.3884 112.693 49.4538C112.723 49.5192 112.767 49.5773 112.822 49.6239C112.877 49.6706 112.942 49.7048 113.011 49.724C113.081 49.7433 113.153 49.7473 113.224 49.7356ZM132.177 46.3872C126.989 46.6239 121.829 47.3021 116.756 48.4146C116.693 48.427 116.633 48.4519 116.58 48.4876C116.527 48.5234 116.481 48.5694 116.446 48.623C116.411 48.6765 116.386 48.7365 116.374 48.7996C116.363 48.8626 116.363 48.9273 116.377 48.9901C116.405 49.1182 116.483 49.2299 116.593 49.301C116.703 49.372 116.837 49.3966 116.965 49.3694C121.986 48.2648 127.093 47.5953 132.229 47.3682C132.359 47.3581 132.479 47.2977 132.565 47.1999C132.651 47.1021 132.695 46.9747 132.687 46.845C132.684 46.7814 132.668 46.7191 132.641 46.6616C132.613 46.6042 132.575 46.5527 132.527 46.5102C132.48 46.4677 132.424 46.4349 132.364 46.4138C132.304 46.3927 132.241 46.3836 132.177 46.3872ZM109.34 49.3694C110.589 49.6499 111.866 49.786 113.146 49.7748C113.217 49.7865 113.29 49.7826 113.359 49.7633C113.429 49.744 113.493 49.7098 113.548 49.6632C113.603 49.6165 113.647 49.5585 113.677 49.4931C113.708 49.4277 113.723 49.3564 113.723 49.2844C113.723 49.2123 113.708 49.1411 113.677 49.0757C113.647 49.0103 113.603 48.9522 113.548 48.9056C113.493 48.8589 113.429 48.8247 113.359 48.8055C113.29 48.7862 113.217 48.7822 113.146 48.7939C111.936 48.8087 110.729 48.6814 109.549 48.4146C109.423 48.3869 109.29 48.4097 109.18 48.4781C109.07 48.5465 108.992 48.6551 108.96 48.7808C108.947 48.8471 108.948 48.9154 108.962 48.9815C108.976 49.0476 109.004 49.1101 109.043 49.1652C109.082 49.2203 109.132 49.2668 109.19 49.3019C109.248 49.337 109.312 49.36 109.379 49.3694H109.34ZM109.549 48.4146C104.476 47.3021 99.3165 46.6239 94.1279 46.3872C94.0643 46.3836 94.0007 46.3927 93.9406 46.4138C93.8805 46.4349 93.8252 46.4677 93.7778 46.5102C93.7304 46.5527 93.6919 46.6042 93.6645 46.6616C93.637 46.7191 93.6211 46.7814 93.6178 46.845C93.6106 46.9747 93.6544 47.1021 93.74 47.1999C93.8256 47.2977 93.946 47.3581 94.0756 47.3682C99.2117 47.5953 104.319 48.2648 109.34 49.3694C109.468 49.3966 109.602 49.372 109.712 49.301C109.822 49.2299 109.9 49.1182 109.928 48.9901C109.953 48.869 109.932 48.743 109.87 48.6366C109.807 48.5302 109.706 48.451 109.588 48.4146H109.549ZM132.177 17.9385C133.014 17.9385 134.584 17.9385 135.251 18.017H137.501C137.632 18.017 137.759 17.9647 137.852 17.8714C137.945 17.7782 137.998 17.6518 137.998 17.52C137.998 17.4553 137.985 17.3913 137.96 17.3317C137.934 17.2721 137.898 17.2182 137.851 17.1731C137.805 17.128 137.75 17.0926 137.69 17.0691C137.63 17.0455 137.565 17.0343 137.501 17.036H135.264C134.597 17.036 133.027 17.036 132.229 16.9576C132.158 16.9459 132.086 16.9499 132.016 16.9691C131.947 16.9884 131.882 17.0226 131.827 17.0692C131.772 17.1159 131.728 17.174 131.698 17.2394C131.668 17.3048 131.652 17.376 131.652 17.448C131.652 17.5201 131.668 17.5913 131.698 17.6567C131.728 17.7221 131.772 17.7802 131.827 17.8269C131.882 17.8735 131.947 17.9077 132.016 17.927C132.086 17.9462 132.158 17.9502 132.229 17.9385H132.177ZM139.894 23.9029C139.465 24.2784 139.099 24.72 138.809 25.2109C138.477 25.8518 138.323 26.5701 138.364 27.2906C138.352 27.3618 138.356 27.4345 138.375 27.504C138.395 27.5734 138.429 27.6378 138.476 27.6928C138.522 27.7477 138.58 27.7918 138.646 27.8221C138.711 27.8523 138.782 27.868 138.854 27.868C138.926 27.868 138.998 27.8523 139.063 27.8221C139.129 27.7918 139.187 27.7477 139.233 27.6928C139.28 27.6378 139.314 27.5734 139.333 27.504C139.353 27.4345 139.357 27.3618 139.345 27.2906C139.312 26.7364 139.42 26.1829 139.659 25.6818C139.92 25.293 140.232 24.9411 140.587 24.6354C140.634 24.5903 140.671 24.5364 140.696 24.4769C140.721 24.4174 140.734 24.3534 140.734 24.2888C140.734 24.2242 140.721 24.1602 140.696 24.1007C140.671 24.0412 140.634 23.9873 140.587 23.9422C140.502 23.8575 140.388 23.8068 140.268 23.7996C140.148 23.7923 140.029 23.8291 139.933 23.9029H139.894ZM140.574 24.6093C141.012 24.2036 141.361 23.7119 141.6 23.1649C141.838 22.618 141.961 22.0276 141.961 21.4309C141.957 20.3164 141.537 19.2437 140.784 18.4225C140.382 17.9868 139.895 17.6388 139.352 17.4002C138.81 17.1616 138.224 17.0376 137.631 17.036H137.501C137.437 17.036 137.374 17.0485 137.315 17.0729C137.257 17.0972 137.203 17.1329 137.158 17.1778C137.113 17.2227 137.078 17.2761 137.053 17.3348C137.029 17.3935 137.017 17.4564 137.017 17.52C137.017 17.6496 137.067 17.7741 137.158 17.8669C137.248 17.9598 137.371 18.0136 137.501 18.017H137.618C138.08 18.015 138.538 18.1094 138.961 18.2941C139.384 18.4787 139.765 18.7497 140.077 19.0896C140.662 19.73 140.988 20.5641 140.993 21.4309C140.993 21.8925 140.898 22.3493 140.714 22.7725C140.529 23.1956 140.259 23.5761 139.92 23.8899C139.86 23.9297 139.81 23.9821 139.772 24.0435C139.734 24.1048 139.71 24.1736 139.702 24.2452C139.693 24.3167 139.7 24.3893 139.723 24.4578C139.745 24.5263 139.782 24.5891 139.831 24.642C139.88 24.6948 139.94 24.7364 140.006 24.7637C140.073 24.7911 140.145 24.8037 140.217 24.8006C140.289 24.7975 140.359 24.7788 140.423 24.7457C140.487 24.7127 140.543 24.6661 140.587 24.6093H140.574ZM88.8044 18.0693H91.0541C91.7212 18.0693 93.2908 18.0693 94.1279 17.9909C94.199 18.0025 94.2718 17.9986 94.3413 17.9793C94.4107 17.96 94.4751 17.9258 94.5301 17.8792C94.585 17.8325 94.6291 17.7745 94.6594 17.7091C94.6896 17.6436 94.7053 17.5724 94.7053 17.5004C94.7053 17.4283 94.6896 17.3571 94.6594 17.2917C94.6291 17.2263 94.585 17.1682 94.5301 17.1216C94.4751 17.0749 94.4107 17.0407 94.3413 17.0215C94.2718 17.0022 94.199 16.9982 94.1279 17.0099C93.33 17.0099 91.7604 17.0099 91.0803 17.0884H88.8436C88.779 17.0866 88.7147 17.0978 88.6544 17.1214C88.5942 17.1449 88.5393 17.1803 88.493 17.2254C88.4466 17.2705 88.4098 17.3245 88.3847 17.384C88.3595 17.4436 88.3466 17.5076 88.3466 17.5723C88.3596 17.6949 88.4176 17.8082 88.5095 17.8904C88.6013 17.9726 88.7204 18.0177 88.8436 18.017L88.8044 18.0693ZM87.9411 27.3037C87.9818 26.5832 87.8283 25.8649 87.4964 25.224C87.2064 24.7331 86.8399 24.2915 86.4108 23.916C86.318 23.8257 86.1936 23.7752 86.0642 23.7752C85.9347 23.7752 85.8103 23.8257 85.7176 23.916C85.6713 23.9611 85.6345 24.015 85.6094 24.0745C85.5843 24.1341 85.5713 24.198 85.5713 24.2626C85.5713 24.3273 85.5843 24.3912 85.6094 24.4507C85.6345 24.5103 85.6713 24.5642 85.7176 24.6093C86.0726 24.9149 86.3849 25.2669 86.6462 25.6557C86.8852 26.1568 86.9932 26.7103 86.9601 27.2645C86.9485 27.3356 86.9524 27.4084 86.9717 27.4778C86.991 27.5473 87.0252 27.6117 87.0718 27.6666C87.1185 27.7216 87.1765 27.7657 87.2419 27.7959C87.3074 27.8262 87.3786 27.8419 87.4506 27.8419C87.5227 27.8419 87.5939 27.8262 87.6593 27.7959C87.7247 27.7657 87.7828 27.7216 87.8294 27.6666C87.8761 27.6117 87.9103 27.5473 87.9296 27.4778C87.9488 27.4084 87.9528 27.3356 87.9411 27.2645V27.3037ZM88.8044 17.0884H88.6736C88.081 17.09 87.4952 17.2139 86.9528 17.4525C86.4103 17.6911 85.923 18.0391 85.5214 18.4748C84.7646 19.2939 84.3443 20.368 84.3442 21.4832C84.336 22.0739 84.4476 22.6601 84.6725 23.2064C84.8973 23.7527 85.2306 24.2477 85.6522 24.6616C85.7471 24.7527 85.8737 24.8036 86.0053 24.8036C86.1369 24.8036 86.2635 24.7527 86.3585 24.6616C86.4488 24.5688 86.4993 24.4444 86.4993 24.315C86.4993 24.1855 86.4488 24.0611 86.3585 23.9683C86.0198 23.6545 85.7498 23.2741 85.5652 22.851C85.3806 22.4278 85.2855 21.971 85.2859 21.5093C85.2848 20.6414 85.6119 19.805 86.2015 19.168C86.5143 18.8281 86.8945 18.5572 87.318 18.3725C87.7414 18.1879 88.1986 18.0935 88.6605 18.0955H88.7783C88.9078 18.0921 89.0309 18.0382 89.1213 17.9454C89.2117 17.8525 89.2622 17.7281 89.2622 17.5985C89.2733 17.5339 89.2712 17.4677 89.2559 17.4039C89.2407 17.3401 89.2126 17.2801 89.1735 17.2275C89.1343 17.1749 89.0849 17.1308 89.0282 17.0979C88.9715 17.065 88.9087 17.0439 88.8436 17.036L88.8044 17.0884ZM87.9411 37.1136V27.3037C87.9221 27.1874 87.8623 27.0816 87.7724 27.0053C87.6826 26.9289 87.5685 26.887 87.4506 26.887C87.3327 26.887 87.2187 26.9289 87.1288 27.0053C87.039 27.0816 86.9792 27.1874 86.9601 27.3037V37.1136C86.9485 37.1847 86.9524 37.2575 86.9717 37.327C86.991 37.3964 87.0252 37.4608 87.0718 37.5157C87.1185 37.5707 87.1765 37.6148 87.2419 37.645C87.3074 37.6753 87.3786 37.691 87.4506 37.691C87.5227 37.691 87.5939 37.6753 87.6593 37.645C87.7247 37.6148 87.7828 37.5707 87.8294 37.5157C87.8761 37.4608 87.9103 37.3964 87.9296 37.327C87.9488 37.2575 87.9528 37.1847 87.9411 37.1136ZM117.005 14.9433C115.756 14.6627 114.478 14.5266 113.198 14.5378C113.127 14.5261 113.054 14.5301 112.985 14.5494C112.915 14.5687 112.851 14.6028 112.796 14.6495C112.741 14.6961 112.697 14.7542 112.667 14.8196C112.637 14.885 112.621 14.9562 112.621 15.0283C112.621 15.1004 112.637 15.1716 112.667 15.237C112.697 15.3024 112.741 15.3604 112.796 15.4071C112.851 15.4538 112.915 15.4879 112.985 15.5072C113.054 15.5265 113.127 15.5304 113.198 15.5188C114.408 15.5089 115.616 15.6406 116.795 15.9112C116.919 15.9267 117.043 15.8955 117.145 15.8237C117.246 15.7518 117.317 15.6446 117.343 15.5231C117.37 15.4016 117.349 15.2747 117.287 15.1673C117.224 15.06 117.123 14.98 117.005 14.9433ZM116.795 15.9112C121.857 17.0148 127.002 17.693 132.177 17.9385C132.293 17.9195 132.399 17.8597 132.476 17.7698C132.552 17.68 132.594 17.5659 132.594 17.448C132.594 17.3302 132.552 17.2161 132.476 17.1263C132.399 17.0364 132.293 16.9766 132.177 16.9576C127.042 16.7175 121.936 16.0481 116.913 14.9563C116.786 14.9287 116.654 14.9515 116.544 15.0199C116.434 15.0883 116.355 15.1969 116.324 15.3226C116.319 15.3889 116.327 15.4557 116.348 15.5188C116.369 15.582 116.402 15.6403 116.446 15.6904C116.49 15.7404 116.544 15.7811 116.604 15.81C116.664 15.839 116.729 15.8556 116.795 15.8588V15.9112ZM113.185 14.6032C111.905 14.592 110.628 14.7281 109.379 15.0087C109.311 15.0173 109.245 15.04 109.186 15.0755C109.127 15.1109 109.075 15.1583 109.036 15.2145C108.996 15.2708 108.968 15.3347 108.954 15.4022C108.94 15.4698 108.941 15.5394 108.955 15.6068C108.97 15.6742 108.998 15.7378 109.039 15.7936C109.079 15.8494 109.131 15.8962 109.19 15.9309C109.25 15.9657 109.316 15.9877 109.385 15.9956C109.453 16.0034 109.522 15.997 109.588 15.9766C110.768 15.706 111.975 15.5743 113.185 15.5842C113.256 15.5958 113.329 15.5919 113.399 15.5726C113.468 15.5533 113.532 15.5191 113.587 15.4725C113.642 15.4258 113.686 15.3678 113.717 15.3024C113.747 15.237 113.763 15.1657 113.763 15.0937C113.763 15.0216 113.747 14.9504 113.717 14.885C113.686 14.8196 113.642 14.7615 113.587 14.7149C113.532 14.6682 113.468 14.6341 113.399 14.6148C113.329 14.5955 113.256 14.5915 113.185 14.6032ZM94.1671 18.0039C99.3585 17.7218 104.517 17.0043 109.588 15.8588C109.715 15.8277 109.824 15.7493 109.895 15.6399C109.965 15.5305 109.991 15.3982 109.968 15.2703C109.936 15.1446 109.858 15.036 109.748 14.9676C109.638 14.8992 109.505 14.8764 109.379 14.904C104.356 15.9958 99.2498 16.6652 94.1148 16.9052C93.9985 16.9243 93.8927 16.9841 93.8164 17.0739C93.74 17.1638 93.6981 17.2778 93.6981 17.3957C93.6981 17.5136 93.74 17.6277 93.8164 17.7175C93.8927 17.8074 93.9985 17.8672 94.1148 17.8862L94.1671 18.0039ZM138.639 42.9603H139.136C139.132 42.5705 138.975 42.198 138.698 41.9236C138.421 41.6492 138.047 41.4953 137.658 41.4953C137.291 41.5299 136.951 41.6999 136.703 41.972C136.456 42.2441 136.318 42.5989 136.318 42.9668C136.318 43.3348 136.456 43.6895 136.703 43.9616C136.951 44.2337 137.291 44.4037 137.658 44.4383C138.049 44.4349 138.422 44.2781 138.699 44.0016C138.975 43.7252 139.132 43.3512 139.136 42.9603H138.155C138.151 43.091 138.098 43.2156 138.005 43.3081C137.913 43.4006 137.788 43.454 137.658 43.4573C137.593 43.4573 137.529 43.4444 137.469 43.4192C137.41 43.3941 137.356 43.3573 137.311 43.311C137.266 43.2646 137.23 43.2097 137.207 43.1495C137.183 43.0893 137.172 43.0249 137.174 42.9603C137.172 42.8962 137.183 42.8325 137.207 42.773C137.23 42.7134 137.266 42.6593 137.311 42.614C137.357 42.5687 137.411 42.5332 137.47 42.5095C137.53 42.4858 137.594 42.4745 137.658 42.4763C137.787 42.4763 137.912 42.5268 138.005 42.6172C138.097 42.7076 138.151 42.8307 138.155 42.9603H138.639ZM130.124 32.2217H130.608C130.573 31.8554 130.403 31.5151 130.131 31.2675C129.859 31.0198 129.504 30.8826 129.136 30.8826C128.768 30.8826 128.413 31.0198 128.141 31.2675C127.869 31.5151 127.699 31.8554 127.665 32.2217C127.645 32.4266 127.669 32.6333 127.734 32.8285C127.799 33.0237 127.904 33.2032 128.043 33.3554C128.181 33.5076 128.35 33.6292 128.539 33.7124C128.727 33.7956 128.93 33.8386 129.136 33.8386C129.342 33.8386 129.545 33.7956 129.734 33.7124C129.922 33.6292 130.091 33.5076 130.229 33.3554C130.368 33.2032 130.473 33.0237 130.538 32.8285C130.603 32.6333 130.627 32.4266 130.608 32.2217H129.561C129.564 32.3211 129.537 32.419 129.483 32.5027C129.429 32.5864 129.352 32.6521 129.26 32.6913C129.169 32.7306 129.068 32.7415 128.971 32.7227C128.873 32.704 128.783 32.6564 128.713 32.5861C128.643 32.5158 128.595 32.4261 128.576 32.3284C128.557 32.2308 128.568 32.1298 128.608 32.0385C128.647 31.9471 128.713 31.8697 128.796 31.8161C128.88 31.7625 128.978 31.7352 129.077 31.7378C129.206 31.7378 129.329 31.7888 129.419 31.8795C129.51 31.9703 129.561 32.0934 129.561 32.2217H130.124ZM114.219 32.2217H114.716C114.716 31.9294 114.629 31.6436 114.466 31.4006C114.304 31.1575 114.073 30.9681 113.803 30.8562C113.533 30.7443 113.236 30.7151 112.949 30.7721C112.662 30.8291 112.399 30.9699 112.192 31.1766C111.986 31.3833 111.845 31.6467 111.788 31.9334C111.731 32.2201 111.76 32.5173 111.872 32.7873C111.984 33.0574 112.173 33.2882 112.416 33.4506C112.659 33.6131 112.945 33.6997 113.238 33.6997C113.432 33.7015 113.625 33.6644 113.805 33.5908C113.985 33.5171 114.149 33.4083 114.287 33.2707C114.424 33.1331 114.533 32.9695 114.607 32.7894C114.68 32.6093 114.717 32.4163 114.716 32.2217H113.735C113.746 32.2928 113.742 32.3656 113.723 32.4351C113.704 32.5045 113.67 32.5689 113.623 32.6239C113.576 32.6788 113.518 32.7229 113.453 32.7532C113.387 32.7834 113.316 32.7991 113.244 32.7991C113.172 32.7991 113.101 32.7834 113.035 32.7532C112.97 32.7229 112.912 32.6788 112.865 32.6239C112.819 32.5689 112.784 32.5045 112.765 32.4351C112.746 32.3656 112.742 32.2928 112.754 32.2217C112.773 32.1054 112.832 31.9996 112.922 31.9233C113.012 31.847 113.126 31.805 113.244 31.805C113.362 31.805 113.476 31.847 113.566 31.9233C113.656 31.9996 113.716 32.1054 113.735 32.2217H114.219ZM89.8116 21.4832H90.2955C90.2981 21.1898 90.2133 20.9022 90.0519 20.6572C89.8905 20.4121 89.6598 20.2206 89.3892 20.1071C89.1186 19.9937 88.8203 19.9633 88.5324 20.0199C88.2445 20.0765 87.9799 20.2175 87.7724 20.425C87.5649 20.6325 87.4239 20.8971 87.3673 21.185C87.3107 21.4729 87.341 21.7712 87.4545 22.0418C87.568 22.3124 87.7595 22.5431 88.0045 22.7045C88.2496 22.8659 88.5371 22.9507 88.8306 22.9481C89.2191 22.9481 89.5917 22.7938 89.8664 22.5191C90.1412 22.2443 90.2955 21.8717 90.2955 21.4832H89.3145C89.3145 21.6115 89.2635 21.7346 89.1728 21.8254C89.082 21.9161 88.9589 21.9671 88.8306 21.9671C88.7594 21.9788 88.6866 21.9748 88.6172 21.9556C88.5477 21.9363 88.4833 21.9021 88.4284 21.8554C88.3735 21.8088 88.3294 21.7507 88.2991 21.6853C88.2688 21.6199 88.2532 21.5487 88.2532 21.4766C88.2532 21.4046 88.2688 21.3334 88.2991 21.268C88.3294 21.2025 88.3735 21.1445 88.4284 21.0978C88.4833 21.0512 88.5477 21.017 88.6172 20.9977C88.6866 20.9785 88.7594 20.9745 88.8306 20.9861C88.8952 20.9861 88.9592 20.9991 89.0188 21.0242C89.0784 21.0493 89.1324 21.0861 89.1775 21.1325C89.2226 21.1788 89.258 21.2337 89.2815 21.294C89.305 21.3542 89.3163 21.4185 89.3145 21.4832H89.8116ZM98.3134 32.2217H98.8105C98.8105 31.9294 98.7238 31.6436 98.5614 31.4006C98.399 31.1575 98.1681 30.9681 97.8981 30.8562C97.628 30.7443 97.3308 30.7151 97.0441 30.7721C96.7574 30.8291 96.4941 30.9699 96.2873 31.1766C96.0806 31.3833 95.9399 31.6467 95.8828 31.9334C95.8258 32.2201 95.8551 32.5173 95.9669 32.7873C96.0788 33.0574 96.2683 33.2882 96.5113 33.4506C96.7544 33.6131 97.0401 33.6997 97.3325 33.6997C97.7245 33.6997 98.1004 33.544 98.3776 33.2668C98.6548 32.9897 98.8105 32.6137 98.8105 32.2217H97.8295C97.8295 32.3535 97.7771 32.48 97.6839 32.5732C97.5907 32.6664 97.4643 32.7188 97.3325 32.7188C97.2678 32.7188 97.2038 32.7058 97.1442 32.6807C97.0846 32.6556 97.0307 32.6188 96.9855 32.5724C96.9404 32.5261 96.9051 32.4712 96.8815 32.4109C96.858 32.3507 96.8468 32.2864 96.8485 32.2217C96.8467 32.1577 96.858 32.0939 96.8817 32.0344C96.9053 31.9749 96.9409 31.9208 96.9862 31.8755C97.0315 31.8302 97.0856 31.7946 97.1452 31.7709C97.2047 31.7473 97.2684 31.736 97.3325 31.7378C97.462 31.7377 97.5865 31.7883 97.6794 31.8787C97.7722 31.9691 97.8261 32.0922 97.8295 32.2217H98.3134ZM133.014 46.4918H132.805C132.524 46.4779 132.244 46.443 131.968 46.3872C131.641 46.3176 131.308 46.2782 130.974 46.2695H130.333C130.012 46.267 129.692 46.2319 129.378 46.1648C129.258 46.1585 129.14 46.196 129.045 46.2703C128.95 46.3445 128.886 46.4506 128.864 46.5688C128.841 46.687 128.863 46.8092 128.923 46.9129C128.984 47.0166 129.081 47.0947 129.195 47.1327C129.57 47.2056 129.951 47.245 130.333 47.2505H130.725H130.869C131.138 47.2556 131.406 47.2907 131.667 47.3551C131.982 47.4154 132.301 47.4547 132.622 47.4728V46.9758L132.373 47.4074C132.488 47.4683 132.62 47.4846 132.746 47.4532C132.872 47.4218 132.981 47.3449 133.054 47.2374C133.111 47.1831 133.155 47.1161 133.183 47.0417C133.21 46.9674 133.219 46.8877 133.21 46.809C133.202 46.7303 133.174 46.6548 133.131 46.5884C133.088 46.522 133.03 46.4665 132.962 46.4264L133.014 46.4918ZM129.313 46.0994C127.29 45.7388 125.244 45.5159 123.191 45.4324H122.354C120.518 45.4342 118.685 45.5874 116.874 45.8902C116.746 45.9126 116.632 45.9839 116.557 46.089C116.481 46.194 116.449 46.3245 116.468 46.4526C116.494 46.5786 116.566 46.6904 116.67 46.7656C116.774 46.8407 116.903 46.8738 117.031 46.8581C118.79 46.5672 120.571 46.4184 122.354 46.4133H123.165C125.17 46.4947 127.167 46.7132 129.143 47.0673C129.21 47.0902 129.282 47.0981 129.354 47.0906C129.425 47.0831 129.494 47.0602 129.555 47.0237C129.617 46.9871 129.67 46.9377 129.71 46.8788C129.751 46.8199 129.779 46.7529 129.791 46.6823C129.803 46.6118 129.8 46.5394 129.782 46.4702C129.764 46.4009 129.731 46.3364 129.686 46.2811C129.64 46.2257 129.583 46.1808 129.519 46.1495C129.455 46.1181 129.384 46.101 129.313 46.0994ZM113.238 47.1981C114.509 47.1846 115.777 47.0709 117.031 46.8581C117.095 46.8485 117.156 46.8263 117.211 46.7927C117.266 46.7591 117.314 46.7148 117.352 46.6624C117.39 46.61 117.417 46.5505 117.431 46.4875C117.446 46.4245 117.447 46.3593 117.436 46.2956C117.428 46.2309 117.407 46.1685 117.374 46.1124C117.341 46.0562 117.297 46.0075 117.244 45.9694C117.191 45.9313 117.131 45.9046 117.067 45.8909C117.003 45.8773 116.938 45.877 116.874 45.8902C115.672 46.0969 114.456 46.2062 113.238 46.2172C113.121 46.2362 113.015 46.296 112.939 46.3858C112.863 46.4757 112.821 46.5898 112.821 46.7076C112.821 46.8255 112.863 46.9396 112.939 47.0294C113.015 47.1193 113.121 47.1791 113.238 47.1981ZM97.1624 46.0994C96.8485 46.1665 96.5286 46.2015 96.2076 46.2041H95.5536C95.2188 46.2054 94.8854 46.2449 94.5595 46.3218C94.2835 46.3776 94.0037 46.4125 93.7224 46.4264H93.5131C93.4476 46.4536 93.3886 46.4945 93.3401 46.5463C93.2916 46.5982 93.2548 46.6598 93.2322 46.7271C93.2096 46.7944 93.2016 46.8658 93.2088 46.9364C93.2161 47.007 93.2383 47.0752 93.2742 47.1365C93.31 47.1978 93.3585 47.2507 93.4165 47.2916C93.4745 47.3326 93.5406 47.3607 93.6103 47.3739C93.6801 47.3872 93.7518 47.3854 93.8208 47.3686C93.8898 47.3518 93.9544 47.3204 94.0102 47.2766L93.7617 46.845V47.342C94.0822 47.3239 94.4012 47.2846 94.7165 47.2243C94.9777 47.1599 95.2453 47.1248 95.5144 47.1196H95.7629H96.1553C96.5373 47.1142 96.9181 47.0748 97.2932 47.0019C97.364 46.9982 97.4332 46.9794 97.4962 46.9467C97.5591 46.9141 97.6143 46.8683 97.6581 46.8126C97.7019 46.7568 97.7332 46.6923 97.75 46.6234C97.7669 46.5545 97.7687 46.4829 97.7556 46.4132C97.7424 46.3435 97.7144 46.2775 97.6736 46.2195C97.6328 46.1615 97.5801 46.1129 97.5189 46.077C97.4578 46.0411 97.3897 46.0187 97.3192 46.0113C97.2486 46.0039 97.1774 46.0116 97.1101 46.034L97.1624 46.0994ZM109.614 45.8902C107.803 45.5874 105.97 45.4342 104.134 45.4324H103.297C101.244 45.5159 99.1985 45.7388 97.1755 46.0994C97.048 46.1219 96.9342 46.1932 96.8585 46.2983C96.7828 46.4033 96.751 46.5338 96.77 46.6619C96.7811 46.7263 96.8048 46.788 96.8397 46.8432C96.8746 46.8985 96.9202 46.9464 96.9736 46.984C97.0271 47.0217 97.0875 47.0485 97.1513 47.0628C97.2151 47.0771 97.2811 47.0786 97.3455 47.0673C99.3208 46.7132 101.318 46.4947 103.323 46.4133H104.134C105.918 46.4184 107.698 46.5672 109.457 46.8581C109.585 46.8738 109.714 46.8407 109.818 46.7656C109.922 46.6904 109.994 46.5786 110.02 46.4526C110.04 46.3806 110.043 46.3051 110.029 46.2317C110.016 46.1582 109.986 46.0888 109.942 46.0285C109.898 45.9682 109.841 45.9185 109.775 45.8833C109.71 45.848 109.637 45.828 109.562 45.8248L109.614 45.8902ZM109.457 46.8581C110.707 47.0703 111.971 47.184 113.238 47.1981C113.309 47.2098 113.381 47.2058 113.451 47.1865C113.52 47.1673 113.585 47.1331 113.64 47.0864C113.695 47.0398 113.739 46.9817 113.769 46.9163C113.799 46.8509 113.815 46.7797 113.815 46.7076C113.815 46.6356 113.799 46.5644 113.769 46.4989C113.739 46.4335 113.695 46.3755 113.64 46.3288C113.585 46.2822 113.52 46.248 113.451 46.2287C113.381 46.2094 113.309 46.2055 113.238 46.2172C112.023 46.2056 110.811 46.0963 109.614 45.8902C109.551 45.877 109.485 45.8773 109.421 45.8909C109.357 45.9046 109.297 45.9313 109.244 45.9694C109.191 46.0075 109.147 46.0562 109.114 46.1124C109.081 46.1685 109.06 46.2309 109.052 46.2956C109.041 46.3593 109.042 46.4245 109.057 46.4875C109.071 46.5505 109.098 46.61 109.136 46.6624C109.174 46.7148 109.222 46.7591 109.277 46.7927C109.332 46.8263 109.394 46.8485 109.457 46.8581ZM129.326 18.344C129.641 18.2876 129.96 18.257 130.281 18.2525H130.869C131.209 18.2471 131.547 18.2032 131.876 18.1217C132.152 18.0639 132.432 18.0333 132.713 18.0301L132.923 17.9516C132.979 17.9206 133.029 17.8783 133.068 17.8272C133.108 17.7762 133.137 17.7176 133.153 17.655C133.169 17.5925 133.171 17.5273 133.161 17.4636C133.151 17.3998 133.128 17.3389 133.093 17.2845C133.061 17.2282 133.019 17.1787 132.969 17.1389C132.918 17.0991 132.86 17.0698 132.798 17.0527C132.736 17.0357 132.671 17.0312 132.607 17.0396C132.543 17.0479 132.481 17.069 132.426 17.1014L132.674 17.52V17.036C132.353 17.0476 132.034 17.087 131.719 17.1538C131.454 17.219 131.182 17.2541 130.908 17.2584H130.281C129.898 17.2574 129.517 17.2968 129.143 17.3761C129.079 17.3855 129.018 17.4077 128.963 17.4415C128.909 17.4753 128.862 17.5199 128.825 17.5725C128.788 17.6252 128.763 17.6849 128.75 17.7478C128.737 17.8108 128.737 17.8757 128.75 17.9385C128.783 18.0478 128.854 18.1419 128.95 18.2042C129.045 18.2664 129.16 18.2928 129.273 18.2786L129.326 18.344ZM116.874 18.5664C118.686 18.8627 120.518 19.0158 122.354 19.0242H123.191C125.245 18.9536 127.292 18.7306 129.313 18.3571C129.44 18.3346 129.554 18.2633 129.63 18.1583C129.705 18.0532 129.737 17.9228 129.718 17.7947C129.693 17.6661 129.619 17.5522 129.512 17.4767C129.404 17.4012 129.272 17.3699 129.143 17.3892C127.168 17.7498 125.171 17.9683 123.165 18.0432H122.354C120.571 18.0381 118.79 17.8894 117.031 17.5985C116.967 17.5873 116.902 17.589 116.839 17.6034C116.776 17.6178 116.716 17.6448 116.664 17.6826C116.611 17.7203 116.567 17.7683 116.534 17.8235C116.5 17.8787 116.478 17.94 116.468 18.0039C116.471 18.1093 116.507 18.2111 116.57 18.2955C116.633 18.3798 116.721 18.4424 116.821 18.4748L116.874 18.5664ZM117.031 17.5985C115.778 17.3792 114.509 17.2654 113.238 17.2584C113.109 17.2584 112.986 17.3094 112.895 17.4001C112.805 17.4909 112.754 17.614 112.754 17.7423C112.754 17.8719 112.804 17.9964 112.895 18.0893C112.985 18.1821 113.108 18.236 113.238 18.2394C114.456 18.2503 115.672 18.3597 116.874 18.5664C117.002 18.5854 117.132 18.5536 117.237 18.4779C117.342 18.4022 117.414 18.2884 117.436 18.1609C117.462 18.0888 117.469 18.0115 117.458 17.9358C117.447 17.86 117.418 17.7881 117.373 17.7263C117.328 17.6645 117.268 17.6146 117.199 17.5809C117.131 17.5472 117.055 17.5308 116.978 17.5331L117.031 17.5985ZM131.837 46.9889C134.33 43.8005 135.993 40.0433 136.677 36.0541C136.886 34.7961 136.991 33.5231 136.991 32.2479C136.991 30.977 136.886 29.7083 136.677 28.4547C135.996 24.4648 134.332 20.7069 131.837 17.52C131.798 17.4693 131.75 17.4268 131.695 17.3947C131.64 17.3627 131.579 17.3418 131.516 17.3333C131.453 17.3248 131.389 17.3289 131.327 17.3452C131.265 17.3615 131.208 17.3898 131.157 17.4284C131.106 17.4671 131.064 17.5153 131.032 17.5704C131 17.6255 130.979 17.6864 130.97 17.7495C130.962 17.8127 130.966 17.8769 130.982 17.9385C130.998 18.0001 131.027 18.0579 131.065 18.1086C133.45 21.1614 135.045 24.7556 135.709 28.5724C135.907 29.7744 136.007 30.9905 136.01 32.2086C136.007 33.4312 135.907 34.6515 135.709 35.8579C135.045 39.6748 133.45 43.269 131.065 46.3218C130.986 46.4241 130.95 46.554 130.966 46.6827C130.982 46.8115 131.048 46.9287 131.15 47.0085C131.253 47.0883 131.383 47.1241 131.511 47.1082C131.64 47.0922 131.757 47.0258 131.837 46.9235V46.9889ZM94.6511 17.4677C92.1557 20.6546 90.4925 24.4124 89.8116 28.4024C89.6026 29.656 89.4976 30.9247 89.4976 32.1956C89.4976 33.4708 89.6026 34.7438 89.8116 36.0018C90.4952 39.991 92.1581 43.7482 94.6511 46.9365C94.6906 46.9872 94.7397 47.0296 94.7956 47.0613C94.8515 47.093 94.9131 47.1134 94.9768 47.1213C95.0406 47.1292 95.1053 47.1244 95.1672 47.1073C95.2292 47.0902 95.2871 47.0611 95.3378 47.0215C95.3885 46.982 95.4309 46.9329 95.4626 46.8771C95.4942 46.8212 95.5146 46.7596 95.5225 46.6958C95.5304 46.632 95.5257 46.5674 95.5086 46.5054C95.4914 46.4435 95.4623 46.3855 95.4228 46.3349C93.0377 43.2821 91.4428 39.6879 90.7795 35.871C90.5814 34.6646 90.4808 33.4442 90.4786 32.2217C90.4807 31.0035 90.5814 29.7875 90.7795 28.5855C91.4428 24.7687 93.0377 21.1745 95.4228 18.1217C95.4614 18.071 95.4897 18.0132 95.5061 17.9516C95.5224 17.89 95.5264 17.8258 95.5179 17.7626C95.5094 17.6995 95.4885 17.6386 95.4565 17.5835C95.4245 17.5284 95.3819 17.4802 95.3312 17.4415C95.2806 17.4029 95.2228 17.3746 95.1612 17.3583C95.0996 17.3419 95.0354 17.3379 94.9722 17.3464C94.909 17.3549 94.8482 17.3758 94.7931 17.4078C94.738 17.4398 94.6897 17.4824 94.6511 17.5331V17.4677ZM93.4739 17.9516L93.6832 18.0301C93.9645 18.0333 94.2449 18.0639 94.5203 18.1217C94.8457 18.2025 95.1791 18.2464 95.5144 18.2525H96.1553C96.4755 18.257 96.7948 18.2876 97.1101 18.344C97.1728 18.356 97.2372 18.3556 97.2998 18.3427C97.3623 18.3298 97.4217 18.3048 97.4745 18.2689C97.5273 18.2331 97.5726 18.1872 97.6077 18.1339C97.6428 18.0806 97.667 18.0209 97.6791 17.9582C97.6911 17.8955 97.6907 17.831 97.6778 17.7685C97.6649 17.706 97.6398 17.6466 97.604 17.5938C97.5682 17.5409 97.5223 17.4957 97.469 17.4606C97.4156 17.4255 97.3559 17.4012 97.2932 17.3892C96.9191 17.3099 96.5377 17.2704 96.1553 17.2715H95.5536C95.2846 17.2663 95.017 17.2312 94.7557 17.1668C94.4415 17.1001 94.122 17.0607 93.8009 17.0491V17.5331L94.0494 17.1145C93.9343 17.0517 93.7993 17.0357 93.6727 17.0698C93.546 17.1039 93.4374 17.1855 93.3693 17.2976C93.3118 17.3878 93.2857 17.4944 93.2952 17.6008C93.3046 17.7073 93.3491 17.8077 93.4216 17.8862L93.4739 17.9516ZM97.1755 18.344C99.1966 18.7175 101.243 18.9405 103.297 19.0111H104.134C105.97 19.0027 107.802 18.8496 109.614 18.5533C109.74 18.5279 109.852 18.4558 109.927 18.3516C110.003 18.2473 110.036 18.1185 110.02 17.9909C110.01 17.9269 109.988 17.8656 109.955 17.8104C109.921 17.7552 109.877 17.7073 109.824 17.6695C109.772 17.6317 109.712 17.6048 109.649 17.5903C109.586 17.5759 109.521 17.5742 109.457 17.5854C107.698 17.8763 105.918 18.025 104.134 18.0301H103.323C101.317 17.9553 99.3198 17.7367 97.3455 17.3761C97.2159 17.3568 97.0838 17.3882 96.9766 17.4637C96.8695 17.5391 96.7955 17.653 96.77 17.7816C96.7588 17.8452 96.7605 17.9105 96.775 17.9735C96.7894 18.0365 96.8163 18.0959 96.8541 18.1483C96.8919 18.2008 96.9398 18.2451 96.995 18.2787C97.0502 18.3123 97.1116 18.3345 97.1755 18.344ZM109.614 18.5664C110.811 18.3603 112.023 18.2509 113.238 18.2394C113.369 18.2394 113.496 18.187 113.589 18.0938C113.682 18.0006 113.735 17.8742 113.735 17.7423C113.735 17.6777 113.722 17.6136 113.697 17.5541C113.671 17.4945 113.635 17.4405 113.588 17.3954C113.542 17.3503 113.487 17.3149 113.427 17.2914C113.367 17.2679 113.302 17.2567 113.238 17.2584C111.97 17.266 110.706 17.3798 109.457 17.5985C109.393 17.6062 109.33 17.6273 109.274 17.6603C109.218 17.6934 109.169 17.7378 109.131 17.7907C109.093 17.8435 109.066 17.9037 109.053 17.9675C109.039 18.0312 109.039 18.0971 109.052 18.1609C109.091 18.2616 109.162 18.3467 109.254 18.4033C109.347 18.46 109.455 18.4851 109.562 18.4748L109.614 18.5664Z" fill="#A5E1D7"/>
<path d="M125.533 32.1563H125.036H124.552M125.533 32.1563C125.535 29.7137 124.813 27.3252 123.458 25.2929C122.103 23.2607 120.175 21.6761 117.919 20.7395C115.663 19.803 113.18 19.5566 110.784 20.0315C108.388 20.5065 106.187 21.6814 104.459 23.4077C102.731 25.134 101.554 27.3341 101.076 29.7296C100.599 32.1251 100.842 34.6084 101.777 36.8653C102.711 39.1223 104.293 41.0515 106.324 42.4088C108.355 43.7661 110.743 44.4906 113.185 44.4906C116.458 44.4906 119.596 43.1915 121.911 40.8788C124.227 38.566 125.529 35.4288 125.533 32.1563ZM125.533 32.1563H124.552M124.552 32.1563C124.554 34.7862 123.645 37.3356 121.979 39.3703C120.313 41.4049 117.993 42.7988 115.414 43.3145C112.835 43.8302 110.157 43.4357 107.837 42.1982C105.516 40.9608 103.697 38.957 102.688 36.5283C101.679 34.0996 101.544 31.3963 102.305 28.879C103.066 26.3618 104.677 24.1863 106.862 22.7234C109.048 21.2605 111.673 20.6006 114.29 20.8562C116.907 21.1118 119.355 22.2672 121.216 24.1253C122.276 25.1765 123.117 26.4277 123.689 27.8063C124.262 29.1849 124.555 30.6635 124.552 32.1563ZM138.403 37.0613V27.2514C138.422 27.1351 138.482 27.0293 138.572 26.9529C138.662 26.8766 138.776 26.8347 138.894 26.8347C139.012 26.8347 139.126 26.8766 139.215 26.9529C139.305 27.0293 139.365 27.1351 139.384 27.2514V37.0613C139.396 37.1324 139.392 37.2052 139.373 37.2746C139.353 37.3441 139.319 37.4085 139.272 37.4634C139.226 37.5183 139.168 37.5625 139.102 37.5927C139.037 37.623 138.966 37.6387 138.894 37.6387C138.822 37.6387 138.75 37.623 138.685 37.5927C138.62 37.5625 138.562 37.5183 138.515 37.4634C138.468 37.4085 138.434 37.3441 138.415 37.2746C138.395 37.2052 138.392 37.1324 138.403 37.0613ZM138.403 37.0613C138.363 37.786 138.516 38.5084 138.848 39.154C139.141 39.6425 139.507 40.0835 139.933 40.462C140.026 40.5523 140.151 40.6028 140.28 40.6028C140.41 40.6028 140.534 40.5523 140.627 40.462C140.673 40.4169 140.71 40.363 140.735 40.3035C140.76 40.244 140.773 40.18 140.773 40.1154C140.773 40.0508 140.76 39.9868 140.735 39.9273C140.71 39.8678 140.673 39.8139 140.627 39.7688C140.272 39.4631 139.959 39.1112 139.698 38.7224C139.456 38.2224 139.348 37.668 139.384 37.1136C139.365 36.9972 139.305 36.8915 139.215 36.8151C139.126 36.7388 139.012 36.6969 138.894 36.6969C138.776 36.6969 138.662 36.7388 138.572 36.8151C138.482 36.8915 138.422 36.9972 138.403 37.1136V37.0613ZM109.34 49.3694C110.589 49.6499 111.866 49.786 113.146 49.7748C113.217 49.7865 113.29 49.7826 113.359 49.7633C113.429 49.744 113.493 49.7098 113.548 49.6632C113.603 49.6165 113.647 49.5585 113.677 49.4931C113.708 49.4276 113.723 49.3564 113.723 49.2844C113.723 49.2123 113.708 49.1411 113.677 49.0757C113.647 49.0103 113.603 48.9522 113.548 48.9056C113.493 48.8589 113.429 48.8247 113.359 48.8055C113.29 48.7862 113.217 48.7822 113.146 48.7939C111.936 48.8087 110.729 48.6814 109.549 48.4146M109.34 49.3694H109.379C109.312 49.36 109.248 49.337 109.19 49.3019C109.132 49.2668 109.082 49.2203 109.043 49.1652C109.004 49.1101 108.976 49.0476 108.962 48.9815C108.948 48.9154 108.947 48.8471 108.96 48.7808C108.992 48.6551 109.07 48.5465 109.18 48.4781C109.29 48.4097 109.423 48.3869 109.549 48.4146M109.34 49.3694C104.319 48.2648 99.2117 47.5953 94.0756 47.3682C93.946 47.3581 93.8256 47.2977 93.74 47.1999C93.6544 47.1021 93.6106 46.9747 93.6178 46.845C93.6211 46.7814 93.637 46.7191 93.6645 46.6616C93.6919 46.6042 93.7304 46.5527 93.7778 46.5102C93.8252 46.4677 93.8805 46.4349 93.9406 46.4138C94.0007 46.3927 94.0643 46.3836 94.1279 46.3872C99.3165 46.6239 104.476 47.3021 109.549 48.4146M109.34 49.3694C109.468 49.3966 109.602 49.372 109.712 49.301C109.822 49.2299 109.9 49.1182 109.928 48.9901C109.953 48.869 109.932 48.743 109.87 48.6366C109.807 48.5302 109.706 48.451 109.588 48.4146H109.549M132.177 17.9385C133.014 17.9385 134.584 17.9385 135.251 18.017H137.501M132.177 17.9385H132.229C132.158 17.9502 132.086 17.9462 132.016 17.927C131.947 17.9077 131.882 17.8735 131.827 17.8269C131.772 17.7802 131.728 17.7221 131.698 17.6567C131.668 17.5913 131.652 17.5201 131.652 17.448C131.652 17.376 131.668 17.3048 131.698 17.2394C131.728 17.174 131.772 17.1159 131.827 17.0692C131.882 17.0226 131.947 16.9884 132.016 16.9691C132.086 16.9499 132.158 16.9459 132.229 16.9576C133.027 17.036 134.597 17.036 135.264 17.036H137.501M132.177 17.9385C127.002 17.693 121.857 17.0148 116.795 15.9112M132.177 17.9385C132.293 17.9195 132.399 17.8597 132.476 17.7698C132.552 17.68 132.594 17.5659 132.594 17.448C132.594 17.3302 132.552 17.2161 132.476 17.1263C132.399 17.0364 132.293 16.9766 132.177 16.9576C127.042 16.7175 121.936 16.0481 116.913 14.9563C116.786 14.9287 116.654 14.9515 116.544 15.0199C116.434 15.0883 116.355 15.1969 116.324 15.3226C116.319 15.3889 116.327 15.4557 116.348 15.5188C116.369 15.582 116.402 15.6403 116.446 15.6904C116.49 15.7404 116.544 15.7811 116.604 15.81C116.664 15.839 116.729 15.8556 116.795 15.8588V15.9112M137.501 18.017C137.632 18.017 137.759 17.9647 137.852 17.8714C137.945 17.7782 137.998 17.6518 137.998 17.52C137.998 17.4553 137.985 17.3913 137.96 17.3317C137.934 17.2721 137.898 17.2182 137.851 17.1731C137.805 17.128 137.75 17.0926 137.69 17.0691C137.63 17.0455 137.565 17.0343 137.501 17.036M137.501 18.017C137.371 18.0136 137.248 17.9598 137.158 17.8669C137.067 17.7741 137.017 17.6496 137.017 17.52C137.017 17.4564 137.029 17.3935 137.053 17.3348C137.078 17.2761 137.114 17.2227 137.158 17.1778C137.203 17.1329 137.257 17.0972 137.315 17.0729C137.374 17.0485 137.437 17.036 137.501 17.036M137.501 18.017H137.618C138.08 18.015 138.538 18.1094 138.961 18.2941C139.384 18.4787 139.765 18.7497 140.077 19.0896C140.662 19.73 140.988 20.5641 140.993 21.4309C140.993 21.8925 140.898 22.3493 140.714 22.7725C140.529 23.1956 140.259 23.5761 139.92 23.8899C139.86 23.9297 139.81 23.9821 139.772 24.0435C139.734 24.1048 139.71 24.1736 139.702 24.2452C139.693 24.3167 139.7 24.3893 139.723 24.4578C139.745 24.5263 139.782 24.5891 139.831 24.642C139.88 24.6948 139.94 24.7363 140.006 24.7637C140.073 24.7911 140.145 24.8037 140.217 24.8006C140.289 24.7975 140.359 24.7788 140.423 24.7457C140.487 24.7127 140.543 24.6661 140.587 24.6093H140.574C141.012 24.2036 141.361 23.7119 141.6 23.1649C141.838 22.618 141.961 22.0276 141.961 21.4309C141.957 20.3164 141.537 19.2437 140.784 18.4225C140.382 17.9868 139.895 17.6388 139.352 17.4002C138.81 17.1616 138.224 17.0376 137.631 17.036H137.501M87.9411 27.3037C87.9818 26.5832 87.8283 25.8649 87.4964 25.224C87.2064 24.7331 86.8399 24.2915 86.4108 23.916C86.318 23.8257 86.1936 23.7752 86.0642 23.7752C85.9347 23.7752 85.8103 23.8257 85.7176 23.916C85.6713 23.9611 85.6345 24.015 85.6094 24.0745C85.5843 24.1341 85.5713 24.198 85.5713 24.2626C85.5713 24.3273 85.5843 24.3912 85.6094 24.4507C85.6345 24.5103 85.6713 24.5642 85.7176 24.6093C86.0726 24.9149 86.3849 25.2669 86.6462 25.6557C86.8852 26.1568 86.9932 26.7103 86.9601 27.2645C86.9485 27.3356 86.9524 27.4084 86.9717 27.4778C86.991 27.5473 87.0252 27.6117 87.0718 27.6666C87.1185 27.7216 87.1765 27.7657 87.2419 27.7959C87.3074 27.8262 87.3786 27.8419 87.4506 27.8419C87.5227 27.8419 87.5939 27.8262 87.6593 27.7959C87.7247 27.7657 87.7828 27.7216 87.8294 27.6666C87.8761 27.6117 87.9103 27.5473 87.9296 27.4778C87.9488 27.4084 87.9528 27.3356 87.9411 27.2645V27.3037ZM87.9411 27.3037V37.1136C87.9528 37.1847 87.9488 37.2575 87.9296 37.327C87.9103 37.3964 87.8761 37.4608 87.8294 37.5157C87.7828 37.5707 87.7247 37.6148 87.6593 37.645C87.5939 37.6753 87.5227 37.691 87.4506 37.691C87.3786 37.691 87.3074 37.6753 87.2419 37.645C87.1765 37.6148 87.1185 37.5707 87.0718 37.5157C87.0252 37.4608 86.991 37.3964 86.9717 37.327C86.9524 37.2575 86.9485 37.1847 86.9601 37.1136V27.3037C86.9792 27.1874 87.039 27.0816 87.1288 27.0053C87.2187 26.9289 87.3327 26.887 87.4506 26.887C87.5685 26.887 87.6826 26.9289 87.7724 27.0053C87.8623 27.0816 87.9221 27.1874 87.9411 27.3037ZM116.795 15.9112C115.616 15.6406 114.408 15.5089 113.198 15.5188C113.127 15.5304 113.054 15.5265 112.985 15.5072C112.915 15.4879 112.851 15.4538 112.796 15.4071C112.741 15.3604 112.697 15.3024 112.667 15.237C112.637 15.1716 112.621 15.1004 112.621 15.0283C112.621 14.9562 112.637 14.885 112.667 14.8196C112.697 14.7542 112.741 14.6961 112.796 14.6495C112.851 14.6028 112.915 14.5687 112.985 14.5494C113.054 14.5301 113.127 14.5261 113.198 14.5378C114.478 14.5266 115.756 14.6627 117.005 14.9433C117.123 14.98 117.224 15.06 117.287 15.1673C117.349 15.2747 117.37 15.4016 117.343 15.5231C117.317 15.6446 117.246 15.7518 117.145 15.8237C117.043 15.8955 116.919 15.9267 116.795 15.9112ZM139.136 42.9603H138.639H138.155M139.136 42.9603C139.132 42.5705 138.975 42.198 138.698 41.9236C138.421 41.6492 138.047 41.4953 137.658 41.4953C137.291 41.5299 136.951 41.6999 136.703 41.972C136.456 42.2441 136.318 42.5989 136.318 42.9668C136.318 43.3348 136.456 43.6895 136.703 43.9616C136.951 44.2337 137.291 44.4037 137.658 44.4383C138.049 44.4349 138.422 44.2781 138.699 44.0016C138.975 43.7252 139.132 43.3512 139.136 42.9603ZM139.136 42.9603H138.155M138.155 42.9603C138.151 43.091 138.098 43.2156 138.005 43.3081C137.913 43.4006 137.788 43.454 137.658 43.4573C137.593 43.4573 137.529 43.4444 137.469 43.4192C137.41 43.3941 137.356 43.3573 137.311 43.311C137.266 43.2646 137.23 43.2097 137.207 43.1495C137.183 43.0893 137.172 43.0249 137.174 42.9603C137.172 42.8962 137.183 42.8325 137.207 42.773C137.231 42.7134 137.266 42.6593 137.311 42.614C137.357 42.5687 137.411 42.5332 137.47 42.5095C137.53 42.4858 137.594 42.4745 137.658 42.4763C137.787 42.4763 137.912 42.5268 138.005 42.6172C138.097 42.7076 138.151 42.8307 138.155 42.9603ZM130.608 32.2217H130.124H129.561M130.608 32.2217C130.573 31.8554 130.403 31.5151 130.131 31.2675C129.859 31.0198 129.504 30.8826 129.136 30.8826C128.768 30.8826 128.413 31.0198 128.141 31.2675C127.869 31.5151 127.699 31.8554 127.665 32.2217C127.645 32.4266 127.669 32.6333 127.734 32.8285C127.799 33.0237 127.904 33.2032 128.043 33.3554C128.181 33.5076 128.35 33.6292 128.539 33.7124C128.727 33.7956 128.93 33.8386 129.136 33.8386C129.342 33.8386 129.545 33.7956 129.734 33.7124C129.922 33.6292 130.091 33.5076 130.229 33.3554C130.368 33.2032 130.473 33.0237 130.538 32.8285C130.603 32.6333 130.627 32.4266 130.608 32.2217ZM130.608 32.2217H129.561M129.561 32.2217C129.564 32.3211 129.537 32.419 129.483 32.5027C129.429 32.5864 129.352 32.6521 129.26 32.6913C129.169 32.7306 129.068 32.7415 128.971 32.7227C128.873 32.704 128.783 32.6564 128.713 32.5861C128.643 32.5158 128.595 32.426 128.576 32.3284C128.557 32.2308 128.568 32.1298 128.608 32.0385C128.647 31.9471 128.713 31.8697 128.796 31.8161C128.88 31.7625 128.978 31.7352 129.077 31.7378C129.206 31.7378 129.329 31.7888 129.419 31.8795C129.51 31.9703 129.561 32.0934 129.561 32.2217ZM114.716 32.2217H114.219H113.735M114.716 32.2217C114.716 31.9294 114.629 31.6436 114.466 31.4006C114.304 31.1575 114.073 30.9681 113.803 30.8562C113.533 30.7443 113.236 30.7151 112.949 30.7721C112.662 30.8291 112.399 30.9699 112.192 31.1766C111.986 31.3833 111.845 31.6467 111.788 31.9334C111.731 32.2201 111.76 32.5173 111.872 32.7873C111.984 33.0574 112.173 33.2882 112.416 33.4506C112.659 33.6131 112.945 33.6997 113.238 33.6997C113.432 33.7015 113.625 33.6645 113.805 33.5908C113.985 33.5171 114.149 33.4083 114.287 33.2707C114.424 33.1331 114.533 32.9695 114.607 32.7894C114.68 32.6093 114.717 32.4163 114.716 32.2217ZM114.716 32.2217H113.735M113.735 32.2217C113.746 32.2928 113.742 32.3656 113.723 32.4351C113.704 32.5045 113.67 32.5689 113.623 32.6239C113.576 32.6788 113.518 32.7229 113.453 32.7532C113.387 32.7834 113.316 32.7991 113.244 32.7991C113.172 32.7991 113.101 32.7834 113.035 32.7532C112.97 32.7229 112.912 32.6788 112.865 32.6239C112.819 32.5689 112.784 32.5045 112.765 32.4351C112.746 32.3656 112.742 32.2928 112.754 32.2217C112.773 32.1054 112.832 31.9996 112.922 31.9233C113.012 31.847 113.126 31.805 113.244 31.805C113.362 31.805 113.476 31.847 113.566 31.9233C113.656 31.9996 113.716 32.1054 113.735 32.2217ZM90.2955 21.4832H89.8116H89.3145M90.2955 21.4832C90.2981 21.1898 90.2133 20.9022 90.0519 20.6572C89.8905 20.4121 89.6598 20.2206 89.3892 20.1071C89.1186 19.9937 88.8203 19.9633 88.5324 20.0199C88.2445 20.0765 87.9799 20.2175 87.7724 20.425C87.5649 20.6325 87.4239 20.8971 87.3673 21.185C87.3107 21.4729 87.341 21.7712 87.4545 22.0418C87.568 22.3124 87.7595 22.5431 88.0045 22.7045C88.2496 22.8659 88.5371 22.9507 88.8306 22.9481C89.2191 22.9481 89.5917 22.7938 89.8664 22.5191C90.1412 22.2443 90.2955 21.8717 90.2955 21.4832ZM90.2955 21.4832H89.3145M89.3145 21.4832C89.3145 21.6115 89.2635 21.7346 89.1728 21.8254C89.082 21.9161 88.9589 21.9671 88.8306 21.9671C88.7594 21.9788 88.6866 21.9748 88.6172 21.9556C88.5478 21.9363 88.4833 21.9021 88.4284 21.8554C88.3735 21.8088 88.3294 21.7507 88.2991 21.6853C88.2688 21.6199 88.2532 21.5487 88.2532 21.4766C88.2532 21.4046 88.2688 21.3334 88.2991 21.268C88.3294 21.2025 88.3735 21.1445 88.4284 21.0978C88.4833 21.0512 88.5478 21.017 88.6172 20.9977C88.6866 20.9785 88.7594 20.9745 88.8306 20.9861C88.8952 20.9861 88.9592 20.9991 89.0188 21.0242C89.0784 21.0493 89.1324 21.0861 89.1775 21.1325C89.2226 21.1788 89.258 21.2337 89.2815 21.294C89.305 21.3542 89.3163 21.4185 89.3145 21.4832ZM98.8105 32.2217H98.3134H97.8295M98.8105 32.2217C98.8105 31.9294 98.7238 31.6436 98.5614 31.4006C98.399 31.1575 98.1681 30.9681 97.8981 30.8562C97.628 30.7443 97.3308 30.7151 97.0441 30.7721C96.7574 30.8291 96.494 30.9699 96.2873 31.1766C96.0806 31.3833 95.9399 31.6467 95.8828 31.9334C95.8258 32.2201 95.8551 32.5173 95.9669 32.7873C96.0788 33.0574 96.2683 33.2882 96.5113 33.4506C96.7544 33.6131 97.0401 33.6997 97.3325 33.6997C97.7245 33.6997 98.1004 33.544 98.3776 33.2668C98.6548 32.9897 98.8105 32.6137 98.8105 32.2217ZM98.8105 32.2217H97.8295M97.8295 32.2217C97.8295 32.3535 97.7771 32.48 97.6839 32.5732C97.5907 32.6664 97.4643 32.7188 97.3325 32.7188C97.2678 32.7188 97.2038 32.7058 97.1442 32.6807C97.0846 32.6556 97.0307 32.6188 96.9855 32.5724C96.9404 32.5261 96.9051 32.4712 96.8815 32.4109C96.858 32.3507 96.8468 32.2864 96.8485 32.2217C96.8467 32.1577 96.858 32.0939 96.8817 32.0344C96.9053 31.9749 96.9409 31.9208 96.9862 31.8755C97.0315 31.8302 97.0856 31.7946 97.1452 31.7709C97.2047 31.7473 97.2684 31.736 97.3325 31.7378C97.462 31.7377 97.5865 31.7883 97.6794 31.8787C97.7722 31.9691 97.8261 32.0922 97.8295 32.2217ZM116.874 45.8902C118.685 45.5874 120.518 45.4342 122.354 45.4324H123.191C125.244 45.5159 127.29 45.7388 129.313 46.0994C129.384 46.101 129.455 46.1181 129.519 46.1495C129.583 46.1808 129.64 46.2257 129.686 46.2811C129.731 46.3364 129.764 46.4009 129.782 46.4702C129.8 46.5394 129.803 46.6118 129.791 46.6823C129.779 46.7529 129.751 46.8199 129.71 46.8788C129.67 46.9377 129.617 46.9871 129.555 47.0237C129.494 47.0602 129.425 47.0831 129.354 47.0906C129.282 47.0981 129.21 47.0902 129.143 47.0673C127.167 46.7132 125.17 46.4947 123.165 46.4133H122.354C120.571 46.4184 118.79 46.5672 117.031 46.8581M116.874 45.8902C116.746 45.9126 116.632 45.9839 116.557 46.089C116.481 46.194 116.449 46.3245 116.468 46.4526C116.494 46.5786 116.566 46.6904 116.67 46.7656C116.774 46.8407 116.903 46.8738 117.031 46.8581M116.874 45.8902C116.938 45.877 117.003 45.8773 117.067 45.8909C117.131 45.9046 117.191 45.9313 117.244 45.9694C117.297 46.0075 117.341 46.0562 117.374 46.1124C117.407 46.1685 117.428 46.2309 117.436 46.2956C117.447 46.3593 117.446 46.4245 117.431 46.4875C117.417 46.5505 117.39 46.61 117.352 46.6624C117.314 46.7148 117.266 46.7591 117.211 46.7927C117.156 46.8263 117.095 46.8485 117.031 46.8581M116.874 45.8902C115.672 46.0969 114.456 46.2062 113.238 46.2172M117.031 46.8581C115.777 47.0709 114.509 47.1846 113.238 47.1981M113.238 47.1981C113.121 47.1791 113.015 47.1193 112.939 47.0294C112.863 46.9396 112.821 46.8255 112.821 46.7076C112.821 46.5898 112.863 46.4757 112.939 46.3858C113.015 46.296 113.121 46.2362 113.238 46.2172M113.238 47.1981C111.971 47.184 110.707 47.0703 109.457 46.8581M113.238 47.1981C113.309 47.2098 113.381 47.2058 113.451 47.1865C113.52 47.1673 113.585 47.1331 113.64 47.0864C113.695 47.0398 113.739 46.9817 113.769 46.9163C113.799 46.8509 113.815 46.7797 113.815 46.7076C113.815 46.6356 113.799 46.5644 113.769 46.4989C113.739 46.4335 113.695 46.3755 113.64 46.3288C113.585 46.2822 113.52 46.248 113.451 46.2287C113.381 46.2094 113.309 46.2055 113.238 46.2172M113.238 46.2172C112.023 46.2056 110.811 46.0963 109.614 45.8902M109.614 45.8902C107.803 45.5874 105.97 45.4342 104.134 45.4324H103.297C101.244 45.5159 99.1985 45.7388 97.1755 46.0994C97.048 46.1219 96.9342 46.1932 96.8585 46.2983C96.7828 46.4033 96.751 46.5338 96.77 46.6619C96.7811 46.7263 96.8048 46.788 96.8397 46.8432C96.8746 46.8985 96.9202 46.9464 96.9736 46.984C97.0271 47.0217 97.0875 47.0485 97.1513 47.0628C97.2151 47.0771 97.2811 47.0786 97.3455 47.0673C99.3208 46.7132 101.318 46.4947 103.323 46.4133H104.134C105.918 46.4184 107.698 46.5672 109.457 46.8581M109.614 45.8902L109.562 45.8248C109.637 45.828 109.71 45.848 109.775 45.8833C109.841 45.9185 109.898 45.9682 109.942 46.0285C109.986 46.0888 110.016 46.1582 110.029 46.2317C110.043 46.3051 110.04 46.3806 110.02 46.4526C109.994 46.5786 109.922 46.6904 109.818 46.7656C109.714 46.8407 109.585 46.8738 109.457 46.8581M109.614 45.8902C109.551 45.877 109.485 45.8773 109.421 45.8909C109.357 45.9046 109.297 45.9313 109.244 45.9694C109.191 46.0075 109.147 46.0562 109.114 46.1124C109.081 46.1685 109.06 46.2309 109.052 46.2956C109.041 46.3593 109.042 46.4245 109.057 46.4875C109.071 46.5505 109.098 46.61 109.136 46.6624C109.174 46.7148 109.222 46.7591 109.277 46.7927C109.332 46.8263 109.394 46.8485 109.457 46.8581M116.874 18.5664C118.686 18.8627 120.518 19.0158 122.354 19.0242H123.191C125.245 18.9536 127.292 18.7306 129.313 18.3571C129.44 18.3346 129.554 18.2633 129.63 18.1583C129.705 18.0532 129.737 17.9228 129.718 17.7947C129.693 17.6661 129.619 17.5522 129.512 17.4767C129.404 17.4012 129.272 17.3699 129.143 17.3892C127.168 17.7498 125.171 17.9683 123.165 18.0432H122.354C120.571 18.0381 118.79 17.8894 117.031 17.5985M116.874 18.5664L116.821 18.4748C116.721 18.4424 116.633 18.3798 116.57 18.2955C116.507 18.2111 116.471 18.1093 116.468 18.0039C116.478 17.94 116.5 17.8787 116.534 17.8235C116.567 17.7683 116.611 17.7203 116.664 17.6826C116.716 17.6448 116.776 17.6178 116.839 17.6034C116.902 17.589 116.967 17.5873 117.031 17.5985M116.874 18.5664C115.672 18.3597 114.456 18.2503 113.238 18.2394M116.874 18.5664C117.002 18.5854 117.132 18.5536 117.237 18.4779C117.342 18.4022 117.414 18.2884 117.436 18.1609C117.462 18.0888 117.469 18.0115 117.458 17.9358C117.447 17.86 117.418 17.7881 117.373 17.7263C117.328 17.6645 117.268 17.6146 117.199 17.5809C117.131 17.5472 117.055 17.5308 116.978 17.5331L117.031 17.5985M117.031 17.5985C115.778 17.3792 114.509 17.2654 113.238 17.2584M113.238 17.2584C113.109 17.2584 112.986 17.3094 112.895 17.4001C112.805 17.4909 112.754 17.614 112.754 17.7423C112.754 17.8719 112.804 17.9964 112.895 18.0893C112.985 18.1821 113.108 18.236 113.238 18.2394M113.238 17.2584C113.302 17.2567 113.367 17.2679 113.427 17.2914C113.487 17.3149 113.542 17.3503 113.588 17.3954C113.635 17.4405 113.671 17.4945 113.697 17.5541C113.722 17.6136 113.735 17.6777 113.735 17.7423C113.735 17.8742 113.682 18.0006 113.589 18.0938C113.496 18.187 113.369 18.2394 113.238 18.2394M113.238 17.2584C111.97 17.266 110.706 17.3798 109.457 17.5985C109.393 17.6062 109.33 17.6273 109.274 17.6603C109.218 17.6934 109.169 17.7378 109.131 17.7907C109.093 17.8435 109.066 17.9037 109.053 17.9675C109.039 18.0312 109.039 18.0971 109.052 18.1609C109.091 18.2616 109.162 18.3467 109.254 18.4033C109.347 18.46 109.455 18.4851 109.562 18.4748L109.614 18.5664C110.811 18.3603 112.023 18.2509 113.238 18.2394M137.54 46.3087H135.29C134.623 46.3087 133.053 46.3087 132.216 46.3872C132.152 46.3888 132.088 46.4035 132.029 46.4302C131.97 46.4569 131.917 46.4951 131.873 46.5427C131.829 46.5903 131.795 46.6462 131.773 46.7071C131.751 46.768 131.742 46.8327 131.746 46.8973C131.749 46.9626 131.765 47.0266 131.793 47.0856C131.821 47.1447 131.861 47.1976 131.909 47.2413C131.958 47.2851 132.015 47.3188 132.076 47.3405C132.138 47.3623 132.203 47.3717 132.269 47.3682C133.067 47.3682 134.636 47.3028 135.303 47.2897H137.54C137.611 47.3013 137.684 47.2974 137.753 47.2781C137.823 47.2588 137.887 47.2247 137.942 47.178C137.997 47.1313 138.041 47.0733 138.071 47.0079C138.102 46.9425 138.117 46.8713 138.117 46.7992C138.117 46.7271 138.102 46.6559 138.071 46.5905C138.041 46.5251 137.997 46.467 137.942 46.4204C137.887 46.3737 137.823 46.3396 137.753 46.3203C137.684 46.301 137.611 46.297 137.54 46.3087ZM137.54 47.2505H137.671C138.264 47.2441 138.849 47.1166 139.391 46.876C139.933 46.6353 140.42 46.2865 140.823 45.8509C141.576 45.0298 141.996 43.957 142 42.8426C141.999 42.248 141.875 41.6601 141.636 41.1156C141.398 40.571 141.05 40.0814 140.614 39.6772C140.569 39.631 140.515 39.5942 140.455 39.5691C140.396 39.544 140.332 39.531 140.267 39.531C140.202 39.531 140.138 39.544 140.079 39.5691C140.019 39.5942 139.966 39.631 139.92 39.6772C139.83 39.77 139.78 39.8944 139.78 40.0239C139.78 40.1533 139.83 40.2777 139.92 40.3705C140.258 40.6852 140.527 41.0659 140.712 41.4888C140.896 41.9118 140.992 42.368 140.993 42.8295C140.986 43.6998 140.66 44.5375 140.077 45.1838C139.761 45.5194 139.38 45.7875 138.958 45.9718C138.535 46.1561 138.079 46.2529 137.618 46.2564H137.501C137.384 46.2755 137.279 46.3352 137.202 46.4251C137.126 46.5149 137.084 46.629 137.084 46.7469C137.084 46.8648 137.126 46.9788 137.202 47.0687C137.279 47.1585 137.384 47.2183 137.501 47.2374L137.54 47.2505ZM94.1671 46.3479C93.33 46.3479 91.7604 46.2825 91.0934 46.2695H88.8436C88.7725 46.2578 88.6997 46.2618 88.6303 46.2811C88.5608 46.3003 88.4964 46.3345 88.4415 46.3812C88.3866 46.4278 88.3424 46.4859 88.3122 46.5513C88.2819 46.6167 88.2662 46.6879 88.2662 46.76C88.2662 46.832 88.2819 46.9032 88.3122 46.9686C88.3424 47.0341 88.3866 47.0921 88.4415 47.1388C88.4964 47.1854 88.5608 47.2196 88.6303 47.2389C88.6997 47.2581 88.7725 47.2621 88.8436 47.2505H91.0803C91.7605 47.2505 93.33 47.2504 94.1279 47.3289C94.1932 47.3325 94.2585 47.3231 94.3202 47.3013C94.3819 47.2795 94.4386 47.2458 94.4872 47.2021C94.5358 47.1583 94.5753 47.1054 94.6034 47.0464C94.6316 46.9873 94.6477 46.9234 94.6511 46.8581C94.6477 46.732 94.5952 46.6122 94.5048 46.5243C94.4144 46.4363 94.2933 46.3871 94.1671 46.3872V46.3479ZM86.45 40.3835C86.8761 40.0051 87.2421 39.564 87.5357 39.0756C87.8674 38.4299 88.0209 37.7075 87.9804 36.9828C87.9613 36.8664 87.9015 36.7607 87.8117 36.6843C87.7218 36.608 87.6078 36.5661 87.4899 36.5661C87.372 36.5661 87.2579 36.608 87.1681 36.6843C87.0782 36.7607 87.0185 36.8664 86.9994 36.9828C87.036 37.5372 86.9278 38.0916 86.6855 38.5916C86.4242 38.9804 86.1118 39.3323 85.7568 39.638C85.7105 39.6831 85.6738 39.737 85.6486 39.7965C85.6235 39.856 85.6106 39.92 85.6106 39.9846C85.6106 40.0492 85.6235 40.1132 85.6486 40.1727C85.6738 40.2322 85.7105 40.2861 85.7568 40.3312C85.8351 40.4205 85.9427 40.4789 86.0603 40.4957C86.1779 40.5125 86.2976 40.4866 86.3977 40.4228L86.45 40.3835ZM85.7568 39.6772C85.3362 40.0891 85.0035 40.5819 84.7786 41.1259C84.5538 41.67 84.4416 42.2539 84.4488 42.8426C84.4477 43.9579 84.8682 45.0325 85.626 45.8509C86.0285 46.2865 86.5157 46.6353 87.0577 46.876C87.5997 47.1166 88.1852 47.2441 88.7783 47.2505H88.909C89.0254 47.2314 89.1312 47.1716 89.2075 47.0817C89.2838 46.9919 89.3257 46.8778 89.3257 46.76C89.3257 46.6421 89.2838 46.528 89.2075 46.4382C89.1312 46.3483 89.0254 46.2885 88.909 46.2695H88.7913C88.3301 46.2668 87.8743 46.1703 87.4516 45.9859C87.0289 45.8015 86.648 45.5331 86.3323 45.1969C85.744 44.5539 85.4175 43.7141 85.4167 42.8426C85.4179 42.3811 85.5137 41.9248 85.6981 41.5019C85.8826 41.0789 86.1519 40.6983 86.4893 40.3835C86.5829 40.2933 86.6369 40.1696 86.6394 40.0396C86.6418 39.9096 86.5926 39.784 86.5024 39.6903C86.4122 39.5966 86.2885 39.5427 86.1585 39.5402C86.0284 39.5378 85.9028 39.587 85.8091 39.6772H85.7568ZM113.224 49.7356C114.505 49.7468 115.782 49.6107 117.031 49.3301C117.159 49.3019 117.271 49.2242 117.342 49.114C117.413 49.0037 117.437 48.8699 117.41 48.7416C117.379 48.6159 117.3 48.5073 117.19 48.4389C117.08 48.3705 116.948 48.3477 116.821 48.3753C115.641 48.6422 114.434 48.7695 113.224 48.7546C113.153 48.743 113.081 48.7469 113.011 48.7662C112.942 48.7855 112.877 48.8197 112.822 48.8663C112.767 48.913 112.723 48.971 112.693 49.0364C112.663 49.1018 112.647 49.173 112.647 49.2451C112.647 49.3172 112.663 49.3884 112.693 49.4538C112.723 49.5192 112.767 49.5773 112.822 49.6239C112.877 49.6706 112.942 49.7048 113.011 49.724C113.081 49.7433 113.153 49.7473 113.224 49.7356ZM132.177 46.3872C126.989 46.6239 121.829 47.3021 116.756 48.4146C116.693 48.427 116.633 48.4519 116.58 48.4876C116.527 48.5234 116.481 48.5694 116.446 48.623C116.411 48.6765 116.386 48.7365 116.374 48.7996C116.363 48.8626 116.363 48.9273 116.377 48.9901C116.405 49.1182 116.483 49.2299 116.593 49.301C116.703 49.372 116.837 49.3966 116.965 49.3694C121.986 48.2648 127.093 47.5953 132.229 47.3682C132.359 47.3581 132.479 47.2977 132.565 47.1999C132.651 47.1021 132.695 46.9747 132.687 46.845C132.684 46.7814 132.668 46.7191 132.641 46.6616C132.613 46.6042 132.575 46.5527 132.527 46.5102C132.48 46.4677 132.424 46.4349 132.364 46.4138C132.304 46.3927 132.241 46.3836 132.177 46.3872ZM139.894 23.9029C139.465 24.2784 139.099 24.72 138.809 25.2109C138.477 25.8518 138.323 26.5701 138.364 27.2906C138.352 27.3618 138.356 27.4345 138.375 27.504C138.395 27.5734 138.429 27.6378 138.476 27.6928C138.522 27.7477 138.58 27.7918 138.646 27.8221C138.711 27.8523 138.782 27.868 138.854 27.868C138.926 27.868 138.998 27.8523 139.063 27.8221C139.129 27.7918 139.187 27.7477 139.233 27.6928C139.28 27.6378 139.314 27.5734 139.333 27.504C139.353 27.4345 139.357 27.3618 139.345 27.2906C139.312 26.7364 139.42 26.1829 139.659 25.6818C139.92 25.293 140.232 24.9411 140.587 24.6354C140.634 24.5903 140.671 24.5364 140.696 24.4769C140.721 24.4174 140.734 24.3534 140.734 24.2888C140.734 24.2242 140.721 24.1602 140.696 24.1007C140.671 24.0412 140.634 23.9873 140.587 23.9422C140.502 23.8575 140.388 23.8068 140.268 23.7996C140.148 23.7923 140.029 23.8291 139.933 23.9029H139.894ZM88.8044 18.0693H91.0541C91.7212 18.0693 93.2908 18.0693 94.1279 17.9909C94.199 18.0025 94.2718 17.9986 94.3413 17.9793C94.4107 17.96 94.4751 17.9258 94.5301 17.8792C94.585 17.8325 94.6291 17.7745 94.6594 17.7091C94.6896 17.6436 94.7053 17.5724 94.7053 17.5004C94.7053 17.4283 94.6896 17.3571 94.6594 17.2917C94.6291 17.2263 94.585 17.1682 94.5301 17.1216C94.4751 17.0749 94.4107 17.0407 94.3413 17.0215C94.2718 17.0022 94.199 16.9982 94.1279 17.0099C93.33 17.0099 91.7605 17.0099 91.0803 17.0884H88.8436C88.779 17.0866 88.7147 17.0978 88.6544 17.1214C88.5942 17.1449 88.5393 17.1803 88.493 17.2254C88.4466 17.2705 88.4098 17.3245 88.3847 17.384C88.3595 17.4436 88.3466 17.5076 88.3466 17.5723C88.3596 17.6949 88.4176 17.8082 88.5095 17.8904C88.6013 17.9726 88.7204 18.0177 88.8436 18.017L88.8044 18.0693ZM88.8044 17.0884H88.6736C88.081 17.09 87.4952 17.2139 86.9528 17.4525C86.4103 17.6911 85.923 18.0391 85.5214 18.4748C84.7646 19.2939 84.3443 20.368 84.3442 21.4832C84.336 22.0739 84.4476 22.6601 84.6725 23.2064C84.8973 23.7527 85.2306 24.2477 85.6522 24.6616C85.7471 24.7527 85.8737 24.8036 86.0053 24.8036C86.1369 24.8036 86.2635 24.7527 86.3585 24.6616C86.4488 24.5688 86.4993 24.4444 86.4993 24.315C86.4993 24.1855 86.4488 24.0611 86.3585 23.9683C86.0198 23.6545 85.7498 23.2741 85.5652 22.851C85.3806 22.4278 85.2855 21.971 85.2859 21.5093C85.2848 20.6414 85.6119 19.805 86.2015 19.168C86.5143 18.8281 86.8945 18.5572 87.318 18.3725C87.7414 18.1879 88.1986 18.0935 88.6605 18.0955H88.7783C88.9078 18.0921 89.0309 18.0382 89.1213 17.9454C89.2117 17.8525 89.2622 17.7281 89.2622 17.5985C89.2733 17.5339 89.2712 17.4677 89.2559 17.4039C89.2407 17.3401 89.2126 17.2801 89.1735 17.2275C89.1343 17.1749 89.0849 17.1308 89.0282 17.0979C88.9715 17.065 88.9087 17.0439 88.8436 17.036L88.8044 17.0884ZM113.185 14.6032C111.905 14.592 110.628 14.7281 109.379 15.0087C109.311 15.0173 109.245 15.04 109.186 15.0755C109.127 15.1109 109.075 15.1583 109.036 15.2145C108.996 15.2708 108.968 15.3347 108.954 15.4022C108.94 15.4698 108.941 15.5394 108.955 15.6068C108.97 15.6742 108.998 15.7378 109.039 15.7936C109.079 15.8494 109.131 15.8962 109.19 15.9309C109.25 15.9657 109.316 15.9877 109.385 15.9956C109.453 16.0034 109.522 15.997 109.588 15.9766C110.768 15.706 111.975 15.5743 113.185 15.5842C113.256 15.5958 113.329 15.5919 113.399 15.5726C113.468 15.5533 113.532 15.5191 113.587 15.4725C113.642 15.4258 113.686 15.3678 113.717 15.3024C113.747 15.237 113.763 15.1657 113.763 15.0937C113.763 15.0216 113.747 14.9504 113.717 14.885C113.686 14.8196 113.642 14.7615 113.587 14.7149C113.532 14.6682 113.468 14.6341 113.399 14.6148C113.329 14.5955 113.256 14.5915 113.185 14.6032ZM94.1671 18.0039C99.3585 17.7218 104.517 17.0043 109.588 15.8588C109.715 15.8277 109.824 15.7493 109.895 15.6399C109.965 15.5305 109.991 15.3982 109.968 15.2703C109.936 15.1446 109.858 15.036 109.748 14.9676C109.638 14.8992 109.505 14.8764 109.379 14.904C104.356 15.9958 99.2498 16.6652 94.1148 16.9052C93.9985 16.9243 93.8927 16.9841 93.8164 17.0739C93.74 17.1638 93.6981 17.2778 93.6981 17.3957C93.6981 17.5136 93.74 17.6277 93.8164 17.7175C93.8927 17.8074 93.9985 17.8672 94.1148 17.8862L94.1671 18.0039ZM133.014 46.4918H132.805C132.524 46.4779 132.244 46.443 131.968 46.3872C131.641 46.3176 131.308 46.2781 130.974 46.2695H130.333C130.012 46.267 129.692 46.2319 129.378 46.1648C129.258 46.1585 129.14 46.196 129.045 46.2703C128.95 46.3445 128.886 46.4506 128.864 46.5688C128.841 46.687 128.863 46.8092 128.923 46.9129C128.984 47.0166 129.081 47.0947 129.195 47.1327C129.57 47.2056 129.951 47.245 130.333 47.2505H130.725H130.869C131.138 47.2556 131.406 47.2907 131.667 47.3551C131.982 47.4154 132.301 47.4547 132.622 47.4728V46.9758L132.373 47.4074C132.488 47.4683 132.62 47.4846 132.746 47.4532C132.872 47.4218 132.981 47.3449 133.054 47.2374C133.111 47.1831 133.155 47.1161 133.183 47.0417C133.21 46.9674 133.219 46.8877 133.21 46.809C133.202 46.7303 133.174 46.6548 133.131 46.5884C133.088 46.522 133.03 46.4665 132.962 46.4264L133.014 46.4918ZM97.1624 46.0994C96.8485 46.1665 96.5286 46.2015 96.2076 46.2041H95.5536C95.2188 46.2054 94.8854 46.2449 94.5595 46.3218C94.2835 46.3776 94.0037 46.4125 93.7224 46.4264H93.5131C93.4476 46.4536 93.3886 46.4945 93.3401 46.5463C93.2916 46.5982 93.2548 46.6598 93.2322 46.7271C93.2096 46.7944 93.2016 46.8658 93.2088 46.9364C93.2161 47.007 93.2383 47.0752 93.2742 47.1365C93.31 47.1978 93.3585 47.2507 93.4165 47.2916C93.4745 47.3326 93.5406 47.3607 93.6103 47.3739C93.6801 47.3872 93.7518 47.3854 93.8208 47.3686C93.8898 47.3518 93.9544 47.3205 94.0102 47.2766L93.7617 46.845V47.342C94.0822 47.3239 94.4012 47.2846 94.7165 47.2243C94.9777 47.1599 95.2453 47.1248 95.5144 47.1196H95.7629H96.1553C96.5373 47.1142 96.9181 47.0748 97.2932 47.0019C97.364 46.9982 97.4332 46.9794 97.4962 46.9467C97.5591 46.9141 97.6143 46.8683 97.6581 46.8126C97.7019 46.7568 97.7332 46.6923 97.75 46.6234C97.7669 46.5545 97.7687 46.4829 97.7556 46.4132C97.7424 46.3435 97.7144 46.2775 97.6736 46.2195C97.6328 46.1615 97.5801 46.1129 97.5189 46.077C97.4578 46.0411 97.3897 46.0187 97.3192 46.0113C97.2487 46.0039 97.1774 46.0116 97.1101 46.034L97.1624 46.0994ZM129.326 18.344C129.641 18.2876 129.96 18.257 130.281 18.2525H130.869C131.209 18.2471 131.547 18.2032 131.876 18.1217C132.152 18.0639 132.432 18.0333 132.713 18.0301L132.923 17.9516C132.979 17.9206 133.029 17.8783 133.068 17.8272C133.108 17.7762 133.137 17.7176 133.153 17.655C133.169 17.5925 133.171 17.5273 133.161 17.4636C133.151 17.3998 133.128 17.3389 133.093 17.2845C133.061 17.2282 133.019 17.1787 132.969 17.1389C132.918 17.0991 132.86 17.0698 132.798 17.0527C132.736 17.0357 132.671 17.0312 132.607 17.0396C132.543 17.0479 132.481 17.069 132.426 17.1014L132.674 17.52V17.036C132.353 17.0476 132.034 17.087 131.719 17.1538C131.454 17.219 131.182 17.2541 130.908 17.2584H130.281C129.898 17.2574 129.517 17.2968 129.143 17.3761C129.079 17.3855 129.018 17.4077 128.963 17.4415C128.909 17.4753 128.862 17.5199 128.825 17.5725C128.788 17.6252 128.763 17.6849 128.75 17.7478C128.737 17.8108 128.737 17.8757 128.75 17.9385C128.783 18.0478 128.854 18.1419 128.95 18.2042C129.045 18.2664 129.16 18.2928 129.273 18.2786L129.326 18.344ZM131.837 46.9889C134.33 43.8005 135.993 40.0433 136.677 36.0541C136.886 34.7961 136.991 33.5231 136.991 32.2479C136.991 30.977 136.886 29.7083 136.677 28.4547C135.996 24.4648 134.332 20.7069 131.837 17.52C131.798 17.4693 131.75 17.4268 131.695 17.3947C131.64 17.3627 131.579 17.3418 131.516 17.3333C131.453 17.3248 131.389 17.3289 131.327 17.3452C131.265 17.3615 131.208 17.3898 131.157 17.4284C131.106 17.4671 131.064 17.5153 131.032 17.5704C131 17.6255 130.979 17.6864 130.97 17.7495C130.962 17.8127 130.966 17.8769 130.982 17.9385C130.998 18.0001 131.027 18.0579 131.065 18.1086C133.45 21.1614 135.045 24.7556 135.709 28.5725C135.907 29.7744 136.007 30.9905 136.01 32.2086C136.007 33.4312 135.907 34.6515 135.709 35.8579C135.045 39.6748 133.45 43.269 131.065 46.3218C130.986 46.4241 130.95 46.554 130.966 46.6827C130.982 46.8115 131.048 46.9287 131.15 47.0085C131.253 47.0883 131.383 47.1241 131.511 47.1082C131.64 47.0922 131.757 47.0258 131.837 46.9235V46.9889ZM94.6511 17.4677C92.1557 20.6546 90.4925 24.4124 89.8116 28.4024C89.6026 29.656 89.4976 30.9247 89.4976 32.1956C89.4976 33.4708 89.6026 34.7438 89.8116 36.0018C90.4952 39.991 92.1581 43.7482 94.6511 46.9365C94.6906 46.9872 94.7397 47.0296 94.7956 47.0613C94.8515 47.093 94.9131 47.1134 94.9768 47.1213C95.0406 47.1292 95.1053 47.1244 95.1672 47.1073C95.2292 47.0902 95.2871 47.0611 95.3378 47.0216C95.3885 46.982 95.4309 46.9329 95.4626 46.8771C95.4942 46.8212 95.5146 46.7596 95.5225 46.6958C95.5304 46.632 95.5257 46.5674 95.5086 46.5054C95.4914 46.4435 95.4623 46.3855 95.4228 46.3349C93.0377 43.2821 91.4428 39.6879 90.7795 35.871C90.5814 34.6646 90.4808 33.4442 90.4786 32.2217C90.4807 31.0035 90.5814 29.7875 90.7795 28.5855C91.4428 24.7687 93.0377 21.1745 95.4228 18.1217C95.4614 18.071 95.4897 18.0132 95.5061 17.9516C95.5224 17.89 95.5264 17.8258 95.5179 17.7626C95.5094 17.6995 95.4885 17.6386 95.4565 17.5835C95.4245 17.5284 95.3819 17.4802 95.3312 17.4415C95.2806 17.4029 95.2228 17.3746 95.1612 17.3583C95.0996 17.3419 95.0354 17.3379 94.9722 17.3464C94.909 17.3549 94.8482 17.3758 94.7931 17.4078C94.738 17.4398 94.6897 17.4824 94.6511 17.5331V17.4677ZM93.4739 17.9516L93.6832 18.0301C93.9645 18.0333 94.2449 18.0639 94.5203 18.1217C94.8457 18.2025 95.1791 18.2464 95.5144 18.2525H96.1553C96.4755 18.257 96.7948 18.2876 97.1101 18.344C97.1728 18.356 97.2372 18.3556 97.2998 18.3427C97.3623 18.3298 97.4217 18.3048 97.4745 18.2689C97.5273 18.2331 97.5726 18.1872 97.6077 18.1339C97.6428 18.0806 97.667 18.0209 97.6791 17.9582C97.6911 17.8955 97.6907 17.831 97.6778 17.7685C97.6649 17.706 97.6398 17.6466 97.604 17.5938C97.5682 17.5409 97.5223 17.4957 97.469 17.4606C97.4156 17.4255 97.3559 17.4012 97.2932 17.3892C96.9191 17.3099 96.5377 17.2704 96.1553 17.2715H95.5536C95.2846 17.2663 95.017 17.2312 94.7557 17.1668C94.4415 17.1001 94.122 17.0607 93.8009 17.0491V17.5331L94.0494 17.1145C93.9343 17.0517 93.7993 17.0357 93.6727 17.0698C93.546 17.1039 93.4374 17.1855 93.3693 17.2976C93.3118 17.3878 93.2857 17.4944 93.2952 17.6008C93.3046 17.7073 93.3491 17.8077 93.4216 17.8862L93.4739 17.9516ZM97.1755 18.344C99.1966 18.7175 101.243 18.9405 103.297 19.0111H104.134C105.97 19.0027 107.802 18.8496 109.614 18.5533C109.74 18.5279 109.852 18.4558 109.927 18.3516C110.003 18.2473 110.036 18.1185 110.02 17.9909C110.01 17.9269 109.988 17.8656 109.955 17.8104C109.921 17.7552 109.877 17.7073 109.824 17.6695C109.772 17.6317 109.712 17.6048 109.649 17.5903C109.586 17.5759 109.521 17.5742 109.457 17.5854C107.698 17.8763 105.918 18.025 104.134 18.0301H103.323C101.317 17.9553 99.3198 17.7367 97.3455 17.3761C97.2159 17.3568 97.0838 17.3882 96.9766 17.4637C96.8695 17.5391 96.7955 17.653 96.77 17.7816C96.7588 17.8452 96.7605 17.9105 96.775 17.9735C96.7894 18.0365 96.8163 18.0959 96.8541 18.1483C96.8919 18.2008 96.9398 18.2451 96.995 18.2787C97.0502 18.3123 97.1116 18.3345 97.1755 18.344Z" stroke="#A5E1D7" stroke-linecap="round" stroke-linejoin="round"/>
<path d="M63.4037 21.0008C63.8516 21.0008 64.2147 20.6377 64.2147 20.1898C64.2147 19.742 63.8516 19.3789 63.4037 19.3789C62.9558 19.3789 62.5928 19.742 62.5928 20.1898C62.5928 20.6377 62.9558 21.0008 63.4037 21.0008Z" fill="#4570B6"/>
<path d="M59.6244 21.4852C60.0723 21.4852 60.4354 21.1221 60.4354 20.6742C60.4354 20.2263 60.0723 19.8633 59.6244 19.8633C59.1765 19.8633 58.8135 20.2263 58.8135 20.6742C58.8135 21.1221 59.1765 21.4852 59.6244 21.4852Z" fill="#4570B6"/>
<path d="M56.0922 22.9344C56.5401 22.9344 56.9031 22.5713 56.9031 22.1234C56.9031 21.6756 56.5401 21.3125 56.0922 21.3125C55.6443 21.3125 55.2812 21.6756 55.2812 22.1234C55.2812 22.5713 55.6443 22.9344 56.0922 22.9344Z" fill="#4570B6"/>
<path d="M53.058 25.2508C53.5059 25.2508 53.869 24.8877 53.869 24.4398C53.869 23.992 53.5059 23.6289 53.058 23.6289C52.6101 23.6289 52.2471 23.992 52.2471 24.4398C52.2471 24.8877 52.6101 25.2508 53.058 25.2508Z" fill="#4570B6"/>
<path d="M50.7299 28.286C51.1778 28.286 51.5409 27.9229 51.5409 27.475C51.5409 27.0272 51.1778 26.6641 50.7299 26.6641C50.282 26.6641 49.9189 27.0272 49.9189 27.475C49.9189 27.9229 50.282 28.286 50.7299 28.286Z" fill="#4570B6"/>
<path d="M49.265 31.8055C49.7129 31.8055 50.076 31.4424 50.076 30.9946C50.076 30.5467 49.7129 30.1836 49.265 30.1836C48.8172 30.1836 48.4541 30.5467 48.4541 30.9946C48.4541 31.4424 48.8172 31.8055 49.265 31.8055Z" fill="#4570B6"/>
<path d="M48.7553 35.5828C49.2032 35.5828 49.5662 35.2198 49.5662 34.7719C49.5662 34.324 49.2032 33.9609 48.7553 33.9609C48.3074 33.9609 47.9443 34.324 47.9443 34.7719C47.9443 35.2198 48.3074 35.5828 48.7553 35.5828Z" fill="#4570B6"/>
<path d="M49.2514 39.3758C49.6993 39.3758 50.0623 39.0127 50.0623 38.5648C50.0623 38.117 49.6993 37.7539 49.2514 37.7539C48.8035 37.7539 48.4404 38.117 48.4404 38.5648C48.4404 39.0127 48.8035 39.3758 49.2514 39.3758Z" fill="#4570B6"/>
<path d="M50.7026 42.8953C51.1504 42.8953 51.5135 42.5323 51.5135 42.0844C51.5135 41.6365 51.1504 41.2734 50.7026 41.2734C50.2547 41.2734 49.8916 41.6365 49.8916 42.0844C49.8916 42.5323 50.2547 42.8953 50.7026 42.8953Z" fill="#4570B6"/>
<path d="M53.018 45.9305C53.4658 45.9305 53.8289 45.5674 53.8289 45.1195C53.8289 44.6717 53.4658 44.3086 53.018 44.3086C52.5701 44.3086 52.207 44.6717 52.207 45.1195C52.207 45.5674 52.5701 45.9305 53.018 45.9305Z" fill="#4570B6"/>
<path d="M56.0404 48.2586C56.4883 48.2586 56.8514 47.8955 56.8514 47.4477C56.8514 46.9998 56.4883 46.6367 56.0404 46.6367C55.5926 46.6367 55.2295 46.9998 55.2295 47.4477C55.2295 47.8955 55.5926 48.2586 56.0404 48.2586Z" fill="#4570B6"/>
<path d="M59.5717 49.7352C60.0196 49.7352 60.3826 49.3721 60.3826 48.9242C60.3826 48.4763 60.0196 48.1133 59.5717 48.1133C59.1238 48.1133 58.7607 48.4763 58.7607 48.9242C58.7607 49.3721 59.1238 49.7352 59.5717 49.7352Z" fill="#4570B6"/>
<path d="M63.351 50.2313C63.7989 50.2313 64.1619 49.8682 64.1619 49.4203C64.1619 48.9725 63.7989 48.6094 63.351 48.6094C62.9031 48.6094 62.54 48.9725 62.54 49.4203C62.54 49.8682 62.9031 50.2313 63.351 50.2313Z" fill="#4570B6"/>
<path d="M67.1323 49.7508C67.5801 49.7508 67.9432 49.3877 67.9432 48.9398C67.9432 48.492 67.5801 48.1289 67.1323 48.1289C66.6844 48.1289 66.3213 48.492 66.3213 48.9398C66.3213 49.3877 66.6844 49.7508 67.1323 49.7508Z" fill="#4570B6"/>
<path d="M70.6635 48.282C71.1114 48.282 71.4744 47.919 71.4744 47.4711C71.4744 47.0232 71.1114 46.6602 70.6635 46.6602C70.2156 46.6602 69.8525 47.0232 69.8525 47.4711C69.8525 47.919 70.2156 48.282 70.6635 48.282Z" fill="#4570B6"/>
<path d="M73.6977 45.9696C74.1455 45.9696 74.5086 45.6065 74.5086 45.1586C74.5086 44.7107 74.1455 44.3477 73.6977 44.3477C73.2498 44.3477 72.8867 44.7107 72.8867 45.1586C72.8867 45.6065 73.2498 45.9696 73.6977 45.9696Z" fill="#4570B6"/>
<path d="M76.0258 42.9461C76.4737 42.9461 76.8368 42.583 76.8368 42.1352C76.8368 41.6873 76.4737 41.3242 76.0258 41.3242C75.5779 41.3242 75.2148 41.6873 75.2148 42.1352C75.2148 42.583 75.5779 42.9461 76.0258 42.9461Z" fill="#4570B6"/>
<path d="M77.4906 39.4305C77.9385 39.4305 78.3016 39.0674 78.3016 38.6195C78.3016 38.1717 77.9385 37.8086 77.4906 37.8086C77.0428 37.8086 76.6797 38.1717 76.6797 38.6195C76.6797 39.0674 77.0428 39.4305 77.4906 39.4305Z" fill="#4570B6"/>
<path d="M78.0014 35.6375C78.4492 35.6375 78.8123 35.2744 78.8123 34.8266C78.8123 34.3787 78.4492 34.0156 78.0014 34.0156C77.5535 34.0156 77.1904 34.3787 77.1904 34.8266C77.1904 35.2744 77.5535 35.6375 78.0014 35.6375Z" fill="#4570B6"/>
<path d="M77.5043 31.8563C77.9522 31.8563 78.3153 31.4932 78.3153 31.0453C78.3153 30.5974 77.9522 30.2344 77.5043 30.2344C77.0564 30.2344 76.6934 30.5974 76.6934 31.0453C76.6934 31.4932 77.0564 31.8563 77.5043 31.8563Z" fill="#4570B6"/>
<path d="M76.0522 28.325C76.5 28.325 76.8631 27.962 76.8631 27.5141C76.8631 27.0662 76.5 26.7031 76.0522 26.7031C75.6043 26.7031 75.2412 27.0662 75.2412 27.5141C75.2412 27.962 75.6043 28.325 76.0522 28.325Z" fill="#4570B6"/>
<path d="M73.7377 25.2899C74.1856 25.2899 74.5487 24.9268 74.5487 24.4789C74.5487 24.031 74.1856 23.668 73.7377 23.668C73.2898 23.668 72.9268 24.031 72.9268 24.4789C72.9268 24.9268 73.2898 25.2899 73.7377 25.2899Z" fill="#4570B6"/>
<path d="M70.7152 22.9617C71.1631 22.9617 71.5262 22.5987 71.5262 22.1508C71.5262 21.7029 71.1631 21.3398 70.7152 21.3398C70.2674 21.3398 69.9043 21.7029 69.9043 22.1508C69.9043 22.5987 70.2674 22.9617 70.7152 22.9617Z" fill="#4570B6"/>
<path d="M67.184 21.4969C67.6319 21.4969 67.9949 21.1338 67.9949 20.6859C67.9949 20.2381 67.6319 19.875 67.184 19.875C66.7361 19.875 66.373 20.2381 66.373 20.6859C66.373 21.1338 66.7361 21.4969 67.184 21.4969Z" fill="#4570B6"/>
</svg>
