<svg width="190" height="60" viewBox="0 0 190 60" fill="none" xmlns="http://www.w3.org/2000/svg">
<g clip-path="url(#clip0_11_551)">
<path d="M59.9034 0H0V60H59.9034V0Z" fill="#4570B6"/>
<path d="M18.0004 28.3092H20.2309V19.3699H22.4615V28.3092H24.6947V19.3699H26.9253V28.3092H29.1559V17.1357H18.0004V28.3092Z" fill="#D9E9EC"/>
<path d="M5.24255 28.3092H16.3981V26.075H7.47313V19.3699H16.3981V17.1357H5.24255V28.3092Z" fill="#D9E9EC"/>
<path fill-rule="evenodd" clip-rule="evenodd" d="M25.711 38.93L26.6508 38.5625C27.0652 39.5435 27.3133 40.1859 27.4057 40.4874L26.429 40.7756C26.222 40.1465 25.9823 39.5288 25.711 38.9248V38.93ZM24.2618 39.1019L25.294 38.8692C25.5385 39.6842 25.7334 40.5133 25.8773 41.352L24.8346 41.5132C24.6845 40.7003 24.4933 39.8955 24.2618 39.1019ZM22.905 39.1257L23.9609 39.0887C24.063 40.3331 24.1114 41.3387 24.1061 42.1055L23.0634 42.0552C23.0958 41.0756 23.0393 40.0951 22.8944 39.1257H22.905ZM21.4479 40.1225C20.5637 40.7181 19.6373 41.2483 18.6761 41.7089L18.1482 40.6196C18.597 40.4318 18.9824 40.2679 19.3044 40.1198V37.1348H18.4966V35.9873H19.3044V33.4729H18.4966V32.3254H21.2446V33.4729H20.4157V35.9873H21.1549V37.1348H20.4157V39.4774L20.875 39.1416L21.5139 39.9639C21.5957 39.6545 21.6696 39.3214 21.7382 38.9671L22.8601 39.2791C22.6025 40.4593 22.1096 41.5754 21.4109 42.5603C21.1741 42.2721 20.8802 42.0362 20.5477 41.8675C20.8659 41.4485 21.1318 40.9921 21.3396 40.5085C21.369 40.378 21.4105 40.2505 21.4637 40.1278L21.4479 40.1225ZM24.4704 35.633H22.7994V35.0355H24.4704V35.633ZM24.4704 34.0096H22.7994V33.4808C22.7979 33.4642 22.7999 33.4475 22.8054 33.4317C22.8109 33.416 22.8197 33.4016 22.8312 33.3896C22.8427 33.3776 22.8567 33.3681 22.8721 33.362C22.8876 33.3558 22.9042 33.3531 22.9208 33.3539H24.4704V34.0096ZM22.7994 37.2564V36.6483H24.4704V37.2643L22.7994 37.2564ZM21.6881 37.6874V38.1474C21.6881 38.2902 21.7514 38.359 21.8781 38.359H27.3556C27.4533 38.359 27.5008 38.3907 27.5008 38.4515C27.5413 39.2667 27.529 40.0836 27.4638 40.8972C27.429 41.1567 27.3157 41.3994 27.1391 41.5925C27.0262 41.6841 26.8828 41.7294 26.7379 41.7195C26.319 41.6847 25.9028 41.6229 25.4919 41.5344L25.6028 42.7533C26.8171 42.8458 27.5932 42.7533 27.9363 42.4492C28.2348 42.1964 28.4279 41.8408 28.4775 41.4524C28.5954 40.7738 28.6473 39.4641 28.6332 37.5234C28.6332 37.3542 28.5699 37.259 28.4194 37.259H25.5764V36.6483H28.0683V35.6409H25.5764V35.0355H28.0208V34.0255H25.5764V33.3645H28.2901V32.2619H21.9283C21.7646 32.2619 21.6828 32.3465 21.6828 32.5263L21.6881 37.6874ZM10.4402 39.0014V42.6898H11.5964V39.0014H13.7478C13.8164 39.0014 13.8507 39.0332 13.8507 39.094V40.9739C13.8507 41.1193 13.7478 41.2383 13.5472 41.3202C13.27 41.4233 12.7394 41.3546 11.9633 41.1219L11.995 42.4439C13.1248 42.6625 13.9519 42.6396 14.4763 42.3752C14.6323 42.3093 14.7655 42.1991 14.8593 42.058C14.9532 41.917 15.0036 41.7515 15.0043 41.582V38.1448C15.008 38.1058 15.0031 38.0664 14.9897 38.0296C14.9764 37.9927 14.9551 37.9593 14.9273 37.9317C14.8995 37.9041 14.866 37.8831 14.8291 37.8701C14.7922 37.8571 14.7528 37.8525 14.7139 37.8566H11.5964V36.9762H10.4402V37.8566H8.85635C9.26483 37.4784 9.65007 37.0758 10.0099 36.6509C10.0185 36.6274 10.0342 36.6071 10.0548 36.5928H15.6774V35.4321H10.8995C11.013 35.247 11.1344 35.0592 11.2717 34.8636L10.4613 34.3189C10.6408 34.2475 10.852 34.1788 11.0896 34.1101C12.1455 34.4185 13.2893 34.809 14.5212 35.2813L14.8353 34.1682C14.1411 33.9038 13.4653 33.6579 12.8159 33.4253L14.0038 32.87L13.4891 31.8124C12.7325 32.2197 11.9534 32.5834 11.1556 32.9018C9.77866 32.4707 8.37119 32.1446 6.94518 31.9261L6.68121 33.063C7.44818 33.1781 8.2086 33.3334 8.9593 33.5284C7.88563 33.7534 6.7933 33.8773 5.69659 33.8985L5.96056 35.046C7.18471 35.0308 8.40254 34.8674 9.58756 34.5595C9.78818 34.5049 10.0125 34.4467 10.2607 34.385C10.0038 34.7799 9.76794 35.1324 9.55324 35.4426H5.61476V36.5901H8.61085C7.90182 37.2721 7.11813 37.8717 6.27469 38.3775C5.93152 38.544 5.58572 38.7185 5.24255 38.9063L5.88137 39.9163C6.29317 39.7021 6.70497 39.4641 7.11676 39.2103V42.362H8.27297V39.0834C8.27261 39.0714 8.27467 39.0594 8.27903 39.0482C8.28338 39.037 8.28993 39.0268 8.2983 39.0181C8.30667 39.0095 8.31669 39.0026 8.32776 38.998C8.33882 38.9933 8.35071 38.9909 8.36272 38.9909L10.4402 39.0014Z" fill="#D9E9EC"/>
<path fill-rule="evenodd" clip-rule="evenodd" d="M52.4937 40.1146L48.3071 40.765L48.0432 39.5937L52.4832 38.8983V32.0927H53.642V38.737L54.4815 38.5995L54.6504 39.7788L53.642 39.9533V42.6766H52.4832L52.4937 40.1146ZM48.8588 36.3257L49.6666 35.4902C50.3859 36.099 51.0542 36.7658 51.6649 37.4838L50.8017 38.2505C50.1974 37.5665 49.5484 36.9234 48.8588 36.3257ZM49.2495 33.4173C50.0101 34.1243 50.716 34.8879 51.3613 35.7017L52.2588 34.9588C51.5906 34.1301 50.8674 33.3475 50.0942 32.6162L49.2495 33.4173ZM47.1879 37.8804C47.5786 38.3695 47.9244 38.8243 48.2438 39.25L49.107 38.4568C48.5016 37.7112 47.8654 36.9964 47.1984 36.3125V36.1856H48.6793V34.9905H47.1984V33.3803C47.691 33.2863 48.1783 33.1663 48.6582 33.0207L48.4338 31.8257C47.1403 32.1842 45.8135 32.4092 44.4742 32.4972L44.63 33.6923C45.1078 33.6632 45.5777 33.6209 46.0317 33.5654V34.9905H44.3027V36.1856H45.9763C45.503 37.4454 44.8073 38.6097 43.9225 39.6228L44.9784 40.1093C45.3651 39.5823 45.7135 39.0283 46.0211 38.4515V42.6264H47.1773L47.1879 37.8804ZM36.5287 34.3454V33.6844C36.5239 33.6485 36.5274 33.6121 36.539 33.5778C36.5506 33.5435 36.5699 33.5124 36.5954 33.4868C36.6209 33.4613 36.652 33.4419 36.6862 33.4303C36.7204 33.4187 36.7568 33.4152 36.7926 33.42H39.7755C39.8114 33.4146 39.8481 33.4178 39.8825 33.4292C39.917 33.4406 39.9483 33.4599 39.974 33.4856C39.9997 33.5113 40.0189 33.5427 40.0303 33.5772C40.0417 33.6117 40.0448 33.6484 40.0395 33.6844V34.3665L36.5287 34.3454ZM40.0395 35.4479V36.0375C40.0454 36.0776 40.0421 36.1184 40.0297 36.1569C40.0174 36.1955 39.9964 36.2306 39.9683 36.2598C39.9403 36.2889 39.9059 36.3112 39.8679 36.3249C39.8299 36.3386 39.7893 36.3434 39.7491 36.3389H36.5287V35.4479H40.0395ZM33.5062 33.2904C33.6276 33.2904 33.6883 33.3486 33.6883 33.4649V35.0513H32.4687V33.4649C32.4687 33.3486 32.5242 33.2904 32.6377 33.2904H33.5062ZM33.6883 40.6936C33.6926 40.7229 33.69 40.7529 33.6809 40.7811C33.6717 40.8093 33.6562 40.835 33.6355 40.8562C33.6148 40.8775 33.5896 40.8936 33.5616 40.9035C33.5337 40.9133 33.5039 40.9166 33.4745 40.913H32.4687V39.0014H33.6909L33.6883 40.6936ZM33.6883 37.9438H32.4687V36.1221H33.6909L33.6883 37.9438ZM32.4687 41.9601H34.3984C34.452 41.9597 34.5054 41.9517 34.5568 41.9363L34.6571 42.8643C35.9899 42.6729 37.2941 42.3177 38.5401 41.8067L38.0676 40.8099C37.6155 41.0154 37.1509 41.192 36.6765 41.3387C36.6256 41.3457 36.5764 41.3619 36.5313 41.3863V37.4388H37.2599C37.7614 39.4166 38.5947 40.8963 39.7597 41.8781C40.0976 42.1636 40.5094 42.4783 40.9951 42.8167L41.882 41.9257C40.805 41.3158 40.0237 40.6927 39.5379 40.0564C40.2332 39.5901 40.8828 39.0589 41.4781 38.47L40.7945 37.6001C40.2246 38.1606 39.6062 38.6693 38.9466 39.1204C38.6871 38.5812 38.4803 38.018 38.329 37.4388H40.7971C40.8452 37.4447 40.894 37.4393 40.9396 37.4232C40.9853 37.407 41.0267 37.3805 41.0604 37.3456C41.0941 37.3108 41.1194 37.2687 41.1341 37.2224C41.1489 37.1762 41.1528 37.1272 41.1455 37.0793V32.64C41.1506 32.5943 41.1453 32.5481 41.1301 32.5048C41.1149 32.4614 41.0901 32.4221 41.0577 32.3896C41.0253 32.3571 40.9859 32.3323 40.9427 32.3171C40.8994 32.3018 40.8533 32.2965 40.8077 32.3016H35.742C35.5335 32.3016 35.4252 32.4153 35.4173 32.64V41.6111C35.1867 41.6376 34.9576 41.6765 34.731 41.7274L34.7548 41.5873V32.5818C34.7613 32.5345 34.7568 32.4862 34.7417 32.4409C34.7265 32.3955 34.701 32.3543 34.6672 32.3205C34.6335 32.2867 34.5923 32.2612 34.5471 32.2459C34.5018 32.2307 34.4536 32.2262 34.4063 32.2328H31.7243C31.5158 32.2328 31.4076 32.3439 31.3997 32.5686V42.6316H32.4556L32.4687 41.9601Z" fill="#D9E9EC"/>
<path d="M30.7528 28.3092H41.9083V26.075H32.9834V23.8408H41.9083V21.604H32.9834V19.3699H41.9083V17.1357H30.7528V28.3092Z" fill="#D9E9EC"/>
<path d="M54.6609 17.1357H43.5054V19.3699H52.4303V21.604H43.5054V28.3092H45.7359V23.8408H47.9665L51.7387 28.3092H54.6609L50.8887 23.8408H54.6609V17.1357Z" fill="#D9E9EC"/>
<path d="M71.6132 39.4086L71.2384 39.9374C71.146 40.0617 71.0193 40.2203 70.8503 40.4133C70.8266 40.4398 70.7975 40.4715 70.7632 40.5138L70.3145 39.1098C71.1392 38.1826 71.8184 37.135 72.3286 36.0032C72.3681 35.9042 72.414 35.808 72.4658 35.715L73.3528 36.405C73.3242 36.466 73.2995 36.5287 73.2789 36.5928C73.1293 36.9983 72.9401 37.3879 72.714 37.7561V43.9933H71.6264L71.6132 39.4086ZM70.4016 35.3395C71.2628 34.5395 71.9776 33.5945 72.5134 32.5475L73.5138 32.9837C73.4557 33.1036 73.4056 33.2041 73.3633 33.2851C72.8277 34.4161 72.1007 35.4457 71.2146 36.3284L70.4016 35.3395ZM75.0396 39.0014V40.1912C75.0612 40.904 74.9812 41.6163 74.802 42.3064C74.611 42.8875 74.3372 43.4378 73.989 43.9404L73.0149 43.0626C73.4241 42.62 73.6988 42.0697 73.8068 41.4762C73.919 40.7343 73.9693 39.9844 73.9573 39.2341V39.0014H75.0396ZM78.9411 32.9203C78.9675 32.8039 78.9992 32.6559 79.0414 32.4708L80.0973 32.5845L79.9099 33.5601C79.799 34.0889 79.7251 34.4168 79.6829 34.549H81.8316V35.6647H81.3195C81.2033 37.8857 80.8822 39.6845 80.356 41.0611C80.4405 41.1695 80.5064 41.262 80.5566 41.3255C80.9036 41.7717 81.2792 42.1948 81.6811 42.592C81.7359 42.6374 81.7862 42.6879 81.8316 42.7427L81.206 43.8558C80.7098 43.3089 80.2428 42.7361 79.8069 42.1399C79.3519 42.7349 78.8361 43.2808 78.268 43.7686L78.1069 43.906L77.3441 42.941C78.0835 42.4526 78.7202 41.8238 79.2183 41.0902C78.8583 40.2445 78.5738 39.3686 78.3683 38.4726C78.3419 38.3563 78.3102 38.2083 78.268 38.0337L78.0541 38.4356L77.7902 38.8613L77.4153 38.2082H73.1759V37.1692H77.5288C78.0691 36.2332 78.5399 34.8231 78.9411 32.9388V32.9203ZM73.5033 36.4341V33.1847H74.5037V35.4136H75.2032V32.4708H76.1641V35.403H76.89V33.1847H77.9037V36.4394L73.5033 36.4341ZM77.1646 39.0014V40.9289L77.6292 40.5297C77.7304 40.4476 77.8265 40.3593 77.9169 40.2653C77.9485 40.2256 78.004 40.1622 78.0779 40.0775L78.3419 41.1061L77.9802 41.4683C77.383 42.0492 76.7295 42.5691 76.0295 43.0203L75.4303 42.0077C75.4659 41.9881 75.5029 41.9713 75.5411 41.9574C75.6097 41.923 75.6969 41.8728 75.8051 41.8067L76.1034 41.619V39.0014H77.1646ZM79.3793 35.67L79.2288 36.0957L79.0652 36.5346C79.097 37.6818 79.3349 38.8139 79.7673 39.8766C80.0791 38.6892 80.2675 37.4726 80.3296 36.2464C80.3296 36.0957 80.3296 35.9027 80.3428 35.67H79.3793Z" fill="#4570B6"/>
<path d="M86.9686 34.6494C87.0742 34.9138 87.156 35.1386 87.2062 35.3131L87.3936 35.9662L86.2427 36.1274L86.079 35.3898C86.0226 35.1362 85.943 34.8884 85.8414 34.6494H85.2923L84.6799 35.4426C84.4793 35.6912 84.2866 35.9133 84.1045 36.1063C84.0701 36.138 84.0253 36.1882 83.9672 36.2543L83.0671 35.3924C83.9702 34.5839 84.6794 33.5816 85.1419 32.4602L86.2664 32.6109L86.0684 33.1239L85.8309 33.613H88.7926V34.6389L86.9686 34.6494ZM89.2229 37.6927L89.186 38.2215L89.1358 38.8587H94.3704V39.9744H90.2181C90.5861 40.6909 91.1315 41.3008 91.8019 41.7459C92.6609 42.263 93.5978 42.6371 94.5763 42.8537L93.9507 43.9801C92.8542 43.7101 91.8193 43.2326 90.9018 42.5735C90.0624 41.8758 89.4055 40.9837 88.988 39.9744C88.4354 41.7688 86.7636 43.1129 83.9725 44.0065L83.0618 42.9172C85.3883 42.4325 86.9175 41.4515 87.6496 39.9744H83.3548V38.8587H87.9189L87.9796 38.2453L88.0166 37.7694C87.7684 37.7852 87.2246 37.7958 86.3667 37.7958H84.5427L84.1678 36.5822C85.2237 36.5822 86.0948 36.5822 86.8075 36.5822H89.0751C90.8349 36.5822 92.1442 36.4447 93.003 36.1697L93.6154 37.2273C92.3836 37.4265 91.1517 37.5684 89.9198 37.653L89.2308 37.7138L89.2229 37.6927ZM92.256 34.6706C92.3404 34.8715 92.3985 35.0275 92.4328 35.1359L92.5833 35.6357L91.3954 35.8102L91.2819 35.21C91.2447 35.0257 91.1816 34.8477 91.0945 34.6812H90.3554C90.024 35.1925 89.6203 35.6529 89.1569 36.0481L88.2568 35.2708C89.1318 34.5243 89.8099 33.5736 90.2313 32.5025L91.3558 32.64L91.1578 33.1926L90.9203 33.6553H94.5816V34.6812L92.256 34.6706Z" fill="#4570B6"/>
<path d="M97.4932 38.5335H95.9094V37.4309H97.5962C97.638 37.1031 97.6548 36.7725 97.6463 36.4421V35.2391H97.3216L97.0577 36.0534C96.95 36.3603 96.8167 36.6575 96.6591 36.9418L95.8223 36.1909C96.3454 35.0183 96.7231 33.7858 96.9468 32.5211L97.9103 32.7855L97.7836 33.4597L97.6331 34.1365H99.5179V35.2391H98.726V36.4289C98.7402 36.7642 98.719 37.1001 98.6626 37.4309H99.7396V38.5335H98.5887L98.5122 39.1337L98.4514 39.4959C98.7348 39.7233 99.0515 39.9991 99.4017 40.3235L99.9878 40.8866L99.312 41.8649L98.8263 41.2753L98.2007 40.5614C97.8487 41.7204 97.314 42.8156 96.6168 43.8056L95.8223 42.7771C96.2504 42.252 96.6056 41.6712 96.8782 41.0506C97.1953 40.2432 97.4013 39.3964 97.4906 38.5335H97.4932ZM99.8663 34.5887H102.329L102.53 34.1868L102.641 33.9224C102.29 33.9673 101.938 33.992 101.585 33.9964L100.373 34.0334L100.109 33.071C101.082 33.0023 102.124 32.9688 103.235 32.9705C104.259 32.9662 105.28 32.8356 106.273 32.5819L106.711 33.4703C106.174 33.5876 105.631 33.6759 105.085 33.7347L103.765 33.8721L103.628 34.163L103.441 34.5754H107.215V35.4903H105.214C105.822 36.1136 106.549 36.6073 107.353 36.9418L106.767 37.817L106.291 37.5526L105.763 37.1903V38.5917H101.276V37.1771L100.788 37.542C100.628 37.6626 100.456 37.7671 100.275 37.854L99.5865 37.0264C100.612 36.5117 101.342 36.0032 101.775 35.5008H99.9007L99.8663 34.5887ZM104.797 43.0283H101.63V40.5879H105.13V42.8908L105.444 42.9172C105.684 42.9172 105.806 42.7824 105.806 42.5153V40.0485H101.033V44.0145H99.9772V39.0834H106.88V42.629C106.903 42.9627 106.826 43.2956 106.661 43.5862C106.516 43.8003 106.21 43.9061 105.742 43.9061H105.009L104.797 43.0283ZM104.723 37.0291H102.184V37.7826H104.723V37.0291ZM104.298 35.8657L104.011 35.5035H102.897L102.659 35.8287L102.321 36.2306H104.647L104.298 35.8657ZM104.185 41.3626H102.559V42.2404H104.185V41.3626Z" fill="#4570B6"/>
<path d="M110.605 34.4882C110.57 34.3718 110.544 34.274 110.528 34.2C110.388 33.6629 110.182 33.1452 109.916 32.6585L111.054 32.4708C111.379 33.1128 111.63 33.7896 111.803 34.4882H113.155V35.4268C112.843 36.1484 112.466 36.8404 112.03 37.4944C111.995 37.5455 111.953 37.6116 111.904 37.6927C112.278 38.0099 112.558 38.2585 112.743 38.433L113.535 39.1971L112.846 40.223C112.64 39.9744 112.418 39.7259 112.183 39.4853L111.571 38.8825V43.9933H110.46V39.2976C110.083 39.7171 109.673 40.1061 109.235 40.4609C109.2 40.4874 109.153 40.5244 109.095 40.5746L108.596 39.3478C109.974 38.3574 111.105 37.0628 111.904 35.5643H108.778V34.5067L110.605 34.4882ZM113.567 40.0855V32.8727H119.268V40.0855H117.856V42.3011C117.856 42.5655 117.938 42.6898 118.12 42.6898H118.524C118.759 42.6898 118.901 42.6237 118.957 42.4889C119.026 42.2492 119.057 42.0004 119.049 41.7512C119.049 41.3916 119.068 41.0717 119.076 40.7861L120.076 41.151C120.018 42.2932 119.899 43.0018 119.72 43.2662C119.62 43.4074 119.484 43.5198 119.327 43.5922C119.17 43.6646 118.997 43.6944 118.825 43.6787H117.975C117.508 43.6787 117.183 43.5755 117.011 43.3667C116.808 43.0534 116.715 42.6812 116.747 42.3091V40.0855H115.734C115.633 41.73 114.813 43.0326 113.271 43.9933L112.495 43.0652C113.846 42.265 114.571 41.2717 114.67 40.0855H113.567ZM118.157 33.9356H114.667V34.9376H118.144L118.157 33.9356ZM114.681 36.9048H118.154V35.8895H114.667L114.681 36.9048ZM114.681 39.02H118.154V37.8936H114.667L114.681 39.02Z" fill="#4570B6"/>
<path d="M132.251 34.5252V40.0775H127.686V43.9986H126.401V40.0723H121.913V34.5199H126.401V32.4708H127.686V34.5252H132.251ZM126.401 35.6515H123.136V38.9459H126.401V35.6515ZM131.026 35.6515H127.686V38.9459H131.026V35.6515Z" fill="#4570B6"/>
<path d="M136.638 36.2782C136.458 38.4296 135.997 40.548 135.265 42.5788L134.075 41.8517C134.453 40.7183 134.739 39.7603 134.932 38.9777C135.16 37.9992 135.312 37.0048 135.389 36.0032L136.638 36.2782ZM138.789 35.5643H137.564V42.703C137.599 43.1446 137.744 43.4434 138.002 43.5914C138.285 43.7485 138.604 43.827 138.926 43.8188H141.315C141.747 43.8219 142.168 43.6856 142.516 43.4301C142.757 43.2451 142.904 42.8749 142.96 42.3144C143.015 41.7539 143.042 41.1034 143.042 40.3605V40.1119L141.804 39.7339C141.804 40.1437 141.804 40.4609 141.804 40.6857V40.9501C141.821 41.4214 141.794 41.8932 141.722 42.3593C141.666 42.5735 141.49 42.6792 141.194 42.6792H139.219C139.16 42.6882 139.099 42.683 139.042 42.6641C138.984 42.6452 138.932 42.6131 138.89 42.5704C138.847 42.5278 138.815 42.4757 138.796 42.4183C138.777 42.361 138.772 42.3 138.781 42.2404L138.789 35.5643ZM139.053 32.5211C139.93 33.3172 140.748 34.1752 141.503 35.0884C141.611 35.2232 141.748 35.3898 141.915 35.5907L140.827 36.5426C140.148 35.5222 139.382 34.5624 138.538 33.6738L138.103 33.2349L139.053 32.5211ZM144.29 42.0896C143.928 40.1299 143.342 38.2182 142.545 36.3919L143.757 36.0164C144.437 37.6241 144.993 39.2814 145.42 40.9739C145.462 41.1246 145.518 41.3097 145.584 41.5265L144.29 42.0896Z" fill="#4570B6"/>
<path d="M75.3827 18.3281L74.377 18.9785C74.2593 18.7069 74.0782 18.4676 73.849 18.2805C73.6449 18.1492 73.4051 18.0845 73.1627 18.0954C72.845 18.0843 72.5357 18.1993 72.3022 18.4154C72.1914 18.515 72.1036 18.6375 72.0448 18.7745C71.986 18.9114 71.9576 19.0595 71.9616 19.2086C71.9616 19.6448 72.2599 20.0018 72.8565 20.2662L73.6775 20.631C74.2535 20.8539 74.7601 21.2262 75.1451 21.7098C75.4665 22.1648 75.6306 22.7126 75.6124 23.2697C75.6389 24.0249 75.3656 24.7599 74.8521 25.3135C74.6134 25.5772 74.3208 25.7865 73.9943 25.927C73.6677 26.0675 73.3148 26.136 72.9595 26.1279C72.633 26.1388 72.3077 26.0833 72.0032 25.9647C71.6988 25.8461 71.4215 25.6668 71.1882 25.4378C70.6932 24.902 70.3905 24.2164 70.3276 23.4892L71.5868 23.1878C71.6012 23.5699 71.7033 23.9435 71.8851 24.2797C71.9994 24.4448 72.1491 24.5823 72.3232 24.6821C72.4972 24.782 72.6914 24.8417 72.8914 24.8569C73.0914 24.8721 73.2923 24.8424 73.4794 24.77C73.6666 24.6976 73.8352 24.5843 73.9731 24.4384C74.2343 24.1423 74.3722 23.7571 74.3585 23.3623C74.3598 23.2002 74.3367 23.0389 74.2899 22.8837C74.2455 22.7381 74.1748 22.6019 74.0813 22.4818C73.9762 22.3511 73.8537 22.2354 73.7171 22.1381C73.5498 22.0222 73.3732 21.9205 73.1891 21.834L72.3972 21.4745C71.2709 20.9457 70.7069 20.186 70.7051 19.1954C70.698 18.8795 70.7575 18.5658 70.8799 18.2746C71.0023 17.9834 71.1847 17.7215 71.4152 17.5058C71.6497 17.2794 71.9268 17.1019 72.2305 16.9839C72.5341 16.8659 72.8582 16.8096 73.1838 16.8184C74.1183 16.8166 74.8513 17.3199 75.3827 18.3281Z" fill="#4570B6" stroke="#4570B6" stroke-width="0.1" stroke-miterlimit="10"/>
<path d="M87.6074 16.9903H88.8507V25.964H87.6074V16.9903Z" fill="#4570B6" stroke="#4570B6" stroke-width="0.1" stroke-miterlimit="10"/>
<path d="M92.0737 16.9903V24.6896H94.5023V25.964H90.8304V16.9903H92.0737Z" fill="#4570B6" stroke="#4570B6" stroke-width="0.1" stroke-miterlimit="10"/>
<path d="M100.223 18.2647H96.9203V20.4195H100.128V21.6913H96.9203V24.6896H100.223V25.964H95.677V16.9903H100.223V18.2647Z" fill="#4570B6" stroke="#4570B6" stroke-width="0.1" stroke-miterlimit="10"/>
<path d="M108.02 22.1381L110.57 25.964H109.05L106.698 22.2915H106.471V25.964H105.23V16.9903H106.685C107.775 16.9903 108.562 17.215 109.045 17.6592C109.309 17.9108 109.517 18.2164 109.654 18.5553C109.79 18.8942 109.853 19.2585 109.837 19.6237C109.852 20.2102 109.676 20.7858 109.335 21.2629C109.018 21.7059 108.551 22.0173 108.02 22.1381ZM106.471 21.1096H106.867C108.046 21.1096 108.635 20.6196 108.635 19.6395C108.635 18.7212 108.063 18.2629 106.917 18.2647H106.471V21.1096Z" fill="#4570B6" stroke="#4570B6" stroke-width="0.1" stroke-miterlimit="10"/>
<path d="M116.148 23.4416H112.413C112.422 23.8476 112.57 24.2382 112.83 24.5494C112.948 24.6824 113.093 24.7878 113.256 24.8582C113.419 24.9285 113.595 24.9621 113.772 24.9566C114.039 24.9678 114.301 24.8855 114.514 24.7239C114.78 24.4767 115.002 24.1862 115.171 23.8646L116.185 24.4807C116.045 24.7463 115.879 24.997 115.689 25.2289C115.527 25.4243 115.339 25.5961 115.129 25.7392C114.931 25.8724 114.713 25.9716 114.482 26.0327C114.237 26.0957 113.984 26.1267 113.73 26.1252C113.378 26.139 113.027 26.0729 112.704 25.9319C112.381 25.7909 112.094 25.5786 111.864 25.3109C111.371 24.6977 111.12 23.9241 111.159 23.1375C111.123 22.3561 111.364 21.587 111.84 20.9668C112.062 20.6995 112.342 20.4866 112.658 20.3445C112.975 20.2024 113.32 20.1349 113.667 20.1472C114.01 20.1313 114.351 20.1946 114.666 20.3322C114.98 20.4697 115.259 20.6778 115.48 20.9404C115.92 21.4692 116.141 22.1989 116.143 23.1296L116.148 23.4416ZM114.915 22.384C114.75 21.6878 114.346 21.3352 113.704 21.3264C113.563 21.3256 113.424 21.3498 113.292 21.3978C113.165 21.4477 113.047 21.5183 112.944 21.6067C112.838 21.7013 112.748 21.813 112.68 21.9372C112.602 22.0727 112.544 22.2188 112.508 22.3708L114.915 22.384Z" fill="#4570B6" stroke="#4570B6" stroke-width="0.1" stroke-miterlimit="10"/>
<path d="M118.693 21.5247V25.964H117.487V21.5247H117.062V20.3032H117.487V18.114C117.487 17.4001 117.603 16.8977 117.83 16.6016C117.991 16.3963 118.199 16.233 118.437 16.1257C118.674 16.0184 118.934 15.9704 119.194 15.9856C119.474 16.0018 119.748 16.0708 120.002 16.1891V17.527L119.878 17.4556C119.685 17.3335 119.465 17.26 119.237 17.2415C119.148 17.2331 119.058 17.2528 118.981 17.2978C118.904 17.3429 118.843 17.411 118.806 17.4926C118.711 17.7968 118.673 18.1158 118.693 18.4339V20.2847H120.013V21.5062L118.693 21.5247Z" fill="#4570B6" stroke="#4570B6" stroke-width="0.1" stroke-miterlimit="10"/>
<path d="M120.694 20.3032H121.895V20.8082C122.059 20.6004 122.257 20.4217 122.481 20.2794C122.672 20.1784 122.885 20.1284 123.101 20.134C123.46 20.1531 123.806 20.2782 124.094 20.4935L123.539 21.6807C123.353 21.5201 123.117 21.427 122.872 21.4163C122.217 21.4163 121.89 21.9451 121.89 23.0318V25.9666H120.688L120.694 20.3032Z" fill="#4570B6" stroke="#4570B6" stroke-width="0.1" stroke-miterlimit="10"/>
<path d="M128.539 20.3032H129.745V25.964H128.539V25.3691C128.328 25.6142 128.064 25.8092 127.768 25.9399C127.472 26.0707 127.151 26.1339 126.828 26.125C126.504 26.1162 126.187 26.0354 125.899 25.8887C125.61 25.742 125.358 25.5329 125.16 25.2765C124.682 24.6607 124.434 23.8962 124.461 23.1164C124.436 22.3505 124.684 21.6008 125.16 21.0012C125.366 20.7337 125.632 20.5179 125.936 20.3706C126.239 20.2233 126.573 20.1487 126.91 20.1525C127.225 20.1597 127.534 20.2361 127.815 20.3764C128.097 20.5167 128.344 20.7174 128.539 20.9642V20.3032ZM125.691 23.1164C125.67 23.5896 125.811 24.0558 126.089 24.4384C126.208 24.6027 126.364 24.7363 126.544 24.8283C126.725 24.9202 126.924 24.9678 127.127 24.9672C127.333 24.9739 127.538 24.9322 127.725 24.8454C127.912 24.7587 128.076 24.6292 128.204 24.4675C128.47 24.0817 128.613 23.6238 128.613 23.1547C128.613 22.6857 128.47 22.2278 128.204 21.842C128.078 21.6822 127.918 21.5535 127.735 21.4659C127.552 21.3783 127.351 21.3342 127.148 21.337C126.948 21.3352 126.75 21.3805 126.57 21.4691C126.39 21.5577 126.234 21.6872 126.113 21.8473C125.83 22.2089 125.681 22.6572 125.691 23.1164Z" fill="#4570B6" stroke="#4570B6" stroke-width="0.1" stroke-miterlimit="10"/>
<path d="M135.307 20.5464V22.2835C135.107 21.9936 134.857 21.7405 134.571 21.5353C134.346 21.3925 134.084 21.3198 133.819 21.3264C133.603 21.324 133.39 21.3703 133.195 21.4619C132.999 21.5534 132.827 21.6879 132.691 21.8552C132.393 22.2143 132.236 22.6705 132.251 23.1375C132.228 23.6164 132.383 24.0867 132.683 24.4595C132.913 24.7208 133.226 24.8942 133.568 24.9501C133.911 25.006 134.263 24.941 134.563 24.7662C134.855 24.5554 135.11 24.2961 135.315 23.9995V25.726C134.865 25.9872 134.354 26.1249 133.834 26.1252C133.457 26.134 133.083 26.0629 132.735 25.9167C132.388 25.7704 132.075 25.5523 131.818 25.2765C131.55 24.9949 131.34 24.6631 131.2 24.3001C131.061 23.9372 130.994 23.5502 131.005 23.1613C130.985 22.3672 131.282 21.5979 131.828 21.0223C132.083 20.7424 132.395 20.52 132.743 20.37C133.091 20.22 133.466 20.1459 133.845 20.1525C134.359 20.1483 134.865 20.2845 135.307 20.5464Z" fill="#4570B6" stroke="#4570B6" stroke-width="0.1" stroke-miterlimit="10"/>
<path d="M137.71 21.5247V25.964H136.508V21.5247H135.996V20.3032H136.508V18.2277H137.71V20.3032H138.641V21.5247H137.71Z" fill="#4570B6" stroke="#4570B6" stroke-width="0.1" stroke-miterlimit="10"/>
<path d="M139.277 17.95C139.274 17.7301 139.356 17.5175 139.507 17.3578C139.576 17.2787 139.661 17.2154 139.756 17.1719C139.851 17.1285 139.954 17.106 140.059 17.106C140.163 17.106 140.267 17.1285 140.362 17.1719C140.457 17.2154 140.542 17.2787 140.611 17.3578C140.687 17.4369 140.747 17.5305 140.787 17.6331C140.827 17.7357 140.846 17.8453 140.843 17.9553C140.848 18.1798 140.764 18.3973 140.611 18.5608C140.543 18.6404 140.459 18.7041 140.364 18.7471C140.269 18.79 140.166 18.8113 140.061 18.8093C139.957 18.8105 139.853 18.7888 139.757 18.7459C139.661 18.703 139.576 18.6399 139.507 18.5608C139.354 18.3948 139.272 18.1758 139.277 17.95ZM140.661 20.3032V25.964H139.46V20.3032H140.661Z" fill="#4570B6" stroke="#4570B6" stroke-width="0.1" stroke-miterlimit="10"/>
<path d="M142.828 20.3032L144.171 23.476L145.512 20.3032H146.861L144.161 26.3526L141.49 20.3032H142.828Z" fill="#4570B6" stroke="#4570B6" stroke-width="0.1" stroke-miterlimit="10"/>
<path d="M152.22 23.4416H148.495C148.505 23.8476 148.652 24.2382 148.913 24.5494C149.03 24.6823 149.176 24.7875 149.339 24.8579C149.501 24.9283 149.678 24.962 149.855 24.9566C150.122 24.9673 150.385 24.8851 150.599 24.7239C150.864 24.4753 151.086 24.1851 151.257 23.8646L152.27 24.4807C152.13 24.7458 151.963 24.9964 151.774 25.2289C151.611 25.4238 151.421 25.5955 151.212 25.7392C151.015 25.872 150.797 25.9711 150.568 26.0327C150.321 26.0958 150.067 26.1269 149.813 26.1252C149.46 26.1388 149.11 26.0726 148.787 25.9316C148.464 25.7906 148.176 25.5784 147.946 25.3109C147.453 24.6977 147.202 23.9241 147.242 23.1375C147.205 22.3556 147.447 21.5861 147.925 20.9668C148.154 20.711 148.434 20.5059 148.746 20.3648C149.059 20.2237 149.397 20.1496 149.74 20.1474C150.083 20.1452 150.422 20.2148 150.737 20.3518C151.051 20.4888 151.333 20.6902 151.565 20.943C152.007 21.4718 152.227 22.2016 152.225 23.1323L152.22 23.4416ZM150.987 22.384C150.822 21.6878 150.418 21.3352 149.776 21.3264C149.636 21.3253 149.498 21.3495 149.367 21.3978C149.239 21.447 149.12 21.5177 149.015 21.6067C148.91 21.7019 148.821 21.8135 148.752 21.9372C148.674 22.0727 148.616 22.2188 148.58 22.3708L150.987 22.384Z" fill="#4570B6" stroke="#4570B6" stroke-width="0.1" stroke-miterlimit="10"/>
<path d="M163.225 17.4741V19.0763C162.507 18.4224 161.764 18.0954 160.995 18.0954C160.586 18.0905 160.182 18.1773 159.812 18.3493C159.441 18.5213 159.114 18.7743 158.854 19.0896C158.268 19.7555 157.956 20.619 157.98 21.5062C157.958 22.3819 158.27 23.2331 158.854 23.8858C159.119 24.1951 159.448 24.4424 159.819 24.61C160.19 24.7777 160.593 24.8617 161 24.8561C161.384 24.8682 161.766 24.7884 162.114 24.6234C162.3 24.5363 162.477 24.4309 162.642 24.3088C162.844 24.1617 163.037 24.0028 163.22 23.8329V25.4669C162.549 25.892 161.772 26.1193 160.979 26.1226C160.409 26.1289 159.845 26.0123 159.325 25.7805C158.805 25.5487 158.341 25.2072 157.964 24.7794C157.14 23.8953 156.693 22.7236 156.718 21.5141C156.707 20.4059 157.075 19.3274 157.761 18.4576C158.141 17.9379 158.641 17.5172 159.217 17.231C159.794 16.9448 160.43 16.8015 161.074 16.8131C161.84 16.8195 162.587 17.0492 163.225 17.4741Z" fill="#4570B6" stroke="#4570B6" stroke-width="0.1" stroke-miterlimit="10"/>
<path d="M169.299 23.4416H165.574C165.584 23.8476 165.731 24.2382 165.992 24.5494C166.109 24.6824 166.255 24.7878 166.417 24.8582C166.58 24.9285 166.757 24.9621 166.934 24.9566C167.201 24.9678 167.463 24.8855 167.676 24.7239C167.942 24.4767 168.164 24.1862 168.333 23.8646L169.347 24.4807C169.207 24.7463 169.041 24.997 168.85 25.2289C168.688 25.4243 168.5 25.5961 168.291 25.7392C168.093 25.8724 167.874 25.9716 167.644 26.0327C167.398 26.0957 167.145 26.1267 166.892 26.1252C166.539 26.139 166.189 26.0729 165.866 25.9319C165.542 25.7909 165.255 25.5786 165.025 25.3109C164.532 24.6977 164.281 23.9241 164.321 23.1375C164.284 22.3561 164.525 21.587 165.002 20.9668C165.223 20.6995 165.503 20.4866 165.82 20.3445C166.137 20.2024 166.482 20.1349 166.828 20.1472C167.171 20.1313 167.513 20.1946 167.827 20.3322C168.142 20.4697 168.42 20.6778 168.642 20.9404C169.082 21.4692 169.303 22.1989 169.304 23.1296L169.299 23.4416ZM168.066 22.384C167.899 21.6878 167.495 21.3352 166.855 21.3264C166.714 21.3256 166.575 21.3498 166.443 21.3978C166.316 21.4477 166.198 21.5183 166.094 21.6067C165.989 21.7013 165.899 21.813 165.831 21.9372C165.753 22.0727 165.695 22.2188 165.659 22.3708L168.066 22.384Z" fill="#4570B6" stroke="#4570B6" stroke-width="0.1" stroke-miterlimit="10"/>
<path d="M170.611 20.3032H171.817V20.832C171.992 20.6233 172.209 20.4546 172.454 20.3373C172.699 20.2201 172.966 20.157 173.238 20.1525C173.505 20.1386 173.773 20.1876 174.018 20.2955C174.264 20.4033 174.481 20.5671 174.653 20.7738C174.943 21.1263 175.088 21.7018 175.088 22.5003V25.9692H173.882V22.7964C173.915 22.3994 173.842 22.0006 173.671 21.641C173.583 21.5257 173.467 21.4352 173.335 21.3781C173.202 21.3211 173.057 21.2997 172.913 21.3158C172.746 21.3015 172.577 21.3339 172.427 21.4095C172.277 21.4852 172.151 21.601 172.063 21.7441C171.899 22.0279 171.817 22.5224 171.817 23.2274V25.9586H170.611V20.3032Z" fill="#4570B6" stroke="#4570B6" stroke-width="0.1" stroke-miterlimit="10"/>
<path d="M177.844 21.5247V25.964H176.643V21.5247H176.131V20.3032H176.643V18.2277H177.844V20.3032H178.778V21.5247H177.844Z" fill="#4570B6" stroke="#4570B6" stroke-width="0.1" stroke-miterlimit="10"/>
<path d="M184.425 23.4416H180.7C180.709 23.8473 180.855 24.238 181.115 24.5494C181.233 24.6823 181.379 24.7876 181.542 24.858C181.705 24.9283 181.882 24.962 182.06 24.9566C182.326 24.9678 182.589 24.8855 182.801 24.7239C183.067 24.4767 183.29 24.1862 183.459 23.8646L184.472 24.4807C184.333 24.7463 184.166 24.997 183.976 25.2289C183.813 25.4237 183.625 25.5954 183.416 25.7392C183.218 25.8715 183 25.9706 182.77 26.0327C182.524 26.0956 182.271 26.1267 182.017 26.1252C181.665 26.139 181.314 26.0729 180.99 25.9319C180.666 25.7909 180.379 25.5786 180.148 25.3109C179.655 24.6977 179.404 23.9241 179.444 23.1375C179.408 22.3558 179.65 21.5867 180.127 20.9668C180.356 20.711 180.636 20.5059 180.948 20.3648C181.261 20.2237 181.599 20.1496 181.942 20.1474C182.285 20.1452 182.624 20.2148 182.939 20.3518C183.253 20.4888 183.535 20.6902 183.767 20.943C184.209 21.4718 184.43 22.2016 184.43 23.1323L184.425 23.4416ZM183.192 22.384C183.023 21.6886 182.622 21.3264 181.98 21.3264C181.84 21.3256 181.701 21.3498 181.569 21.3978C181.441 21.4471 181.324 21.5177 181.22 21.6067C181.114 21.7013 181.025 21.813 180.956 21.9372C180.879 22.0727 180.821 22.2188 180.785 22.3708L183.192 22.384Z" fill="#4570B6" stroke="#4570B6" stroke-width="0.1" stroke-miterlimit="10"/>
<path d="M185.737 20.3032H186.938V20.8082C187.102 20.6004 187.3 20.4217 187.524 20.2794C187.715 20.1784 187.928 20.1284 188.144 20.134C188.503 20.1535 188.848 20.2786 189.137 20.4935L188.588 21.6913C188.401 21.5307 188.166 21.4376 187.92 21.4269C187.265 21.4269 186.938 21.9557 186.938 23.0424V25.9772H185.737V20.3032Z" fill="#4570B6" stroke="#4570B6" stroke-width="0.1" stroke-miterlimit="10"/>
<path d="M81.3724 23.2909L78.7379 16.7946H78.4581L76.8109 25.964H78.0965L78.9808 20.5411L81.3512 26.3764L83.7904 20.5491L84.5849 25.964H85.8599L84.379 16.7946H84.1019L81.3724 23.2909Z" fill="#4570B6" stroke="#4570B6" stroke-width="0.1" stroke-miterlimit="10"/>
</g>
<defs>
<clipPath id="clip0_11_551">
<rect width="189.153" height="60" fill="white"/>
</clipPath>
</defs>
</svg>
