<svg width="174" height="51" viewBox="0 0 174 51" fill="none" xmlns="http://www.w3.org/2000/svg">
<g id="Group 11184">
<path id="Vector" d="M27.7077 33.2136V34.8547H28.5717C28.6941 34.8547 28.7553 34.7936 28.7553 34.6679V33.2172H27.7077V33.2136ZM27.7113 30.7537V32.3158H28.7589V30.7573L27.7113 30.7537ZM28.6113 28.3369H27.8625C27.7653 28.3333 27.7185 28.38 27.7185 28.4842V29.8523H28.7625V28.4842C28.7661 28.3836 28.7157 28.3369 28.6113 28.3369ZM31.2068 30.1863V30.9476L33.9714 30.9548C34.137 30.9476 34.2198 30.8614 34.2198 30.6962V30.1899H31.2068V30.1863ZM34.0038 28.4447H31.4371C31.2788 28.4411 31.1996 28.5201 31.2068 28.6745V29.2419L34.2234 29.249V28.6637C34.2198 28.5165 34.1442 28.4447 34.0038 28.4447ZM34.0038 28.4447H31.4371C31.2788 28.4411 31.1996 28.5201 31.2068 28.6745V29.2419L34.2234 29.249V28.6637C34.2198 28.5165 34.1442 28.4447 34.0038 28.4447ZM31.2068 30.1863V30.9476L33.9714 30.9548C34.137 30.9476 34.2198 30.8614 34.2198 30.6962V30.1899H31.2068V30.1863ZM28.6113 28.3369H27.8625C27.7653 28.3333 27.7185 28.38 27.7185 28.4842V29.8523H28.7625V28.4842C28.7661 28.3836 28.7157 28.3369 28.6113 28.3369ZM27.7113 30.7537V32.3158H28.7589V30.7573L27.7113 30.7537ZM27.7077 33.2136V34.8547H28.5717C28.6941 34.8547 28.7553 34.7936 28.7553 34.6679V33.2172H27.7077V33.2136ZM19.3958 31.1954V31.7233H20.8321V31.199H19.3958V31.1954ZM19.3994 29.8057V30.33L20.8357 30.3335V29.8093H19.3994V29.8057ZM19.5074 28.3764C19.4354 28.3836 19.403 28.4195 19.403 28.4842V28.9438L20.8393 28.9474V28.38H19.5074V28.3764ZM27.7077 33.2136V34.8547H28.5717C28.6941 34.8547 28.7553 34.7936 28.7553 34.6679V33.2172H27.7077V33.2136ZM27.7113 30.7537V32.3158H28.7589V30.7573L27.7113 30.7537ZM28.6113 28.3369H27.8625C27.7653 28.3333 27.7185 28.38 27.7185 28.4842V29.8523H28.7625V28.4842C28.7661 28.3836 28.7157 28.3369 28.6113 28.3369ZM31.2068 30.1863V30.9476L33.9714 30.9548C34.137 30.9476 34.2198 30.8614 34.2198 30.6962V30.1899H31.2068V30.1863ZM34.0038 28.4447H31.4371C31.2788 28.4411 31.1996 28.5201 31.2068 28.6745V29.2419L34.2234 29.249V28.6637C34.2198 28.5165 34.1442 28.4447 34.0038 28.4447ZM34.0038 28.4447H31.4371C31.2788 28.4411 31.1996 28.5201 31.2068 28.6745V29.2419L34.2234 29.249V28.6637C34.2198 28.5165 34.1442 28.4447 34.0038 28.4447ZM31.2068 30.1863V30.9476L33.9714 30.9548C34.137 30.9476 34.2198 30.8614 34.2198 30.6962V30.1899H31.2068V30.1863ZM28.6113 28.3369H27.8625C27.7653 28.3333 27.7185 28.38 27.7185 28.4842V29.8523H28.7625V28.4842C28.7661 28.3836 28.7157 28.3369 28.6113 28.3369ZM27.7113 30.7537V32.3158H28.7589V30.7573L27.7113 30.7537ZM27.7077 33.2136V34.8547H28.5717C28.6941 34.8547 28.7553 34.7936 28.7553 34.6679V33.2172H27.7077V33.2136ZM19.5074 28.3764C19.4354 28.3836 19.403 28.4195 19.403 28.4842V28.9438L20.8393 28.9474V28.38H19.5074V28.3764ZM19.3994 29.8057V30.33L20.8357 30.3335V29.8093H19.3994V29.8057ZM19.3958 31.1954V31.7233H20.8321V31.199H19.3958V31.1954ZM19.3958 31.1954V31.7233H20.8321V31.199H19.3958V31.1954ZM19.3994 29.8057V30.33L20.8357 30.3335V29.8093H19.3994V29.8057ZM19.5074 28.3764C19.4354 28.3836 19.403 28.4195 19.403 28.4842V28.9438L20.8393 28.9474V28.38H19.5074V28.3764ZM27.7077 33.2136V34.8547H28.5717C28.6941 34.8547 28.7553 34.7936 28.7553 34.6679V33.2172H27.7077V33.2136ZM27.7113 30.7537V32.3158H28.7589V30.7573L27.7113 30.7537ZM28.6113 28.3369H27.8625C27.7653 28.3333 27.7185 28.38 27.7185 28.4842V29.8523H28.7625V28.4842C28.7661 28.3836 28.7157 28.3369 28.6113 28.3369ZM31.2068 30.1863V30.9476L33.9714 30.9548C34.137 30.9476 34.2198 30.8614 34.2198 30.6962V30.1899H31.2068V30.1863ZM34.0038 28.4447H31.4371C31.2788 28.4411 31.1996 28.5201 31.2068 28.6745V29.2419L34.2234 29.249V28.6637C34.2198 28.5165 34.1442 28.4447 34.0038 28.4447ZM34.0038 28.4447H31.4371C31.2788 28.4411 31.1996 28.5201 31.2068 28.6745V29.2419L34.2234 29.249V28.6637C34.2198 28.5165 34.1442 28.4447 34.0038 28.4447ZM31.2068 30.1863V30.9476L33.9714 30.9548C34.137 30.9476 34.2198 30.8614 34.2198 30.6962V30.1899H31.2068V30.1863ZM28.6113 28.3369H27.8625C27.7653 28.3333 27.7185 28.38 27.7185 28.4842V29.8523H28.7625V28.4842C28.7661 28.3836 28.7157 28.3369 28.6113 28.3369ZM27.7113 30.7537V32.3158H28.7589V30.7573L27.7113 30.7537ZM27.7077 33.2136V34.8547H28.5717C28.6941 34.8547 28.7553 34.7936 28.7553 34.6679V33.2172H27.7077V33.2136ZM19.5074 28.3764C19.4354 28.3836 19.403 28.4195 19.403 28.4842V28.9438L20.8393 28.9474V28.38H19.5074V28.3764ZM19.3994 29.8057V30.33L20.8357 30.3335V29.8093H19.3994V29.8057ZM19.3958 31.1954V31.7233H20.8321V31.199H19.3958V31.1954ZM19.3958 31.1954V31.7233H20.8321V31.199H19.3958V31.1954ZM19.3994 29.8057V30.33L20.8357 30.3335V29.8093H19.3994V29.8057ZM19.5074 28.3764C19.4354 28.3836 19.403 28.4195 19.403 28.4842V28.9438L20.8393 28.9474V28.38H19.5074V28.3764ZM27.7077 33.2136V34.8547H28.5717C28.6941 34.8547 28.7553 34.7936 28.7553 34.6679V33.2172H27.7077V33.2136ZM27.7113 30.7537V32.3158H28.7589V30.7573L27.7113 30.7537ZM28.6113 28.3369H27.8625C27.7653 28.3333 27.7185 28.38 27.7185 28.4842V29.8523H28.7625V28.4842C28.7661 28.3836 28.7157 28.3369 28.6113 28.3369ZM31.2068 30.1863V30.9476L33.9714 30.9548C34.137 30.9476 34.2198 30.8614 34.2198 30.6962V30.1899H31.2068V30.1863ZM34.0038 28.4447H31.4371C31.2788 28.4411 31.1996 28.5201 31.2068 28.6745V29.2419L34.2234 29.249V28.6637C34.2198 28.5165 34.1442 28.4447 34.0038 28.4447ZM34.0038 28.4447H31.4371C31.2788 28.4411 31.1996 28.5201 31.2068 28.6745V29.2419L34.2234 29.249V28.6637C34.2198 28.5165 34.1442 28.4447 34.0038 28.4447ZM31.2068 30.1863V30.9476L33.9714 30.9548C34.137 30.9476 34.2198 30.8614 34.2198 30.6962V30.1899H31.2068V30.1863ZM28.6113 28.3369H27.8625C27.7653 28.3333 27.7185 28.38 27.7185 28.4842V29.8523H28.7625V28.4842C28.7661 28.3836 28.7157 28.3369 28.6113 28.3369ZM27.7113 30.7537V32.3158H28.7589V30.7573L27.7113 30.7537ZM27.7077 33.2136V34.8547H28.5717C28.6941 34.8547 28.7553 34.7936 28.7553 34.6679V33.2172H27.7077V33.2136ZM19.5074 28.3764C19.4354 28.3836 19.403 28.4195 19.403 28.4842V28.9438L20.8393 28.9474V28.38H19.5074V28.3764ZM19.3994 29.8057V30.33L20.8357 30.3335V29.8093H19.3994V29.8057ZM19.3958 31.1954V31.7233H20.8321V31.199H19.3958V31.1954ZM19.3958 31.1954V31.7233H20.8321V31.199H19.3958V31.1954ZM19.3994 29.8057V30.33L20.8357 30.3335V29.8093H19.3994V29.8057ZM19.5074 28.3764C19.4354 28.3836 19.403 28.4195 19.403 28.4842V28.9438L20.8393 28.9474V28.38H19.5074V28.3764ZM27.7077 33.2136V34.8547H28.5717C28.6941 34.8547 28.7553 34.7936 28.7553 34.6679V33.2172H27.7077V33.2136ZM27.7113 30.7537V32.3158H28.7589V30.7573L27.7113 30.7537ZM28.6113 28.3369H27.8625C27.7653 28.3333 27.7185 28.38 27.7185 28.4842V29.8523H28.7625V28.4842C28.7661 28.3836 28.7157 28.3369 28.6113 28.3369ZM31.2068 30.1863V30.9476L33.9714 30.9548C34.137 30.9476 34.2198 30.8614 34.2198 30.6962V30.1899H31.2068V30.1863ZM34.0038 28.4447H31.4371C31.2788 28.4411 31.1996 28.5201 31.2068 28.6745V29.2419L34.2234 29.249V28.6637C34.2198 28.5165 34.1442 28.4447 34.0038 28.4447ZM34.0038 28.4447H31.4371C31.2788 28.4411 31.1996 28.5201 31.2068 28.6745V29.2419L34.2234 29.249V28.6637C34.2198 28.5165 34.1442 28.4447 34.0038 28.4447ZM31.2032 30.9476L33.9714 30.9548C34.137 30.9476 34.2198 30.8614 34.2198 30.6962V30.1899H31.2068L31.2032 30.9476ZM28.6113 28.3369H27.8625C27.7653 28.3333 27.7185 28.38 27.7185 28.4842V29.8523H28.7625V28.4842C28.7661 28.3836 28.7157 28.3369 28.6113 28.3369ZM27.7113 32.3158H28.7589V30.7573L27.7113 30.7537V32.3158ZM27.7041 34.8547H28.5717C28.6941 34.8547 28.7553 34.7936 28.7553 34.6679V33.2172H27.7077L27.7041 34.8547ZM19.5074 28.3764C19.4354 28.3836 19.403 28.4195 19.403 28.4842V28.9438L20.8393 28.9474V28.38H19.5074V28.3764ZM19.3958 30.33H20.8357V29.8093H19.3994L19.3958 30.33ZM19.3958 31.7233H20.8321V31.199H19.3958V31.7233ZM0 0V51H51.1245V0H0ZM13.2833 31.1272L8.45236 31.1164C8.43076 31.1308 8.41996 31.1451 8.41276 31.1667C8.04558 31.5868 7.71079 31.9316 7.41561 32.1973H8.77994V31.4468H9.77349V32.2009H12.4553C12.6173 32.2081 12.7037 32.2907 12.7037 32.4523L12.6965 35.3933C12.6965 35.6914 12.5417 35.9176 12.2322 36.0756C11.7786 36.3019 11.0694 36.3198 10.1011 36.1295L10.0759 35.0019C10.749 35.1994 11.2062 35.2569 11.4438 35.1707C11.6166 35.0989 11.703 35.0019 11.703 34.8762V33.2674C11.7066 33.2172 11.6778 33.1848 11.6202 33.1848H9.76989V36.3414L8.77274 36.3378V33.1812L6.99083 33.1777C6.94043 33.1848 6.91164 33.2136 6.91164 33.2567V36.0469H5.91449L5.92169 33.3464C5.56531 33.5655 5.21253 33.7666 4.85974 33.9497L4.30897 33.0843C4.60416 32.9335 4.90294 32.7826 5.19813 32.6426C5.91449 32.2188 6.58405 31.7089 7.20682 31.1128H4.63296V30.1289H8.02038C8.20757 29.8703 8.40916 29.5687 8.62875 29.2347C8.41636 29.285 8.22197 29.3316 8.05278 29.3819C6.86484 29.662 5.82809 29.7985 4.93174 29.7913L4.71215 28.8109C5.7273 28.7822 6.66325 28.6781 7.52 28.4949C6.81084 28.3154 6.15928 28.1825 5.56171 28.0963L5.7849 27.1231C6.88644 27.2812 8.09237 27.5648 9.39911 27.9635C10.0579 27.7049 10.7274 27.3961 11.4114 27.0334L11.8506 27.9491C11.487 28.1215 11.145 28.2759 10.8282 28.4231C11.3862 28.6242 11.9658 28.8361 12.5633 29.0587L12.2934 30.0139C11.2386 29.6082 10.2559 29.2706 9.34151 29.0049C9.13632 29.0659 8.95633 29.1234 8.80514 29.1808L9.4963 29.6512C9.37751 29.8164 9.27311 29.978 9.17592 30.136L13.2833 30.1432V31.1272ZM13.9277 16.3931L6.25647 16.3787L6.24567 22.1208L13.9169 22.1352V24.0456L4.32337 24.0313L4.34137 14.4647L13.9313 14.4827V16.3931H13.9277ZM18.2006 36.2552C17.9379 35.9607 17.6895 35.7632 17.4591 35.6591C17.7507 35.2676 17.9775 34.8798 18.1358 34.4992C18.161 34.3842 18.2006 34.2765 18.2438 34.1724C17.5635 34.632 16.7679 35.0809 15.8608 35.5154L15.3964 34.5853C15.7852 34.4237 16.1164 34.2837 16.3935 34.158V31.6084H15.7024V30.6244H16.4007V28.4698H15.7096V27.4894H18.0746L18.071 28.4734H17.3583V30.628H17.9919V31.6084H17.3511V33.6122C17.4951 33.508 17.6283 33.4111 17.7435 33.3249L18.2942 34.0323C18.3626 33.7666 18.4274 33.4829 18.4886 33.1777L19.4498 33.4506C19.1762 34.5674 18.7622 35.5011 18.2006 36.2552ZM19.6298 35.8314C19.6514 34.8403 19.6046 34.0036 19.4894 33.3213L20.4073 33.2926C20.4937 34.3591 20.5333 35.2174 20.5261 35.8745L19.6298 35.8314ZM20.6557 33.2997L21.5449 33.1058C21.7789 33.9246 21.948 34.6356 22.0416 35.2317L21.1417 35.3682C21.0301 34.7254 20.8681 34.0359 20.6557 33.2997ZM21.9012 33.1561L22.7112 32.8401C23.064 33.6804 23.28 34.2298 23.3556 34.4884L22.5132 34.7326C22.3044 34.1077 22.0992 33.5798 21.9012 33.1561ZM24.2699 35.3251C24.2159 35.6734 24.0647 35.9607 23.8055 36.1762C23.5104 36.4275 22.8408 36.5137 21.8005 36.4311L21.7033 35.3897C22.2756 35.4975 22.632 35.5513 22.776 35.5513C22.9416 35.5406 23.0568 35.5082 23.1216 35.4436C23.2692 35.282 23.3628 35.0845 23.4024 34.8475C23.4492 34.5279 23.46 33.8312 23.4348 32.7539C23.4348 32.7 23.3952 32.6749 23.3124 32.6749L18.6038 32.6677C18.4922 32.6677 18.4382 32.6031 18.4418 32.4846V32.0896L18.449 27.651C18.449 27.5074 18.521 27.432 18.6614 27.432L24.1295 27.4428V28.3872H21.7933V28.951H23.8919V29.8164H21.7933V30.3407H23.9315V31.2062L21.7897 31.199V31.7269L24.2267 31.7305C24.3563 31.7376 24.4175 31.8166 24.4103 31.9603C24.4211 33.6229 24.3743 34.7433 24.2699 35.3251ZM24.8783 24.0672H22.9632L22.9776 16.4111H21.0589L21.0445 24.06H19.1258L19.1402 16.4039H17.2215L17.2071 24.0528H15.292L15.3064 14.4827L24.8963 14.5006L24.8783 24.0672ZM35.0298 36.5065C34.6158 36.2157 34.2594 35.9428 33.9714 35.6986C32.9707 34.8547 32.2543 33.587 31.8259 31.8921H31.1996V35.2784C31.232 35.2569 31.2752 35.2425 31.322 35.2353C31.6531 35.1384 32.0527 34.9875 32.5171 34.7828L32.9203 35.6375C32.0455 36.0182 30.9332 36.3198 29.5832 36.5353L29.4968 35.7417C29.4501 35.7524 29.4069 35.7596 29.3601 35.7596H27.7005V36.3306H26.7862L26.8006 27.7157C26.8078 27.5253 26.9014 27.432 27.0814 27.432H29.3853C29.5868 27.4356 29.684 27.5325 29.684 27.7336L29.6696 35.44C29.6624 35.4831 29.6552 35.5226 29.648 35.5621C29.864 35.5154 30.0584 35.4831 30.2384 35.4651L30.2528 27.7839C30.26 27.5936 30.3536 27.493 30.5336 27.493L34.893 27.5002C35.0838 27.5074 35.181 27.6079 35.181 27.7911L35.1737 31.5904C35.1737 31.7987 35.073 31.8992 34.875 31.8992H32.7547C32.8771 32.3697 33.0499 32.8509 33.2838 33.3357C33.9642 32.8545 34.4898 32.4235 34.8642 32.0393L35.4509 32.7826C35.0154 33.2243 34.4574 33.6768 33.7806 34.14C34.1982 34.6823 34.8678 35.2174 35.7929 35.7417L35.0298 36.5065ZM35.8541 16.4326L28.1829 16.4183V18.3323L35.8505 18.3466V20.2607L28.1757 20.2463V22.1603L35.8433 22.1747V24.0851L26.2498 24.0708L26.2678 14.5042L35.8577 14.5222V16.4326H35.8541ZM40.3575 36.3557H39.3603L39.3675 32.779C39.0471 33.3608 38.7484 33.8348 38.4676 34.1975L37.5532 33.7774C38.3056 32.9263 38.896 31.9459 39.3243 30.8363H37.888V29.8093H39.3747V28.5919C38.9823 28.6386 38.5828 28.6745 38.1688 28.6996L38.0356 27.6762C39.4647 27.5541 40.5987 27.3638 41.4338 27.1088L41.6246 28.1322C41.2358 28.2471 40.8183 28.3513 40.3683 28.4375V29.8164H41.639V30.8399H40.3683V30.944C40.937 31.5294 41.4842 32.1434 42.0026 32.7862L41.261 33.4577C40.9946 33.0951 40.6959 32.7036 40.3647 32.2871L40.3575 36.3557ZM42.4958 30.2438C43.0537 30.7106 43.6261 31.2816 44.2093 31.9567L43.4677 32.6103C42.9529 32.0249 42.3986 31.4755 41.801 30.9584L42.4958 30.2438ZM42.143 28.4662L42.8665 27.7839C43.6189 28.5093 44.2381 29.1772 44.7276 29.7913L43.9501 30.4269C43.4785 29.8164 42.8737 29.1665 42.143 28.4662ZM45.9156 34.0646V36.406L44.9148 36.4024L44.922 34.2119L41.3222 34.7577L41.1026 33.7558L44.922 33.1669L44.9328 27.3422H45.9264L45.9156 33.0196L46.6391 32.9047L46.7831 33.9138L45.9156 34.0646ZM46.8083 20.2822L43.5649 20.2714L46.8011 24.1067L44.2885 24.0995L41.0522 20.2678H39.1371L39.1299 24.0923H37.2112L37.222 18.3466L44.8932 18.3646V16.4506L37.2256 16.4362V14.5222L46.8191 14.5401L46.8083 20.2822ZM34.2234 28.6637C34.2198 28.5165 34.1442 28.4447 34.0038 28.4447H31.4371C31.2788 28.4411 31.1996 28.5201 31.2068 28.6745V29.2419L34.2234 29.249V28.6637ZM34.2198 30.6962V30.1899H31.2068L31.2032 30.9476L33.9714 30.9548C34.137 30.9476 34.2198 30.8614 34.2198 30.6962ZM28.6113 28.3369H27.8625C27.7653 28.3333 27.7185 28.38 27.7185 28.4842V29.8523H28.7625V28.4842C28.7661 28.3836 28.7157 28.3369 28.6113 28.3369ZM27.7113 32.3158H28.7589V30.7573L27.7113 30.7537V32.3158ZM27.7041 34.8547H28.5717C28.6941 34.8547 28.7553 34.7936 28.7553 34.6679V33.2172H27.7077L27.7041 34.8547ZM19.403 28.4842V28.9438L20.8393 28.9474V28.38H19.5074C19.4354 28.3836 19.403 28.4195 19.403 28.4842ZM19.3958 30.33H20.8357V29.8093H19.3994L19.3958 30.33ZM19.3958 31.7233H20.8321V31.199H19.3958V31.7233ZM19.3958 31.1954V31.7233H20.8321V31.199H19.3958V31.1954ZM19.3994 29.8057V30.33L20.8357 30.3335V29.8093H19.3994V29.8057ZM19.5074 28.3764C19.4354 28.3836 19.403 28.4195 19.403 28.4842V28.9438L20.8393 28.9474V28.38H19.5074V28.3764ZM27.7077 33.2136V34.8547H28.5717C28.6941 34.8547 28.7553 34.7936 28.7553 34.6679V33.2172H27.7077V33.2136ZM27.7113 30.7537V32.3158H28.7589V30.7573L27.7113 30.7537ZM28.6113 28.3369H27.8625C27.7653 28.3333 27.7185 28.38 27.7185 28.4842V29.8523H28.7625V28.4842C28.7661 28.3836 28.7157 28.3369 28.6113 28.3369ZM31.2068 30.1863V30.9476L33.9714 30.9548C34.137 30.9476 34.2198 30.8614 34.2198 30.6962V30.1899H31.2068V30.1863ZM34.0038 28.4447H31.4371C31.2788 28.4411 31.1996 28.5201 31.2068 28.6745V29.2419L34.2234 29.249V28.6637C34.2198 28.5165 34.1442 28.4447 34.0038 28.4447ZM34.0038 28.4447H31.4371C31.2788 28.4411 31.1996 28.5201 31.2068 28.6745V29.2419L34.2234 29.249V28.6637C34.2198 28.5165 34.1442 28.4447 34.0038 28.4447ZM31.2068 30.1863V30.9476L33.9714 30.9548C34.137 30.9476 34.2198 30.8614 34.2198 30.6962V30.1899H31.2068V30.1863ZM28.6113 28.3369H27.8625C27.7653 28.3333 27.7185 28.38 27.7185 28.4842V29.8523H28.7625V28.4842C28.7661 28.3836 28.7157 28.3369 28.6113 28.3369ZM27.7113 30.7537V32.3158H28.7589V30.7573L27.7113 30.7537ZM27.7077 33.2136V34.8547H28.5717C28.6941 34.8547 28.7553 34.7936 28.7553 34.6679V33.2172H27.7077V33.2136ZM19.5074 28.3764C19.4354 28.3836 19.403 28.4195 19.403 28.4842V28.9438L20.8393 28.9474V28.38H19.5074V28.3764ZM19.3994 29.8057V30.33L20.8357 30.3335V29.8093H19.3994V29.8057ZM19.3958 31.1954V31.7233H20.8321V31.199H19.3958V31.1954ZM19.3958 31.1954V31.7233H20.8321V31.199H19.3958V31.1954ZM19.3994 29.8057V30.33L20.8357 30.3335V29.8093H19.3994V29.8057ZM19.5074 28.3764C19.4354 28.3836 19.403 28.4195 19.403 28.4842V28.9438L20.8393 28.9474V28.38H19.5074V28.3764ZM27.7077 33.2136V34.8547H28.5717C28.6941 34.8547 28.7553 34.7936 28.7553 34.6679V33.2172H27.7077V33.2136ZM27.7113 30.7537V32.3158H28.7589V30.7573L27.7113 30.7537ZM28.6113 28.3369H27.8625C27.7653 28.3333 27.7185 28.38 27.7185 28.4842V29.8523H28.7625V28.4842C28.7661 28.3836 28.7157 28.3369 28.6113 28.3369ZM31.2068 30.1863V30.9476L33.9714 30.9548C34.137 30.9476 34.2198 30.8614 34.2198 30.6962V30.1899H31.2068V30.1863ZM34.0038 28.4447H31.4371C31.2788 28.4411 31.1996 28.5201 31.2068 28.6745V29.2419L34.2234 29.249V28.6637C34.2198 28.5165 34.1442 28.4447 34.0038 28.4447ZM34.0038 28.4447H31.4371C31.2788 28.4411 31.1996 28.5201 31.2068 28.6745V29.2419L34.2234 29.249V28.6637C34.2198 28.5165 34.1442 28.4447 34.0038 28.4447ZM31.2068 30.1863V30.9476L33.9714 30.9548C34.137 30.9476 34.2198 30.8614 34.2198 30.6962V30.1899H31.2068V30.1863ZM28.6113 28.3369H27.8625C27.7653 28.3333 27.7185 28.38 27.7185 28.4842V29.8523H28.7625V28.4842C28.7661 28.3836 28.7157 28.3369 28.6113 28.3369ZM27.7113 30.7537V32.3158H28.7589V30.7573L27.7113 30.7537ZM27.7077 33.2136V34.8547H28.5717C28.6941 34.8547 28.7553 34.7936 28.7553 34.6679V33.2172H27.7077V33.2136ZM19.5074 28.3764C19.4354 28.3836 19.403 28.4195 19.403 28.4842V28.9438L20.8393 28.9474V28.38H19.5074V28.3764ZM19.3994 29.8057V30.33L20.8357 30.3335V29.8093H19.3994V29.8057ZM19.3958 31.1954V31.7233H20.8321V31.199H19.3958V31.1954ZM19.3958 31.1954V31.7233H20.8321V31.199H19.3958V31.1954ZM19.3994 29.8057V30.33L20.8357 30.3335V29.8093H19.3994V29.8057ZM19.5074 28.3764C19.4354 28.3836 19.403 28.4195 19.403 28.4842V28.9438L20.8393 28.9474V28.38H19.5074V28.3764ZM27.7077 33.2136V34.8547H28.5717C28.6941 34.8547 28.7553 34.7936 28.7553 34.6679V33.2172H27.7077V33.2136ZM27.7113 30.7537V32.3158H28.7589V30.7573L27.7113 30.7537ZM28.6113 28.3369H27.8625C27.7653 28.3333 27.7185 28.38 27.7185 28.4842V29.8523H28.7625V28.4842C28.7661 28.3836 28.7157 28.3369 28.6113 28.3369ZM31.2068 30.1863V30.9476L33.9714 30.9548C34.137 30.9476 34.2198 30.8614 34.2198 30.6962V30.1899H31.2068V30.1863ZM34.0038 28.4447H31.4371C31.2788 28.4411 31.1996 28.5201 31.2068 28.6745V29.2419L34.2234 29.249V28.6637C34.2198 28.5165 34.1442 28.4447 34.0038 28.4447ZM34.0038 28.4447H31.4371C31.2788 28.4411 31.1996 28.5201 31.2068 28.6745V29.2419L34.2234 29.249V28.6637C34.2198 28.5165 34.1442 28.4447 34.0038 28.4447ZM31.2068 30.1863V30.9476L33.9714 30.9548C34.137 30.9476 34.2198 30.8614 34.2198 30.6962V30.1899H31.2068V30.1863ZM28.6113 28.3369H27.8625C27.7653 28.3333 27.7185 28.38 27.7185 28.4842V29.8523H28.7625V28.4842C28.7661 28.3836 28.7157 28.3369 28.6113 28.3369ZM27.7113 30.7537V32.3158H28.7589V30.7573L27.7113 30.7537ZM27.7077 33.2136V34.8547H28.5717C28.6941 34.8547 28.7553 34.7936 28.7553 34.6679V33.2172H27.7077V33.2136ZM19.5074 28.3764C19.4354 28.3836 19.403 28.4195 19.403 28.4842V28.9438L20.8393 28.9474V28.38H19.5074V28.3764ZM19.3994 29.8057V30.33L20.8357 30.3335V29.8093H19.3994V29.8057ZM19.3958 31.1954V31.7233H20.8321V31.199H19.3958V31.1954ZM19.3958 31.1954V31.7233H20.8321V31.199H19.3958V31.1954ZM19.3994 29.8057V30.33L20.8357 30.3335V29.8093H19.3994V29.8057ZM19.5074 28.3764C19.4354 28.3836 19.403 28.4195 19.403 28.4842V28.9438L20.8393 28.9474V28.38H19.5074V28.3764ZM27.7077 33.2136V34.8547H28.5717C28.6941 34.8547 28.7553 34.7936 28.7553 34.6679V33.2172H27.7077V33.2136ZM27.7113 30.7537V32.3158H28.7589V30.7573L27.7113 30.7537ZM28.6113 28.3369H27.8625C27.7653 28.3333 27.7185 28.38 27.7185 28.4842V29.8523H28.7625V28.4842C28.7661 28.3836 28.7157 28.3369 28.6113 28.3369ZM31.2068 30.1863V30.9476L33.9714 30.9548C34.137 30.9476 34.2198 30.8614 34.2198 30.6962V30.1899H31.2068V30.1863ZM34.0038 28.4447H31.4371C31.2788 28.4411 31.1996 28.5201 31.2068 28.6745V29.2419L34.2234 29.249V28.6637C34.2198 28.5165 34.1442 28.4447 34.0038 28.4447ZM34.0038 28.4447H31.4371C31.2788 28.4411 31.1996 28.5201 31.2068 28.6745V29.2419L34.2234 29.249V28.6637C34.2198 28.5165 34.1442 28.4447 34.0038 28.4447ZM31.2068 30.1863V30.9476L33.9714 30.9548C34.137 30.9476 34.2198 30.8614 34.2198 30.6962V30.1899H31.2068V30.1863ZM28.6113 28.3369H27.8625C27.7653 28.3333 27.7185 28.38 27.7185 28.4842V29.8523H28.7625V28.4842C28.7661 28.3836 28.7157 28.3369 28.6113 28.3369ZM27.7113 30.7537V32.3158H28.7589V30.7573L27.7113 30.7537ZM27.7077 33.2136V34.8547H28.5717C28.6941 34.8547 28.7553 34.7936 28.7553 34.6679V33.2172H27.7077V33.2136ZM19.5074 28.3764C19.4354 28.3836 19.403 28.4195 19.403 28.4842V28.9438L20.8393 28.9474V28.38H19.5074V28.3764ZM19.3994 29.8057V30.33L20.8357 30.3335V29.8093H19.3994V29.8057ZM19.3958 31.1954V31.7233H20.8321V31.199H19.3958V31.1954Z" fill="white"/>
<g id="Group">
<g id="Group_2">
<path id="Vector_2" d="M64.4414 16.4182L63.4802 16.9784C63.3002 16.6696 63.1274 16.4721 62.9654 16.3787C62.7962 16.271 62.5767 16.2171 62.3067 16.2171C61.9755 16.2171 61.7055 16.3105 61.4859 16.4937C61.2699 16.6732 61.1583 16.903 61.1583 17.176C61.1583 17.553 61.4427 17.8583 62.0151 18.0881L62.7998 18.4041C63.437 18.6591 63.905 18.9679 64.2002 19.3342C64.4954 19.7005 64.6429 20.1493 64.6429 20.6772C64.6429 21.3882 64.4018 21.9772 63.9194 22.4404C63.4334 22.9073 62.8322 23.1407 62.1123 23.1407C61.4283 23.1407 60.8667 22.9432 60.4204 22.5446C59.9812 22.146 59.7076 21.5893 59.5996 20.8675L60.8019 20.6054C60.8559 21.0615 60.9531 21.3739 61.0863 21.5463C61.3311 21.8802 61.6875 22.049 62.1555 22.049C62.5263 22.049 62.8322 21.9269 63.077 21.6827C63.3218 21.4385 63.4442 21.1297 63.4442 20.7562C63.4442 20.6054 63.4226 20.4689 63.3794 20.3433C63.3362 20.2176 63.2714 20.1027 63.1814 19.9985C63.0914 19.8944 62.9762 19.7938 62.8322 19.704C62.6882 19.6107 62.5191 19.5245 62.3211 19.4419L61.5615 19.1331C60.4852 18.6842 59.9452 18.0306 59.9452 17.1688C59.9452 16.587 60.172 16.1022 60.622 15.7108C61.0755 15.3158 61.6371 15.1183 62.3103 15.1183C63.2174 15.1183 63.9266 15.5528 64.4342 16.4218L64.4414 16.4182Z" fill="white"/>
<path id="Vector_3" d="M65.8008 23.0006L67.4567 14.6874L70.1566 20.6988L72.9536 14.6874L74.4403 23.0006H73.2236L72.464 18.3323L70.135 23.3561L67.8743 18.3287L67.0283 23.0006H65.8008Z" fill="white"/>
<path id="Vector_4" d="M77.2973 15.2655V23.0006H76.1094V15.2655H77.2973Z" fill="white"/>
<path id="Vector_5" d="M80.3757 15.2655V21.9018H82.6904V22.997H79.1914V15.2619H80.3793L80.3757 15.2655Z" fill="white"/>
<path id="Vector_6" d="M88.1539 16.3644H85.0004V18.221H88.0639V19.3162H85.0004V21.9018H88.1539V22.997H83.8125V15.2619H88.1539V16.3572V16.3644Z" fill="white"/>
<path id="Vector_7" d="M95.5975 19.704L98.0309 23.0006H96.5802L94.3339 19.8333H94.1215V23.0006H92.9336V15.2655H94.3231C95.3635 15.2655 96.1122 15.4594 96.5766 15.8401C97.0878 16.2674 97.3398 16.8312 97.3398 17.5315C97.3398 18.0809 97.1814 18.5513 96.861 18.9427C96.5406 19.3378 96.1194 19.5891 95.5975 19.7005V19.704ZM94.1179 18.8171H94.4959C95.6191 18.8171 96.1806 18.3933 96.1806 17.5494C96.1806 16.7594 95.6334 16.3608 94.5391 16.3608H94.1179V18.8135V18.8171Z" fill="white"/>
<path id="Vector_8" d="M103.349 20.828H99.7925C99.8249 21.2302 99.9545 21.5462 100.188 21.7833C100.422 22.0167 100.725 22.1352 101.092 22.1352C101.376 22.1352 101.614 22.0669 101.801 21.9341C101.985 21.8012 102.194 21.5534 102.428 21.1943L103.396 21.7258C103.245 21.9772 103.09 22.189 102.921 22.3686C102.755 22.5481 102.575 22.6954 102.384 22.8103C102.194 22.9252 101.988 23.0114 101.769 23.0617C101.549 23.1155 101.308 23.1407 101.049 23.1407C100.307 23.1407 99.7133 22.9073 99.2669 22.4404C98.8169 21.97 98.5938 21.3451 98.5938 20.5659C98.5938 19.7866 98.8097 19.169 99.2453 18.6914C99.6845 18.2209 100.264 17.9839 100.988 17.9839C101.711 17.9839 102.294 18.2138 102.719 18.6698C103.14 19.1223 103.353 19.7543 103.353 20.5587V20.8244L103.349 20.828ZM102.172 19.9051C102.014 19.3054 101.628 19.0038 101.016 19.0038C100.876 19.0038 100.746 19.0253 100.624 19.0648C100.502 19.1079 100.39 19.1654 100.289 19.2444C100.188 19.3234 100.102 19.4168 100.034 19.5281C99.9617 19.6394 99.9077 19.7651 99.8717 19.9051H102.176H102.172Z" fill="white"/>
<path id="Vector_9" d="M105.785 19.1762V23.0042H104.633V19.1762H104.227V18.124H104.633V16.2387C104.633 15.6246 104.741 15.1901 104.961 14.9351C105.26 14.5832 105.695 14.4037 106.264 14.4037C106.469 14.4037 106.725 14.4611 107.034 14.5796V15.7324L106.916 15.6713C106.667 15.5492 106.466 15.4846 106.304 15.4846C106.098 15.4846 105.962 15.5564 105.89 15.7C105.818 15.8401 105.782 16.1094 105.782 16.5116V18.1204H107.031V19.1726H105.782L105.785 19.1762Z" fill="white"/>
<path id="Vector_10" d="M107.697 18.124H108.842V18.5585C109.054 18.343 109.238 18.1922 109.404 18.1132C109.569 18.0306 109.767 17.9875 109.994 17.9875C110.296 17.9875 110.613 18.0845 110.941 18.2784L110.415 19.309C110.199 19.1546 109.987 19.0792 109.778 19.0792C109.152 19.0792 108.842 19.5425 108.842 20.4725V23.0006H107.697V18.1204V18.124Z" fill="white"/>
<path id="Vector_11" d="M115.188 18.124H116.34V23.0042H115.188V22.4943C114.717 22.9288 114.209 23.1443 113.666 23.1443C112.978 23.1443 112.413 22.9001 111.963 22.4117C111.516 21.9125 111.297 21.2913 111.297 20.5479C111.297 19.8046 111.52 19.2085 111.963 18.7201C112.406 18.2317 112.964 17.9875 113.633 17.9875C114.209 17.9875 114.727 18.221 115.188 18.6878V18.1204V18.124ZM112.467 20.5479C112.467 21.0148 112.593 21.3954 112.848 21.6899C113.111 21.988 113.439 22.1352 113.838 22.1352C114.263 22.1352 114.605 21.9915 114.868 21.7043C115.131 21.4062 115.26 21.0291 115.26 20.5731C115.26 20.117 115.131 19.74 114.868 19.4419C114.605 19.151 114.267 19.0074 113.849 19.0074C113.457 19.0074 113.126 19.1546 112.863 19.4491C112.6 19.7471 112.47 20.1134 112.47 20.5515L112.467 20.5479Z" fill="white"/>
<path id="Vector_12" d="M121.645 18.3323V19.8297C121.383 19.5173 121.149 19.3019 120.943 19.1834C120.738 19.0648 120.501 19.0038 120.223 19.0038C119.792 19.0038 119.435 19.151 119.147 19.4491C118.863 19.7471 118.719 20.117 118.719 20.5659C118.719 21.0148 118.856 21.399 119.133 21.6935C119.41 21.988 119.766 22.1352 120.198 22.1352C120.472 22.1352 120.717 22.0777 120.925 21.9592C121.131 21.8443 121.368 21.6253 121.645 21.2985V22.7852C121.181 23.0222 120.713 23.1407 120.249 23.1407C119.482 23.1407 118.838 22.8965 118.323 22.4081C117.808 21.9161 117.549 21.3092 117.549 20.5803C117.549 19.8513 117.812 19.2372 118.334 18.7381C118.856 18.2353 119.5 17.9875 120.259 17.9875C120.749 17.9875 121.21 18.1024 121.645 18.3323Z" fill="white"/>
<path id="Vector_13" d="M123.939 19.1762V23.0042H122.794V19.1762H122.305V18.124H122.794V16.3356H123.939V18.124H124.832V19.1762H123.939Z" fill="white"/>
<path id="Vector_14" d="M125.438 16.0951C125.438 15.8976 125.509 15.7288 125.657 15.5851C125.805 15.4415 125.977 15.3697 126.183 15.3697C126.388 15.3697 126.568 15.4415 126.712 15.5851C126.859 15.7252 126.931 15.8976 126.931 16.1022C126.931 16.3069 126.859 16.4793 126.712 16.6229C126.568 16.7666 126.395 16.8384 126.186 16.8384C125.977 16.8384 125.801 16.7666 125.657 16.6229C125.509 16.4793 125.438 16.3033 125.438 16.0987V16.0951ZM126.759 18.124V23.0042H125.614V18.124H126.759Z" fill="white"/>
<path id="Vector_15" d="M128.828 18.124L130.113 20.864L131.391 18.124H132.68L130.102 23.3382L127.543 18.124H128.828Z" fill="white"/>
<path id="Vector_16" d="M137.794 20.828H134.238C134.27 21.2302 134.4 21.5462 134.634 21.7833C134.868 22.0167 135.17 22.1352 135.537 22.1352C135.822 22.1352 136.059 22.0669 136.246 21.9341C136.43 21.8012 136.639 21.5534 136.873 21.1943L137.841 21.7258C137.69 21.9772 137.535 22.189 137.366 22.3686C137.2 22.5481 137.02 22.6954 136.83 22.8103C136.639 22.9252 136.434 23.0114 136.214 23.0617C135.995 23.1155 135.753 23.1407 135.494 23.1407C134.753 23.1407 134.159 22.9073 133.712 22.4404C133.262 21.97 133.039 21.3451 133.039 20.5659C133.039 19.7866 133.255 19.169 133.691 18.6914C134.13 18.2209 134.709 17.9839 135.433 17.9839C136.156 17.9839 136.74 18.2138 137.164 18.6698C137.586 19.1223 137.798 19.7543 137.798 20.5587V20.8244L137.794 20.828ZM136.617 19.9051C136.459 19.3054 136.074 19.0038 135.462 19.0038C135.321 19.0038 135.192 19.0253 135.069 19.0648C134.947 19.1079 134.835 19.1654 134.735 19.2444C134.634 19.3234 134.547 19.4168 134.479 19.5281C134.407 19.6394 134.353 19.7651 134.317 19.9051H136.621H136.617Z" fill="white"/>
<path id="Vector_17" d="M148.3 15.6821V17.0646C147.612 16.5008 146.903 16.2172 146.168 16.2172C145.358 16.2172 144.678 16.5044 144.124 17.0718C143.566 17.6392 143.289 18.3359 143.289 19.1546C143.289 19.9734 143.566 20.6521 144.124 21.2087C144.682 21.7653 145.362 22.0454 146.172 22.0454C146.59 22.0454 146.946 21.9772 147.238 21.8443C147.4 21.7761 147.569 21.6863 147.745 21.575C147.922 21.4601 148.105 21.3236 148.3 21.1656V22.5733C147.619 22.9504 146.906 23.1407 146.158 23.1407C145.034 23.1407 144.073 22.7564 143.278 21.9844C142.486 21.2051 142.09 20.2678 142.09 19.169C142.09 18.185 142.421 17.3052 143.083 16.5332C143.901 15.5887 144.955 15.1147 146.248 15.1147C146.953 15.1147 147.637 15.305 148.296 15.6821H148.3Z" fill="white"/>
<path id="Vector_18" d="M154.097 20.828H150.541C150.573 21.2302 150.703 21.5462 150.937 21.7833C151.171 22.0167 151.473 22.1352 151.84 22.1352C152.124 22.1352 152.362 22.0669 152.549 21.9341C152.733 21.8012 152.942 21.5534 153.176 21.1943L154.144 21.7258C153.993 21.9772 153.838 22.189 153.669 22.3686C153.503 22.5481 153.323 22.6954 153.132 22.8103C152.942 22.9252 152.736 23.0114 152.517 23.0617C152.297 23.1155 152.056 23.1407 151.797 23.1407C151.055 23.1407 150.461 22.9073 150.015 22.4404C149.565 21.97 149.342 21.3451 149.342 20.5659C149.342 19.7866 149.558 19.169 149.993 18.6914C150.433 18.2209 151.012 17.9839 151.736 17.9839C152.459 17.9839 153.042 18.2138 153.467 18.6698C153.888 19.1223 154.101 19.7543 154.101 20.5587V20.8244L154.097 20.828ZM152.92 19.9051C152.762 19.3054 152.376 19.0038 151.764 19.0038C151.624 19.0038 151.494 19.0253 151.372 19.0648C151.25 19.1079 151.138 19.1654 151.037 19.2444C150.937 19.3234 150.85 19.4168 150.782 19.5281C150.71 19.6394 150.656 19.7651 150.62 19.9051H152.924H152.92Z" fill="white"/>
<path id="Vector_19" d="M155.349 18.124H156.501V18.5729C156.901 18.1815 157.354 17.9875 157.855 17.9875C158.431 17.9875 158.881 18.1671 159.205 18.5226C159.482 18.8278 159.622 19.3234 159.622 20.0093V23.0006H158.47V20.275C158.47 19.7938 158.402 19.4635 158.265 19.2767C158.132 19.09 157.891 18.9966 157.542 18.9966C157.16 18.9966 156.89 19.1187 156.732 19.3665C156.577 19.6107 156.498 20.0344 156.498 20.6449V23.0006H155.346V18.1204L155.349 18.124Z" fill="white"/>
<path id="Vector_20" d="M162.255 19.1762V23.0042H161.111V19.1762H160.621V18.124H161.111V16.3356H162.255V18.124H163.148V19.1762H162.255Z" fill="white"/>
<path id="Vector_21" d="M168.539 20.828H164.982C165.014 21.2302 165.144 21.5462 165.378 21.7833C165.612 22.0167 165.914 22.1352 166.281 22.1352C166.566 22.1352 166.803 22.0669 166.991 21.9341C167.174 21.8012 167.383 21.5534 167.617 21.1943L168.585 21.7258C168.434 21.9772 168.279 22.189 168.11 22.3686C167.945 22.5481 167.765 22.6954 167.574 22.8103C167.383 22.9252 167.178 23.0114 166.958 23.0617C166.739 23.1155 166.497 23.1407 166.238 23.1407C165.497 23.1407 164.903 22.9073 164.456 22.4404C164.006 21.97 163.783 21.3451 163.783 20.5659C163.783 19.7866 163.999 19.169 164.435 18.6914C164.874 18.2209 165.454 17.9839 166.177 17.9839C166.901 17.9839 167.484 18.2138 167.909 18.6698C168.33 19.1223 168.542 19.7543 168.542 20.5587V20.8244L168.539 20.828ZM167.361 19.9051C167.203 19.3054 166.818 19.0038 166.206 19.0038C166.065 19.0038 165.936 19.0253 165.813 19.0648C165.691 19.1079 165.58 19.1654 165.479 19.2444C165.378 19.3234 165.292 19.4168 165.223 19.5281C165.151 19.6394 165.097 19.7651 165.061 19.9051H167.365H167.361Z" fill="white"/>
<path id="Vector_22" d="M169.789 18.124H170.934V18.5585C171.146 18.343 171.33 18.1922 171.495 18.1132C171.661 18.0306 171.859 17.9875 172.086 17.9875C172.388 17.9875 172.705 18.0845 173.032 18.2784L172.507 19.309C172.291 19.1546 172.079 19.0792 171.87 19.0792C171.243 19.0792 170.934 19.5425 170.934 20.4725V23.0006H169.789V18.1204V18.124Z" fill="white"/>
</g>
<g id="Group_3">
<path id="Vector_23" d="M62.846 27.1411H63.638V29.0659L64.106 29.0767V26.2182L64.8979 26.2074V29.0659H65.3551V27.1088H66.1471V29.8308H62.8388V29.0659C62.6732 29.443 62.4321 29.8918 62.1801 30.2366V35.6267H61.3881V31.1559C61.2405 31.2816 61.0317 31.5653 60.6681 31.7951L59.959 31.3354C61.3485 30.4341 61.9425 29.3029 62.3169 28.5524L62.8388 28.9402V27.1411H62.846ZM60.121 28.5955C61.0821 27.9168 61.6545 27.1088 62.1477 26.1572L62.7956 26.5127C62.3169 27.4966 61.6797 28.4087 60.7617 29.0767L60.1246 28.5955H60.121ZM64.0772 31.5976C64.0988 33.0017 63.9944 34.4848 62.846 35.4795L62.2521 34.9552C63.1196 34.1795 63.3896 33.3213 63.3356 31.5832L64.0772 31.594V31.5976ZM65.3407 35.0234C66.1219 34.3519 66.7302 33.5798 67.137 32.7934C66.8742 32.0716 66.6762 31.3893 66.5934 30.7824L66.2299 31.4001L65.9059 31.1272H62.5545V30.3623L65.9455 30.373C66.5106 29.4609 66.813 27.6295 66.8418 26.1141L67.551 26.2828C67.551 27.0046 67.4682 27.6762 67.3962 28.24L69.2105 28.2292V28.9725H68.7605C68.6993 30.2904 68.4797 31.5904 67.9578 32.8042C68.2925 33.5152 68.9585 34.3124 69.6569 34.9301L68.9981 35.4939C68.3609 34.8654 67.911 34.3411 67.515 33.6517C67.0542 34.3627 66.5646 35.0629 65.9383 35.5765L65.3335 35.0198L65.3407 35.0234ZM66.561 33.4829L64.9951 34.4345L64.3904 33.9964C64.7035 33.8097 64.7143 33.3895 64.7143 33.1058V31.5868H65.5063V33.2818L66.561 32.621V33.4793V33.4829ZM67.1442 29.3496C67.155 30.0103 67.3206 30.9835 67.5186 31.7556C67.7886 31.0661 67.9578 29.8703 68.0082 28.9725L67.245 28.9833L67.1406 29.3496H67.1442Z" fill="white"/>
<path id="Vector_24" d="M73.8539 29.3388C73.7279 28.7858 73.4255 28.3333 73.0727 27.9886C72.9251 27.9778 72.7487 27.9778 72.6335 27.9778C72.342 28.5632 71.9856 29.1521 71.3088 29.759L70.7148 29.206C71.6436 28.5057 72.1656 27.2991 72.4679 26.211L73.1663 26.3798C73.1123 26.7569 73.0007 27.0406 72.9359 27.2165H75.5566V27.9922L74.0447 27.9814C74.2319 28.2005 74.4622 28.7032 74.6098 29.0192L73.8575 29.3424L73.8539 29.3388ZM79.0304 29.7985C78.0081 30.1648 77.0145 30.4054 75.7438 30.5095C75.7438 30.9692 75.7006 31.3893 75.6286 31.7341H79.5092V32.4882H76.2838C76.8381 33.7738 78.8396 34.5494 79.9772 34.79L79.4768 35.4903C77.4321 34.9768 75.9814 33.8061 75.427 32.5061C75.1138 33.3428 73.8503 34.7577 71.3052 35.5011L70.7328 34.7685C72.0684 34.4632 73.6667 33.7199 74.5126 32.4882H71.1936L71.2044 31.7341L74.8366 31.7233C74.9302 31.3785 74.995 30.9476 74.9734 30.5921C74.0843 30.6855 73.0547 30.6962 72.0108 30.6747L71.6544 29.9206C73.8251 30.0032 76.7805 29.8488 78.512 29.1988L79.034 29.7949L79.0304 29.7985ZM78.1953 27.9455C78.3824 28.1322 78.6524 28.5847 78.7784 28.8756L78.0369 29.2095C77.8605 28.6745 77.5977 28.2364 77.2449 27.9419H76.5357C76.2838 28.5272 75.9526 29.0515 75.3766 29.6046L74.689 29.1234C75.4522 28.5883 76.1398 27.3242 76.3485 26.0458L77.0253 26.369C76.9821 26.703 76.9425 26.9975 76.8777 27.1734H79.8404L79.8296 27.9383H78.1917L78.1953 27.9455Z" fill="white"/>
<path id="Vector_25" d="M84.6427 34.0575L84.0163 34.5171C83.8507 33.763 83.516 33.3464 83.0984 32.9047C82.7852 33.8995 82.2524 34.6643 81.5001 35.4256L80.8125 34.9121C82.22 33.7702 82.5332 32.0752 82.6088 31.102L81.1905 31.1128V30.3264L82.6412 30.3371L82.6736 28.6422H82.4756C82.328 29.0085 82.1408 29.583 81.7988 30.1396L80.9853 29.8775C81.8924 28.6853 81.9572 27.511 82.0076 26.2038L82.76 26.3726C82.7924 26.9472 82.6988 27.4499 82.6448 27.8593H84.3043V28.6458L83.4908 28.635L83.4692 30.3407H84.6787L84.6895 31.1164L83.426 31.1056C83.3828 31.4001 83.3324 31.7556 83.3 32.068C83.8435 32.5061 84.3655 33.0843 84.6247 33.8061L84.6355 31.2636L89.6536 31.2529L89.6644 34.4668C89.6644 34.79 89.5276 35.0845 89.3117 35.2102C88.9265 35.4292 88.4441 35.3897 87.9761 35.379L87.6953 34.5925C88.1453 34.6141 88.3829 34.6356 88.6241 34.6248C88.8113 34.6141 88.9049 34.5315 88.9049 34.3627V32.0285L85.4419 32.0393V35.537H84.6391L84.6499 34.061L84.6427 34.0575ZM90.0496 30.3228C89.5276 30.1648 89.0885 29.9565 88.7861 29.759V30.8578H85.5498V29.6548C85.3087 29.8128 84.9559 30.0642 84.5167 30.2833C84.3295 30.0858 84.1819 29.8739 83.9623 29.6225C84.7147 29.2886 85.3411 28.9007 85.7154 28.4913H84.3583L84.3475 27.7372L86.2986 27.748C86.403 27.6439 86.475 27.4535 86.529 27.3709L84.9415 27.414L84.5671 26.6384C86.8098 26.7102 88.3541 26.5235 89.2937 26.1787L89.7832 26.7353C88.9265 27.0693 88.1021 27.2057 87.321 27.2991L87.1734 27.7372H89.9812L89.992 28.4913L88.5629 28.5021C88.8149 28.9725 89.9092 29.5292 90.514 29.6225L90.046 30.3228H90.0496ZM88.3901 32.3948L88.4009 34.4058H85.917V32.3948H88.3901ZM86.3346 29.6728V30.1648H88.0157V29.6728H86.3346ZM86.7306 28.5021C86.6046 28.6889 86.439 28.8792 86.385 28.933L87.8681 28.9223C87.8249 28.8792 87.7025 28.6601 87.5981 28.5021H86.7306ZM87.6485 33.0951H86.6586V33.6804H87.6593L87.6485 33.0951Z" fill="white"/>
<path id="Vector_26" d="M91.447 31.6946C92.5737 30.9189 93.5564 29.8308 93.9092 28.7858H91.7889L91.7673 28.0317L94.7948 28.0209C94.7012 29.0372 94.3052 29.8739 93.7508 30.5526L93.7616 30.962L93.9812 30.7537C94.4816 31.0661 94.9532 31.5078 95.2952 32.0106C95.0756 32.1973 94.8992 32.3553 94.658 32.5241C94.3772 32.0537 94.0424 31.6443 93.74 31.497V35.5477L92.9877 35.5585V31.4647C92.7681 31.6946 92.3181 32.0285 91.9437 32.2512L91.4434 31.6981L91.447 31.6946ZM93.3549 27.9886C93.0921 27.5397 92.5305 26.7964 92.2893 26.5127L92.8725 25.9992C93.4269 26.5558 93.812 27.1303 94.0316 27.5182L93.3549 27.9886ZM98.5962 33.9749C98.5962 34.1436 98.7618 34.2693 98.8878 34.2693H99.5861C99.7625 34.2478 99.8669 34.1329 99.9101 34.0072C100.015 33.684 100.069 33.3357 100.097 32.8652C100.4 32.9909 100.608 33.0735 100.85 33.1992C100.745 33.7235 100.652 34.2262 100.41 34.6536C100.245 34.8726 100.025 35.0414 99.6797 35.0414H98.6358C98.301 35.0091 97.8834 34.7362 97.8006 34.3412L97.8114 32.0178L97.1419 32.007C97.1311 33.1382 96.6199 34.4022 95.4823 35.0019C95.1368 35.1815 94.784 35.3682 94.3232 35.4616C94.1648 35.2317 94.0712 35.0235 93.884 34.7505C94.3448 34.6248 94.7084 34.5315 95.0108 34.3412C95.9395 33.921 96.3679 32.9263 96.3679 32.007L95.378 32.0178V26.606L99.7409 26.5953V31.9854L98.5926 31.9962V33.9749H98.5962ZM96.1735 27.3602V28.1143L98.9202 28.1251V27.3494L96.1735 27.3602ZM96.1951 29.6513L98.9202 29.6405V28.8756H96.1951V29.6513ZM98.9382 31.2421V30.4269L96.2059 30.4161V31.2421H98.9382Z" fill="white"/>
<path id="Vector_27" d="M102.701 32.7395V28.1035H106.114L106.103 26.1895H106.938L106.917 28.0963L110.318 28.1071V32.7036H109.494V31.9926H106.917L106.938 35.519H106.114L106.103 31.9926H103.547L103.526 32.7467H102.701V32.7395ZM106.107 28.8684H103.529V31.2349H106.117L106.107 28.8684ZM109.476 28.8684H106.942V31.2241H109.487L109.476 28.8684Z" fill="white"/>
<path id="Vector_28" d="M112.199 32.9694C112.88 31.8274 113.452 30.7393 113.704 29.4107L114.435 29.7123C114.183 31.0518 113.736 32.0249 112.923 33.3536L112.203 32.9658L112.199 32.9694ZM115.875 28.6565L115.885 33.763C115.918 33.8779 116.094 34.0754 116.271 34.1077H117.898C118.063 34.0862 118.222 34.0036 118.294 33.8348C118.47 33.271 118.607 32.6929 118.722 32.0034L119.536 32.2979C119.338 33.0412 119.222 33.7199 118.909 34.3376C118.722 34.7146 118.337 34.9121 117.93 34.9121L116.26 34.9014C115.716 34.9014 115.061 34.6069 115.061 33.8456V28.6637L115.875 28.6529V28.6565ZM117.617 29.4537C117.001 28.4913 116.134 27.5469 115.111 26.9292C115.414 26.7497 115.572 26.5845 115.831 26.448C116.803 27.1088 117.689 28.0173 118.315 29.0228L117.617 29.4537ZM121.008 33.1812C120.486 31.9244 119.86 30.7824 118.87 29.7482C119.15 29.601 119.32 29.4861 119.579 29.3819C120.569 30.3874 121.184 31.5581 121.771 32.7934L121.008 33.1812Z" fill="white"/>
</g>
</g>
</g>
</svg>
