<svg width="28" height="28" viewBox="0 0 28 28" fill="none" xmlns="http://www.w3.org/2000/svg">
<path d="M27.7211 6.04165C27.7211 6.04165 27.4477 3.29686 26.6055 2.09164C25.5391 0.505415 24.3469 0.497639 23.8 0.404332C19.8844 -2.43386e-07 14.0055 0 14.0055 0H13.9945C13.9945 0 8.11562 -2.43386e-07 4.2 0.404332C3.65313 0.497639 2.46094 0.505415 1.39453 2.09164C0.552344 3.29686 0.284375 6.04165 0.284375 6.04165C0.284375 6.04165 0 9.26854 0 12.4876V15.5046C0 18.7237 0.278906 21.9506 0.278906 21.9506C0.278906 21.9506 0.552344 24.6954 1.38906 25.9006C2.45547 27.4868 3.85547 27.4324 4.47891 27.6034C6.72109 27.9067 14 28 14 28C14 28 19.8844 27.9844 23.8 27.5879C24.3469 27.4946 25.5391 27.4868 26.6055 25.9006C27.4477 24.6954 27.7211 21.9506 27.7211 21.9506C27.7211 21.9506 28 18.7315 28 15.5046V12.4876C28 9.26854 27.7211 6.04165 27.7211 6.04165ZM11.107 19.1669V7.97778L18.6703 13.5918L11.107 19.1669Z" fill="#DFDFDF"/>
</svg>
