<?xml version="1.0" encoding="UTF-8"?>
<svg id="_图层_1" data-name="图层 1" xmlns="http://www.w3.org/2000/svg" viewBox="0 0 200 200">
  <defs>
    <style>
      .cls-1 {
        fill: #4570b6;
      }

      .cls-1, .cls-2, .cls-3 {
        stroke-linecap: round;
        stroke-linejoin: round;
      }

      .cls-1, .cls-3 {
        stroke: #4570b6;
      }

      .cls-2 {
        stroke: #a6e1d6;
      }

      .cls-2, .cls-3 {
        fill: none;
        stroke-width: 5px;
      }

      .cls-4 {
        fill: #a6e1d6;
        stroke-width: 0px;
      }
    </style>
  </defs>
  <g>
    <circle class="cls-4" cx="121.37" cy="106.27" r="4.45"/>
    <polyline class="cls-2" points="122.07 106.03 144.79 89.77 138.12 83.1 162.3 64.76"/>
    <line class="cls-2" x1="109.17" y1="118.17" x2="112.48" y2="114.86"/>
    <line class="cls-2" x1="120.89" y1="129.3" x2="120.89" y2="118.46"/>
    <line class="cls-2" x1="120.89" y1="94.15" x2="120.89" y2="83.31"/>
    <line class="cls-2" x1="132.69" y1="118.37" x2="129.38" y2="115.06"/>
    <line class="cls-2" x1="143.81" y1="106.65" x2="132.98" y2="106.65"/>
    <line class="cls-2" x1="109.37" y1="94.66" x2="112.68" y2="97.97"/>
    <line class="cls-2" x1="98.24" y1="106.37" x2="109.08" y2="106.37"/>
  </g>
  <path class="cls-1" d="m106.67,74.44c-2.66-.24-5.42-.37-8.32-.37-3.87,0-7.49.22-10.93.64-9.7,1.17-17.75,3.81-24.34,7.07-17.34,8.51-24.66,21.16-25.12,21.95-.32.58-.32,1.27,0,1.85.44.76,7.34,12.7,23.58,21.17,7.36,3.85,16.61,7,28.06,8.09,2.78.27,5.71.41,8.76.41h1c2.93-.03,5.75-.2,8.42-.47-2.36-.85-4.58-1.98-6.61-3.36-7.97-5.37-13.21-14.48-13.21-24.78,0-13.09,8.46-24.21,20.17-28.26h.03c3.03-1.05,6.29-1.61,9.68-1.61.97,0,1.92.05,2.86.14-4.27-1.15-8.93-2.02-14.04-2.46Zm-64.84,30.21c1.53-2.27,6.03-8.39,14.24-14.21-2.36,4.32-3.68,9.27-3.68,14.53,0,4.83,1.12,9.41,3.14,13.49-7.87-5.7-12.21-11.6-13.7-13.82Zm41.92,1.98c0,9.73,4.1,18.53,10.68,24.75-.51-.02-1-.05-1.49-.08-.47-.03-.93-.05-1.39-.1-.73-.05-1.44-.12-2.14-.19-10.48-1.08-19.04-4.02-25.87-7.59-4.58-4.8-7.39-11.29-7.39-18.44,0-7.85,3.39-14.92,8.78-19.82,0,0,.02,0,.02-.02,6.12-3,13.54-5.48,22.41-6.61,3.07-.41,6.31-.64,9.73-.68.42-.02.83-.02,1.25-.02s.83,0,1.24.02c-9.49,6.09-15.83,16.7-15.83,28.78Z"/>
  <path class="cls-3" d="m67.27,108.39c-2.29-8.73,2.92-17.66,11.65-19.96"/>
</svg>