<svg width="179" height="82" viewBox="0 0 179 82" fill="none" xmlns="http://www.w3.org/2000/svg">
<path d="M0.951904 38.8402C0.951904 27.1577 3.1985 17.8152 7.69168 10.8124C12.1062 3.80972 17.919 0.30835 25.08 0.30835C32.241 0.30835 38.0542 3.82655 42.4856 10.8629C46.917 17.8993 49.1242 27.2251 49.1242 38.8402C49.1242 50.4552 46.9171 59.68 42.5193 66.75C38.1216 73.8201 32.2916 77.3551 25.08 77.3551C17.8684 77.3551 12.1062 73.8369 7.69168 66.8005C3.27713 59.7642 0.951904 50.3711 0.951904 38.8402ZM10.2697 38.8402C10.2697 54.3269 11.5668 64.1689 14.1616 68.3661C15.2191 70.3057 16.788 71.9193 18.6977 73.0321C20.6075 74.1448 22.7856 74.7142 24.9961 74.6786C27.4589 74.8053 29.8976 74.1417 31.9559 72.7849C34.0143 71.4281 35.5846 69.4491 36.4369 67.1372C38.6049 62.1209 39.6888 52.6885 39.6888 38.8402C39.6888 23.2973 38.3913 13.4441 35.7964 9.28059C34.707 7.37753 33.1338 5.79591 31.2357 4.69587C29.3375 3.59584 27.1818 3.01648 24.9875 3.01648C22.7931 3.01648 20.6378 3.59584 18.7397 4.69587C16.8415 5.79591 15.2679 7.37753 14.1785 9.28059C11.5724 13.4104 10.2697 23.2636 10.2697 38.8402Z" fill="#D9E9EC"/>
<path d="M84.8623 50.2532H57.2795V46.8865L89.2935 0.291504H92.8826V46.8865H98.0382C99.9435 47.0515 101.863 46.8632 103.7 46.3311C104.873 44.949 105.719 43.3208 106.177 41.5672H108.637L107.339 50.2364H92.8826V59.7642C92.7894 63.0445 92.8962 66.3275 93.2027 69.5949C93.2828 70.128 93.4899 70.634 93.8065 71.0705C94.1232 71.507 94.54 71.8611 95.0221 72.1031C96.8065 72.773 98.7151 73.0487 100.616 72.9111V75.4866H76.134V72.9279H78.0888C79.7416 73.0523 81.3979 72.7388 82.8906 72.0189C83.3415 71.7293 83.7251 71.3466 84.0157 70.8965C84.3063 70.4465 84.4973 69.9395 84.5756 69.4097C84.8438 66.2076 84.9397 62.9934 84.8623 59.781V50.2532ZM84.8623 46.8865V11.3511L60.4137 46.9034L84.8623 46.8865Z" fill="#D9E9EC"/>
<path d="M89.3293 53.4861H84.5893V55.5661H89.3293V53.4861ZM84.3893 55.6461C84.1493 54.9061 83.5493 53.7861 83.0293 52.9261L81.4493 53.5861C81.9693 54.4661 82.5293 55.6461 82.7693 56.3861L84.3893 55.6461ZM74.1893 52.4261C73.4893 53.6861 72.1093 55.2661 70.8293 56.2461C71.1893 56.6461 71.7693 57.5261 72.0493 58.0261C73.5893 56.8061 75.2693 54.9261 76.3293 53.1861L74.1893 52.4261ZM76.6493 60.7461C76.5293 63.2061 76.2693 65.7061 75.5493 67.3061C75.9893 67.5661 76.8093 68.1261 77.1493 68.4061C77.9293 66.5861 78.3493 63.8061 78.5493 61.0261L76.6493 60.7461ZM83.8893 58.8261V56.6461H81.3093V52.7061H79.1093V56.6461H76.4493V57.2261L74.6493 56.6061C73.7093 58.6661 72.1693 60.7461 70.5893 62.0661C71.0093 62.5661 71.6493 63.7661 71.8693 64.2661C72.2893 63.8861 72.6893 63.4461 73.1093 62.9861V71.0861H75.2893V60.0461C75.7093 59.3861 76.1093 58.6861 76.4493 58.0061V58.8261H79.1093V70.7661H81.3093V58.8261H83.8893ZM81.6893 61.1261C82.0693 63.0261 82.4293 65.4861 82.4893 67.0861L84.3293 66.7261C84.2093 65.1061 83.8493 62.7061 83.4293 60.7861L81.6893 61.1261ZM89.6293 59.1061H84.0893V61.2261H85.8293V68.4661C85.8293 68.7261 85.7493 68.7861 85.4893 68.7861C85.2493 68.7861 84.4093 68.7861 83.5893 68.7461C83.8893 69.4461 84.1693 70.4061 84.2293 71.0661C85.5493 71.0661 86.5293 71.0261 87.2293 70.6461C87.9293 70.2661 88.0893 69.6261 88.0893 68.5061V61.2261H89.6293V59.1061ZM96.7893 52.4261C95.9493 53.7261 94.2893 55.3861 92.8693 56.3861C93.2293 56.8061 93.8093 57.6461 94.1093 58.1261C95.7693 56.9061 97.6293 54.9661 98.8893 53.2461L96.7893 52.4261ZM97.1493 56.6861C96.1093 58.6261 94.3693 60.5661 92.6893 61.8261C93.0693 62.3261 93.7093 63.5261 93.9293 64.0461C94.4493 63.6061 94.9693 63.1261 95.4893 62.5661V71.1261H97.7093V59.8861C98.2693 59.0861 98.7893 58.2661 99.2293 57.4661L97.1493 56.6861ZM102.989 64.5261H106.869C106.349 65.2661 105.709 65.9061 104.949 66.4861C104.169 65.9061 103.489 65.2661 102.969 64.5461L102.989 64.5261ZM108.489 62.6661L108.109 62.7461H104.489C104.769 62.3661 105.029 61.9661 105.269 61.5661C106.569 61.5261 107.929 61.4861 109.249 61.4261C109.529 61.9061 109.749 62.3661 109.909 62.7461L111.909 61.6261C111.349 60.3461 110.029 58.5461 108.869 57.2461L107.029 58.2661C107.369 58.6661 107.709 59.0861 108.029 59.5461L104.449 59.6061C106.129 58.1861 107.909 56.4861 109.349 54.9661L107.249 53.8061C106.389 54.9061 105.249 56.1661 104.029 57.3461C103.709 57.0261 103.309 56.6861 102.889 56.3461C103.729 55.5061 104.709 54.4261 105.569 53.3861L103.509 52.3261C102.989 53.2261 102.149 54.3261 101.369 55.2261C100.989 54.9661 100.609 54.7261 100.269 54.5061L98.8493 56.0461C100.049 56.8261 101.449 57.9461 102.369 58.8861C102.089 59.1461 101.789 59.4061 101.509 59.6461C100.369 59.6661 99.3293 59.6661 98.4293 59.6661L98.6293 61.7661L102.629 61.6461C101.509 63.1661 99.8693 64.4861 98.1693 65.3461C98.6293 65.7661 99.3893 66.6461 99.7093 67.1061C100.309 66.7461 100.909 66.3261 101.509 65.8661C101.969 66.5061 102.509 67.0861 103.089 67.6061C101.629 68.3461 99.9493 68.8661 98.1693 69.1661C98.5893 69.6461 99.0893 70.5861 99.3093 71.1861C101.369 70.7261 103.309 70.0261 104.969 69.0461C106.529 70.0261 108.369 70.7261 110.489 71.1461C110.789 70.5261 111.409 69.6061 111.909 69.1061C110.049 68.8261 108.369 68.3261 106.929 67.6461C108.229 66.5061 109.289 65.0861 109.969 63.3261L108.489 62.6661ZM130.709 52.7061C129.669 54.2461 127.649 55.7861 125.969 56.6461C126.589 57.1061 127.269 57.8261 127.669 58.3461C129.569 57.2061 131.589 55.5261 132.989 53.6461L130.709 52.7061ZM131.069 58.2661C129.949 59.8261 127.829 61.4261 126.049 62.3261C126.669 62.7861 127.349 63.5061 127.749 64.0261C129.709 62.8461 131.829 61.1061 133.269 59.2061L131.069 58.2661ZM118.469 56.4061H123.309V57.2261H118.469V56.4061ZM118.469 54.4061H123.309V55.1861H118.469V54.4061ZM126.649 59.3861H121.909V58.5261H125.489V53.0661H116.349V58.5261H119.749V59.3861H115.049V61.2061H126.649V59.3861ZM116.889 66.5661C116.449 67.6261 115.649 68.7061 114.829 69.4461C115.309 69.7061 116.129 70.2461 116.529 70.5861C117.389 69.7261 118.309 68.3861 118.869 67.1061L116.889 66.5661ZM118.489 63.5461H123.189V64.7461H118.489V63.5461ZM125.329 66.2861V62.0261H116.469V66.2861H119.749V69.0061C119.749 69.2061 119.689 69.2661 119.429 69.2661C119.209 69.2861 118.409 69.2861 117.649 69.2461C117.949 69.7261 118.369 70.5061 118.509 71.0661C119.589 71.0661 120.409 71.0461 121.069 70.7261C121.729 70.4461 121.909 69.9861 121.909 69.0661V66.2861H125.329ZM131.489 63.6861C130.389 65.8461 128.289 67.6461 126.009 68.7661C125.529 68.0661 124.869 67.2261 124.309 66.5861L122.549 67.4461C123.269 68.3261 124.149 69.5661 124.529 70.3061L125.869 69.6261C126.329 70.0861 126.749 70.6261 127.009 71.0861C129.849 69.6261 132.309 67.4261 133.829 64.5061L131.489 63.6861ZM150.669 67.3461V67.9261H142.249V67.3461H150.669ZM142.249 69.4861V68.8861H150.669V69.4861H142.249ZM140.069 71.1061H142.249V70.6461H150.669V71.0861H152.949V66.1861H140.069V71.1061ZM148.729 63.0261C148.549 63.3861 148.309 63.7661 148.089 64.0661L148.229 64.1061H144.149L144.549 64.0061C144.469 63.7061 144.249 63.3461 144.029 63.0261H148.729ZM147.329 54.1661V54.7461H145.309V54.1661H147.329ZM145.309 59.0461V57.7461H147.449L146.509 58.2461C146.709 58.4261 146.909 58.6461 147.109 58.8661L145.309 59.0461ZM145.309 55.9261H147.329V56.5461H145.309V55.9261ZM153.569 63.0261V61.5861H147.309V60.7061H145.089V61.5861H140.009C141.589 60.6461 142.809 59.3461 143.469 57.5861V59.2061L142.629 59.2861L143.069 60.9261C144.529 60.7061 146.349 60.4461 148.169 60.1861C148.349 60.4661 148.509 60.7261 148.609 60.9661L149.829 60.3061V61.2661H151.709V54.5461H153.129C152.909 55.2261 152.629 55.9661 152.309 56.7061C153.329 57.4861 153.729 58.0461 153.729 58.4461C153.729 58.7261 153.629 58.9061 153.429 59.0261C153.309 59.0861 153.149 59.1061 152.969 59.1261C152.689 59.1261 152.289 59.1261 151.849 59.0861C152.149 59.5061 152.349 60.2061 152.369 60.6661C152.869 60.7061 153.409 60.7061 153.789 60.6661C154.129 60.6061 154.509 60.4861 154.789 60.3261C155.289 60.0061 155.569 59.4861 155.549 58.7061C155.549 58.0861 155.169 57.2461 154.169 56.4061C154.649 55.4661 155.149 54.4861 155.549 53.4861L154.169 52.8461L153.889 52.9261H149.829V59.8661C149.429 59.1861 148.749 58.3861 148.049 57.7461H149.169V52.9661H143.469V57.0261L141.889 56.7861C141.809 57.0861 141.709 57.3461 141.569 57.6261L140.549 57.7061C141.409 56.7461 142.309 55.6261 143.089 54.5861L141.449 53.9061C141.169 54.4061 140.809 54.9661 140.389 55.5461C140.209 55.4061 140.009 55.2461 139.789 55.0861C140.269 54.4461 140.789 53.6861 141.309 52.9661L139.629 52.3861C139.409 52.9461 139.009 53.6661 138.589 54.3061C138.429 54.2061 138.269 54.1061 138.109 54.0261L137.189 55.3661C137.869 55.8061 138.729 56.4061 139.329 56.9461C139.069 57.2661 138.809 57.5661 138.549 57.8661C137.969 57.9061 137.429 57.9461 136.969 57.9661L137.289 59.6061C138.229 59.4861 139.309 59.3461 140.429 59.2061C139.549 60.0461 138.409 60.6461 137.069 61.0661C137.409 61.3861 137.929 62.1261 138.129 62.4861C138.569 62.3261 138.989 62.1461 139.389 61.9261V63.0261H142.449L141.849 63.1861C142.049 63.4661 142.249 63.8061 142.389 64.1061H137.289V65.6061H155.389V64.1061H150.249C150.529 63.7861 150.829 63.4261 151.169 63.0261H153.569ZM167.109 52.4061V62.0661C167.109 62.3461 166.989 62.4261 166.629 62.4261C166.269 62.4461 165.029 62.4461 163.889 62.4061C164.249 63.0861 164.629 64.1661 164.729 64.8661C166.349 64.8661 167.569 64.7861 168.429 64.4061C169.289 64.0461 169.529 63.3661 169.529 62.1061V52.4061H167.109ZM171.409 55.7461C173.049 57.8461 174.749 60.6461 175.349 62.4861L177.789 61.1861C177.089 59.2661 175.249 56.5861 173.629 54.6061L171.409 55.7461ZM172.329 60.8061C170.709 66.1461 167.089 68.0461 160.469 68.7861C160.969 69.4061 161.489 70.4061 161.729 71.1661C168.949 70.0261 172.929 67.7061 174.889 61.5461L172.329 60.8061ZM162.549 54.9061C161.929 57.0061 160.569 59.7061 158.909 61.2861C159.509 61.6061 160.509 62.2461 161.069 62.6861C162.789 60.9261 164.249 58.0461 165.209 55.5261L162.549 54.9061Z" fill="url(#paint0_linear_9_41)"/>
<path d="M1 80.7986H178" stroke="#4570B6" stroke-width="0.5"/>
<defs>
<linearGradient id="paint0_linear_9_41" x1="57.7404" y1="46.346" x2="192.263" y2="53.5717" gradientUnits="userSpaceOnUse">
<stop stop-color="#4570B6"/>
<stop offset="1" stop-color="#81DBEC"/>
</linearGradient>
</defs>
</svg>
