<svg width="156" height="82" viewBox="0 0 156 82" fill="none" xmlns="http://www.w3.org/2000/svg">
<path d="M0.0344238 38.6912C0.0344238 27.017 2.25123 17.681 6.68504 10.6832C11.1188 3.68543 16.9313 0.186523 24.1222 0.186523C31.3131 0.186523 37.1251 3.70225 41.5589 10.7337C45.9927 17.7651 48.21 27.0843 48.21 38.6912C48.21 50.2196 45.9984 59.5164 41.5758 66.5815C37.1533 73.6466 31.3356 77.1791 24.1222 77.1791C16.9313 77.1791 11.1188 73.6634 6.68504 66.6319C2.25123 59.6005 0.0344238 50.2869 0.0344238 38.6912ZM9.35221 38.6912C9.35221 54.1671 10.6517 64.0022 13.2512 68.1964C14.3133 70.136 15.888 71.7491 17.8041 72.861C19.7203 73.9729 21.9052 74.5412 24.1222 74.5045C26.5877 74.6327 29.0295 73.9701 31.0893 72.6138C33.1491 71.2574 34.7184 69.2788 35.5669 66.9684C37.7388 61.9555 38.8246 52.5298 38.8246 38.6912C38.8246 23.1593 37.5247 13.313 34.9252 9.15245C33.8362 7.25038 32.2618 5.66923 30.3615 4.56945C28.4612 3.46966 26.3028 2.89037 24.1053 2.89037C21.9078 2.89037 19.7494 3.46966 17.8491 4.56945C15.9488 5.66923 14.374 7.25038 13.285 9.15245C10.6629 13.2794 9.35221 23.1256 9.35221 38.6912Z" fill="#D9E9EC"/>
<path d="M67.892 37.3958C69.9199 34.8854 72.4056 32.7795 75.218 31.1886C77.6897 29.8325 80.4652 29.1208 83.2867 29.1196C86.2398 29.0996 89.164 29.6971 91.8709 30.8735C94.5779 32.0499 97.007 33.779 99.0017 35.9492C101.198 38.217 102.916 40.9012 104.053 43.8427C105.189 46.7842 105.722 49.9232 105.619 53.0736C105.685 59.2829 103.4 65.289 99.2213 69.8952C97.2057 72.231 94.6939 74.0904 91.8676 75.3386C89.0414 76.5868 85.9715 77.1925 82.8812 77.1117C77.6349 77.2509 72.5415 75.3437 68.6853 71.7961C64.7901 68.2061 61.978 63.6036 60.5659 58.507C59.0016 53.1168 58.2175 47.5318 58.2367 41.9208C58.2367 30.056 60.8473 20.1256 66.0688 12.1297C71.2903 4.13385 78.2789 0.130309 87.034 0.119094C90.8386 0.0478569 94.5963 0.963769 97.9384 2.77691C101.078 4.56001 102.648 6.56739 102.648 8.79906C102.705 9.22781 102.661 9.66388 102.52 10.0729C102.379 10.482 102.145 10.8528 101.835 11.1562C101.526 11.4595 101.151 11.6871 100.738 11.8211C100.325 11.955 99.8867 11.9916 99.4574 11.9279C98.5046 11.8964 97.5819 11.5884 96.8022 11.0415C96.0226 10.4946 95.4202 9.7328 95.0689 8.84952C94.2279 7.06205 92.9791 5.49521 91.4226 4.27404C89.6363 3.25313 87.5856 2.78469 85.5315 2.9283C82.7946 2.83317 80.0875 3.51873 77.7282 4.90439C75.3689 6.29005 73.4556 8.31819 72.2133 10.7503C69.265 15.9763 67.7906 23.8264 67.7906 34.3006C67.8919 35.3099 67.892 36.3192 67.892 37.3958ZM67.5545 52.283C67.5608 55.9265 68.0835 59.551 69.1073 63.0488C69.926 66.2887 71.6879 69.2151 74.1713 71.4596C76.3771 73.4378 79.2386 74.5341 82.2062 74.538C84.3018 74.6432 86.3867 74.1772 88.2365 73.1903C90.0864 72.2034 91.6313 70.7327 92.7055 68.9364C95.018 65.2188 96.1828 59.634 96.1828 52.2157C96.3122 48.503 95.8681 44.7925 94.8661 41.2143C93.9777 38.5774 92.2914 36.2796 90.0387 34.6371C87.7916 32.9221 85.0365 31.999 82.2062 32.0129C80.2832 32.0099 78.3797 32.3978 76.6122 33.1527C74.8447 33.9075 73.2502 35.0136 71.9261 36.4033C69.034 39.3415 67.5826 44.6347 67.5714 52.283H67.5545Z" fill="#D9E9EC"/>
<path d="M80.3718 54.7299H76.3918V52.3699H74.0718V54.7299H70.1918V56.8699H80.3718V54.7299ZM72.2918 57.1899C71.7918 58.5699 70.8718 59.9899 69.8318 60.8899C70.3518 61.1899 71.2518 61.8899 71.6518 62.2499C72.7318 61.1899 73.8518 59.4699 74.4718 57.7299L72.2918 57.1899ZM79.1318 67.5499C78.6518 66.7499 77.9118 65.8299 77.0318 64.8899C77.5718 63.8299 78.0318 62.6899 78.4118 61.4699L76.0518 60.9299C75.8318 61.6899 75.5718 62.4299 75.2518 63.1099C74.5918 62.4899 73.9118 61.8899 73.2718 61.3699L71.5518 62.7699C72.3918 63.4899 73.2718 64.3499 74.1118 65.2099C73.0518 66.8099 71.7118 68.1299 70.1118 69.0499C70.5918 69.5099 71.4918 70.4499 71.8118 70.9299C73.3118 69.9299 74.6118 68.6099 75.7318 67.0299C76.3518 67.8099 76.8718 68.5299 77.2118 69.1699L79.1318 67.5499ZM82.9718 58.0699H85.2118C84.9718 59.8899 84.6118 61.4899 84.0918 62.8899C83.5718 61.4899 83.1718 59.9299 82.8918 58.3099L82.9718 58.0699ZM88.7318 58.0699V55.8699H83.5718C83.8118 54.7899 84.0318 53.6699 84.1918 52.5299L81.8518 52.2299C81.4718 55.1099 80.8118 57.9099 79.7318 59.9899C79.3118 59.1099 78.4918 57.9899 77.7518 57.1299L75.9718 58.1099C76.7518 59.0899 77.6118 60.4299 77.9118 61.3099L79.4718 60.4299C79.2918 60.7499 79.0918 61.0299 78.8918 61.3099C79.4118 61.7099 80.3318 62.5699 80.6718 63.0099C80.9718 62.6099 81.2318 62.1699 81.4918 61.6899C81.8318 63.0499 82.2518 64.3099 82.7518 65.4499C81.7118 66.9299 80.3118 68.0499 78.4318 68.8899C78.8518 69.3699 79.5518 70.4299 79.7718 70.9499C81.4918 70.0899 82.8518 69.0099 83.9518 67.7099C84.8118 69.0099 85.8918 70.1099 87.2118 70.9299C87.5518 70.2899 88.2918 69.3899 88.7918 68.9299C87.3718 68.1699 86.2518 67.0099 85.3718 65.5899C86.4718 63.5499 87.1518 61.0699 87.5718 58.0699H88.7318ZM96.9518 59.5299V58.2499H100.172V59.5299H96.9518ZM96.9518 55.1299H100.172V56.4099H96.9518V55.1299ZM105.872 56.4099H102.692V55.1299H105.872V56.4099ZM105.872 59.5299H102.692V58.2499H105.872V59.5299ZM110.332 64.8699V62.6899H102.692V61.5099H108.492V53.1499H94.4518V61.5099H100.172V62.6899H92.5118V64.8699H98.4318C96.7518 66.3699 94.2718 67.6899 91.8918 68.3899C92.4318 68.8899 93.1518 69.8099 93.5118 70.3699C95.8918 69.4899 98.3318 67.9299 100.172 66.0899V70.9099H102.692V65.9899C104.552 67.8099 106.992 69.3699 109.312 70.2499C109.652 69.6499 110.372 68.7099 110.912 68.2299C108.632 67.5699 106.192 66.2899 104.432 64.8699H110.332ZM126.072 56.4099L127.432 56.0899C127.372 55.6299 127.172 54.9499 126.952 54.4099C127.752 54.3299 128.552 54.2499 129.312 54.1299L128.772 54.4099C129.332 54.9899 129.892 55.7299 130.332 56.4099H126.072ZM125.152 54.6899C125.332 55.2299 125.512 55.9299 125.552 56.4099H122.752V57.8699H125.512V58.6099H121.192V60.0699H132.252V58.6099H127.712V57.8699H130.372V56.4699C130.612 56.8299 130.792 57.1699 130.932 57.4699L132.572 56.5099C132.212 55.7699 131.452 54.7299 130.632 53.9099C130.992 53.8499 131.312 53.7899 131.632 53.7099L130.152 52.3099C128.532 52.6899 125.892 52.9899 123.452 53.1699L121.992 52.8299C121.592 54.2299 120.912 55.6499 120.072 56.5699C120.532 56.8299 121.412 57.3699 121.812 57.6899C122.432 56.9299 123.052 55.8299 123.532 54.6699C124.352 54.6299 125.212 54.5699 126.092 54.4899L125.152 54.6899ZM121.672 70.7299C122.372 69.8299 122.792 68.4099 123.112 67.2299L121.372 66.5899C121.092 67.7299 120.552 69.0499 119.912 69.8899L121.672 70.7299ZM132.912 69.7699C132.472 68.7899 131.572 67.4099 130.612 66.4099L128.912 67.2099C129.292 67.6499 129.672 68.1499 130.012 68.6699C129.452 68.5499 128.712 68.2699 128.352 68.0299C128.292 68.9699 128.212 69.1299 127.752 69.1299H126.072C125.512 69.1299 125.412 69.0699 125.412 68.6099V66.7099C126.052 67.1899 126.712 67.7499 127.092 68.1699L128.352 66.9299C128.052 66.6299 127.632 66.2699 127.152 65.9299H131.132V63.9699H132.572V62.4099H131.132V60.6299H121.972V61.9899H129.072V62.5899H120.952V62.7299C120.452 62.0899 119.252 60.6499 118.792 60.1899V60.0299H120.632V57.8699H118.792V54.9899C119.552 54.7899 120.292 54.5499 120.932 54.2899L119.432 52.5699C118.132 53.1899 115.972 53.7099 114.052 54.0099C114.292 54.4899 114.592 55.2499 114.672 55.7499C115.292 55.6699 115.932 55.5699 116.572 55.4699V57.8699H114.212V60.0299H116.292C115.712 61.9499 114.752 64.1299 113.772 65.4299C114.132 66.0299 114.652 67.0099 114.852 67.7099C115.472 66.8099 116.052 65.5899 116.572 64.2499V70.9099H118.792V62.7099C119.212 63.4299 119.632 64.2099 119.852 64.7299L120.952 63.1699V63.8499H129.072V64.5499H121.912V65.9299H125.112L124.732 66.2699C124.912 66.3699 125.072 66.4899 125.252 66.6099H123.352V68.6299C123.352 70.3099 123.792 70.8499 125.772 70.8499H128.012C129.332 70.8499 129.892 70.4099 130.112 68.8299C130.552 69.4899 130.892 70.1699 131.092 70.6899L132.912 69.7699ZM139.192 56.5099H151.492V59.2499H153.952V54.2499H146.632V52.2499H144.112V54.2499H136.852V59.2499H139.192V56.5099ZM146.612 65.2299H152.112V62.9899H146.612V60.4899H150.892V58.2299H139.892V60.4899H144.152V67.5499C142.972 66.9699 142.032 66.0099 141.432 64.4099C141.612 63.6099 141.752 62.7699 141.872 61.8699L139.392 61.6299C139.032 65.0499 138.052 67.8099 135.892 69.4099C136.452 69.7699 137.452 70.6099 137.852 71.0299C138.992 70.0499 139.872 68.7699 140.532 67.2299C142.332 70.0899 145.072 70.6899 148.772 70.6899H153.772C153.892 69.9899 154.272 68.8499 154.612 68.2699C153.272 68.3299 149.972 68.3299 148.892 68.3299C148.092 68.3299 147.332 68.2899 146.612 68.2099V65.2299Z" fill="url(#paint0_linear_9_43)"/>
<path d="M0 80.7985H155" stroke="#4570B6" stroke-width="0.5"/>
<defs>
<linearGradient id="paint0_linear_9_43" x1="59.3832" y1="46.1698" x2="166.616" y2="50.7563" gradientUnits="userSpaceOnUse">
<stop stop-color="#4570B6"/>
<stop offset="1" stop-color="#81DBEC"/>
</linearGradient>
</defs>
</svg>
