<svg width="178" height="83" viewBox="0 0 178 83" fill="none" xmlns="http://www.w3.org/2000/svg">
<path d="M0.265137 38.9322C0.265137 27.2739 2.47148 17.9506 6.88395 10.9623C11.2964 3.97401 17.0809 0.479858 24.2372 0.479858C31.3935 0.479858 37.1776 3.99081 41.59 11.0127C46.0025 18.0346 48.2091 27.3411 48.2091 38.9322C48.2091 50.4449 46.0137 59.7291 41.6237 66.7845C37.2336 73.84 31.4383 77.351 24.2372 77.3174C17.0809 77.3174 11.2964 73.8064 6.88395 66.7845C2.47148 59.7627 0.265137 50.4785 0.265137 38.9322ZM9.53808 38.9322C9.53808 54.3871 10.8373 64.2087 13.4355 68.3972C14.4898 70.3329 16.0535 71.9432 17.9576 73.0536C19.8616 74.164 22.0333 74.7323 24.2372 74.6968C26.6926 74.8232 29.1239 74.161 31.1761 72.807C33.2283 71.4529 34.7935 69.4781 35.6432 67.1709C37.7934 62.1649 38.8745 52.752 38.8857 38.9322C38.8857 23.4214 37.5864 13.5885 34.9882 9.4336C33.9044 7.53411 32.3376 5.95511 30.4465 4.85682C28.5554 3.75853 26.4073 3.18002 24.2204 3.18002C22.0334 3.18002 19.8852 3.75853 17.9941 4.85682C16.1029 5.95511 14.5361 7.53411 13.4523 9.4336C10.8541 13.5549 9.54928 23.3878 9.53808 38.9322Z" fill="#D9E9EC"/>
<path d="M59.2118 75.5197V72.0592C65.0044 67.2634 70.3979 62.0049 75.3388 56.3356C80.7026 50.6892 85.4133 44.4568 89.3823 37.7561C92.1505 32.9432 93.6371 27.5004 93.6997 21.9485C93.6997 15.565 92.2384 10.8949 89.3323 7.88796C87.939 6.42472 86.2556 5.26847 84.3898 4.49323C82.524 3.71798 80.5167 3.34085 78.4967 3.38591C76.6454 3.27883 74.7944 3.5971 73.0851 4.31633C71.3758 5.03557 69.8539 6.13668 68.6361 7.53521C66.438 9.95251 65.1957 13.0878 65.1418 16.3546C65.1043 18.0397 65.5001 19.7063 66.2914 21.1947C67.0826 22.683 68.2426 23.9433 69.6606 24.8547C70.7861 25.6275 71.3404 26.2322 71.3404 26.6354C71.3404 27.3073 70.7023 28.2145 69.4424 29.3736C68.6269 30.2786 67.5223 30.8724 66.3176 31.0535C65.1921 31.0535 63.8484 29.9279 62.2693 27.6937C60.5849 25.1197 59.7508 22.082 59.884 19.0087C59.8054 16.3711 60.3772 13.7548 61.5491 11.3905C62.721 9.02625 64.4569 6.98681 66.6035 5.45215C70.7684 2.19784 75.8991 0.424518 81.1847 0.412525C86.6696 0.380345 92.0019 2.21705 96.3036 5.62015C100.783 9.08069 103.023 14.2211 103.023 21.0414C103.029 25.2983 101.991 29.4918 99.9992 33.2541C97.9834 37.1066 93.095 42.9918 85.3339 50.9096C77.5729 58.8274 71.3239 64.7741 66.5867 68.7498H102.116L98.9411 81.2649H96.3036C96.3003 80.5843 96.4139 79.9081 96.6395 79.2659C96.7529 78.7702 96.8038 78.2623 96.7908 77.754C96.7908 76.6285 96.5557 75.9733 96.0686 75.7717C94.7854 75.4814 93.4676 75.374 92.1543 75.4526L59.2118 75.5197Z" fill="#D9E9EC"/>
<path d="M88.6426 53.6067H83.9026V55.6867H88.6426V53.6067ZM83.7026 55.7667C83.4626 55.0267 82.8626 53.9067 82.3426 53.0467L80.7626 53.7067C81.2826 54.5867 81.8426 55.7667 82.0826 56.5067L83.7026 55.7667ZM73.5026 52.5467C72.8026 53.8067 71.4226 55.3867 70.1426 56.3667C70.5026 56.7667 71.0826 57.6467 71.3626 58.1467C72.9026 56.9267 74.5826 55.0467 75.6426 53.3067L73.5026 52.5467ZM75.9626 60.8667C75.8426 63.3267 75.5826 65.8267 74.8626 67.4267C75.3026 67.6867 76.1226 68.2467 76.4626 68.5267C77.2426 66.7067 77.6626 63.9267 77.8626 61.1467L75.9626 60.8667ZM83.2026 58.9467V56.7667H80.6226V52.8267H78.4226V56.7667H75.7626V57.3467L73.9626 56.7267C73.0226 58.7867 71.4826 60.8667 69.9026 62.1867C70.3226 62.6867 70.9626 63.8867 71.1826 64.3867C71.6026 64.0067 72.0026 63.5667 72.4226 63.1067V71.2067H74.6026V60.1667C75.0226 59.5067 75.4226 58.8067 75.7626 58.1267V58.9467H78.4226V70.8867H80.6226V58.9467H83.2026ZM81.0026 61.2467C81.3826 63.1467 81.7426 65.6067 81.8026 67.2067L83.6426 66.8467C83.5226 65.2267 83.1626 62.8267 82.7426 60.9067L81.0026 61.2467ZM88.9426 59.2267H83.4026V61.3467H85.1426V68.5867C85.1426 68.8467 85.0626 68.9067 84.8026 68.9067C84.5626 68.9067 83.7226 68.9067 82.9026 68.8667C83.2026 69.5667 83.4826 70.5267 83.5426 71.1867C84.8626 71.1867 85.8426 71.1467 86.5426 70.7667C87.2426 70.3867 87.4026 69.7467 87.4026 68.6267V61.3467H88.9426V59.2267ZM96.1026 52.5467C95.2626 53.8467 93.6026 55.5067 92.1826 56.5067C92.5426 56.9267 93.1226 57.7667 93.4226 58.2467C95.0826 57.0267 96.9426 55.0867 98.2026 53.3667L96.1026 52.5467ZM96.4626 56.8067C95.4226 58.7467 93.6826 60.6867 92.0026 61.9467C92.3826 62.4467 93.0226 63.6467 93.2426 64.1667C93.7626 63.7267 94.2826 63.2467 94.8026 62.6867V71.2467H97.0226V60.0067C97.5826 59.2067 98.1026 58.3867 98.5426 57.5867L96.4626 56.8067ZM102.303 64.6467H106.183C105.663 65.3867 105.023 66.0267 104.263 66.6067C103.483 66.0267 102.803 65.3867 102.283 64.6667L102.303 64.6467ZM107.803 62.7867L107.423 62.8667H103.803C104.083 62.4867 104.343 62.0867 104.583 61.6867C105.883 61.6467 107.243 61.6067 108.563 61.5467C108.843 62.0267 109.063 62.4867 109.223 62.8667L111.223 61.7467C110.663 60.4667 109.343 58.6667 108.183 57.3667L106.343 58.3867C106.683 58.7867 107.023 59.2067 107.343 59.6667L103.763 59.7267C105.443 58.3067 107.223 56.6067 108.663 55.0867L106.563 53.9267C105.703 55.0267 104.563 56.2867 103.343 57.4667C103.023 57.1467 102.623 56.8067 102.203 56.4667C103.043 55.6267 104.023 54.5467 104.883 53.5067L102.823 52.4467C102.303 53.3467 101.463 54.4467 100.683 55.3467C100.303 55.0867 99.9226 54.8467 99.5826 54.6267L98.1626 56.1667C99.3626 56.9467 100.763 58.0667 101.683 59.0067C101.403 59.2667 101.103 59.5267 100.823 59.7667C99.6826 59.7867 98.6426 59.7867 97.7426 59.7867L97.9426 61.8867L101.943 61.7667C100.823 63.2867 99.1826 64.6067 97.4826 65.4667C97.9426 65.8867 98.7026 66.7667 99.0226 67.2267C99.6226 66.8667 100.223 66.4467 100.823 65.9867C101.283 66.6267 101.823 67.2067 102.403 67.7267C100.943 68.4667 99.2626 68.9867 97.4826 69.2867C97.9026 69.7667 98.4026 70.7067 98.6226 71.3067C100.683 70.8467 102.623 70.1467 104.283 69.1667C105.843 70.1467 107.683 70.8467 109.803 71.2667C110.103 70.6467 110.723 69.7267 111.223 69.2267C109.363 68.9467 107.683 68.4467 106.243 67.7667C107.543 66.6267 108.603 65.2067 109.283 63.4467L107.803 62.7867ZM118.103 52.5467C117.263 53.8467 115.603 55.5067 114.183 56.5067C114.543 56.9267 115.123 57.7667 115.423 58.2467C117.083 57.0267 118.943 55.0867 120.203 53.3667L118.103 52.5467ZM128.483 65.9667C127.983 66.5067 127.343 66.9667 126.623 67.3867C125.923 66.9667 125.303 66.5067 124.803 65.9667H128.483ZM124.283 60.9867H129.303V61.8467H124.283V60.9867ZM124.283 58.7267H129.303V59.5867H124.283V58.7267ZM130.283 64.2867L129.883 64.3667H125.723C125.983 64.0267 126.203 63.6867 126.423 63.3467H131.503V57.2467H122.983C123.183 56.9467 123.383 56.6267 123.563 56.3067H132.623V54.3867H124.543C124.743 53.9467 124.923 53.5067 125.063 53.0667L122.743 52.5267C122.183 54.3267 121.143 56.1267 119.903 57.3467L118.463 56.8067C117.423 58.7467 115.663 60.6867 114.003 61.9467C114.383 62.4467 115.023 63.6467 115.243 64.1667C115.763 63.7267 116.283 63.2467 116.803 62.6867V71.2467H119.023V60.0067C119.463 59.3867 119.883 58.7467 120.243 58.1267C120.723 58.4267 121.243 58.8067 121.543 59.0467C121.743 58.8267 121.963 58.5867 122.163 58.3467V63.3467H123.943C122.963 64.6867 121.443 65.8867 119.883 66.6467C120.363 66.9867 121.143 67.7467 121.523 68.1267C122.083 67.8067 122.643 67.4067 123.183 66.9667C123.583 67.4467 124.043 67.8867 124.543 68.2867C123.143 68.7867 121.543 69.1067 119.863 69.2867C120.263 69.7667 120.683 70.6267 120.883 71.2067C122.943 70.8867 124.903 70.3867 126.603 69.6067C128.103 70.3667 129.843 70.8867 131.863 71.1667C132.143 70.5667 132.723 69.6667 133.203 69.2067C131.583 69.0467 130.123 68.7667 128.823 68.3267C130.043 67.4467 131.023 66.3467 131.703 64.9667L130.283 64.2867ZM142.783 65.1067C142.043 66.5667 140.683 68.0467 139.263 68.9267C139.823 69.2467 140.763 69.9267 141.223 70.3267C142.643 69.2467 144.143 67.5067 145.083 65.7467L142.783 65.1067ZM143.883 61.5267H150.683V62.6867H143.883V61.5267ZM143.883 58.7267H150.683V59.8667H143.883V58.7267ZM153.123 64.4667V56.9467H148.183L148.603 55.5867L148.323 55.5667H154.583V53.4067H137.903V59.3267C137.903 62.4467 137.763 66.9267 136.103 69.9867C136.703 70.2067 137.743 70.7667 138.203 71.1667C139.963 67.8667 140.243 62.7267 140.243 59.3267V55.5667H145.723C145.703 55.9867 145.623 56.4667 145.543 56.9467H141.563V64.4667H146.143V68.8267C146.143 69.0667 146.063 69.1267 145.763 69.1267C145.483 69.1467 144.523 69.1467 143.643 69.1067C143.923 69.7267 144.223 70.5667 144.303 71.2067C145.723 71.2067 146.743 71.2067 147.503 70.8667C148.263 70.5467 148.463 69.9667 148.463 68.8867V64.4667H153.123ZM149.423 66.1467C150.743 67.3467 152.323 69.0467 152.983 70.1867L154.943 68.9067C154.203 67.7667 152.563 66.1667 151.243 65.0067L149.423 66.1467ZM159.783 62.3067C160.243 60.7667 160.603 58.4267 160.683 56.6867L158.983 56.4667C158.843 58.1267 158.483 60.3467 158.003 61.6867L159.783 62.3067ZM165.703 59.6067C165.443 58.6267 164.763 57.0267 164.143 55.8267L163.063 56.2867V52.5267H160.703V71.1867H163.063V57.7267C163.463 58.6867 163.803 59.7067 163.963 60.4267L165.703 59.6067ZM171.223 57.7467H173.243V61.4067H171.163C171.203 60.7867 171.223 60.1867 171.223 59.5867V57.7467ZM176.823 63.6667V61.4067H175.563V55.5467H171.223V52.5267H168.823V55.5467H165.383V57.7467H168.823V59.5667C168.823 60.1667 168.823 60.7667 168.763 61.4067H164.463V63.6667H168.443C167.903 65.8667 166.623 67.9867 163.583 69.4667C164.103 69.9067 164.943 70.7867 165.263 71.3067C168.023 69.7267 169.543 67.6267 170.343 65.3867C171.443 68.0667 173.043 70.0867 175.543 71.2667C175.903 70.5667 176.663 69.5267 177.223 69.0267C174.723 68.0867 173.083 66.1267 172.103 63.6667H176.823Z" fill="url(#paint0_linear_9_39)"/>
<path d="M0 81.7986H178" stroke="#4570B6" stroke-width="0.5"/>
<defs>
<linearGradient id="paint0_linear_9_39" x1="57.0536" y1="46.4666" x2="191.576" y2="53.6923" gradientUnits="userSpaceOnUse">
<stop stop-color="#4570B6"/>
<stop offset="1" stop-color="#81DBEC"/>
</linearGradient>
</defs>
</svg>
