<svg width="156" height="82" viewBox="0 0 156 82" fill="none" xmlns="http://www.w3.org/2000/svg">
<path d="M0 38.5403C0 26.8553 2.21139 17.5107 6.63395 10.5064C11.0565 3.50214 16.854 0 24.0267 0C31.1993 0 36.9968 3.51897 41.4194 10.5569C45.8419 17.5948 48.0533 26.9226 48.0533 38.5403C48.0533 50.0793 45.8532 59.3847 41.4531 66.4563C37.053 73.5279 31.2442 77.0637 24.0267 77.0637C16.854 77.0637 11.0565 73.5447 6.63395 66.5068C2.21139 59.4688 0 50.1467 0 38.5403ZM9.29414 38.5403C9.29414 54.0304 10.5907 63.8746 13.1836 68.0726C14.2445 70.0128 15.8151 71.6264 17.7261 72.7391C19.637 73.8519 21.8156 74.4215 24.0267 74.3866C26.4877 74.5133 28.9247 73.8496 30.9816 72.4924C33.0385 71.1353 34.6075 69.1559 35.4591 66.8435C37.6143 61.8261 38.6974 52.3916 38.7086 38.5403C38.7086 22.9939 37.4066 13.1386 34.8025 8.97421C33.7162 7.07038 32.1456 5.48777 30.2502 4.38697C28.3547 3.28617 26.2017 2.70634 24.0098 2.70634C21.8179 2.70634 19.6649 3.28617 17.7694 4.38697C15.874 5.48777 14.3034 7.07038 13.2171 8.97421C10.613 13.1049 9.30537 22.9603 9.29414 38.5403Z" fill="#D9E9EC"/>
<path d="M83.2767 0H85.7517V59.4857C85.7517 64.3684 85.7517 67.4497 85.9369 68.7293C85.9752 69.302 86.1382 69.8595 86.4145 70.3626C86.6908 70.8657 87.0736 71.3024 87.5363 71.6421C89.0892 72.4529 90.8432 72.7979 92.5875 72.6355H94.7764V75.2116H69.5206V72.6355H71.3727C74.0498 72.6355 75.8008 72.2651 76.609 71.4906C77.3823 70.768 77.8771 69.7965 78.0066 68.7461C78.1413 67.6854 78.2087 64.6042 78.2087 59.4857V19.6153C78.2087 14.5642 78.2085 11.5166 78.0401 10.4559C77.917 9.37694 77.4089 8.3786 76.609 7.64408C75.052 6.65775 73.2035 6.23574 71.3727 6.44863H68.9651V3.87255C75.3969 3.75469 80.246 2.47506 83.2767 0Z" fill="#D9E9EC"/>
<path d="M88.5174 62.3546H80.6174V60.0146H87.3374V57.7346H80.6174V55.1146C82.8174 54.8546 84.9174 54.5146 86.6974 54.0546L84.9774 52.0746C81.6974 52.9346 76.2174 53.4746 71.3974 53.6746C71.6374 54.1946 71.9374 55.1546 71.9974 55.7746C73.9574 55.6946 76.0574 55.5746 78.1374 55.3946V57.7346H71.5974V60.0146H78.1374V62.3546H70.2374V64.6746H78.1374V67.8946C78.1374 68.2946 77.9574 68.4346 77.4974 68.4546C77.0574 68.4546 75.3774 68.4546 73.8974 68.3946C74.2774 69.0346 74.7374 70.0746 74.8774 70.7546C76.9174 70.7746 78.3574 70.7146 79.3174 70.3546C80.2574 69.9746 80.6174 69.3546 80.6174 67.9346V64.6746H88.5174V62.3546ZM110.377 53.1946H105.637V55.2746H110.377V53.1946ZM105.437 55.3546C105.197 54.6146 104.597 53.4946 104.077 52.6346L102.497 53.2946C103.017 54.1746 103.577 55.3546 103.817 56.0946L105.437 55.3546ZM95.2374 52.1346C94.5374 53.3946 93.1574 54.9746 91.8774 55.9546C92.2374 56.3546 92.8174 57.2346 93.0974 57.7346C94.6374 56.5146 96.3174 54.6346 97.3774 52.8946L95.2374 52.1346ZM97.6974 60.4546C97.5774 62.9146 97.3174 65.4146 96.5974 67.0146C97.0374 67.2746 97.8574 67.8346 98.1974 68.1146C98.9774 66.2946 99.3974 63.5146 99.5974 60.7346L97.6974 60.4546ZM104.937 58.5346V56.3546H102.357V52.4146H100.157V56.3546H97.4974V56.9346L95.6974 56.3146C94.7574 58.3746 93.2174 60.4546 91.6374 61.7746C92.0574 62.2746 92.6974 63.4746 92.9174 63.9746C93.3374 63.5946 93.7374 63.1546 94.1574 62.6946V70.7946H96.3374V59.7546C96.7574 59.0946 97.1574 58.3946 97.4974 57.7146V58.5346H100.157V70.4746H102.357V58.5346H104.937ZM102.737 60.8346C103.117 62.7346 103.477 65.1946 103.537 66.7946L105.377 66.4346C105.257 64.8146 104.897 62.4146 104.477 60.4946L102.737 60.8346ZM110.677 58.8146H105.137V60.9346H106.877V68.1746C106.877 68.4346 106.797 68.4946 106.537 68.4946C106.297 68.4946 105.457 68.4946 104.637 68.4546C104.937 69.1546 105.217 70.1146 105.277 70.7746C106.597 70.7746 107.577 70.7346 108.277 70.3546C108.977 69.9746 109.137 69.3346 109.137 68.2146V60.9346H110.677V58.8146ZM120.697 58.6946V59.3546H117.557V58.6946H120.697ZM117.557 61.3146V60.6346H120.697V61.3146H117.557ZM122.837 62.6746V57.3146H115.397V70.7746H117.557V62.6746H122.837ZM126.177 61.3146V60.6346H129.397V61.3146H126.177ZM129.397 58.6946V59.3546H126.177V58.6946H129.397ZM121.717 67.7346V66.8746H125.037V67.7346H121.717ZM125.037 64.7546V65.5946H121.717V64.7546H125.037ZM131.617 57.3146H124.037V62.6746H129.397V68.3546C129.397 68.6546 129.297 68.7346 128.997 68.7346C128.737 68.7346 127.937 68.7546 127.137 68.7146V63.4346H119.577V69.7346H121.717V69.0346H126.937C127.157 69.5946 127.397 70.2746 127.437 70.7746C128.917 70.7946 129.977 70.7546 130.677 70.3946C131.397 70.0746 131.617 69.4946 131.617 68.3946V57.3146ZM126.797 53.5146C126.977 53.1746 127.137 52.8346 127.277 52.4946L124.997 51.9546C124.577 53.0146 123.897 54.0746 123.077 54.9346V53.5146H118.637C118.797 53.1946 118.957 52.8746 119.097 52.5546L116.877 51.9546C116.277 53.4346 115.157 54.9546 113.937 55.9546C114.477 56.2146 115.417 56.8546 115.877 57.2346C116.417 56.7146 116.977 56.0546 117.517 55.3146H117.737C118.117 55.9346 118.457 56.6746 118.617 57.1946L120.697 56.6146C120.557 56.2546 120.317 55.7746 120.037 55.3146H122.697C122.457 55.5346 122.217 55.7346 121.977 55.9146C122.537 56.1346 123.557 56.6946 124.077 57.0346C124.597 56.5746 125.137 55.9946 125.637 55.3146H126.677C127.157 55.9546 127.657 56.6946 127.857 57.2346L129.997 56.6346C129.817 56.2546 129.497 55.7746 129.137 55.3146H132.437V53.5146H126.797ZM150.957 55.4746H148.097V54.3146H150.957V55.4746ZM153.177 52.8946H145.997V56.8946H153.177V52.8946ZM142.557 55.4746H139.757V54.3146H142.557V55.4746ZM144.777 52.8946H137.637V56.8946H144.777V52.8946ZM140.677 63.3546V62.2746H144.057V63.3546H140.677ZM140.677 59.5146H144.057V60.5746H140.677V59.5146ZM150.097 60.5746H146.497V59.5146H150.097V60.5746ZM150.097 63.3546H146.497V62.2746H150.097V63.3546ZM154.277 66.2146H146.497V65.1746H152.537V57.6746H138.357V65.1746H144.057V66.2146H136.457V68.2546H144.057V70.7946H146.497V68.2546H154.277V66.2146Z" fill="url(#paint0_linear_9_38)"/>
<path d="M0 80.7985H154" stroke="#4570B6" stroke-width="0.5"/>
<defs>
<linearGradient id="paint0_linear_9_38" x1="59.3488" y1="46.0545" x2="166.581" y2="50.641" gradientUnits="userSpaceOnUse">
<stop stop-color="#4570B6"/>
<stop offset="1" stop-color="#81DBEC"/>
</linearGradient>
</defs>
</svg>
