<svg width="118" height="83" viewBox="0 0 118 83" fill="none" xmlns="http://www.w3.org/2000/svg">
<path d="M0.732666 39.2436C0.732666 27.5586 2.94699 18.214 7.37584 11.2098C11.8047 4.20551 17.6107 0.703369 24.7935 0.703369C31.9595 0.703369 37.7762 4.22234 42.1939 11.2603C46.6115 18.2982 48.8543 27.626 48.8543 39.2436C48.8543 50.8613 46.6452 60.088 42.2276 67.1596C37.81 74.2312 32.01 77.767 24.7935 77.767C17.5769 77.767 11.8103 74.2481 7.37584 67.2101C2.94137 60.1722 0.732666 50.7771 0.732666 39.2436ZM10.04 39.2436C10.04 54.7338 11.338 64.5779 13.9346 68.776C14.9956 70.7174 16.5685 72.332 18.4825 73.445C20.3965 74.5579 22.579 75.1268 24.7935 75.0899C27.2557 75.2156 29.6934 74.5513 31.7503 73.1941C33.8073 71.8368 35.3756 69.858 36.2254 67.5469C38.3948 62.5294 39.4794 53.095 39.4794 39.2436C39.4794 23.6973 38.181 13.842 35.5844 9.67758C34.4966 7.77374 32.924 6.19114 31.0258 5.09034C29.1277 3.98954 26.9717 3.40971 24.7766 3.40971C22.5816 3.40971 20.4255 3.98954 18.5274 5.09034C16.6292 6.19114 15.0562 7.77374 13.9684 9.67758C11.3381 13.8083 10.0288 23.6636 10.04 39.2436Z" fill="#D9E9EC"/>
<path d="M68.4128 37.3916H65.5465L67.2326 2.55554H96.3349C95.536 4.91382 94.357 7.12612 92.8445 9.10519C91.7146 9.81689 90.3811 10.1365 89.0508 10.0144H69.374L68.4634 33.1992C70.037 30.9745 72.1207 29.158 74.5406 27.9015C76.9605 26.6449 79.6463 25.9847 82.3738 25.976C85.2294 25.9615 88.0524 26.5809 90.6389 27.7893C93.2254 28.9977 95.5111 30.7651 97.3298 32.9634C101.508 37.7651 103.718 43.9645 103.518 50.3225C103.784 57.5365 101.287 64.5807 96.537 70.022C91.8833 75.1854 85.3696 77.7671 76.9952 77.7671C71.1613 77.7671 66.6199 76.4145 63.3713 73.7094C60.1171 70.9986 58.4818 68.5572 58.4818 66.3515C58.4718 65.4157 58.8216 64.5117 59.4594 63.826C60.2027 63.1323 61.1821 62.7465 62.1994 62.7465C63.2167 62.7465 64.196 63.1323 64.9393 63.826C65.9077 65.2041 66.6637 66.7194 67.182 68.3215C67.8159 70.4453 69.1546 72.2906 70.9778 73.5543C72.8009 74.818 75 75.4249 77.2142 75.2752C79.5376 75.3011 81.8359 74.7938 83.9319 73.7925C86.0279 72.7912 87.8661 71.3227 89.3039 69.5001C92.575 65.6836 94.2104 59.4427 94.2104 50.7772C94.2104 42.9872 92.8673 37.4421 90.1807 34.142C89.0804 32.6388 87.6457 31.4109 85.9897 30.5548C84.3338 29.6988 82.5015 29.2381 80.6371 29.2088C75.4439 29.2088 71.3691 31.9364 68.4128 37.3916Z" fill="#D9E9EC"/>
<path d="M79.5896 52.8181C78.9296 54.0581 77.5296 55.6381 76.2896 56.6181C76.6696 57.0381 77.2096 57.9581 77.4696 58.4381C78.9896 57.2181 80.6496 55.3381 81.7296 53.5981L79.5896 52.8181ZM90.8096 58.6781H92.4296C92.2496 60.3781 92.0096 61.9181 91.6296 63.2981C91.2496 61.8981 90.9896 60.3581 90.7896 58.7581L90.8096 58.6781ZM95.1896 58.6781V56.6781H91.3896C91.6496 55.5381 91.8696 54.3581 92.0496 53.1581L89.8896 52.8381C89.6096 55.1381 89.1496 57.3781 88.3696 59.1581V54.4981H86.7896V58.0781H85.8496V52.8181H84.1296V58.0781H83.2696V54.4981H81.7496V57.6581L79.9096 56.9981C79.0096 58.9581 77.5496 60.9981 76.1496 62.3381C76.5296 62.8181 77.1896 63.9981 77.4096 64.4981C77.7896 64.0981 78.1896 63.6581 78.5696 63.1781V71.4981H80.7296V60.0581C81.1096 59.4381 81.4496 58.8181 81.7496 58.1981V59.9981H87.9696C87.7896 60.3181 87.5896 60.6181 87.3896 60.8981C87.5296 61.0381 87.7096 61.2181 87.8896 61.4381H81.5496V63.4381H82.6096V64.0381C82.6096 65.5181 82.4696 67.7381 80.9096 69.3981C81.3296 69.7381 81.9696 70.4781 82.2496 70.9381C84.2496 68.8981 84.5096 65.8981 84.5096 64.1181V63.4381H85.5096V67.1781L84.8496 67.3581L85.3896 69.3581C86.5696 68.8981 87.8696 68.3981 89.1496 67.8781L88.8496 66.1581C88.3896 66.2981 87.9096 66.4581 87.4696 66.5981V63.4381H88.4296V62.1381C88.6096 62.3781 88.7496 62.5981 88.8496 62.7581C89.0896 62.4381 89.3096 62.0981 89.5096 61.7381C89.7696 63.3181 90.1096 64.7981 90.5496 66.1181C89.7696 67.5981 88.7096 68.7981 87.2696 69.7181C87.6696 70.1181 88.3096 71.0381 88.5096 71.4981C89.7496 70.6381 90.7496 69.6181 91.5496 68.4381C92.1896 69.6381 93.0096 70.6581 94.0296 71.4181C94.3496 70.8381 95.0496 69.9581 95.5296 69.5381C94.3496 68.7981 93.4296 67.6581 92.7296 66.2381C93.6296 64.1381 94.1496 61.6181 94.4696 58.6781H95.1896ZM103.31 56.6981C103.83 56.1581 104.29 55.6181 104.71 55.0981C105.29 55.5581 105.91 56.1381 106.49 56.6981H103.31ZM106.51 60.6581V61.3781H102.41V60.6581H106.51ZM102.35 63.5581C102.37 63.2981 102.39 63.0381 102.39 62.7981H106.51V63.5581H102.35ZM106.89 67.7181V69.1381H103.51V67.7181H106.89ZM107.05 58.2981V57.2581C107.47 57.6981 107.83 58.0981 108.11 58.4181L109.63 56.6581C108.67 55.6181 106.85 54.1381 105.45 53.0581H103.33C102.39 54.6981 100.69 56.5581 98.3096 57.9381C98.7696 58.2981 99.4496 59.0981 99.7296 59.6181C99.9496 59.4781 100.17 59.3181 100.39 59.1781V61.8981C100.39 64.1581 100.17 67.3581 98.4096 69.6581C98.8296 69.8981 99.6696 70.6781 99.9696 71.0781C100.65 70.2381 101.15 69.2181 101.51 68.1581V71.4581H103.51V70.8381H106.89V71.3981H108.95V66.0181H102.05C102.11 65.7581 102.15 65.4781 102.19 65.2181H108.65V58.9981H100.65C101.31 58.5181 101.89 58.0381 102.43 57.5381V58.2981H107.05ZM112.07 55.2381H109.83V66.4981H112.07V55.2381ZM114.19 53.2181V68.6381C114.19 68.9781 114.05 69.0981 113.69 69.0981C113.31 69.0981 112.15 69.0981 110.95 69.0581C111.29 69.7381 111.63 70.8181 111.73 71.4781C113.45 71.4781 114.69 71.3981 115.45 70.9981C116.25 70.6381 116.51 69.9781 116.51 68.6581V53.2181H114.19Z" fill="url(#paint0_linear_9_42)"/>
<path d="M1 81.7986H118" stroke="#4570B6" stroke-width="0.5"/>
<defs>
<linearGradient id="paint0_linear_9_42" x1="70.9817" y1="46.7579" x2="123.424" y2="47.8534" gradientUnits="userSpaceOnUse">
<stop stop-color="#4570B6"/>
<stop offset="1" stop-color="#81DBEC"/>
</linearGradient>
</defs>
</svg>
