<svg width="178" height="83" viewBox="0 0 178 83" fill="none" xmlns="http://www.w3.org/2000/svg">
<path d="M0.0825195 39.3841C0.0825195 27.7057 2.28991 18.3664 6.70489 11.3661C11.1199 4.36587 16.9077 0.865723 24.068 0.865723C31.2283 0.865723 37.0157 4.3827 41.4307 11.4166C45.8456 18.4506 48.0534 27.773 48.0534 39.3841C48.0534 50.9166 45.8569 60.2166 41.4643 67.2842C37.0718 74.3518 31.2731 77.8856 24.068 77.8856C16.9077 77.8856 11.1199 74.3686 6.70489 67.3347C2.28991 60.3008 0.0825195 50.9839 0.0825195 39.3841ZM9.36073 39.3841C9.36073 54.8654 10.6603 64.704 13.26 68.8997C14.3148 70.8387 15.8799 72.4517 17.785 73.564C19.6901 74.6764 21.8629 75.2456 24.068 75.21C26.5248 75.3367 28.9575 74.6733 31.0108 73.317C33.0642 71.9606 34.6302 69.9824 35.4805 67.6713C37.6319 62.6566 38.7136 53.2276 38.7248 39.3841C38.7248 23.8466 37.4248 13.9969 34.8251 9.83483C33.7407 7.93208 32.173 6.35038 30.2808 5.2502C28.3886 4.15002 26.2393 3.57052 24.0512 3.57052C21.863 3.57052 19.7137 4.15002 17.8215 5.2502C15.9293 6.35038 14.3612 7.93208 13.2768 9.83483C10.6659 13.9632 9.36073 23.8129 9.36073 39.3841Z" fill="#D9E9EC"/>
<path d="M81.0647 35.295C82.1893 34.964 83.3551 34.794 84.5273 34.7902C86.9703 34.6733 89.4073 35.1192 91.6511 36.0936C93.8949 37.068 95.8856 38.5449 97.4696 40.4106C100.704 44.3932 102.382 49.4166 102.193 54.5458C102.301 57.687 101.734 60.8149 100.53 63.7179C99.3271 66.621 97.515 69.2316 95.2172 71.3733C90.3102 75.8409 83.8426 78.1928 77.2156 77.9193C72.7502 78.0424 68.3441 76.8738 64.5252 74.5538C60.9731 72.3101 59.2027 69.9037 59.2139 67.3347C59.1897 66.3182 59.5432 65.3288 60.2058 64.5582C60.5337 64.1839 60.9403 63.8871 61.3966 63.6893C61.853 63.4914 62.3474 63.3973 62.8444 63.4139C64.7773 63.4139 66.2064 64.7264 66.9796 67.3852C68.0217 70.7507 69.5175 72.9551 71.4504 73.9311C73.1789 74.8956 75.1191 75.416 77.0978 75.4456C79.2682 75.511 81.4253 75.0814 83.4054 74.1893C85.3855 73.2972 87.137 71.966 88.5275 70.2964C91.4521 66.8636 92.9146 61.546 92.9146 54.3438C92.9146 48.5551 91.8278 44.2473 89.6539 41.4202C88.7987 40.1399 87.648 39.0845 86.2992 38.3435C84.9505 37.6025 83.4432 37.1975 81.9051 37.1629C79.3335 37.1629 76.5096 38.7278 73.4 41.8577C73.1969 42.1109 72.9416 42.3171 72.6515 42.4623C72.3614 42.6075 72.0434 42.6883 71.7192 42.6991C70.5931 42.6991 70.0384 42.1102 70.0384 40.9154C70.0616 40.59 70.1511 40.2729 70.3014 39.9835C70.4517 39.6941 70.6597 39.4385 70.9124 39.2326C72.4565 37.9139 74.0912 36.7049 75.8039 35.6147C81.6868 31.6322 85.5807 28.3115 87.4856 25.6528C89.4715 22.7017 90.4718 19.1963 90.3429 15.6404C90.5508 12.3877 89.4835 9.18215 87.3678 6.70491C86.3539 5.64701 85.1263 4.81767 83.7669 4.27216C82.4076 3.72664 80.9479 3.4775 79.4848 3.54134C76.2269 3.51105 73.066 4.65141 70.5764 6.75539C69.3392 7.73059 68.3447 8.97967 67.671 10.4045C66.9973 11.8293 66.6627 13.3912 66.6935 14.9673C66.7257 16.3696 67.0401 17.751 67.6177 19.029C68.1953 20.307 69.0242 21.4552 70.0552 22.4051C70.2596 22.5765 70.3966 22.8151 70.4418 23.0782C70.4418 23.5662 69.8201 24.0878 68.5931 24.6431C67.7564 25.0879 66.8444 25.3732 65.9036 25.4845C64.7606 25.4845 63.6682 24.6095 62.6597 22.8594C61.6704 21.1159 61.1544 19.1432 61.1636 17.138C61.2101 14.9909 61.7123 12.8782 62.6367 10.9402C63.5612 9.00214 64.887 7.28312 66.5257 5.89719C70.473 2.39887 75.6312 0.586792 80.8965 0.848918C87.0483 0.848918 91.6875 2.26244 94.8474 5.08948C96.2744 6.2195 97.437 7.64878 98.253 9.27683C99.069 10.9049 99.5187 12.6921 99.5707 14.5129C99.5414 17.6473 98.4041 20.6699 96.3604 23.0445C93.1725 26.5671 89.5124 29.6307 85.4851 32.1482L81.0647 35.295Z" fill="#D9E9EC"/>
<path d="M88.5997 63.1786H80.6997V60.8386H87.4197V58.5586H80.6997V55.9386C82.8997 55.6786 84.9997 55.3386 86.7797 54.8786L85.0597 52.8986C81.7797 53.7586 76.2997 54.2986 71.4797 54.4986C71.7197 55.0186 72.0197 55.9786 72.0797 56.5986C74.0397 56.5186 76.1397 56.3986 78.2197 56.2186V58.5586H71.6797V60.8386H78.2197V63.1786H70.3197V65.4986H78.2197V68.7186C78.2197 69.1186 78.0397 69.2586 77.5797 69.2786C77.1397 69.2786 75.4597 69.2786 73.9797 69.2186C74.3597 69.8586 74.8197 70.8986 74.9597 71.5786C76.9997 71.5986 78.4397 71.5386 79.3997 71.1786C80.3397 70.7986 80.6997 70.1786 80.6997 68.7586V65.4986H88.5997V63.1786ZM110.46 54.0186H105.72V56.0986H110.46V54.0186ZM105.52 56.1786C105.28 55.4386 104.68 54.3186 104.16 53.4586L102.58 54.1186C103.1 54.9986 103.66 56.1786 103.9 56.9186L105.52 56.1786ZM95.3197 52.9586C94.6197 54.2186 93.2397 55.7986 91.9597 56.7786C92.3197 57.1786 92.8997 58.0586 93.1797 58.5586C94.7197 57.3386 96.3997 55.4586 97.4597 53.7186L95.3197 52.9586ZM97.7797 61.2786C97.6597 63.7386 97.3997 66.2386 96.6797 67.8386C97.1197 68.0986 97.9397 68.6586 98.2797 68.9386C99.0597 67.1186 99.4797 64.3386 99.6797 61.5586L97.7797 61.2786ZM105.02 59.3586V57.1786H102.44V53.2386H100.24V57.1786H97.5797V57.7586L95.7797 57.1386C94.8397 59.1986 93.2997 61.2786 91.7197 62.5986C92.1397 63.0986 92.7797 64.2986 92.9997 64.7986C93.4197 64.4186 93.8197 63.9786 94.2397 63.5186V71.6186H96.4197V60.5786C96.8397 59.9186 97.2397 59.2186 97.5797 58.5386V59.3586H100.24V71.2986H102.44V59.3586H105.02ZM102.82 61.6586C103.2 63.5586 103.56 66.0186 103.62 67.6186L105.46 67.2586C105.34 65.6386 104.98 63.2386 104.56 61.3186L102.82 61.6586ZM110.76 59.6386H105.22V61.7586H106.96V68.9986C106.96 69.2586 106.88 69.3186 106.62 69.3186C106.38 69.3186 105.54 69.3186 104.72 69.2786C105.02 69.9786 105.3 70.9386 105.36 71.5986C106.68 71.5986 107.66 71.5586 108.36 71.1786C109.06 70.7986 109.22 70.1586 109.22 69.0386V61.7586H110.76V59.6386ZM118.78 56.2786V59.7986H116.94V56.2786H118.78ZM116.94 65.6386V61.8786H118.78V65.6386H116.94ZM121 54.1586H114.74V69.5186H116.94V67.7586H121V54.1586ZM122.18 66.0786C123.08 67.0986 124.1 68.5186 124.46 69.4386L126.5 68.2586C126.08 67.2786 125 65.9586 124.08 64.9786L122.18 66.0786ZM132.76 60.9586V58.8786H128.2V57.1186H132.2V55.0386H128.2V52.9386H125.86V55.0386H122.02V57.1186H125.86V58.8786H121.34V60.9586H128.4V62.6786H121.38V64.7386H128.4V69.0386C128.4 69.3186 128.3 69.3986 127.98 69.3986C127.68 69.3986 126.56 69.3986 125.6 69.3586C125.92 69.9986 126.28 70.9386 126.36 71.5986C127.84 71.5986 128.92 71.5386 129.7 71.1986C130.48 70.8386 130.7 70.2386 130.7 69.0986V64.7386H132.62V62.6786H130.7V60.9586H132.76ZM142.5 55.4186V56.4786H139.42V55.4186H142.5ZM139.42 59.2186V58.0786H142.5V59.2186H139.42ZM144.72 60.9186V53.6986H137.06V71.6186H139.42V60.9186H144.72ZM148.36 59.2586V58.0786H151.54V59.2586H148.36ZM151.54 55.4186V56.4786H148.36V55.4186H151.54ZM143.74 68.0186V66.7786H147.04V68.0186H143.74ZM147.04 63.8786V65.0786H143.74V63.8786H147.04ZM153.94 53.6986H146.1V60.9586H151.54V68.7786C151.54 69.0986 151.42 69.2186 151.06 69.2186C150.8 69.2386 150.06 69.2386 149.28 69.2186V62.1186H141.58V70.7786H143.74V69.7586H148.7C148.94 70.3786 149.16 71.1186 149.22 71.6186C150.94 71.6186 152.1 71.5586 152.88 71.1586C153.68 70.7786 153.94 70.0786 153.94 68.7986V53.6986ZM176.48 53.7386H166.26V55.9386H176.48V53.7386ZM173.54 61.9786H169.18V59.5586H173.54V61.9786ZM175.86 57.4786H167V64.0586H175.86V57.4786ZM173.84 68.8786C174.32 67.8986 174.86 66.2986 175.4 64.8386L173.06 64.3386C172.82 65.5986 172.32 67.3186 171.84 68.4186L173.84 68.8786ZM170.48 68.2786C170.4 67.2186 169.98 65.6586 169.48 64.4586L167.46 64.9386C167.9 66.1586 168.3 67.7986 168.36 68.8186L170.48 68.2786ZM166.72 66.9786C166.28 66.4786 164.52 64.3586 163.72 63.5386C163.76 63.2786 163.78 63.0386 163.8 62.7786H166.42V60.5786H163.94V60.2386V57.4786H166.18V55.3386H161.82C161.98 54.6986 162.14 54.0386 162.26 53.3786L160.02 52.9586C159.64 55.2186 158.9 57.5586 157.88 58.9986C158.42 59.2186 159.44 59.7586 159.9 60.0986C160.34 59.3786 160.76 58.4786 161.14 57.4786H161.68V60.1986V60.5786H158.28V62.7786H161.56C161.28 65.2186 160.46 67.9186 158.12 69.9386C158.56 70.2386 159.44 71.1186 159.76 71.6186C161.54 70.0986 162.58 68.0786 163.18 66.0186C163.92 66.9986 164.74 68.1586 165.2 68.9586L166.72 66.9786ZM165.34 69.0386V71.2386H176.76V69.0386H165.34Z" fill="url(#paint0_linear_9_40)"/>
<path d="M0 81.7985H176" stroke="#4570B6" stroke-width="0.5"/>
<defs>
<linearGradient id="paint0_linear_9_40" x1="56.8707" y1="46.8785" x2="191.393" y2="54.1041" gradientUnits="userSpaceOnUse">
<stop stop-color="#4570B6"/>
<stop offset="1" stop-color="#81DBEC"/>
</linearGradient>
</defs>
</svg>
